G04 #@! TF.GenerationSoftware,KiCad,Pcbnew,(5.1.5)-2*
G04 #@! TF.CreationDate,2020-03-10T09:13:17+00:00*
G04 #@! TF.ProjectId,loco,6c6f636f-2e6b-4696-9361-645f70636258,rev?*
G04 #@! TF.SameCoordinates,Original*
G04 #@! TF.FileFunction,Soldermask,Top*
G04 #@! TF.FilePolarity,Negative*
%FSLAX46Y46*%
G04 Gerber Fmt 4.6, Leading zero omitted, Abs format (unit mm)*
G04 Created by KiCad (PCBNEW (5.1.5)-2) date 2020-03-10 09:13:17*
%MOMM*%
%LPD*%
G04 APERTURE LIST*
%ADD10C,0.050000*%
%ADD11C,0.100000*%
G04 APERTURE END LIST*
D10*
X114046000Y-90805000D02*
X114046000Y-79502000D01*
X133350000Y-90805000D02*
X114046000Y-90805000D01*
X133350000Y-79502000D02*
X133350000Y-90805000D01*
X114046000Y-79502000D02*
X133350000Y-79502000D01*
D11*
G36*
X116621000Y-90186000D02*
G01*
X114519000Y-90186000D01*
X114519000Y-88884000D01*
X116621000Y-88884000D01*
X116621000Y-90186000D01*
G37*
G36*
X132741000Y-90086000D02*
G01*
X126339000Y-90086000D01*
X126339000Y-88534000D01*
X132741000Y-88534000D01*
X132741000Y-90086000D01*
G37*
G36*
X120379928Y-89186764D02*
G01*
X120401009Y-89193160D01*
X120420445Y-89203548D01*
X120437477Y-89217525D01*
X120442376Y-89223495D01*
X120459703Y-89240822D01*
X120480078Y-89254436D01*
X120498092Y-89261898D01*
X120485760Y-89280355D01*
X120476382Y-89302994D01*
X120471000Y-89339279D01*
X120471000Y-89766860D01*
X120468236Y-89794928D01*
X120461840Y-89816009D01*
X120451452Y-89835445D01*
X120437476Y-89852476D01*
X120420445Y-89866452D01*
X120401009Y-89876840D01*
X120379928Y-89883236D01*
X120351860Y-89886000D01*
X118538140Y-89886000D01*
X118510072Y-89883236D01*
X118488991Y-89876840D01*
X118469555Y-89866452D01*
X118452524Y-89852476D01*
X118438548Y-89835445D01*
X118428160Y-89816009D01*
X118421764Y-89794928D01*
X118419000Y-89766860D01*
X118419000Y-89303140D01*
X118421764Y-89275072D01*
X118428160Y-89253991D01*
X118438548Y-89234555D01*
X118452524Y-89217524D01*
X118469555Y-89203548D01*
X118488991Y-89193160D01*
X118510072Y-89186764D01*
X118538140Y-89184000D01*
X120351860Y-89184000D01*
X120379928Y-89186764D01*
G37*
G36*
X125329928Y-89186764D02*
G01*
X125351009Y-89193160D01*
X125370445Y-89203548D01*
X125387476Y-89217524D01*
X125401452Y-89234555D01*
X125411840Y-89253991D01*
X125418236Y-89275072D01*
X125421000Y-89303140D01*
X125421000Y-89766860D01*
X125418236Y-89794928D01*
X125411840Y-89816009D01*
X125401452Y-89835445D01*
X125387476Y-89852476D01*
X125370445Y-89866452D01*
X125351009Y-89876840D01*
X125329928Y-89883236D01*
X125301860Y-89886000D01*
X123488140Y-89886000D01*
X123460072Y-89883236D01*
X123438991Y-89876840D01*
X123419555Y-89866452D01*
X123402524Y-89852476D01*
X123388548Y-89835445D01*
X123378160Y-89816009D01*
X123371764Y-89794928D01*
X123369000Y-89766860D01*
X123369000Y-89339279D01*
X123366598Y-89314893D01*
X123359485Y-89291444D01*
X123347934Y-89269833D01*
X123341442Y-89261922D01*
X123348834Y-89259680D01*
X123370445Y-89248129D01*
X123397624Y-89223495D01*
X123402523Y-89217525D01*
X123419555Y-89203548D01*
X123438991Y-89193160D01*
X123460072Y-89186764D01*
X123488140Y-89184000D01*
X125301860Y-89184000D01*
X125329928Y-89186764D01*
G37*
G36*
X123045877Y-85932696D02*
G01*
X123076062Y-85941853D01*
X123103883Y-85956723D01*
X123128266Y-85976734D01*
X123147376Y-86000020D01*
X123164703Y-86017347D01*
X123185077Y-86030960D01*
X123203092Y-86038423D01*
X123190759Y-86056881D01*
X123181382Y-86079519D01*
X123176000Y-86115804D01*
X123176000Y-86604196D01*
X123178402Y-86628582D01*
X123185515Y-86652031D01*
X123197066Y-86673642D01*
X123212611Y-86692584D01*
X123231553Y-86708129D01*
X123253164Y-86719680D01*
X123276613Y-86726793D01*
X123300999Y-86729195D01*
X123325385Y-86726793D01*
X123348834Y-86719680D01*
X123370445Y-86708129D01*
X123397624Y-86683495D01*
X123402523Y-86677525D01*
X123419555Y-86663548D01*
X123438991Y-86653160D01*
X123460072Y-86646764D01*
X123488140Y-86644000D01*
X125301860Y-86644000D01*
X125329928Y-86646764D01*
X125351009Y-86653160D01*
X125370445Y-86663548D01*
X125387476Y-86677524D01*
X125401452Y-86694555D01*
X125411840Y-86713991D01*
X125418236Y-86735072D01*
X125421000Y-86763140D01*
X125421000Y-87226860D01*
X125418236Y-87254928D01*
X125411840Y-87276009D01*
X125401452Y-87295445D01*
X125387476Y-87312476D01*
X125370445Y-87326452D01*
X125351009Y-87336840D01*
X125329928Y-87343236D01*
X125301860Y-87346000D01*
X123488140Y-87346000D01*
X123460072Y-87343236D01*
X123438991Y-87336840D01*
X123419555Y-87326452D01*
X123402523Y-87312475D01*
X123397624Y-87306505D01*
X123380297Y-87289178D01*
X123359922Y-87275564D01*
X123337284Y-87266187D01*
X123313250Y-87261407D01*
X123288746Y-87261407D01*
X123264713Y-87266188D01*
X123242074Y-87275565D01*
X123221700Y-87289179D01*
X123204373Y-87306506D01*
X123190759Y-87326881D01*
X123181382Y-87349519D01*
X123176000Y-87385804D01*
X123176000Y-87874196D01*
X123178402Y-87898582D01*
X123185515Y-87922031D01*
X123197066Y-87943642D01*
X123212611Y-87962584D01*
X123231553Y-87978129D01*
X123253164Y-87989680D01*
X123276613Y-87996793D01*
X123300999Y-87999195D01*
X123325385Y-87996793D01*
X123348834Y-87989680D01*
X123370445Y-87978129D01*
X123397624Y-87953495D01*
X123402523Y-87947525D01*
X123419555Y-87933548D01*
X123438991Y-87923160D01*
X123460072Y-87916764D01*
X123488140Y-87914000D01*
X125301860Y-87914000D01*
X125329928Y-87916764D01*
X125351009Y-87923160D01*
X125370445Y-87933548D01*
X125387476Y-87947524D01*
X125401452Y-87964555D01*
X125411840Y-87983991D01*
X125418236Y-88005072D01*
X125421000Y-88033140D01*
X125421000Y-88496860D01*
X125418236Y-88524928D01*
X125411840Y-88546009D01*
X125401452Y-88565445D01*
X125387476Y-88582476D01*
X125370445Y-88596452D01*
X125351009Y-88606840D01*
X125329928Y-88613236D01*
X125301860Y-88616000D01*
X123488140Y-88616000D01*
X123460072Y-88613236D01*
X123438991Y-88606840D01*
X123419555Y-88596452D01*
X123402523Y-88582475D01*
X123397624Y-88576505D01*
X123380297Y-88559178D01*
X123359922Y-88545564D01*
X123337284Y-88536187D01*
X123313250Y-88531407D01*
X123288746Y-88531407D01*
X123264713Y-88536188D01*
X123242074Y-88545565D01*
X123221700Y-88559179D01*
X123204373Y-88576506D01*
X123190759Y-88596881D01*
X123181382Y-88619519D01*
X123176000Y-88655804D01*
X123176000Y-89144196D01*
X123178402Y-89168582D01*
X123185515Y-89192031D01*
X123197066Y-89213642D01*
X123203558Y-89221553D01*
X123196166Y-89223795D01*
X123174555Y-89235346D01*
X123147376Y-89259980D01*
X123128266Y-89283266D01*
X123103883Y-89303277D01*
X123076062Y-89318147D01*
X123045877Y-89327304D01*
X123008348Y-89331000D01*
X120831652Y-89331000D01*
X120794123Y-89327304D01*
X120763938Y-89318147D01*
X120736117Y-89303277D01*
X120711734Y-89283266D01*
X120692624Y-89259980D01*
X120675297Y-89242653D01*
X120654923Y-89229040D01*
X120636908Y-89221577D01*
X120649241Y-89203119D01*
X120658618Y-89180481D01*
X120664000Y-89144196D01*
X120664000Y-88655804D01*
X120661598Y-88631418D01*
X120654485Y-88607969D01*
X120642934Y-88586358D01*
X120627389Y-88567416D01*
X120608447Y-88551871D01*
X120586836Y-88540320D01*
X120563387Y-88533207D01*
X120539001Y-88530805D01*
X120514615Y-88533207D01*
X120491166Y-88540320D01*
X120469555Y-88551871D01*
X120442376Y-88576505D01*
X120437477Y-88582475D01*
X120420445Y-88596452D01*
X120401009Y-88606840D01*
X120379928Y-88613236D01*
X120351860Y-88616000D01*
X118538140Y-88616000D01*
X118510072Y-88613236D01*
X118488991Y-88606840D01*
X118469555Y-88596452D01*
X118452524Y-88582476D01*
X118438548Y-88565445D01*
X118428160Y-88546009D01*
X118421764Y-88524928D01*
X118419000Y-88496860D01*
X118419000Y-88033140D01*
X118421764Y-88005072D01*
X118428160Y-87983991D01*
X118438548Y-87964555D01*
X118452524Y-87947524D01*
X118469555Y-87933548D01*
X118488991Y-87923160D01*
X118510072Y-87916764D01*
X118538140Y-87914000D01*
X120351860Y-87914000D01*
X120379928Y-87916764D01*
X120401009Y-87923160D01*
X120420445Y-87933548D01*
X120437477Y-87947525D01*
X120442376Y-87953495D01*
X120459703Y-87970822D01*
X120480078Y-87984436D01*
X120502716Y-87993813D01*
X120526750Y-87998593D01*
X120551254Y-87998593D01*
X120575287Y-87993812D01*
X120597926Y-87984435D01*
X120618300Y-87970821D01*
X120635627Y-87953494D01*
X120649241Y-87933119D01*
X120658618Y-87910481D01*
X120664000Y-87874196D01*
X120664000Y-87385804D01*
X120661598Y-87361418D01*
X120654485Y-87337969D01*
X120642934Y-87316358D01*
X120627389Y-87297416D01*
X120608447Y-87281871D01*
X120586836Y-87270320D01*
X120563387Y-87263207D01*
X120539001Y-87260805D01*
X120514615Y-87263207D01*
X120491166Y-87270320D01*
X120469555Y-87281871D01*
X120442376Y-87306505D01*
X120437477Y-87312475D01*
X120420445Y-87326452D01*
X120401009Y-87336840D01*
X120379928Y-87343236D01*
X120351860Y-87346000D01*
X118538140Y-87346000D01*
X118510072Y-87343236D01*
X118488991Y-87336840D01*
X118469555Y-87326452D01*
X118452524Y-87312476D01*
X118438548Y-87295445D01*
X118428160Y-87276009D01*
X118421764Y-87254928D01*
X118419000Y-87226860D01*
X118419000Y-86763140D01*
X118421764Y-86735072D01*
X118428160Y-86713991D01*
X118438548Y-86694555D01*
X118452524Y-86677524D01*
X118469555Y-86663548D01*
X118488991Y-86653160D01*
X118510072Y-86646764D01*
X118538140Y-86644000D01*
X120351860Y-86644000D01*
X120379928Y-86646764D01*
X120401009Y-86653160D01*
X120420445Y-86663548D01*
X120437477Y-86677525D01*
X120442376Y-86683495D01*
X120459703Y-86700822D01*
X120480078Y-86714436D01*
X120502716Y-86723813D01*
X120526750Y-86728593D01*
X120551254Y-86728593D01*
X120575287Y-86723812D01*
X120597926Y-86714435D01*
X120618300Y-86700821D01*
X120635627Y-86683494D01*
X120649241Y-86663119D01*
X120658618Y-86640481D01*
X120664000Y-86604196D01*
X120664000Y-86115804D01*
X120661598Y-86091418D01*
X120654485Y-86067969D01*
X120642934Y-86046358D01*
X120636442Y-86038447D01*
X120643834Y-86036205D01*
X120665445Y-86024654D01*
X120692624Y-86000020D01*
X120711734Y-85976734D01*
X120736117Y-85956723D01*
X120763938Y-85941853D01*
X120794123Y-85932696D01*
X120831652Y-85929000D01*
X123008348Y-85929000D01*
X123045877Y-85932696D01*
G37*
G36*
X116621000Y-88281000D02*
G01*
X114519000Y-88281000D01*
X114519000Y-86979000D01*
X116621000Y-86979000D01*
X116621000Y-88281000D01*
G37*
G36*
X116621000Y-86376000D02*
G01*
X114519000Y-86376000D01*
X114519000Y-85074000D01*
X116621000Y-85074000D01*
X116621000Y-86376000D01*
G37*
G36*
X125329928Y-85376764D02*
G01*
X125351009Y-85383160D01*
X125370445Y-85393548D01*
X125387476Y-85407524D01*
X125401452Y-85424555D01*
X125411840Y-85443991D01*
X125418236Y-85465072D01*
X125421000Y-85493140D01*
X125421000Y-85956860D01*
X125418236Y-85984928D01*
X125411840Y-86006009D01*
X125401452Y-86025445D01*
X125387476Y-86042476D01*
X125370445Y-86056452D01*
X125351009Y-86066840D01*
X125329928Y-86073236D01*
X125301860Y-86076000D01*
X123488140Y-86076000D01*
X123460072Y-86073236D01*
X123438991Y-86066840D01*
X123419555Y-86056452D01*
X123402523Y-86042475D01*
X123397624Y-86036505D01*
X123380297Y-86019178D01*
X123359922Y-86005564D01*
X123341908Y-85998102D01*
X123354240Y-85979645D01*
X123363618Y-85957006D01*
X123369000Y-85920721D01*
X123369000Y-85493140D01*
X123371764Y-85465072D01*
X123378160Y-85443991D01*
X123388548Y-85424555D01*
X123402524Y-85407524D01*
X123419555Y-85393548D01*
X123438991Y-85383160D01*
X123460072Y-85376764D01*
X123488140Y-85374000D01*
X125301860Y-85374000D01*
X125329928Y-85376764D01*
G37*
G36*
X120379928Y-85376764D02*
G01*
X120401009Y-85383160D01*
X120420445Y-85393548D01*
X120437476Y-85407524D01*
X120451452Y-85424555D01*
X120461840Y-85443991D01*
X120468236Y-85465072D01*
X120471000Y-85493140D01*
X120471000Y-85920721D01*
X120473402Y-85945107D01*
X120480515Y-85968556D01*
X120492066Y-85990167D01*
X120498558Y-85998078D01*
X120491166Y-86000320D01*
X120469555Y-86011871D01*
X120442376Y-86036505D01*
X120437477Y-86042475D01*
X120420445Y-86056452D01*
X120401009Y-86066840D01*
X120379928Y-86073236D01*
X120351860Y-86076000D01*
X118538140Y-86076000D01*
X118510072Y-86073236D01*
X118488991Y-86066840D01*
X118469555Y-86056452D01*
X118452524Y-86042476D01*
X118438548Y-86025445D01*
X118428160Y-86006009D01*
X118421764Y-85984928D01*
X118419000Y-85956860D01*
X118419000Y-85493140D01*
X118421764Y-85465072D01*
X118428160Y-85443991D01*
X118438548Y-85424555D01*
X118452524Y-85407524D01*
X118469555Y-85393548D01*
X118488991Y-85383160D01*
X118510072Y-85376764D01*
X118538140Y-85374000D01*
X120351860Y-85374000D01*
X120379928Y-85376764D01*
G37*
G36*
X121791591Y-84123085D02*
G01*
X121825569Y-84133393D01*
X121856890Y-84150134D01*
X121884339Y-84172661D01*
X121906866Y-84200110D01*
X121923607Y-84231431D01*
X121933915Y-84265409D01*
X121938000Y-84306890D01*
X121938000Y-84908110D01*
X121933915Y-84949591D01*
X121923607Y-84983569D01*
X121906866Y-85014890D01*
X121884339Y-85042339D01*
X121856890Y-85064866D01*
X121825569Y-85081607D01*
X121791591Y-85091915D01*
X121750110Y-85096000D01*
X121073890Y-85096000D01*
X121032409Y-85091915D01*
X120998431Y-85081607D01*
X120967110Y-85064866D01*
X120939661Y-85042339D01*
X120917134Y-85014890D01*
X120900393Y-84983569D01*
X120890085Y-84949591D01*
X120886000Y-84908110D01*
X120886000Y-84306890D01*
X120890085Y-84265409D01*
X120900393Y-84231431D01*
X120917134Y-84200110D01*
X120939661Y-84172661D01*
X120967110Y-84150134D01*
X120998431Y-84133393D01*
X121032409Y-84123085D01*
X121073890Y-84119000D01*
X121750110Y-84119000D01*
X121791591Y-84123085D01*
G37*
G36*
X124149000Y-84686000D02*
G01*
X123247000Y-84686000D01*
X123247000Y-83684000D01*
X124149000Y-83684000D01*
X124149000Y-84686000D01*
G37*
G36*
X118301000Y-80984001D02*
G01*
X118303402Y-81008387D01*
X118310515Y-81031836D01*
X118322066Y-81053447D01*
X118337611Y-81072389D01*
X118356553Y-81087934D01*
X118378164Y-81099485D01*
X118401613Y-81106598D01*
X118425999Y-81109000D01*
X118694001Y-81109000D01*
X118718387Y-81106598D01*
X118741836Y-81099485D01*
X118742743Y-81099000D01*
X119066501Y-81099000D01*
X119090887Y-81096598D01*
X119114336Y-81089485D01*
X119135947Y-81077934D01*
X119154889Y-81062389D01*
X119170434Y-81043447D01*
X119181985Y-81021836D01*
X119189098Y-80998387D01*
X119191500Y-80974001D01*
X119191500Y-80599000D01*
X119853500Y-80599000D01*
X119853500Y-80974001D01*
X119855902Y-80998387D01*
X119863015Y-81021836D01*
X119874566Y-81043447D01*
X119890111Y-81062389D01*
X119909053Y-81077934D01*
X119930664Y-81089485D01*
X119954113Y-81096598D01*
X119978499Y-81099000D01*
X120521000Y-81099000D01*
X120521000Y-83721000D01*
X119978499Y-83721000D01*
X119954113Y-83723402D01*
X119930664Y-83730515D01*
X119909053Y-83742066D01*
X119890111Y-83757611D01*
X119874566Y-83776553D01*
X119863015Y-83798164D01*
X119855902Y-83821613D01*
X119853500Y-83845999D01*
X119853500Y-84501000D01*
X119191500Y-84501000D01*
X119191500Y-83845999D01*
X119189098Y-83821613D01*
X119181985Y-83798164D01*
X119170434Y-83776553D01*
X119154889Y-83757611D01*
X119135947Y-83742066D01*
X119114336Y-83730515D01*
X119090887Y-83723402D01*
X119066501Y-83721000D01*
X118695999Y-83721000D01*
X118671613Y-83723402D01*
X118648164Y-83730515D01*
X118647257Y-83731000D01*
X118425999Y-83731000D01*
X118401613Y-83733402D01*
X118378164Y-83740515D01*
X118356553Y-83752066D01*
X118337611Y-83767611D01*
X118322066Y-83786553D01*
X118310515Y-83808164D01*
X118303402Y-83831613D01*
X118301000Y-83855999D01*
X118301000Y-84501000D01*
X117639000Y-84501000D01*
X117639000Y-83855999D01*
X117636598Y-83831613D01*
X117629485Y-83808164D01*
X117617934Y-83786553D01*
X117602389Y-83767611D01*
X117583447Y-83752066D01*
X117561836Y-83740515D01*
X117538387Y-83733402D01*
X117514001Y-83731000D01*
X117069000Y-83731000D01*
X117069000Y-81109000D01*
X117514001Y-81109000D01*
X117538387Y-81106598D01*
X117561836Y-81099485D01*
X117583447Y-81087934D01*
X117602389Y-81072389D01*
X117617934Y-81053447D01*
X117629485Y-81031836D01*
X117636598Y-81008387D01*
X117639000Y-80984001D01*
X117639000Y-80599000D01*
X118301000Y-80599000D01*
X118301000Y-80984001D01*
G37*
G36*
X129928604Y-80612347D02*
G01*
X129965144Y-80623432D01*
X129998821Y-80641433D01*
X130028341Y-80665659D01*
X130052567Y-80695179D01*
X130070568Y-80728856D01*
X130081653Y-80765396D01*
X130086000Y-80809538D01*
X130086000Y-82258462D01*
X130081653Y-82302604D01*
X130070568Y-82339144D01*
X130052567Y-82372821D01*
X130028341Y-82402341D01*
X130016113Y-82412376D01*
X129998786Y-82429703D01*
X129985172Y-82450077D01*
X129975795Y-82472716D01*
X129971015Y-82496750D01*
X129971015Y-82521254D01*
X129975796Y-82545287D01*
X129985173Y-82567926D01*
X129998787Y-82588300D01*
X130016114Y-82605627D01*
X130036488Y-82619241D01*
X130059127Y-82628618D01*
X130095412Y-82634000D01*
X131524588Y-82634000D01*
X131548974Y-82631598D01*
X131572423Y-82624485D01*
X131594034Y-82612934D01*
X131612976Y-82597389D01*
X131628521Y-82578447D01*
X131640072Y-82556836D01*
X131647185Y-82533387D01*
X131649587Y-82509001D01*
X131647185Y-82484615D01*
X131640072Y-82461166D01*
X131628521Y-82439555D01*
X131603887Y-82412376D01*
X131591659Y-82402341D01*
X131567433Y-82372821D01*
X131549432Y-82339144D01*
X131538347Y-82302604D01*
X131534000Y-82258462D01*
X131534000Y-80809538D01*
X131538347Y-80765396D01*
X131549432Y-80728856D01*
X131567433Y-80695179D01*
X131591659Y-80665659D01*
X131621179Y-80641433D01*
X131654856Y-80623432D01*
X131691396Y-80612347D01*
X131735538Y-80608000D01*
X132684462Y-80608000D01*
X132728604Y-80612347D01*
X132765144Y-80623432D01*
X132798821Y-80641433D01*
X132828341Y-80665659D01*
X132852567Y-80695179D01*
X132870568Y-80728856D01*
X132881653Y-80765396D01*
X132886000Y-80809538D01*
X132886000Y-82258462D01*
X132881653Y-82302604D01*
X132870568Y-82339144D01*
X132852567Y-82372821D01*
X132828341Y-82402341D01*
X132791598Y-82432495D01*
X132786712Y-82435759D01*
X132769383Y-82453084D01*
X132755767Y-82473457D01*
X132746387Y-82496094D01*
X132741603Y-82520127D01*
X132741000Y-82532394D01*
X132741000Y-84186000D01*
X126339000Y-84186000D01*
X126339000Y-82634000D01*
X128724588Y-82634000D01*
X128748974Y-82631598D01*
X128772423Y-82624485D01*
X128794034Y-82612934D01*
X128812976Y-82597389D01*
X128828521Y-82578447D01*
X128840072Y-82556836D01*
X128847185Y-82533387D01*
X128849587Y-82509001D01*
X128847185Y-82484615D01*
X128840072Y-82461166D01*
X128828521Y-82439555D01*
X128803887Y-82412376D01*
X128791659Y-82402341D01*
X128767433Y-82372821D01*
X128749432Y-82339144D01*
X128738347Y-82302604D01*
X128734000Y-82258462D01*
X128734000Y-80809538D01*
X128738347Y-80765396D01*
X128749432Y-80728856D01*
X128767433Y-80695179D01*
X128791659Y-80665659D01*
X128821179Y-80641433D01*
X128854856Y-80623432D01*
X128891396Y-80612347D01*
X128935538Y-80608000D01*
X129884462Y-80608000D01*
X129928604Y-80612347D01*
G37*
G36*
X116621000Y-83836000D02*
G01*
X114519000Y-83836000D01*
X114519000Y-82534000D01*
X116621000Y-82534000D01*
X116621000Y-83836000D01*
G37*
G36*
X121791591Y-82548085D02*
G01*
X121825569Y-82558393D01*
X121856890Y-82575134D01*
X121884339Y-82597661D01*
X121906866Y-82625110D01*
X121923607Y-82656431D01*
X121933915Y-82690409D01*
X121938000Y-82731890D01*
X121938000Y-83333110D01*
X121933915Y-83374591D01*
X121923607Y-83408569D01*
X121906866Y-83439890D01*
X121884339Y-83467339D01*
X121856890Y-83489866D01*
X121825569Y-83506607D01*
X121791591Y-83516915D01*
X121750110Y-83521000D01*
X121073890Y-83521000D01*
X121032409Y-83516915D01*
X120998431Y-83506607D01*
X120967110Y-83489866D01*
X120939661Y-83467339D01*
X120917134Y-83439890D01*
X120900393Y-83408569D01*
X120890085Y-83374591D01*
X120886000Y-83333110D01*
X120886000Y-82731890D01*
X120890085Y-82690409D01*
X120900393Y-82656431D01*
X120917134Y-82625110D01*
X120939661Y-82597661D01*
X120967110Y-82575134D01*
X120998431Y-82558393D01*
X121032409Y-82548085D01*
X121073890Y-82544000D01*
X121750110Y-82544000D01*
X121791591Y-82548085D01*
G37*
G36*
X125099000Y-82686000D02*
G01*
X124197000Y-82686000D01*
X124197000Y-81684000D01*
X125099000Y-81684000D01*
X125099000Y-82686000D01*
G37*
G36*
X123199000Y-82686000D02*
G01*
X122297000Y-82686000D01*
X122297000Y-81684000D01*
X123199000Y-81684000D01*
X123199000Y-82686000D01*
G37*
G36*
X123303591Y-80250085D02*
G01*
X123337569Y-80260393D01*
X123368890Y-80277134D01*
X123396339Y-80299661D01*
X123418866Y-80327110D01*
X123435607Y-80358431D01*
X123445915Y-80392409D01*
X123450000Y-80433890D01*
X123450000Y-81110110D01*
X123445915Y-81151591D01*
X123435607Y-81185569D01*
X123418866Y-81216890D01*
X123396339Y-81244339D01*
X123368890Y-81266866D01*
X123337569Y-81283607D01*
X123303591Y-81293915D01*
X123262110Y-81298000D01*
X122660890Y-81298000D01*
X122619409Y-81293915D01*
X122585431Y-81283607D01*
X122554110Y-81266866D01*
X122526661Y-81244339D01*
X122504134Y-81216890D01*
X122487393Y-81185569D01*
X122477085Y-81151591D01*
X122473000Y-81110110D01*
X122473000Y-80433890D01*
X122477085Y-80392409D01*
X122487393Y-80358431D01*
X122504134Y-80327110D01*
X122526661Y-80299661D01*
X122554110Y-80277134D01*
X122585431Y-80260393D01*
X122619409Y-80250085D01*
X122660890Y-80246000D01*
X123262110Y-80246000D01*
X123303591Y-80250085D01*
G37*
G36*
X121728591Y-80250085D02*
G01*
X121762569Y-80260393D01*
X121793890Y-80277134D01*
X121821339Y-80299661D01*
X121843866Y-80327110D01*
X121860607Y-80358431D01*
X121870915Y-80392409D01*
X121875000Y-80433890D01*
X121875000Y-81110110D01*
X121870915Y-81151591D01*
X121860607Y-81185569D01*
X121843866Y-81216890D01*
X121821339Y-81244339D01*
X121793890Y-81266866D01*
X121762569Y-81283607D01*
X121728591Y-81293915D01*
X121687110Y-81298000D01*
X121085890Y-81298000D01*
X121044409Y-81293915D01*
X121010431Y-81283607D01*
X120979110Y-81266866D01*
X120951661Y-81244339D01*
X120929134Y-81216890D01*
X120912393Y-81185569D01*
X120902085Y-81151591D01*
X120898000Y-81110110D01*
X120898000Y-80433890D01*
X120902085Y-80392409D01*
X120912393Y-80358431D01*
X120929134Y-80327110D01*
X120951661Y-80299661D01*
X120979110Y-80277134D01*
X121010431Y-80260393D01*
X121044409Y-80250085D01*
X121085890Y-80246000D01*
X121687110Y-80246000D01*
X121728591Y-80250085D01*
G37*
G36*
X116621000Y-81296000D02*
G01*
X114519000Y-81296000D01*
X114519000Y-79994000D01*
X116621000Y-79994000D01*
X116621000Y-81296000D01*
G37*
M02*
