M48
; DRILL file {KiCad (5.1.5)-2} date 10/03/2020 09:13:22
; FORMAT={-:-/ absolute / metric / decimal}
; #@! TF.CreationDate,2020-03-10T09:13:22+00:00
; #@! TF.GenerationSoftware,Kicad,Pcbnew,(5.1.5)-2
; #@! TF.FileFunction,Plated,1,2,PTH
FMAT,2
METRIC
T1C0.300
T2C0.400
%
G90
G05
T1
X117.475Y-87.63
X117.475Y-89.535
X121.92Y-82.296
X124.46Y-80.264
X125.476Y-83.82
X126.212Y-89.699
X126.492Y-80.772
X127.0Y-81.534
X127.762Y-80.264
X128.016Y-87.63
X128.27Y-84.836
X128.27Y-86.614
X129.286Y-86.106
X130.81Y-87.884
X131.318Y-85.598
X132.362Y-87.859
T2
X115.062Y-84.328
X117.602Y-85.598
X122.555Y-85.344
X122.555Y-88.9
X122.682Y-83.82
T0
M30
