G04 #@! TF.GenerationSoftware,KiCad,Pcbnew,(5.1.5)-2*
G04 #@! TF.CreationDate,2020-03-10T09:13:17+00:00*
G04 #@! TF.ProjectId,loco,6c6f636f-2e6b-4696-9361-645f70636258,rev?*
G04 #@! TF.SameCoordinates,Original*
G04 #@! TF.FileFunction,Copper,L1,Top*
G04 #@! TF.FilePolarity,Positive*
%FSLAX46Y46*%
G04 Gerber Fmt 4.6, Leading zero omitted, Abs format (unit mm)*
G04 Created by KiCad (PCBNEW (5.1.5)-2) date 2020-03-10 09:13:17*
%MOMM*%
%LPD*%
G04 APERTURE LIST*
%ADD10C,0.050000*%
%ADD11C,0.100000*%
%ADD12R,2.000000X1.200000*%
%ADD13R,0.800000X0.900000*%
%ADD14R,1.600000X1.170000*%
%ADD15R,1.600000X1.200000*%
%ADD16R,1.400000X2.520000*%
%ADD17R,0.560000X0.630000*%
%ADD18R,0.450000X1.450000*%
%ADD19C,0.800000*%
%ADD20C,0.700000*%
%ADD21C,0.250000*%
%ADD22C,0.300000*%
%ADD23C,0.800000*%
%ADD24C,0.500000*%
%ADD25C,0.600000*%
%ADD26C,0.200000*%
G04 APERTURE END LIST*
D10*
X114046000Y-90805000D02*
X114046000Y-79502000D01*
X133350000Y-90805000D02*
X114046000Y-90805000D01*
X133350000Y-79502000D02*
X133350000Y-90805000D01*
X114046000Y-79502000D02*
X133350000Y-79502000D01*
G04 #@! TA.AperFunction,SMDPad,CuDef*
D11*
G36*
X132609504Y-80660204D02*
G01*
X132633773Y-80663804D01*
X132657571Y-80669765D01*
X132680671Y-80678030D01*
X132702849Y-80688520D01*
X132723893Y-80701133D01*
X132743598Y-80715747D01*
X132761777Y-80732223D01*
X132778253Y-80750402D01*
X132792867Y-80770107D01*
X132805480Y-80791151D01*
X132815970Y-80813329D01*
X132824235Y-80836429D01*
X132830196Y-80860227D01*
X132833796Y-80884496D01*
X132835000Y-80909000D01*
X132835000Y-82159000D01*
X132833796Y-82183504D01*
X132830196Y-82207773D01*
X132824235Y-82231571D01*
X132815970Y-82254671D01*
X132805480Y-82276849D01*
X132792867Y-82297893D01*
X132778253Y-82317598D01*
X132761777Y-82335777D01*
X132743598Y-82352253D01*
X132723893Y-82366867D01*
X132702849Y-82379480D01*
X132680671Y-82389970D01*
X132657571Y-82398235D01*
X132633773Y-82404196D01*
X132609504Y-82407796D01*
X132585000Y-82409000D01*
X131835000Y-82409000D01*
X131810496Y-82407796D01*
X131786227Y-82404196D01*
X131762429Y-82398235D01*
X131739329Y-82389970D01*
X131717151Y-82379480D01*
X131696107Y-82366867D01*
X131676402Y-82352253D01*
X131658223Y-82335777D01*
X131641747Y-82317598D01*
X131627133Y-82297893D01*
X131614520Y-82276849D01*
X131604030Y-82254671D01*
X131595765Y-82231571D01*
X131589804Y-82207773D01*
X131586204Y-82183504D01*
X131585000Y-82159000D01*
X131585000Y-80909000D01*
X131586204Y-80884496D01*
X131589804Y-80860227D01*
X131595765Y-80836429D01*
X131604030Y-80813329D01*
X131614520Y-80791151D01*
X131627133Y-80770107D01*
X131641747Y-80750402D01*
X131658223Y-80732223D01*
X131676402Y-80715747D01*
X131696107Y-80701133D01*
X131717151Y-80688520D01*
X131739329Y-80678030D01*
X131762429Y-80669765D01*
X131786227Y-80663804D01*
X131810496Y-80660204D01*
X131835000Y-80659000D01*
X132585000Y-80659000D01*
X132609504Y-80660204D01*
G37*
G04 #@! TD.AperFunction*
G04 #@! TA.AperFunction,SMDPad,CuDef*
G36*
X129809504Y-80660204D02*
G01*
X129833773Y-80663804D01*
X129857571Y-80669765D01*
X129880671Y-80678030D01*
X129902849Y-80688520D01*
X129923893Y-80701133D01*
X129943598Y-80715747D01*
X129961777Y-80732223D01*
X129978253Y-80750402D01*
X129992867Y-80770107D01*
X130005480Y-80791151D01*
X130015970Y-80813329D01*
X130024235Y-80836429D01*
X130030196Y-80860227D01*
X130033796Y-80884496D01*
X130035000Y-80909000D01*
X130035000Y-82159000D01*
X130033796Y-82183504D01*
X130030196Y-82207773D01*
X130024235Y-82231571D01*
X130015970Y-82254671D01*
X130005480Y-82276849D01*
X129992867Y-82297893D01*
X129978253Y-82317598D01*
X129961777Y-82335777D01*
X129943598Y-82352253D01*
X129923893Y-82366867D01*
X129902849Y-82379480D01*
X129880671Y-82389970D01*
X129857571Y-82398235D01*
X129833773Y-82404196D01*
X129809504Y-82407796D01*
X129785000Y-82409000D01*
X129035000Y-82409000D01*
X129010496Y-82407796D01*
X128986227Y-82404196D01*
X128962429Y-82398235D01*
X128939329Y-82389970D01*
X128917151Y-82379480D01*
X128896107Y-82366867D01*
X128876402Y-82352253D01*
X128858223Y-82335777D01*
X128841747Y-82317598D01*
X128827133Y-82297893D01*
X128814520Y-82276849D01*
X128804030Y-82254671D01*
X128795765Y-82231571D01*
X128789804Y-82207773D01*
X128786204Y-82183504D01*
X128785000Y-82159000D01*
X128785000Y-80909000D01*
X128786204Y-80884496D01*
X128789804Y-80860227D01*
X128795765Y-80836429D01*
X128804030Y-80813329D01*
X128814520Y-80791151D01*
X128827133Y-80770107D01*
X128841747Y-80750402D01*
X128858223Y-80732223D01*
X128876402Y-80715747D01*
X128896107Y-80701133D01*
X128917151Y-80688520D01*
X128939329Y-80678030D01*
X128962429Y-80669765D01*
X128986227Y-80663804D01*
X129010496Y-80660204D01*
X129035000Y-80659000D01*
X129785000Y-80659000D01*
X129809504Y-80660204D01*
G37*
G04 #@! TD.AperFunction*
G04 #@! TA.AperFunction,SMDPad,CuDef*
G36*
X121689691Y-84171053D02*
G01*
X121710926Y-84174203D01*
X121731750Y-84179419D01*
X121751962Y-84186651D01*
X121771368Y-84195830D01*
X121789781Y-84206866D01*
X121807024Y-84219654D01*
X121822930Y-84234070D01*
X121837346Y-84249976D01*
X121850134Y-84267219D01*
X121861170Y-84285632D01*
X121870349Y-84305038D01*
X121877581Y-84325250D01*
X121882797Y-84346074D01*
X121885947Y-84367309D01*
X121887000Y-84388750D01*
X121887000Y-84826250D01*
X121885947Y-84847691D01*
X121882797Y-84868926D01*
X121877581Y-84889750D01*
X121870349Y-84909962D01*
X121861170Y-84929368D01*
X121850134Y-84947781D01*
X121837346Y-84965024D01*
X121822930Y-84980930D01*
X121807024Y-84995346D01*
X121789781Y-85008134D01*
X121771368Y-85019170D01*
X121751962Y-85028349D01*
X121731750Y-85035581D01*
X121710926Y-85040797D01*
X121689691Y-85043947D01*
X121668250Y-85045000D01*
X121155750Y-85045000D01*
X121134309Y-85043947D01*
X121113074Y-85040797D01*
X121092250Y-85035581D01*
X121072038Y-85028349D01*
X121052632Y-85019170D01*
X121034219Y-85008134D01*
X121016976Y-84995346D01*
X121001070Y-84980930D01*
X120986654Y-84965024D01*
X120973866Y-84947781D01*
X120962830Y-84929368D01*
X120953651Y-84909962D01*
X120946419Y-84889750D01*
X120941203Y-84868926D01*
X120938053Y-84847691D01*
X120937000Y-84826250D01*
X120937000Y-84388750D01*
X120938053Y-84367309D01*
X120941203Y-84346074D01*
X120946419Y-84325250D01*
X120953651Y-84305038D01*
X120962830Y-84285632D01*
X120973866Y-84267219D01*
X120986654Y-84249976D01*
X121001070Y-84234070D01*
X121016976Y-84219654D01*
X121034219Y-84206866D01*
X121052632Y-84195830D01*
X121072038Y-84186651D01*
X121092250Y-84179419D01*
X121113074Y-84174203D01*
X121134309Y-84171053D01*
X121155750Y-84170000D01*
X121668250Y-84170000D01*
X121689691Y-84171053D01*
G37*
G04 #@! TD.AperFunction*
G04 #@! TA.AperFunction,SMDPad,CuDef*
G36*
X121689691Y-82596053D02*
G01*
X121710926Y-82599203D01*
X121731750Y-82604419D01*
X121751962Y-82611651D01*
X121771368Y-82620830D01*
X121789781Y-82631866D01*
X121807024Y-82644654D01*
X121822930Y-82659070D01*
X121837346Y-82674976D01*
X121850134Y-82692219D01*
X121861170Y-82710632D01*
X121870349Y-82730038D01*
X121877581Y-82750250D01*
X121882797Y-82771074D01*
X121885947Y-82792309D01*
X121887000Y-82813750D01*
X121887000Y-83251250D01*
X121885947Y-83272691D01*
X121882797Y-83293926D01*
X121877581Y-83314750D01*
X121870349Y-83334962D01*
X121861170Y-83354368D01*
X121850134Y-83372781D01*
X121837346Y-83390024D01*
X121822930Y-83405930D01*
X121807024Y-83420346D01*
X121789781Y-83433134D01*
X121771368Y-83444170D01*
X121751962Y-83453349D01*
X121731750Y-83460581D01*
X121710926Y-83465797D01*
X121689691Y-83468947D01*
X121668250Y-83470000D01*
X121155750Y-83470000D01*
X121134309Y-83468947D01*
X121113074Y-83465797D01*
X121092250Y-83460581D01*
X121072038Y-83453349D01*
X121052632Y-83444170D01*
X121034219Y-83433134D01*
X121016976Y-83420346D01*
X121001070Y-83405930D01*
X120986654Y-83390024D01*
X120973866Y-83372781D01*
X120962830Y-83354368D01*
X120953651Y-83334962D01*
X120946419Y-83314750D01*
X120941203Y-83293926D01*
X120938053Y-83272691D01*
X120937000Y-83251250D01*
X120937000Y-82813750D01*
X120938053Y-82792309D01*
X120941203Y-82771074D01*
X120946419Y-82750250D01*
X120953651Y-82730038D01*
X120962830Y-82710632D01*
X120973866Y-82692219D01*
X120986654Y-82674976D01*
X121001070Y-82659070D01*
X121016976Y-82644654D01*
X121034219Y-82631866D01*
X121052632Y-82620830D01*
X121072038Y-82611651D01*
X121092250Y-82604419D01*
X121113074Y-82599203D01*
X121134309Y-82596053D01*
X121155750Y-82595000D01*
X121668250Y-82595000D01*
X121689691Y-82596053D01*
G37*
G04 #@! TD.AperFunction*
D12*
X115570000Y-83185000D03*
X115570000Y-85725000D03*
X115570000Y-80645000D03*
X115570000Y-87630000D03*
X115570000Y-89535000D03*
G04 #@! TA.AperFunction,SMDPad,CuDef*
D11*
G36*
X123201691Y-80298053D02*
G01*
X123222926Y-80301203D01*
X123243750Y-80306419D01*
X123263962Y-80313651D01*
X123283368Y-80322830D01*
X123301781Y-80333866D01*
X123319024Y-80346654D01*
X123334930Y-80361070D01*
X123349346Y-80376976D01*
X123362134Y-80394219D01*
X123373170Y-80412632D01*
X123382349Y-80432038D01*
X123389581Y-80452250D01*
X123394797Y-80473074D01*
X123397947Y-80494309D01*
X123399000Y-80515750D01*
X123399000Y-81028250D01*
X123397947Y-81049691D01*
X123394797Y-81070926D01*
X123389581Y-81091750D01*
X123382349Y-81111962D01*
X123373170Y-81131368D01*
X123362134Y-81149781D01*
X123349346Y-81167024D01*
X123334930Y-81182930D01*
X123319024Y-81197346D01*
X123301781Y-81210134D01*
X123283368Y-81221170D01*
X123263962Y-81230349D01*
X123243750Y-81237581D01*
X123222926Y-81242797D01*
X123201691Y-81245947D01*
X123180250Y-81247000D01*
X122742750Y-81247000D01*
X122721309Y-81245947D01*
X122700074Y-81242797D01*
X122679250Y-81237581D01*
X122659038Y-81230349D01*
X122639632Y-81221170D01*
X122621219Y-81210134D01*
X122603976Y-81197346D01*
X122588070Y-81182930D01*
X122573654Y-81167024D01*
X122560866Y-81149781D01*
X122549830Y-81131368D01*
X122540651Y-81111962D01*
X122533419Y-81091750D01*
X122528203Y-81070926D01*
X122525053Y-81049691D01*
X122524000Y-81028250D01*
X122524000Y-80515750D01*
X122525053Y-80494309D01*
X122528203Y-80473074D01*
X122533419Y-80452250D01*
X122540651Y-80432038D01*
X122549830Y-80412632D01*
X122560866Y-80394219D01*
X122573654Y-80376976D01*
X122588070Y-80361070D01*
X122603976Y-80346654D01*
X122621219Y-80333866D01*
X122639632Y-80322830D01*
X122659038Y-80313651D01*
X122679250Y-80306419D01*
X122700074Y-80301203D01*
X122721309Y-80298053D01*
X122742750Y-80297000D01*
X123180250Y-80297000D01*
X123201691Y-80298053D01*
G37*
G04 #@! TD.AperFunction*
G04 #@! TA.AperFunction,SMDPad,CuDef*
G36*
X121626691Y-80298053D02*
G01*
X121647926Y-80301203D01*
X121668750Y-80306419D01*
X121688962Y-80313651D01*
X121708368Y-80322830D01*
X121726781Y-80333866D01*
X121744024Y-80346654D01*
X121759930Y-80361070D01*
X121774346Y-80376976D01*
X121787134Y-80394219D01*
X121798170Y-80412632D01*
X121807349Y-80432038D01*
X121814581Y-80452250D01*
X121819797Y-80473074D01*
X121822947Y-80494309D01*
X121824000Y-80515750D01*
X121824000Y-81028250D01*
X121822947Y-81049691D01*
X121819797Y-81070926D01*
X121814581Y-81091750D01*
X121807349Y-81111962D01*
X121798170Y-81131368D01*
X121787134Y-81149781D01*
X121774346Y-81167024D01*
X121759930Y-81182930D01*
X121744024Y-81197346D01*
X121726781Y-81210134D01*
X121708368Y-81221170D01*
X121688962Y-81230349D01*
X121668750Y-81237581D01*
X121647926Y-81242797D01*
X121626691Y-81245947D01*
X121605250Y-81247000D01*
X121167750Y-81247000D01*
X121146309Y-81245947D01*
X121125074Y-81242797D01*
X121104250Y-81237581D01*
X121084038Y-81230349D01*
X121064632Y-81221170D01*
X121046219Y-81210134D01*
X121028976Y-81197346D01*
X121013070Y-81182930D01*
X120998654Y-81167024D01*
X120985866Y-81149781D01*
X120974830Y-81131368D01*
X120965651Y-81111962D01*
X120958419Y-81091750D01*
X120953203Y-81070926D01*
X120950053Y-81049691D01*
X120949000Y-81028250D01*
X120949000Y-80515750D01*
X120950053Y-80494309D01*
X120953203Y-80473074D01*
X120958419Y-80452250D01*
X120965651Y-80432038D01*
X120974830Y-80412632D01*
X120985866Y-80394219D01*
X120998654Y-80376976D01*
X121013070Y-80361070D01*
X121028976Y-80346654D01*
X121046219Y-80333866D01*
X121064632Y-80322830D01*
X121084038Y-80313651D01*
X121104250Y-80306419D01*
X121125074Y-80301203D01*
X121146309Y-80298053D01*
X121167750Y-80297000D01*
X121605250Y-80297000D01*
X121626691Y-80298053D01*
G37*
G04 #@! TD.AperFunction*
D13*
X123698000Y-84185000D03*
X122748000Y-82185000D03*
X124648000Y-82185000D03*
D14*
X119670000Y-83085000D03*
D15*
X119670000Y-81750000D03*
D16*
X117820000Y-82420000D03*
D17*
X117970000Y-80965000D03*
X119522500Y-80965000D03*
X117970000Y-84135000D03*
X119522500Y-84135000D03*
G04 #@! TA.AperFunction,SMDPad,CuDef*
D11*
G36*
X120284703Y-89235722D02*
G01*
X120299264Y-89237882D01*
X120313543Y-89241459D01*
X120327403Y-89246418D01*
X120340710Y-89252712D01*
X120353336Y-89260280D01*
X120365159Y-89269048D01*
X120376066Y-89278934D01*
X120385952Y-89289841D01*
X120394720Y-89301664D01*
X120402288Y-89314290D01*
X120408582Y-89327597D01*
X120413541Y-89341457D01*
X120417118Y-89355736D01*
X120419278Y-89370297D01*
X120420000Y-89385000D01*
X120420000Y-89685000D01*
X120419278Y-89699703D01*
X120417118Y-89714264D01*
X120413541Y-89728543D01*
X120408582Y-89742403D01*
X120402288Y-89755710D01*
X120394720Y-89768336D01*
X120385952Y-89780159D01*
X120376066Y-89791066D01*
X120365159Y-89800952D01*
X120353336Y-89809720D01*
X120340710Y-89817288D01*
X120327403Y-89823582D01*
X120313543Y-89828541D01*
X120299264Y-89832118D01*
X120284703Y-89834278D01*
X120270000Y-89835000D01*
X118620000Y-89835000D01*
X118605297Y-89834278D01*
X118590736Y-89832118D01*
X118576457Y-89828541D01*
X118562597Y-89823582D01*
X118549290Y-89817288D01*
X118536664Y-89809720D01*
X118524841Y-89800952D01*
X118513934Y-89791066D01*
X118504048Y-89780159D01*
X118495280Y-89768336D01*
X118487712Y-89755710D01*
X118481418Y-89742403D01*
X118476459Y-89728543D01*
X118472882Y-89714264D01*
X118470722Y-89699703D01*
X118470000Y-89685000D01*
X118470000Y-89385000D01*
X118470722Y-89370297D01*
X118472882Y-89355736D01*
X118476459Y-89341457D01*
X118481418Y-89327597D01*
X118487712Y-89314290D01*
X118495280Y-89301664D01*
X118504048Y-89289841D01*
X118513934Y-89278934D01*
X118524841Y-89269048D01*
X118536664Y-89260280D01*
X118549290Y-89252712D01*
X118562597Y-89246418D01*
X118576457Y-89241459D01*
X118590736Y-89237882D01*
X118605297Y-89235722D01*
X118620000Y-89235000D01*
X120270000Y-89235000D01*
X120284703Y-89235722D01*
G37*
G04 #@! TD.AperFunction*
G04 #@! TA.AperFunction,SMDPad,CuDef*
G36*
X120284703Y-87965722D02*
G01*
X120299264Y-87967882D01*
X120313543Y-87971459D01*
X120327403Y-87976418D01*
X120340710Y-87982712D01*
X120353336Y-87990280D01*
X120365159Y-87999048D01*
X120376066Y-88008934D01*
X120385952Y-88019841D01*
X120394720Y-88031664D01*
X120402288Y-88044290D01*
X120408582Y-88057597D01*
X120413541Y-88071457D01*
X120417118Y-88085736D01*
X120419278Y-88100297D01*
X120420000Y-88115000D01*
X120420000Y-88415000D01*
X120419278Y-88429703D01*
X120417118Y-88444264D01*
X120413541Y-88458543D01*
X120408582Y-88472403D01*
X120402288Y-88485710D01*
X120394720Y-88498336D01*
X120385952Y-88510159D01*
X120376066Y-88521066D01*
X120365159Y-88530952D01*
X120353336Y-88539720D01*
X120340710Y-88547288D01*
X120327403Y-88553582D01*
X120313543Y-88558541D01*
X120299264Y-88562118D01*
X120284703Y-88564278D01*
X120270000Y-88565000D01*
X118620000Y-88565000D01*
X118605297Y-88564278D01*
X118590736Y-88562118D01*
X118576457Y-88558541D01*
X118562597Y-88553582D01*
X118549290Y-88547288D01*
X118536664Y-88539720D01*
X118524841Y-88530952D01*
X118513934Y-88521066D01*
X118504048Y-88510159D01*
X118495280Y-88498336D01*
X118487712Y-88485710D01*
X118481418Y-88472403D01*
X118476459Y-88458543D01*
X118472882Y-88444264D01*
X118470722Y-88429703D01*
X118470000Y-88415000D01*
X118470000Y-88115000D01*
X118470722Y-88100297D01*
X118472882Y-88085736D01*
X118476459Y-88071457D01*
X118481418Y-88057597D01*
X118487712Y-88044290D01*
X118495280Y-88031664D01*
X118504048Y-88019841D01*
X118513934Y-88008934D01*
X118524841Y-87999048D01*
X118536664Y-87990280D01*
X118549290Y-87982712D01*
X118562597Y-87976418D01*
X118576457Y-87971459D01*
X118590736Y-87967882D01*
X118605297Y-87965722D01*
X118620000Y-87965000D01*
X120270000Y-87965000D01*
X120284703Y-87965722D01*
G37*
G04 #@! TD.AperFunction*
G04 #@! TA.AperFunction,SMDPad,CuDef*
G36*
X120284703Y-86695722D02*
G01*
X120299264Y-86697882D01*
X120313543Y-86701459D01*
X120327403Y-86706418D01*
X120340710Y-86712712D01*
X120353336Y-86720280D01*
X120365159Y-86729048D01*
X120376066Y-86738934D01*
X120385952Y-86749841D01*
X120394720Y-86761664D01*
X120402288Y-86774290D01*
X120408582Y-86787597D01*
X120413541Y-86801457D01*
X120417118Y-86815736D01*
X120419278Y-86830297D01*
X120420000Y-86845000D01*
X120420000Y-87145000D01*
X120419278Y-87159703D01*
X120417118Y-87174264D01*
X120413541Y-87188543D01*
X120408582Y-87202403D01*
X120402288Y-87215710D01*
X120394720Y-87228336D01*
X120385952Y-87240159D01*
X120376066Y-87251066D01*
X120365159Y-87260952D01*
X120353336Y-87269720D01*
X120340710Y-87277288D01*
X120327403Y-87283582D01*
X120313543Y-87288541D01*
X120299264Y-87292118D01*
X120284703Y-87294278D01*
X120270000Y-87295000D01*
X118620000Y-87295000D01*
X118605297Y-87294278D01*
X118590736Y-87292118D01*
X118576457Y-87288541D01*
X118562597Y-87283582D01*
X118549290Y-87277288D01*
X118536664Y-87269720D01*
X118524841Y-87260952D01*
X118513934Y-87251066D01*
X118504048Y-87240159D01*
X118495280Y-87228336D01*
X118487712Y-87215710D01*
X118481418Y-87202403D01*
X118476459Y-87188543D01*
X118472882Y-87174264D01*
X118470722Y-87159703D01*
X118470000Y-87145000D01*
X118470000Y-86845000D01*
X118470722Y-86830297D01*
X118472882Y-86815736D01*
X118476459Y-86801457D01*
X118481418Y-86787597D01*
X118487712Y-86774290D01*
X118495280Y-86761664D01*
X118504048Y-86749841D01*
X118513934Y-86738934D01*
X118524841Y-86729048D01*
X118536664Y-86720280D01*
X118549290Y-86712712D01*
X118562597Y-86706418D01*
X118576457Y-86701459D01*
X118590736Y-86697882D01*
X118605297Y-86695722D01*
X118620000Y-86695000D01*
X120270000Y-86695000D01*
X120284703Y-86695722D01*
G37*
G04 #@! TD.AperFunction*
G04 #@! TA.AperFunction,SMDPad,CuDef*
G36*
X120284703Y-85425722D02*
G01*
X120299264Y-85427882D01*
X120313543Y-85431459D01*
X120327403Y-85436418D01*
X120340710Y-85442712D01*
X120353336Y-85450280D01*
X120365159Y-85459048D01*
X120376066Y-85468934D01*
X120385952Y-85479841D01*
X120394720Y-85491664D01*
X120402288Y-85504290D01*
X120408582Y-85517597D01*
X120413541Y-85531457D01*
X120417118Y-85545736D01*
X120419278Y-85560297D01*
X120420000Y-85575000D01*
X120420000Y-85875000D01*
X120419278Y-85889703D01*
X120417118Y-85904264D01*
X120413541Y-85918543D01*
X120408582Y-85932403D01*
X120402288Y-85945710D01*
X120394720Y-85958336D01*
X120385952Y-85970159D01*
X120376066Y-85981066D01*
X120365159Y-85990952D01*
X120353336Y-85999720D01*
X120340710Y-86007288D01*
X120327403Y-86013582D01*
X120313543Y-86018541D01*
X120299264Y-86022118D01*
X120284703Y-86024278D01*
X120270000Y-86025000D01*
X118620000Y-86025000D01*
X118605297Y-86024278D01*
X118590736Y-86022118D01*
X118576457Y-86018541D01*
X118562597Y-86013582D01*
X118549290Y-86007288D01*
X118536664Y-85999720D01*
X118524841Y-85990952D01*
X118513934Y-85981066D01*
X118504048Y-85970159D01*
X118495280Y-85958336D01*
X118487712Y-85945710D01*
X118481418Y-85932403D01*
X118476459Y-85918543D01*
X118472882Y-85904264D01*
X118470722Y-85889703D01*
X118470000Y-85875000D01*
X118470000Y-85575000D01*
X118470722Y-85560297D01*
X118472882Y-85545736D01*
X118476459Y-85531457D01*
X118481418Y-85517597D01*
X118487712Y-85504290D01*
X118495280Y-85491664D01*
X118504048Y-85479841D01*
X118513934Y-85468934D01*
X118524841Y-85459048D01*
X118536664Y-85450280D01*
X118549290Y-85442712D01*
X118562597Y-85436418D01*
X118576457Y-85431459D01*
X118590736Y-85427882D01*
X118605297Y-85425722D01*
X118620000Y-85425000D01*
X120270000Y-85425000D01*
X120284703Y-85425722D01*
G37*
G04 #@! TD.AperFunction*
G04 #@! TA.AperFunction,SMDPad,CuDef*
G36*
X125234703Y-85425722D02*
G01*
X125249264Y-85427882D01*
X125263543Y-85431459D01*
X125277403Y-85436418D01*
X125290710Y-85442712D01*
X125303336Y-85450280D01*
X125315159Y-85459048D01*
X125326066Y-85468934D01*
X125335952Y-85479841D01*
X125344720Y-85491664D01*
X125352288Y-85504290D01*
X125358582Y-85517597D01*
X125363541Y-85531457D01*
X125367118Y-85545736D01*
X125369278Y-85560297D01*
X125370000Y-85575000D01*
X125370000Y-85875000D01*
X125369278Y-85889703D01*
X125367118Y-85904264D01*
X125363541Y-85918543D01*
X125358582Y-85932403D01*
X125352288Y-85945710D01*
X125344720Y-85958336D01*
X125335952Y-85970159D01*
X125326066Y-85981066D01*
X125315159Y-85990952D01*
X125303336Y-85999720D01*
X125290710Y-86007288D01*
X125277403Y-86013582D01*
X125263543Y-86018541D01*
X125249264Y-86022118D01*
X125234703Y-86024278D01*
X125220000Y-86025000D01*
X123570000Y-86025000D01*
X123555297Y-86024278D01*
X123540736Y-86022118D01*
X123526457Y-86018541D01*
X123512597Y-86013582D01*
X123499290Y-86007288D01*
X123486664Y-85999720D01*
X123474841Y-85990952D01*
X123463934Y-85981066D01*
X123454048Y-85970159D01*
X123445280Y-85958336D01*
X123437712Y-85945710D01*
X123431418Y-85932403D01*
X123426459Y-85918543D01*
X123422882Y-85904264D01*
X123420722Y-85889703D01*
X123420000Y-85875000D01*
X123420000Y-85575000D01*
X123420722Y-85560297D01*
X123422882Y-85545736D01*
X123426459Y-85531457D01*
X123431418Y-85517597D01*
X123437712Y-85504290D01*
X123445280Y-85491664D01*
X123454048Y-85479841D01*
X123463934Y-85468934D01*
X123474841Y-85459048D01*
X123486664Y-85450280D01*
X123499290Y-85442712D01*
X123512597Y-85436418D01*
X123526457Y-85431459D01*
X123540736Y-85427882D01*
X123555297Y-85425722D01*
X123570000Y-85425000D01*
X125220000Y-85425000D01*
X125234703Y-85425722D01*
G37*
G04 #@! TD.AperFunction*
G04 #@! TA.AperFunction,SMDPad,CuDef*
G36*
X125234703Y-86695722D02*
G01*
X125249264Y-86697882D01*
X125263543Y-86701459D01*
X125277403Y-86706418D01*
X125290710Y-86712712D01*
X125303336Y-86720280D01*
X125315159Y-86729048D01*
X125326066Y-86738934D01*
X125335952Y-86749841D01*
X125344720Y-86761664D01*
X125352288Y-86774290D01*
X125358582Y-86787597D01*
X125363541Y-86801457D01*
X125367118Y-86815736D01*
X125369278Y-86830297D01*
X125370000Y-86845000D01*
X125370000Y-87145000D01*
X125369278Y-87159703D01*
X125367118Y-87174264D01*
X125363541Y-87188543D01*
X125358582Y-87202403D01*
X125352288Y-87215710D01*
X125344720Y-87228336D01*
X125335952Y-87240159D01*
X125326066Y-87251066D01*
X125315159Y-87260952D01*
X125303336Y-87269720D01*
X125290710Y-87277288D01*
X125277403Y-87283582D01*
X125263543Y-87288541D01*
X125249264Y-87292118D01*
X125234703Y-87294278D01*
X125220000Y-87295000D01*
X123570000Y-87295000D01*
X123555297Y-87294278D01*
X123540736Y-87292118D01*
X123526457Y-87288541D01*
X123512597Y-87283582D01*
X123499290Y-87277288D01*
X123486664Y-87269720D01*
X123474841Y-87260952D01*
X123463934Y-87251066D01*
X123454048Y-87240159D01*
X123445280Y-87228336D01*
X123437712Y-87215710D01*
X123431418Y-87202403D01*
X123426459Y-87188543D01*
X123422882Y-87174264D01*
X123420722Y-87159703D01*
X123420000Y-87145000D01*
X123420000Y-86845000D01*
X123420722Y-86830297D01*
X123422882Y-86815736D01*
X123426459Y-86801457D01*
X123431418Y-86787597D01*
X123437712Y-86774290D01*
X123445280Y-86761664D01*
X123454048Y-86749841D01*
X123463934Y-86738934D01*
X123474841Y-86729048D01*
X123486664Y-86720280D01*
X123499290Y-86712712D01*
X123512597Y-86706418D01*
X123526457Y-86701459D01*
X123540736Y-86697882D01*
X123555297Y-86695722D01*
X123570000Y-86695000D01*
X125220000Y-86695000D01*
X125234703Y-86695722D01*
G37*
G04 #@! TD.AperFunction*
G04 #@! TA.AperFunction,SMDPad,CuDef*
G36*
X125234703Y-87965722D02*
G01*
X125249264Y-87967882D01*
X125263543Y-87971459D01*
X125277403Y-87976418D01*
X125290710Y-87982712D01*
X125303336Y-87990280D01*
X125315159Y-87999048D01*
X125326066Y-88008934D01*
X125335952Y-88019841D01*
X125344720Y-88031664D01*
X125352288Y-88044290D01*
X125358582Y-88057597D01*
X125363541Y-88071457D01*
X125367118Y-88085736D01*
X125369278Y-88100297D01*
X125370000Y-88115000D01*
X125370000Y-88415000D01*
X125369278Y-88429703D01*
X125367118Y-88444264D01*
X125363541Y-88458543D01*
X125358582Y-88472403D01*
X125352288Y-88485710D01*
X125344720Y-88498336D01*
X125335952Y-88510159D01*
X125326066Y-88521066D01*
X125315159Y-88530952D01*
X125303336Y-88539720D01*
X125290710Y-88547288D01*
X125277403Y-88553582D01*
X125263543Y-88558541D01*
X125249264Y-88562118D01*
X125234703Y-88564278D01*
X125220000Y-88565000D01*
X123570000Y-88565000D01*
X123555297Y-88564278D01*
X123540736Y-88562118D01*
X123526457Y-88558541D01*
X123512597Y-88553582D01*
X123499290Y-88547288D01*
X123486664Y-88539720D01*
X123474841Y-88530952D01*
X123463934Y-88521066D01*
X123454048Y-88510159D01*
X123445280Y-88498336D01*
X123437712Y-88485710D01*
X123431418Y-88472403D01*
X123426459Y-88458543D01*
X123422882Y-88444264D01*
X123420722Y-88429703D01*
X123420000Y-88415000D01*
X123420000Y-88115000D01*
X123420722Y-88100297D01*
X123422882Y-88085736D01*
X123426459Y-88071457D01*
X123431418Y-88057597D01*
X123437712Y-88044290D01*
X123445280Y-88031664D01*
X123454048Y-88019841D01*
X123463934Y-88008934D01*
X123474841Y-87999048D01*
X123486664Y-87990280D01*
X123499290Y-87982712D01*
X123512597Y-87976418D01*
X123526457Y-87971459D01*
X123540736Y-87967882D01*
X123555297Y-87965722D01*
X123570000Y-87965000D01*
X125220000Y-87965000D01*
X125234703Y-87965722D01*
G37*
G04 #@! TD.AperFunction*
G04 #@! TA.AperFunction,SMDPad,CuDef*
G36*
X125234703Y-89235722D02*
G01*
X125249264Y-89237882D01*
X125263543Y-89241459D01*
X125277403Y-89246418D01*
X125290710Y-89252712D01*
X125303336Y-89260280D01*
X125315159Y-89269048D01*
X125326066Y-89278934D01*
X125335952Y-89289841D01*
X125344720Y-89301664D01*
X125352288Y-89314290D01*
X125358582Y-89327597D01*
X125363541Y-89341457D01*
X125367118Y-89355736D01*
X125369278Y-89370297D01*
X125370000Y-89385000D01*
X125370000Y-89685000D01*
X125369278Y-89699703D01*
X125367118Y-89714264D01*
X125363541Y-89728543D01*
X125358582Y-89742403D01*
X125352288Y-89755710D01*
X125344720Y-89768336D01*
X125335952Y-89780159D01*
X125326066Y-89791066D01*
X125315159Y-89800952D01*
X125303336Y-89809720D01*
X125290710Y-89817288D01*
X125277403Y-89823582D01*
X125263543Y-89828541D01*
X125249264Y-89832118D01*
X125234703Y-89834278D01*
X125220000Y-89835000D01*
X123570000Y-89835000D01*
X123555297Y-89834278D01*
X123540736Y-89832118D01*
X123526457Y-89828541D01*
X123512597Y-89823582D01*
X123499290Y-89817288D01*
X123486664Y-89809720D01*
X123474841Y-89800952D01*
X123463934Y-89791066D01*
X123454048Y-89780159D01*
X123445280Y-89768336D01*
X123437712Y-89755710D01*
X123431418Y-89742403D01*
X123426459Y-89728543D01*
X123422882Y-89714264D01*
X123420722Y-89699703D01*
X123420000Y-89685000D01*
X123420000Y-89385000D01*
X123420722Y-89370297D01*
X123422882Y-89355736D01*
X123426459Y-89341457D01*
X123431418Y-89327597D01*
X123437712Y-89314290D01*
X123445280Y-89301664D01*
X123454048Y-89289841D01*
X123463934Y-89278934D01*
X123474841Y-89269048D01*
X123486664Y-89260280D01*
X123499290Y-89252712D01*
X123512597Y-89246418D01*
X123526457Y-89241459D01*
X123540736Y-89237882D01*
X123555297Y-89235722D01*
X123570000Y-89235000D01*
X125220000Y-89235000D01*
X125234703Y-89235722D01*
G37*
G04 #@! TD.AperFunction*
G04 #@! TA.AperFunction,SMDPad,CuDef*
G36*
X122899506Y-85981204D02*
G01*
X122923774Y-85984804D01*
X122947573Y-85990765D01*
X122970672Y-85999030D01*
X122992850Y-86009519D01*
X123013893Y-86022132D01*
X123033599Y-86036747D01*
X123051777Y-86053223D01*
X123068253Y-86071401D01*
X123082868Y-86091107D01*
X123095481Y-86112150D01*
X123105970Y-86134328D01*
X123114235Y-86157427D01*
X123120196Y-86181226D01*
X123123796Y-86205494D01*
X123125000Y-86229998D01*
X123125000Y-89030002D01*
X123123796Y-89054506D01*
X123120196Y-89078774D01*
X123114235Y-89102573D01*
X123105970Y-89125672D01*
X123095481Y-89147850D01*
X123082868Y-89168893D01*
X123068253Y-89188599D01*
X123051777Y-89206777D01*
X123033599Y-89223253D01*
X123013893Y-89237868D01*
X122992850Y-89250481D01*
X122970672Y-89260970D01*
X122947573Y-89269235D01*
X122923774Y-89275196D01*
X122899506Y-89278796D01*
X122875002Y-89280000D01*
X120964998Y-89280000D01*
X120940494Y-89278796D01*
X120916226Y-89275196D01*
X120892427Y-89269235D01*
X120869328Y-89260970D01*
X120847150Y-89250481D01*
X120826107Y-89237868D01*
X120806401Y-89223253D01*
X120788223Y-89206777D01*
X120771747Y-89188599D01*
X120757132Y-89168893D01*
X120744519Y-89147850D01*
X120734030Y-89125672D01*
X120725765Y-89102573D01*
X120719804Y-89078774D01*
X120716204Y-89054506D01*
X120715000Y-89030002D01*
X120715000Y-86229998D01*
X120716204Y-86205494D01*
X120719804Y-86181226D01*
X120725765Y-86157427D01*
X120734030Y-86134328D01*
X120744519Y-86112150D01*
X120757132Y-86091107D01*
X120771747Y-86071401D01*
X120788223Y-86053223D01*
X120806401Y-86036747D01*
X120826107Y-86022132D01*
X120847150Y-86009519D01*
X120869328Y-85999030D01*
X120892427Y-85990765D01*
X120916226Y-85984804D01*
X120940494Y-85981204D01*
X120964998Y-85980000D01*
X122875002Y-85980000D01*
X122899506Y-85981204D01*
G37*
G04 #@! TD.AperFunction*
D18*
X132465000Y-89310000D03*
X131815000Y-89310000D03*
X131165000Y-89310000D03*
X130515000Y-89310000D03*
X129865000Y-89310000D03*
X129215000Y-89310000D03*
X128565000Y-89310000D03*
X127915000Y-89310000D03*
X127265000Y-89310000D03*
X126615000Y-89310000D03*
X126615000Y-83410000D03*
X127265000Y-83410000D03*
X127915000Y-83410000D03*
X128565000Y-83410000D03*
X129215000Y-83410000D03*
X129865000Y-83410000D03*
X130515000Y-83410000D03*
X131165000Y-83410000D03*
X131815000Y-83410000D03*
X132465000Y-83410000D03*
D19*
X122682000Y-83820000D03*
X122555000Y-88900000D03*
D20*
X128270000Y-86614000D03*
D19*
X122555000Y-85344000D03*
D20*
X131318000Y-85598000D03*
X127762000Y-80264000D03*
X124460000Y-80264000D03*
D19*
X115062000Y-84328000D03*
D20*
X121920000Y-82296000D03*
D19*
X117601996Y-85598000D03*
D20*
X129286000Y-86106000D03*
X125476000Y-83820000D03*
X132362248Y-87859453D03*
X130810000Y-87884000D03*
X128270000Y-84836000D03*
D19*
X117475000Y-89535000D03*
X117475000Y-87630000D03*
D20*
X126211962Y-89698739D03*
X128016003Y-87630003D03*
X127000000Y-81534000D03*
X126492000Y-80772000D03*
D21*
X129215000Y-87559000D02*
X128270000Y-86614000D01*
X129215000Y-89310000D02*
X129215000Y-87559000D01*
D22*
X127787500Y-80238500D02*
X127762000Y-80264000D01*
D21*
X119522500Y-81602500D02*
X119670000Y-81750000D01*
X119522500Y-80965000D02*
X119522500Y-81602500D01*
D23*
X116586000Y-80518000D02*
X116954000Y-80150000D01*
D24*
X115697000Y-80518000D02*
X115570000Y-80645000D01*
X116586000Y-80518000D02*
X115697000Y-80518000D01*
D25*
X116954000Y-80150000D02*
X117076990Y-80027010D01*
X118584510Y-80027010D02*
X119522500Y-80965000D01*
X117076990Y-80027010D02*
X118584510Y-80027010D01*
D22*
X120408500Y-81750000D02*
X119670000Y-81750000D01*
X121386500Y-80772000D02*
X120408500Y-81750000D01*
D21*
X117970000Y-82270000D02*
X117820000Y-82420000D01*
X117970000Y-80965000D02*
X117970000Y-82270000D01*
D24*
X117055000Y-83185000D02*
X117820000Y-82420000D01*
D23*
X115570000Y-83185000D02*
X117055000Y-83185000D01*
D24*
X115062000Y-83693000D02*
X115570000Y-83185000D01*
D23*
X115062000Y-84328000D02*
X115062000Y-83693000D01*
X117728996Y-85725000D02*
X117601996Y-85598000D01*
X119445000Y-85725000D02*
X117728996Y-85725000D01*
D24*
X122605000Y-82042000D02*
X122748000Y-82185000D01*
X121412000Y-82804000D02*
X121920000Y-82296000D01*
X121412000Y-83032500D02*
X121412000Y-82804000D01*
X122637000Y-82296000D02*
X122748000Y-82185000D01*
X121920000Y-82296000D02*
X122637000Y-82296000D01*
X117970000Y-84135000D02*
X117795000Y-84135000D01*
D23*
X116586000Y-84836000D02*
X116459000Y-84836000D01*
X116459000Y-84836000D02*
X115570000Y-85725000D01*
X117602000Y-84328000D02*
X117094000Y-84328000D01*
X117094000Y-84328000D02*
X116586000Y-84836000D01*
D21*
X124841000Y-85725000D02*
X124395000Y-85725000D01*
D22*
X129865000Y-89310000D02*
X129865000Y-83410000D01*
X125476000Y-83013000D02*
X124648000Y-82185000D01*
X125476000Y-83820000D02*
X125476000Y-83013000D01*
X126615000Y-82673000D02*
X126615000Y-83410000D01*
X124968000Y-81026000D02*
X126615000Y-82673000D01*
X122961500Y-80772000D02*
X123215500Y-81026000D01*
X123215500Y-81026000D02*
X124968000Y-81026000D01*
D21*
X132465000Y-89310000D02*
X132465000Y-87962205D01*
X132465000Y-87962205D02*
X132362248Y-87859453D01*
X131364000Y-87884000D02*
X130810000Y-87884000D01*
X131815000Y-88335000D02*
X131364000Y-87884000D01*
X131815000Y-89310000D02*
X131815000Y-88335000D01*
X128764000Y-84836000D02*
X128270000Y-84836000D01*
X129215000Y-84385000D02*
X128764000Y-84836000D01*
X129215000Y-83410000D02*
X129215000Y-84385000D01*
D23*
X115570000Y-89535000D02*
X117475000Y-89535000D01*
X119445000Y-89535000D02*
X117475000Y-89535000D01*
X115570000Y-87630000D02*
X117475000Y-87630000D01*
X118110000Y-86995000D02*
X117475000Y-87630000D01*
X119445000Y-86995000D02*
X118110000Y-86995000D01*
D21*
X125105500Y-86995000D02*
X124395000Y-86995000D01*
X127016998Y-87630000D02*
X125740500Y-87630000D01*
X125740500Y-87630000D02*
X125105500Y-86995000D01*
X127915000Y-89310000D02*
X127915000Y-88528002D01*
X127915000Y-88528002D02*
X127016998Y-87630000D01*
X124522000Y-88138000D02*
X124395000Y-88265000D01*
X127265000Y-89310000D02*
X127265000Y-88514413D01*
X126888587Y-88138000D02*
X124522000Y-88138000D01*
X127265000Y-88514413D02*
X126888587Y-88138000D01*
X126600700Y-89310000D02*
X126561961Y-89348740D01*
X126615000Y-89310000D02*
X126600700Y-89310000D01*
X126561961Y-89348740D02*
X126211962Y-89698739D01*
X128565000Y-89310000D02*
X128565000Y-88179000D01*
X128565000Y-88179000D02*
X128016003Y-87630003D01*
X127265000Y-83410000D02*
X127265000Y-81799000D01*
X127265000Y-81799000D02*
X127000000Y-81534000D01*
X127254000Y-80772000D02*
X126492000Y-80772000D01*
X127915000Y-83410000D02*
X127915000Y-81433000D01*
X127915000Y-81433000D02*
X127254000Y-80772000D01*
D26*
G36*
X123952236Y-81537377D02*
G01*
X123919365Y-81598875D01*
X123899123Y-81665604D01*
X123892288Y-81735000D01*
X123892288Y-82635000D01*
X123899123Y-82704396D01*
X123919365Y-82771125D01*
X123952236Y-82832623D01*
X123996474Y-82886526D01*
X124050377Y-82930764D01*
X124111875Y-82963635D01*
X124178604Y-82983877D01*
X124248000Y-82990712D01*
X124360000Y-82990712D01*
X124360000Y-85069288D01*
X123570000Y-85069288D01*
X123471340Y-85079005D01*
X123376472Y-85107783D01*
X123289041Y-85154516D01*
X123212408Y-85217408D01*
X123149516Y-85294041D01*
X123102783Y-85381472D01*
X123074005Y-85476340D01*
X123064288Y-85575000D01*
X123064288Y-85875000D01*
X123074005Y-85973660D01*
X123102783Y-86068528D01*
X123149516Y-86155959D01*
X123212408Y-86232592D01*
X123289041Y-86295484D01*
X123376472Y-86342217D01*
X123435094Y-86360000D01*
X123376472Y-86377783D01*
X123289041Y-86424516D01*
X123212408Y-86487408D01*
X123149516Y-86564041D01*
X123102783Y-86651472D01*
X123074005Y-86746340D01*
X123064288Y-86845000D01*
X123064288Y-87145000D01*
X123074005Y-87243660D01*
X123102783Y-87338528D01*
X123149516Y-87425959D01*
X123212408Y-87502592D01*
X123289041Y-87565484D01*
X123376472Y-87612217D01*
X123435094Y-87630000D01*
X123376472Y-87647783D01*
X123289041Y-87694516D01*
X123212408Y-87757408D01*
X123149516Y-87834041D01*
X123102783Y-87921472D01*
X123074005Y-88016340D01*
X123064288Y-88115000D01*
X123064288Y-88415000D01*
X123074005Y-88513660D01*
X123102783Y-88608528D01*
X123149516Y-88695959D01*
X123212408Y-88772592D01*
X123289041Y-88835484D01*
X123376472Y-88882217D01*
X123471340Y-88910995D01*
X123570000Y-88920712D01*
X124362040Y-88920712D01*
X124366802Y-88969062D01*
X124386947Y-89035470D01*
X124419660Y-89096672D01*
X124463684Y-89150316D01*
X124517328Y-89194340D01*
X124578530Y-89227053D01*
X124644938Y-89247198D01*
X124714000Y-89254000D01*
X125662434Y-89254000D01*
X125588086Y-89365270D01*
X125535017Y-89493390D01*
X125507962Y-89629401D01*
X125507962Y-89768077D01*
X125535017Y-89904088D01*
X125588086Y-90032208D01*
X125665130Y-90147513D01*
X125763188Y-90245571D01*
X125878493Y-90322615D01*
X126006613Y-90375684D01*
X126142624Y-90402739D01*
X126281300Y-90402739D01*
X126357737Y-90387534D01*
X126390000Y-90390712D01*
X126840000Y-90390712D01*
X126909396Y-90383877D01*
X126940000Y-90374593D01*
X126970604Y-90383877D01*
X127040000Y-90390712D01*
X127490000Y-90390712D01*
X127559396Y-90383877D01*
X127590000Y-90374593D01*
X127620604Y-90383877D01*
X127690000Y-90390712D01*
X128140000Y-90390712D01*
X128209396Y-90383877D01*
X128240000Y-90374593D01*
X128270604Y-90383877D01*
X128340000Y-90390712D01*
X128790000Y-90390712D01*
X128859396Y-90383877D01*
X128926125Y-90363635D01*
X128987623Y-90330764D01*
X129041526Y-90286526D01*
X129085764Y-90232623D01*
X129118635Y-90171125D01*
X129138877Y-90104396D01*
X129145712Y-90035000D01*
X129145712Y-89254000D01*
X129284288Y-89254000D01*
X129284288Y-90035000D01*
X129291123Y-90104396D01*
X129311365Y-90171125D01*
X129344236Y-90232623D01*
X129388474Y-90286526D01*
X129442377Y-90330764D01*
X129503875Y-90363635D01*
X129570604Y-90383877D01*
X129640000Y-90390712D01*
X130090000Y-90390712D01*
X130159396Y-90383877D01*
X130190000Y-90374593D01*
X130220604Y-90383877D01*
X130290000Y-90390712D01*
X130740000Y-90390712D01*
X130809396Y-90383877D01*
X130840000Y-90374593D01*
X130870604Y-90383877D01*
X130940000Y-90390712D01*
X131390000Y-90390712D01*
X131459396Y-90383877D01*
X131490000Y-90374593D01*
X131520604Y-90383877D01*
X131590000Y-90390712D01*
X132040000Y-90390712D01*
X132109396Y-90383877D01*
X132140000Y-90374593D01*
X132170604Y-90383877D01*
X132240000Y-90390712D01*
X132690000Y-90390712D01*
X132759396Y-90383877D01*
X132826125Y-90363635D01*
X132887623Y-90330764D01*
X132941526Y-90286526D01*
X132971001Y-90250611D01*
X132971001Y-90426000D01*
X116773428Y-90426000D01*
X116821526Y-90386526D01*
X116865764Y-90332623D01*
X116889081Y-90289000D01*
X119482039Y-90289000D01*
X119592810Y-90278090D01*
X119734939Y-90234975D01*
X119817750Y-90190712D01*
X120270000Y-90190712D01*
X120368660Y-90180995D01*
X120463528Y-90152217D01*
X120550959Y-90105484D01*
X120627592Y-90042592D01*
X120690484Y-89965959D01*
X120737217Y-89878528D01*
X120765995Y-89783660D01*
X120775712Y-89685000D01*
X120775712Y-89385000D01*
X120765995Y-89286340D01*
X120737217Y-89191472D01*
X120690484Y-89104041D01*
X120627592Y-89027408D01*
X120550959Y-88964516D01*
X120463528Y-88917783D01*
X120368660Y-88889005D01*
X120270000Y-88879288D01*
X119817750Y-88879288D01*
X119734939Y-88835025D01*
X119592810Y-88791910D01*
X119482039Y-88781000D01*
X116889081Y-88781000D01*
X116865764Y-88737377D01*
X116821526Y-88683474D01*
X116767623Y-88639236D01*
X116706125Y-88606365D01*
X116639396Y-88586123D01*
X116602612Y-88582500D01*
X116639396Y-88578877D01*
X116706125Y-88558635D01*
X116767623Y-88525764D01*
X116821526Y-88481526D01*
X116865764Y-88427623D01*
X116889081Y-88384000D01*
X117437969Y-88384000D01*
X117475000Y-88387647D01*
X117512031Y-88384000D01*
X117549262Y-88384000D01*
X117585770Y-88376738D01*
X117622810Y-88373090D01*
X117658425Y-88362286D01*
X117694934Y-88355024D01*
X117729327Y-88340778D01*
X117764939Y-88329975D01*
X117797759Y-88312432D01*
X117832153Y-88298186D01*
X117863105Y-88277505D01*
X117895927Y-88259961D01*
X117924697Y-88236350D01*
X117955647Y-88215670D01*
X117981968Y-88189349D01*
X118010738Y-88165738D01*
X118034349Y-88136968D01*
X118060670Y-88110647D01*
X118060672Y-88110644D01*
X118422317Y-87749000D01*
X119482039Y-87749000D01*
X119592810Y-87738090D01*
X119734939Y-87694975D01*
X119817750Y-87650712D01*
X120270000Y-87650712D01*
X120368660Y-87640995D01*
X120463528Y-87612217D01*
X120550959Y-87565484D01*
X120627592Y-87502592D01*
X120690484Y-87425959D01*
X120737217Y-87338528D01*
X120765995Y-87243660D01*
X120775712Y-87145000D01*
X120775712Y-86845000D01*
X120765995Y-86746340D01*
X120737217Y-86651472D01*
X120690484Y-86564041D01*
X120627592Y-86487408D01*
X120550959Y-86424516D01*
X120463528Y-86377783D01*
X120404906Y-86360000D01*
X120463528Y-86342217D01*
X120550959Y-86295484D01*
X120627592Y-86232592D01*
X120690484Y-86155959D01*
X120737217Y-86068528D01*
X120765995Y-85973660D01*
X120775712Y-85875000D01*
X120775712Y-85575000D01*
X120765995Y-85476340D01*
X120737217Y-85381472D01*
X120690484Y-85294041D01*
X120627592Y-85217408D01*
X120550959Y-85154516D01*
X120463528Y-85107783D01*
X120368660Y-85079005D01*
X120270000Y-85069288D01*
X119817750Y-85069288D01*
X119734939Y-85025025D01*
X119592810Y-84981910D01*
X119482039Y-84971000D01*
X118026530Y-84971000D01*
X118022922Y-84968039D01*
X118013497Y-84963001D01*
X118022927Y-84957961D01*
X118137738Y-84863738D01*
X118185359Y-84805712D01*
X118250000Y-84805712D01*
X118319396Y-84798877D01*
X118386125Y-84778635D01*
X118447623Y-84745764D01*
X118501526Y-84701526D01*
X118545764Y-84647623D01*
X118578635Y-84586125D01*
X118598877Y-84519396D01*
X118605712Y-84450000D01*
X118605712Y-84023928D01*
X118656125Y-84008635D01*
X118704354Y-83982856D01*
X118733875Y-83998635D01*
X118800604Y-84018877D01*
X118870000Y-84025712D01*
X120470000Y-84025712D01*
X120539396Y-84018877D01*
X120606125Y-83998635D01*
X120667623Y-83965764D01*
X120721526Y-83921526D01*
X120765764Y-83867623D01*
X120798635Y-83806125D01*
X120818877Y-83739396D01*
X120821159Y-83716229D01*
X120836596Y-83728898D01*
X120935913Y-83781984D01*
X121043678Y-83814674D01*
X121155750Y-83825712D01*
X121668250Y-83825712D01*
X121780322Y-83814674D01*
X121888087Y-83781984D01*
X121987404Y-83728898D01*
X122074456Y-83657456D01*
X122145898Y-83570404D01*
X122198984Y-83471087D01*
X122231674Y-83363322D01*
X122242712Y-83251250D01*
X122242712Y-82972989D01*
X122278604Y-82983877D01*
X122348000Y-82990712D01*
X123148000Y-82990712D01*
X123217396Y-82983877D01*
X123284125Y-82963635D01*
X123345623Y-82930764D01*
X123399526Y-82886526D01*
X123443764Y-82832623D01*
X123476635Y-82771125D01*
X123496877Y-82704396D01*
X123503712Y-82635000D01*
X123503712Y-81735000D01*
X123496877Y-81665604D01*
X123476635Y-81598875D01*
X123443764Y-81537377D01*
X123442772Y-81536168D01*
X123454312Y-81530000D01*
X123958290Y-81530000D01*
X123952236Y-81537377D01*
G37*
X123952236Y-81537377D02*
X123919365Y-81598875D01*
X123899123Y-81665604D01*
X123892288Y-81735000D01*
X123892288Y-82635000D01*
X123899123Y-82704396D01*
X123919365Y-82771125D01*
X123952236Y-82832623D01*
X123996474Y-82886526D01*
X124050377Y-82930764D01*
X124111875Y-82963635D01*
X124178604Y-82983877D01*
X124248000Y-82990712D01*
X124360000Y-82990712D01*
X124360000Y-85069288D01*
X123570000Y-85069288D01*
X123471340Y-85079005D01*
X123376472Y-85107783D01*
X123289041Y-85154516D01*
X123212408Y-85217408D01*
X123149516Y-85294041D01*
X123102783Y-85381472D01*
X123074005Y-85476340D01*
X123064288Y-85575000D01*
X123064288Y-85875000D01*
X123074005Y-85973660D01*
X123102783Y-86068528D01*
X123149516Y-86155959D01*
X123212408Y-86232592D01*
X123289041Y-86295484D01*
X123376472Y-86342217D01*
X123435094Y-86360000D01*
X123376472Y-86377783D01*
X123289041Y-86424516D01*
X123212408Y-86487408D01*
X123149516Y-86564041D01*
X123102783Y-86651472D01*
X123074005Y-86746340D01*
X123064288Y-86845000D01*
X123064288Y-87145000D01*
X123074005Y-87243660D01*
X123102783Y-87338528D01*
X123149516Y-87425959D01*
X123212408Y-87502592D01*
X123289041Y-87565484D01*
X123376472Y-87612217D01*
X123435094Y-87630000D01*
X123376472Y-87647783D01*
X123289041Y-87694516D01*
X123212408Y-87757408D01*
X123149516Y-87834041D01*
X123102783Y-87921472D01*
X123074005Y-88016340D01*
X123064288Y-88115000D01*
X123064288Y-88415000D01*
X123074005Y-88513660D01*
X123102783Y-88608528D01*
X123149516Y-88695959D01*
X123212408Y-88772592D01*
X123289041Y-88835484D01*
X123376472Y-88882217D01*
X123471340Y-88910995D01*
X123570000Y-88920712D01*
X124362040Y-88920712D01*
X124366802Y-88969062D01*
X124386947Y-89035470D01*
X124419660Y-89096672D01*
X124463684Y-89150316D01*
X124517328Y-89194340D01*
X124578530Y-89227053D01*
X124644938Y-89247198D01*
X124714000Y-89254000D01*
X125662434Y-89254000D01*
X125588086Y-89365270D01*
X125535017Y-89493390D01*
X125507962Y-89629401D01*
X125507962Y-89768077D01*
X125535017Y-89904088D01*
X125588086Y-90032208D01*
X125665130Y-90147513D01*
X125763188Y-90245571D01*
X125878493Y-90322615D01*
X126006613Y-90375684D01*
X126142624Y-90402739D01*
X126281300Y-90402739D01*
X126357737Y-90387534D01*
X126390000Y-90390712D01*
X126840000Y-90390712D01*
X126909396Y-90383877D01*
X126940000Y-90374593D01*
X126970604Y-90383877D01*
X127040000Y-90390712D01*
X127490000Y-90390712D01*
X127559396Y-90383877D01*
X127590000Y-90374593D01*
X127620604Y-90383877D01*
X127690000Y-90390712D01*
X128140000Y-90390712D01*
X128209396Y-90383877D01*
X128240000Y-90374593D01*
X128270604Y-90383877D01*
X128340000Y-90390712D01*
X128790000Y-90390712D01*
X128859396Y-90383877D01*
X128926125Y-90363635D01*
X128987623Y-90330764D01*
X129041526Y-90286526D01*
X129085764Y-90232623D01*
X129118635Y-90171125D01*
X129138877Y-90104396D01*
X129145712Y-90035000D01*
X129145712Y-89254000D01*
X129284288Y-89254000D01*
X129284288Y-90035000D01*
X129291123Y-90104396D01*
X129311365Y-90171125D01*
X129344236Y-90232623D01*
X129388474Y-90286526D01*
X129442377Y-90330764D01*
X129503875Y-90363635D01*
X129570604Y-90383877D01*
X129640000Y-90390712D01*
X130090000Y-90390712D01*
X130159396Y-90383877D01*
X130190000Y-90374593D01*
X130220604Y-90383877D01*
X130290000Y-90390712D01*
X130740000Y-90390712D01*
X130809396Y-90383877D01*
X130840000Y-90374593D01*
X130870604Y-90383877D01*
X130940000Y-90390712D01*
X131390000Y-90390712D01*
X131459396Y-90383877D01*
X131490000Y-90374593D01*
X131520604Y-90383877D01*
X131590000Y-90390712D01*
X132040000Y-90390712D01*
X132109396Y-90383877D01*
X132140000Y-90374593D01*
X132170604Y-90383877D01*
X132240000Y-90390712D01*
X132690000Y-90390712D01*
X132759396Y-90383877D01*
X132826125Y-90363635D01*
X132887623Y-90330764D01*
X132941526Y-90286526D01*
X132971001Y-90250611D01*
X132971001Y-90426000D01*
X116773428Y-90426000D01*
X116821526Y-90386526D01*
X116865764Y-90332623D01*
X116889081Y-90289000D01*
X119482039Y-90289000D01*
X119592810Y-90278090D01*
X119734939Y-90234975D01*
X119817750Y-90190712D01*
X120270000Y-90190712D01*
X120368660Y-90180995D01*
X120463528Y-90152217D01*
X120550959Y-90105484D01*
X120627592Y-90042592D01*
X120690484Y-89965959D01*
X120737217Y-89878528D01*
X120765995Y-89783660D01*
X120775712Y-89685000D01*
X120775712Y-89385000D01*
X120765995Y-89286340D01*
X120737217Y-89191472D01*
X120690484Y-89104041D01*
X120627592Y-89027408D01*
X120550959Y-88964516D01*
X120463528Y-88917783D01*
X120368660Y-88889005D01*
X120270000Y-88879288D01*
X119817750Y-88879288D01*
X119734939Y-88835025D01*
X119592810Y-88791910D01*
X119482039Y-88781000D01*
X116889081Y-88781000D01*
X116865764Y-88737377D01*
X116821526Y-88683474D01*
X116767623Y-88639236D01*
X116706125Y-88606365D01*
X116639396Y-88586123D01*
X116602612Y-88582500D01*
X116639396Y-88578877D01*
X116706125Y-88558635D01*
X116767623Y-88525764D01*
X116821526Y-88481526D01*
X116865764Y-88427623D01*
X116889081Y-88384000D01*
X117437969Y-88384000D01*
X117475000Y-88387647D01*
X117512031Y-88384000D01*
X117549262Y-88384000D01*
X117585770Y-88376738D01*
X117622810Y-88373090D01*
X117658425Y-88362286D01*
X117694934Y-88355024D01*
X117729327Y-88340778D01*
X117764939Y-88329975D01*
X117797759Y-88312432D01*
X117832153Y-88298186D01*
X117863105Y-88277505D01*
X117895927Y-88259961D01*
X117924697Y-88236350D01*
X117955647Y-88215670D01*
X117981968Y-88189349D01*
X118010738Y-88165738D01*
X118034349Y-88136968D01*
X118060670Y-88110647D01*
X118060672Y-88110644D01*
X118422317Y-87749000D01*
X119482039Y-87749000D01*
X119592810Y-87738090D01*
X119734939Y-87694975D01*
X119817750Y-87650712D01*
X120270000Y-87650712D01*
X120368660Y-87640995D01*
X120463528Y-87612217D01*
X120550959Y-87565484D01*
X120627592Y-87502592D01*
X120690484Y-87425959D01*
X120737217Y-87338528D01*
X120765995Y-87243660D01*
X120775712Y-87145000D01*
X120775712Y-86845000D01*
X120765995Y-86746340D01*
X120737217Y-86651472D01*
X120690484Y-86564041D01*
X120627592Y-86487408D01*
X120550959Y-86424516D01*
X120463528Y-86377783D01*
X120404906Y-86360000D01*
X120463528Y-86342217D01*
X120550959Y-86295484D01*
X120627592Y-86232592D01*
X120690484Y-86155959D01*
X120737217Y-86068528D01*
X120765995Y-85973660D01*
X120775712Y-85875000D01*
X120775712Y-85575000D01*
X120765995Y-85476340D01*
X120737217Y-85381472D01*
X120690484Y-85294041D01*
X120627592Y-85217408D01*
X120550959Y-85154516D01*
X120463528Y-85107783D01*
X120368660Y-85079005D01*
X120270000Y-85069288D01*
X119817750Y-85069288D01*
X119734939Y-85025025D01*
X119592810Y-84981910D01*
X119482039Y-84971000D01*
X118026530Y-84971000D01*
X118022922Y-84968039D01*
X118013497Y-84963001D01*
X118022927Y-84957961D01*
X118137738Y-84863738D01*
X118185359Y-84805712D01*
X118250000Y-84805712D01*
X118319396Y-84798877D01*
X118386125Y-84778635D01*
X118447623Y-84745764D01*
X118501526Y-84701526D01*
X118545764Y-84647623D01*
X118578635Y-84586125D01*
X118598877Y-84519396D01*
X118605712Y-84450000D01*
X118605712Y-84023928D01*
X118656125Y-84008635D01*
X118704354Y-83982856D01*
X118733875Y-83998635D01*
X118800604Y-84018877D01*
X118870000Y-84025712D01*
X120470000Y-84025712D01*
X120539396Y-84018877D01*
X120606125Y-83998635D01*
X120667623Y-83965764D01*
X120721526Y-83921526D01*
X120765764Y-83867623D01*
X120798635Y-83806125D01*
X120818877Y-83739396D01*
X120821159Y-83716229D01*
X120836596Y-83728898D01*
X120935913Y-83781984D01*
X121043678Y-83814674D01*
X121155750Y-83825712D01*
X121668250Y-83825712D01*
X121780322Y-83814674D01*
X121888087Y-83781984D01*
X121987404Y-83728898D01*
X122074456Y-83657456D01*
X122145898Y-83570404D01*
X122198984Y-83471087D01*
X122231674Y-83363322D01*
X122242712Y-83251250D01*
X122242712Y-82972989D01*
X122278604Y-82983877D01*
X122348000Y-82990712D01*
X123148000Y-82990712D01*
X123217396Y-82983877D01*
X123284125Y-82963635D01*
X123345623Y-82930764D01*
X123399526Y-82886526D01*
X123443764Y-82832623D01*
X123476635Y-82771125D01*
X123496877Y-82704396D01*
X123503712Y-82635000D01*
X123503712Y-81735000D01*
X123496877Y-81665604D01*
X123476635Y-81598875D01*
X123443764Y-81537377D01*
X123442772Y-81536168D01*
X123454312Y-81530000D01*
X123958290Y-81530000D01*
X123952236Y-81537377D01*
G36*
X132971001Y-87503350D02*
G01*
X132909080Y-87410679D01*
X132811022Y-87312621D01*
X132695717Y-87235577D01*
X132567597Y-87182508D01*
X132431586Y-87155453D01*
X132292910Y-87155453D01*
X132156899Y-87182508D01*
X132028779Y-87235577D01*
X131913474Y-87312621D01*
X131815416Y-87410679D01*
X131738372Y-87525984D01*
X131722268Y-87564861D01*
X131719347Y-87561940D01*
X131704343Y-87543657D01*
X131631405Y-87483800D01*
X131548192Y-87439321D01*
X131457900Y-87411931D01*
X131387526Y-87405000D01*
X131387523Y-87405000D01*
X131364000Y-87402683D01*
X131340477Y-87405000D01*
X131326606Y-87405000D01*
X131258774Y-87337168D01*
X131143469Y-87260124D01*
X131015349Y-87207055D01*
X130879338Y-87180000D01*
X130740662Y-87180000D01*
X130656000Y-87196841D01*
X130656000Y-84490712D01*
X130740000Y-84490712D01*
X130809396Y-84483877D01*
X130840000Y-84474593D01*
X130870604Y-84483877D01*
X130940000Y-84490712D01*
X131390000Y-84490712D01*
X131459396Y-84483877D01*
X131490000Y-84474593D01*
X131520604Y-84483877D01*
X131590000Y-84490712D01*
X132040000Y-84490712D01*
X132109396Y-84483877D01*
X132140000Y-84474593D01*
X132170604Y-84483877D01*
X132240000Y-84490712D01*
X132690000Y-84490712D01*
X132759396Y-84483877D01*
X132826125Y-84463635D01*
X132887623Y-84430764D01*
X132941526Y-84386526D01*
X132971000Y-84350612D01*
X132971001Y-87503350D01*
G37*
X132971001Y-87503350D02*
X132909080Y-87410679D01*
X132811022Y-87312621D01*
X132695717Y-87235577D01*
X132567597Y-87182508D01*
X132431586Y-87155453D01*
X132292910Y-87155453D01*
X132156899Y-87182508D01*
X132028779Y-87235577D01*
X131913474Y-87312621D01*
X131815416Y-87410679D01*
X131738372Y-87525984D01*
X131722268Y-87564861D01*
X131719347Y-87561940D01*
X131704343Y-87543657D01*
X131631405Y-87483800D01*
X131548192Y-87439321D01*
X131457900Y-87411931D01*
X131387526Y-87405000D01*
X131387523Y-87405000D01*
X131364000Y-87402683D01*
X131340477Y-87405000D01*
X131326606Y-87405000D01*
X131258774Y-87337168D01*
X131143469Y-87260124D01*
X131015349Y-87207055D01*
X130879338Y-87180000D01*
X130740662Y-87180000D01*
X130656000Y-87196841D01*
X130656000Y-84490712D01*
X130740000Y-84490712D01*
X130809396Y-84483877D01*
X130840000Y-84474593D01*
X130870604Y-84483877D01*
X130940000Y-84490712D01*
X131390000Y-84490712D01*
X131459396Y-84483877D01*
X131490000Y-84474593D01*
X131520604Y-84483877D01*
X131590000Y-84490712D01*
X132040000Y-84490712D01*
X132109396Y-84483877D01*
X132140000Y-84474593D01*
X132170604Y-84483877D01*
X132240000Y-84490712D01*
X132690000Y-84490712D01*
X132759396Y-84483877D01*
X132826125Y-84463635D01*
X132887623Y-84430764D01*
X132941526Y-84386526D01*
X132971000Y-84350612D01*
X132971001Y-87503350D01*
G36*
X132971000Y-82469388D02*
G01*
X132941526Y-82433474D01*
X132887623Y-82389236D01*
X132826125Y-82356365D01*
X132759396Y-82336123D01*
X132690000Y-82329288D01*
X132240000Y-82329288D01*
X132170604Y-82336123D01*
X132140000Y-82345407D01*
X132109396Y-82336123D01*
X132040000Y-82329288D01*
X131590000Y-82329288D01*
X131520604Y-82336123D01*
X131490000Y-82345407D01*
X131459396Y-82336123D01*
X131390000Y-82329288D01*
X131164000Y-82329288D01*
X131164000Y-80518000D01*
X131157198Y-80448938D01*
X131137053Y-80382530D01*
X131104340Y-80321328D01*
X131060316Y-80267684D01*
X131006672Y-80223660D01*
X130945470Y-80190947D01*
X130879062Y-80170802D01*
X130810000Y-80164000D01*
X128524000Y-80164000D01*
X128454938Y-80170802D01*
X128388530Y-80190947D01*
X128327328Y-80223660D01*
X128273684Y-80267684D01*
X128229660Y-80321328D01*
X128196947Y-80382530D01*
X128176802Y-80448938D01*
X128170000Y-80518000D01*
X128170000Y-81010592D01*
X127609347Y-80449940D01*
X127594343Y-80431657D01*
X127521405Y-80371800D01*
X127438192Y-80327321D01*
X127347900Y-80299931D01*
X127277526Y-80293000D01*
X127277523Y-80293000D01*
X127254000Y-80290683D01*
X127230477Y-80293000D01*
X127008606Y-80293000D01*
X126940774Y-80225168D01*
X126825469Y-80148124D01*
X126697349Y-80095055D01*
X126561338Y-80068000D01*
X126422662Y-80068000D01*
X126286651Y-80095055D01*
X126158531Y-80148124D01*
X126043226Y-80225168D01*
X125945168Y-80323226D01*
X125868124Y-80438531D01*
X125815055Y-80566651D01*
X125788000Y-80702662D01*
X125788000Y-80841338D01*
X125815055Y-80977349D01*
X125868124Y-81105469D01*
X125945168Y-81220774D01*
X126043226Y-81318832D01*
X126158531Y-81395876D01*
X126286651Y-81448945D01*
X126298652Y-81451332D01*
X126296000Y-81464662D01*
X126296000Y-81603338D01*
X126305411Y-81650648D01*
X125341890Y-80687127D01*
X125326106Y-80667894D01*
X125249362Y-80604912D01*
X125161805Y-80558112D01*
X125066801Y-80529293D01*
X124992754Y-80522000D01*
X124968000Y-80519562D01*
X124943246Y-80522000D01*
X123754712Y-80522000D01*
X123754712Y-80515750D01*
X123743674Y-80403678D01*
X123710984Y-80295913D01*
X123657898Y-80196596D01*
X123586456Y-80109544D01*
X123499404Y-80038102D01*
X123400087Y-79985016D01*
X123292322Y-79952326D01*
X123180250Y-79941288D01*
X122742750Y-79941288D01*
X122630678Y-79952326D01*
X122522913Y-79985016D01*
X122423596Y-80038102D01*
X122336544Y-80109544D01*
X122265102Y-80196596D01*
X122212016Y-80295913D01*
X122179326Y-80403678D01*
X122174000Y-80457754D01*
X122168674Y-80403678D01*
X122135984Y-80295913D01*
X122082898Y-80196596D01*
X122011456Y-80109544D01*
X121924404Y-80038102D01*
X121825087Y-79985016D01*
X121717322Y-79952326D01*
X121605250Y-79941288D01*
X121167750Y-79941288D01*
X121055678Y-79952326D01*
X120947913Y-79985016D01*
X120848596Y-80038102D01*
X120761544Y-80109544D01*
X120690102Y-80196596D01*
X120637016Y-80295913D01*
X120604326Y-80403678D01*
X120593288Y-80515750D01*
X120593288Y-80817471D01*
X120539396Y-80801123D01*
X120470000Y-80794288D01*
X120158212Y-80794288D01*
X120158212Y-80650000D01*
X120151377Y-80580604D01*
X120131135Y-80513875D01*
X120098264Y-80452377D01*
X120054026Y-80398474D01*
X120000123Y-80354236D01*
X119938625Y-80321365D01*
X119871896Y-80301123D01*
X119802500Y-80294288D01*
X119776684Y-80294288D01*
X119363395Y-79881000D01*
X132971000Y-79881000D01*
X132971000Y-82469388D01*
G37*
X132971000Y-82469388D02*
X132941526Y-82433474D01*
X132887623Y-82389236D01*
X132826125Y-82356365D01*
X132759396Y-82336123D01*
X132690000Y-82329288D01*
X132240000Y-82329288D01*
X132170604Y-82336123D01*
X132140000Y-82345407D01*
X132109396Y-82336123D01*
X132040000Y-82329288D01*
X131590000Y-82329288D01*
X131520604Y-82336123D01*
X131490000Y-82345407D01*
X131459396Y-82336123D01*
X131390000Y-82329288D01*
X131164000Y-82329288D01*
X131164000Y-80518000D01*
X131157198Y-80448938D01*
X131137053Y-80382530D01*
X131104340Y-80321328D01*
X131060316Y-80267684D01*
X131006672Y-80223660D01*
X130945470Y-80190947D01*
X130879062Y-80170802D01*
X130810000Y-80164000D01*
X128524000Y-80164000D01*
X128454938Y-80170802D01*
X128388530Y-80190947D01*
X128327328Y-80223660D01*
X128273684Y-80267684D01*
X128229660Y-80321328D01*
X128196947Y-80382530D01*
X128176802Y-80448938D01*
X128170000Y-80518000D01*
X128170000Y-81010592D01*
X127609347Y-80449940D01*
X127594343Y-80431657D01*
X127521405Y-80371800D01*
X127438192Y-80327321D01*
X127347900Y-80299931D01*
X127277526Y-80293000D01*
X127277523Y-80293000D01*
X127254000Y-80290683D01*
X127230477Y-80293000D01*
X127008606Y-80293000D01*
X126940774Y-80225168D01*
X126825469Y-80148124D01*
X126697349Y-80095055D01*
X126561338Y-80068000D01*
X126422662Y-80068000D01*
X126286651Y-80095055D01*
X126158531Y-80148124D01*
X126043226Y-80225168D01*
X125945168Y-80323226D01*
X125868124Y-80438531D01*
X125815055Y-80566651D01*
X125788000Y-80702662D01*
X125788000Y-80841338D01*
X125815055Y-80977349D01*
X125868124Y-81105469D01*
X125945168Y-81220774D01*
X126043226Y-81318832D01*
X126158531Y-81395876D01*
X126286651Y-81448945D01*
X126298652Y-81451332D01*
X126296000Y-81464662D01*
X126296000Y-81603338D01*
X126305411Y-81650648D01*
X125341890Y-80687127D01*
X125326106Y-80667894D01*
X125249362Y-80604912D01*
X125161805Y-80558112D01*
X125066801Y-80529293D01*
X124992754Y-80522000D01*
X124968000Y-80519562D01*
X124943246Y-80522000D01*
X123754712Y-80522000D01*
X123754712Y-80515750D01*
X123743674Y-80403678D01*
X123710984Y-80295913D01*
X123657898Y-80196596D01*
X123586456Y-80109544D01*
X123499404Y-80038102D01*
X123400087Y-79985016D01*
X123292322Y-79952326D01*
X123180250Y-79941288D01*
X122742750Y-79941288D01*
X122630678Y-79952326D01*
X122522913Y-79985016D01*
X122423596Y-80038102D01*
X122336544Y-80109544D01*
X122265102Y-80196596D01*
X122212016Y-80295913D01*
X122179326Y-80403678D01*
X122174000Y-80457754D01*
X122168674Y-80403678D01*
X122135984Y-80295913D01*
X122082898Y-80196596D01*
X122011456Y-80109544D01*
X121924404Y-80038102D01*
X121825087Y-79985016D01*
X121717322Y-79952326D01*
X121605250Y-79941288D01*
X121167750Y-79941288D01*
X121055678Y-79952326D01*
X120947913Y-79985016D01*
X120848596Y-80038102D01*
X120761544Y-80109544D01*
X120690102Y-80196596D01*
X120637016Y-80295913D01*
X120604326Y-80403678D01*
X120593288Y-80515750D01*
X120593288Y-80817471D01*
X120539396Y-80801123D01*
X120470000Y-80794288D01*
X120158212Y-80794288D01*
X120158212Y-80650000D01*
X120151377Y-80580604D01*
X120131135Y-80513875D01*
X120098264Y-80452377D01*
X120054026Y-80398474D01*
X120000123Y-80354236D01*
X119938625Y-80321365D01*
X119871896Y-80301123D01*
X119802500Y-80294288D01*
X119776684Y-80294288D01*
X119363395Y-79881000D01*
X132971000Y-79881000D01*
X132971000Y-82469388D01*
G36*
X130710000Y-82329288D02*
G01*
X130290000Y-82329288D01*
X130220604Y-82336123D01*
X130153875Y-82356365D01*
X130092377Y-82389236D01*
X130038474Y-82433474D01*
X129994236Y-82487377D01*
X129961365Y-82548875D01*
X129941123Y-82615604D01*
X129934288Y-82685000D01*
X129934288Y-83974000D01*
X129795712Y-83974000D01*
X129795712Y-82685000D01*
X129788877Y-82615604D01*
X129768635Y-82548875D01*
X129735764Y-82487377D01*
X129691526Y-82433474D01*
X129637623Y-82389236D01*
X129576125Y-82356365D01*
X129509396Y-82336123D01*
X129440000Y-82329288D01*
X128990000Y-82329288D01*
X128920604Y-82336123D01*
X128890000Y-82345407D01*
X128859396Y-82336123D01*
X128790000Y-82329288D01*
X128624000Y-82329288D01*
X128624000Y-80618000D01*
X130710000Y-80618000D01*
X130710000Y-82329288D01*
G37*
X130710000Y-82329288D02*
X130290000Y-82329288D01*
X130220604Y-82336123D01*
X130153875Y-82356365D01*
X130092377Y-82389236D01*
X130038474Y-82433474D01*
X129994236Y-82487377D01*
X129961365Y-82548875D01*
X129941123Y-82615604D01*
X129934288Y-82685000D01*
X129934288Y-83974000D01*
X129795712Y-83974000D01*
X129795712Y-82685000D01*
X129788877Y-82615604D01*
X129768635Y-82548875D01*
X129735764Y-82487377D01*
X129691526Y-82433474D01*
X129637623Y-82389236D01*
X129576125Y-82356365D01*
X129509396Y-82336123D01*
X129440000Y-82329288D01*
X128990000Y-82329288D01*
X128920604Y-82336123D01*
X128890000Y-82345407D01*
X128859396Y-82336123D01*
X128790000Y-82329288D01*
X128624000Y-82329288D01*
X128624000Y-80618000D01*
X130710000Y-80618000D01*
X130710000Y-82329288D01*
G36*
X130202000Y-82341766D02*
G01*
X130153875Y-82356365D01*
X130092377Y-82389236D01*
X130038474Y-82433474D01*
X129994236Y-82487377D01*
X129961365Y-82548875D01*
X129941123Y-82615604D01*
X129934288Y-82685000D01*
X129934288Y-84135000D01*
X129941123Y-84204396D01*
X129961365Y-84271125D01*
X129994236Y-84332623D01*
X130038474Y-84386526D01*
X130092377Y-84430764D01*
X130153875Y-84463635D01*
X130202000Y-84478234D01*
X130202000Y-87526771D01*
X130186124Y-87550531D01*
X130133055Y-87678651D01*
X130106000Y-87814662D01*
X130106000Y-87953338D01*
X130133055Y-88089349D01*
X130186124Y-88217469D01*
X130202000Y-88241230D01*
X130202000Y-88241766D01*
X130153875Y-88256365D01*
X130092377Y-88289236D01*
X130038474Y-88333474D01*
X129994236Y-88387377D01*
X129961365Y-88448875D01*
X129941123Y-88515604D01*
X129934288Y-88585000D01*
X129934288Y-88800000D01*
X129795712Y-88800000D01*
X129795712Y-88585000D01*
X129788877Y-88515604D01*
X129768635Y-88448875D01*
X129735764Y-88387377D01*
X129694000Y-88336489D01*
X129694000Y-87582523D01*
X129696317Y-87559000D01*
X129694000Y-87535474D01*
X129687069Y-87465100D01*
X129659679Y-87374808D01*
X129617840Y-87296534D01*
X129615200Y-87291594D01*
X129589373Y-87260124D01*
X129555343Y-87218657D01*
X129537065Y-87203657D01*
X128974000Y-86640593D01*
X128974000Y-86544662D01*
X128946945Y-86408651D01*
X128893876Y-86280531D01*
X128816832Y-86165226D01*
X128718774Y-86067168D01*
X128603469Y-85990124D01*
X128475349Y-85937055D01*
X128339338Y-85910000D01*
X128200662Y-85910000D01*
X128064651Y-85937055D01*
X127936531Y-85990124D01*
X127821226Y-86067168D01*
X127723168Y-86165226D01*
X127646124Y-86280531D01*
X127593055Y-86408651D01*
X127566000Y-86544662D01*
X127566000Y-86683338D01*
X127593055Y-86819349D01*
X127646124Y-86947469D01*
X127684714Y-87005224D01*
X127682534Y-87006127D01*
X127567229Y-87083171D01*
X127469171Y-87181229D01*
X127392127Y-87296534D01*
X127382992Y-87318587D01*
X127372345Y-87307940D01*
X127357341Y-87289657D01*
X127284403Y-87229800D01*
X127201190Y-87185321D01*
X127110898Y-87157931D01*
X127040524Y-87151000D01*
X127040521Y-87151000D01*
X127016998Y-87148683D01*
X126993475Y-87151000D01*
X125938908Y-87151000D01*
X125725712Y-86937805D01*
X125725712Y-86845000D01*
X125715995Y-86746340D01*
X125687217Y-86651472D01*
X125640484Y-86564041D01*
X125577592Y-86487408D01*
X125500959Y-86424516D01*
X125413528Y-86377783D01*
X125318660Y-86349005D01*
X125220000Y-86339288D01*
X124814000Y-86339288D01*
X124814000Y-82161365D01*
X125388575Y-82159338D01*
X126034288Y-82805051D01*
X126034288Y-84135000D01*
X126041123Y-84204396D01*
X126061365Y-84271125D01*
X126094236Y-84332623D01*
X126138474Y-84386526D01*
X126192377Y-84430764D01*
X126253875Y-84463635D01*
X126320604Y-84483877D01*
X126390000Y-84490712D01*
X126840000Y-84490712D01*
X126909396Y-84483877D01*
X126940000Y-84474593D01*
X126970604Y-84483877D01*
X127040000Y-84490712D01*
X127490000Y-84490712D01*
X127559396Y-84483877D01*
X127590000Y-84474593D01*
X127620604Y-84483877D01*
X127656243Y-84487387D01*
X127646124Y-84502531D01*
X127593055Y-84630651D01*
X127566000Y-84766662D01*
X127566000Y-84905338D01*
X127593055Y-85041349D01*
X127646124Y-85169469D01*
X127723168Y-85284774D01*
X127821226Y-85382832D01*
X127936531Y-85459876D01*
X128064651Y-85512945D01*
X128200662Y-85540000D01*
X128339338Y-85540000D01*
X128475349Y-85512945D01*
X128603469Y-85459876D01*
X128718774Y-85382832D01*
X128786506Y-85315100D01*
X128787523Y-85315000D01*
X128787526Y-85315000D01*
X128857900Y-85308069D01*
X128948192Y-85280679D01*
X129031405Y-85236200D01*
X129104343Y-85176343D01*
X129119347Y-85158060D01*
X129537065Y-84740343D01*
X129555343Y-84725343D01*
X129583287Y-84691292D01*
X129615200Y-84652407D01*
X129659678Y-84569193D01*
X129659679Y-84569192D01*
X129687069Y-84478900D01*
X129694000Y-84408526D01*
X129694000Y-84408522D01*
X129696317Y-84385001D01*
X129695938Y-84381150D01*
X129735764Y-84332623D01*
X129768635Y-84271125D01*
X129788877Y-84204396D01*
X129795712Y-84135000D01*
X129795712Y-82685000D01*
X129788877Y-82615604D01*
X129768635Y-82548875D01*
X129735764Y-82487377D01*
X129691526Y-82433474D01*
X129637623Y-82389236D01*
X129576125Y-82356365D01*
X129509396Y-82336123D01*
X129440000Y-82329288D01*
X128990000Y-82329288D01*
X128920604Y-82336123D01*
X128890000Y-82345407D01*
X128859396Y-82336123D01*
X128790000Y-82329288D01*
X128394000Y-82329288D01*
X128394000Y-82148733D01*
X130202000Y-82142353D01*
X130202000Y-82341766D01*
G37*
X130202000Y-82341766D02*
X130153875Y-82356365D01*
X130092377Y-82389236D01*
X130038474Y-82433474D01*
X129994236Y-82487377D01*
X129961365Y-82548875D01*
X129941123Y-82615604D01*
X129934288Y-82685000D01*
X129934288Y-84135000D01*
X129941123Y-84204396D01*
X129961365Y-84271125D01*
X129994236Y-84332623D01*
X130038474Y-84386526D01*
X130092377Y-84430764D01*
X130153875Y-84463635D01*
X130202000Y-84478234D01*
X130202000Y-87526771D01*
X130186124Y-87550531D01*
X130133055Y-87678651D01*
X130106000Y-87814662D01*
X130106000Y-87953338D01*
X130133055Y-88089349D01*
X130186124Y-88217469D01*
X130202000Y-88241230D01*
X130202000Y-88241766D01*
X130153875Y-88256365D01*
X130092377Y-88289236D01*
X130038474Y-88333474D01*
X129994236Y-88387377D01*
X129961365Y-88448875D01*
X129941123Y-88515604D01*
X129934288Y-88585000D01*
X129934288Y-88800000D01*
X129795712Y-88800000D01*
X129795712Y-88585000D01*
X129788877Y-88515604D01*
X129768635Y-88448875D01*
X129735764Y-88387377D01*
X129694000Y-88336489D01*
X129694000Y-87582523D01*
X129696317Y-87559000D01*
X129694000Y-87535474D01*
X129687069Y-87465100D01*
X129659679Y-87374808D01*
X129617840Y-87296534D01*
X129615200Y-87291594D01*
X129589373Y-87260124D01*
X129555343Y-87218657D01*
X129537065Y-87203657D01*
X128974000Y-86640593D01*
X128974000Y-86544662D01*
X128946945Y-86408651D01*
X128893876Y-86280531D01*
X128816832Y-86165226D01*
X128718774Y-86067168D01*
X128603469Y-85990124D01*
X128475349Y-85937055D01*
X128339338Y-85910000D01*
X128200662Y-85910000D01*
X128064651Y-85937055D01*
X127936531Y-85990124D01*
X127821226Y-86067168D01*
X127723168Y-86165226D01*
X127646124Y-86280531D01*
X127593055Y-86408651D01*
X127566000Y-86544662D01*
X127566000Y-86683338D01*
X127593055Y-86819349D01*
X127646124Y-86947469D01*
X127684714Y-87005224D01*
X127682534Y-87006127D01*
X127567229Y-87083171D01*
X127469171Y-87181229D01*
X127392127Y-87296534D01*
X127382992Y-87318587D01*
X127372345Y-87307940D01*
X127357341Y-87289657D01*
X127284403Y-87229800D01*
X127201190Y-87185321D01*
X127110898Y-87157931D01*
X127040524Y-87151000D01*
X127040521Y-87151000D01*
X127016998Y-87148683D01*
X126993475Y-87151000D01*
X125938908Y-87151000D01*
X125725712Y-86937805D01*
X125725712Y-86845000D01*
X125715995Y-86746340D01*
X125687217Y-86651472D01*
X125640484Y-86564041D01*
X125577592Y-86487408D01*
X125500959Y-86424516D01*
X125413528Y-86377783D01*
X125318660Y-86349005D01*
X125220000Y-86339288D01*
X124814000Y-86339288D01*
X124814000Y-82161365D01*
X125388575Y-82159338D01*
X126034288Y-82805051D01*
X126034288Y-84135000D01*
X126041123Y-84204396D01*
X126061365Y-84271125D01*
X126094236Y-84332623D01*
X126138474Y-84386526D01*
X126192377Y-84430764D01*
X126253875Y-84463635D01*
X126320604Y-84483877D01*
X126390000Y-84490712D01*
X126840000Y-84490712D01*
X126909396Y-84483877D01*
X126940000Y-84474593D01*
X126970604Y-84483877D01*
X127040000Y-84490712D01*
X127490000Y-84490712D01*
X127559396Y-84483877D01*
X127590000Y-84474593D01*
X127620604Y-84483877D01*
X127656243Y-84487387D01*
X127646124Y-84502531D01*
X127593055Y-84630651D01*
X127566000Y-84766662D01*
X127566000Y-84905338D01*
X127593055Y-85041349D01*
X127646124Y-85169469D01*
X127723168Y-85284774D01*
X127821226Y-85382832D01*
X127936531Y-85459876D01*
X128064651Y-85512945D01*
X128200662Y-85540000D01*
X128339338Y-85540000D01*
X128475349Y-85512945D01*
X128603469Y-85459876D01*
X128718774Y-85382832D01*
X128786506Y-85315100D01*
X128787523Y-85315000D01*
X128787526Y-85315000D01*
X128857900Y-85308069D01*
X128948192Y-85280679D01*
X129031405Y-85236200D01*
X129104343Y-85176343D01*
X129119347Y-85158060D01*
X129537065Y-84740343D01*
X129555343Y-84725343D01*
X129583287Y-84691292D01*
X129615200Y-84652407D01*
X129659678Y-84569193D01*
X129659679Y-84569192D01*
X129687069Y-84478900D01*
X129694000Y-84408526D01*
X129694000Y-84408522D01*
X129696317Y-84385001D01*
X129695938Y-84381150D01*
X129735764Y-84332623D01*
X129768635Y-84271125D01*
X129788877Y-84204396D01*
X129795712Y-84135000D01*
X129795712Y-82685000D01*
X129788877Y-82615604D01*
X129768635Y-82548875D01*
X129735764Y-82487377D01*
X129691526Y-82433474D01*
X129637623Y-82389236D01*
X129576125Y-82356365D01*
X129509396Y-82336123D01*
X129440000Y-82329288D01*
X128990000Y-82329288D01*
X128920604Y-82336123D01*
X128890000Y-82345407D01*
X128859396Y-82336123D01*
X128790000Y-82329288D01*
X128394000Y-82329288D01*
X128394000Y-82148733D01*
X130202000Y-82142353D01*
X130202000Y-82341766D01*
M02*
