G04 #@! TF.GenerationSoftware,KiCad,Pcbnew,(5.1.5)-2*
G04 #@! TF.CreationDate,2020-03-10T09:13:17+00:00*
G04 #@! TF.ProjectId,loco,6c6f636f-2e6b-4696-9361-645f70636258,rev?*
G04 #@! TF.SameCoordinates,Original*
G04 #@! TF.FileFunction,Copper,L2,Bot*
G04 #@! TF.FilePolarity,Positive*
%FSLAX46Y46*%
G04 Gerber Fmt 4.6, Leading zero omitted, Abs format (unit mm)*
G04 Created by KiCad (PCBNEW (5.1.5)-2) date 2020-03-10 09:13:17*
%MOMM*%
%LPD*%
G04 APERTURE LIST*
%ADD10C,0.050000*%
%ADD11C,0.100000*%
%ADD12R,1.200000X2.000000*%
%ADD13R,2.000000X1.200000*%
%ADD14R,1.000000X0.700000*%
%ADD15R,0.700000X1.000000*%
%ADD16C,0.800000*%
%ADD17C,0.700000*%
%ADD18C,0.800000*%
%ADD19C,0.500000*%
%ADD20C,0.300000*%
%ADD21C,0.250000*%
%ADD22C,0.200000*%
G04 APERTURE END LIST*
D10*
X114046000Y-90805000D02*
X114046000Y-79502000D01*
X133350000Y-90805000D02*
X114046000Y-90805000D01*
X133350000Y-79502000D02*
X133350000Y-90805000D01*
X114046000Y-79502000D02*
X133350000Y-79502000D01*
G04 #@! TA.AperFunction,SMDPad,CuDef*
D11*
G36*
X116355691Y-85441053D02*
G01*
X116376926Y-85444203D01*
X116397750Y-85449419D01*
X116417962Y-85456651D01*
X116437368Y-85465830D01*
X116455781Y-85476866D01*
X116473024Y-85489654D01*
X116488930Y-85504070D01*
X116503346Y-85519976D01*
X116516134Y-85537219D01*
X116527170Y-85555632D01*
X116536349Y-85575038D01*
X116543581Y-85595250D01*
X116548797Y-85616074D01*
X116551947Y-85637309D01*
X116553000Y-85658750D01*
X116553000Y-86096250D01*
X116551947Y-86117691D01*
X116548797Y-86138926D01*
X116543581Y-86159750D01*
X116536349Y-86179962D01*
X116527170Y-86199368D01*
X116516134Y-86217781D01*
X116503346Y-86235024D01*
X116488930Y-86250930D01*
X116473024Y-86265346D01*
X116455781Y-86278134D01*
X116437368Y-86289170D01*
X116417962Y-86298349D01*
X116397750Y-86305581D01*
X116376926Y-86310797D01*
X116355691Y-86313947D01*
X116334250Y-86315000D01*
X115821750Y-86315000D01*
X115800309Y-86313947D01*
X115779074Y-86310797D01*
X115758250Y-86305581D01*
X115738038Y-86298349D01*
X115718632Y-86289170D01*
X115700219Y-86278134D01*
X115682976Y-86265346D01*
X115667070Y-86250930D01*
X115652654Y-86235024D01*
X115639866Y-86217781D01*
X115628830Y-86199368D01*
X115619651Y-86179962D01*
X115612419Y-86159750D01*
X115607203Y-86138926D01*
X115604053Y-86117691D01*
X115603000Y-86096250D01*
X115603000Y-85658750D01*
X115604053Y-85637309D01*
X115607203Y-85616074D01*
X115612419Y-85595250D01*
X115619651Y-85575038D01*
X115628830Y-85555632D01*
X115639866Y-85537219D01*
X115652654Y-85519976D01*
X115667070Y-85504070D01*
X115682976Y-85489654D01*
X115700219Y-85476866D01*
X115718632Y-85465830D01*
X115738038Y-85456651D01*
X115758250Y-85449419D01*
X115779074Y-85444203D01*
X115800309Y-85441053D01*
X115821750Y-85440000D01*
X116334250Y-85440000D01*
X116355691Y-85441053D01*
G37*
G04 #@! TD.AperFunction*
G04 #@! TA.AperFunction,SMDPad,CuDef*
G36*
X116355691Y-83866053D02*
G01*
X116376926Y-83869203D01*
X116397750Y-83874419D01*
X116417962Y-83881651D01*
X116437368Y-83890830D01*
X116455781Y-83901866D01*
X116473024Y-83914654D01*
X116488930Y-83929070D01*
X116503346Y-83944976D01*
X116516134Y-83962219D01*
X116527170Y-83980632D01*
X116536349Y-84000038D01*
X116543581Y-84020250D01*
X116548797Y-84041074D01*
X116551947Y-84062309D01*
X116553000Y-84083750D01*
X116553000Y-84521250D01*
X116551947Y-84542691D01*
X116548797Y-84563926D01*
X116543581Y-84584750D01*
X116536349Y-84604962D01*
X116527170Y-84624368D01*
X116516134Y-84642781D01*
X116503346Y-84660024D01*
X116488930Y-84675930D01*
X116473024Y-84690346D01*
X116455781Y-84703134D01*
X116437368Y-84714170D01*
X116417962Y-84723349D01*
X116397750Y-84730581D01*
X116376926Y-84735797D01*
X116355691Y-84738947D01*
X116334250Y-84740000D01*
X115821750Y-84740000D01*
X115800309Y-84738947D01*
X115779074Y-84735797D01*
X115758250Y-84730581D01*
X115738038Y-84723349D01*
X115718632Y-84714170D01*
X115700219Y-84703134D01*
X115682976Y-84690346D01*
X115667070Y-84675930D01*
X115652654Y-84660024D01*
X115639866Y-84642781D01*
X115628830Y-84624368D01*
X115619651Y-84604962D01*
X115612419Y-84584750D01*
X115607203Y-84563926D01*
X115604053Y-84542691D01*
X115603000Y-84521250D01*
X115603000Y-84083750D01*
X115604053Y-84062309D01*
X115607203Y-84041074D01*
X115612419Y-84020250D01*
X115619651Y-84000038D01*
X115628830Y-83980632D01*
X115639866Y-83962219D01*
X115652654Y-83944976D01*
X115667070Y-83929070D01*
X115682976Y-83914654D01*
X115700219Y-83901866D01*
X115718632Y-83890830D01*
X115738038Y-83881651D01*
X115758250Y-83874419D01*
X115779074Y-83869203D01*
X115800309Y-83866053D01*
X115821750Y-83865000D01*
X116334250Y-83865000D01*
X116355691Y-83866053D01*
G37*
G04 #@! TD.AperFunction*
G04 #@! TA.AperFunction,SMDPad,CuDef*
G36*
X119391691Y-84108053D02*
G01*
X119412926Y-84111203D01*
X119433750Y-84116419D01*
X119453962Y-84123651D01*
X119473368Y-84132830D01*
X119491781Y-84143866D01*
X119509024Y-84156654D01*
X119524930Y-84171070D01*
X119539346Y-84186976D01*
X119552134Y-84204219D01*
X119563170Y-84222632D01*
X119572349Y-84242038D01*
X119579581Y-84262250D01*
X119584797Y-84283074D01*
X119587947Y-84304309D01*
X119589000Y-84325750D01*
X119589000Y-84838250D01*
X119587947Y-84859691D01*
X119584797Y-84880926D01*
X119579581Y-84901750D01*
X119572349Y-84921962D01*
X119563170Y-84941368D01*
X119552134Y-84959781D01*
X119539346Y-84977024D01*
X119524930Y-84992930D01*
X119509024Y-85007346D01*
X119491781Y-85020134D01*
X119473368Y-85031170D01*
X119453962Y-85040349D01*
X119433750Y-85047581D01*
X119412926Y-85052797D01*
X119391691Y-85055947D01*
X119370250Y-85057000D01*
X118932750Y-85057000D01*
X118911309Y-85055947D01*
X118890074Y-85052797D01*
X118869250Y-85047581D01*
X118849038Y-85040349D01*
X118829632Y-85031170D01*
X118811219Y-85020134D01*
X118793976Y-85007346D01*
X118778070Y-84992930D01*
X118763654Y-84977024D01*
X118750866Y-84959781D01*
X118739830Y-84941368D01*
X118730651Y-84921962D01*
X118723419Y-84901750D01*
X118718203Y-84880926D01*
X118715053Y-84859691D01*
X118714000Y-84838250D01*
X118714000Y-84325750D01*
X118715053Y-84304309D01*
X118718203Y-84283074D01*
X118723419Y-84262250D01*
X118730651Y-84242038D01*
X118739830Y-84222632D01*
X118750866Y-84204219D01*
X118763654Y-84186976D01*
X118778070Y-84171070D01*
X118793976Y-84156654D01*
X118811219Y-84143866D01*
X118829632Y-84132830D01*
X118849038Y-84123651D01*
X118869250Y-84116419D01*
X118890074Y-84111203D01*
X118911309Y-84108053D01*
X118932750Y-84107000D01*
X119370250Y-84107000D01*
X119391691Y-84108053D01*
G37*
G04 #@! TD.AperFunction*
G04 #@! TA.AperFunction,SMDPad,CuDef*
G36*
X117816691Y-84108053D02*
G01*
X117837926Y-84111203D01*
X117858750Y-84116419D01*
X117878962Y-84123651D01*
X117898368Y-84132830D01*
X117916781Y-84143866D01*
X117934024Y-84156654D01*
X117949930Y-84171070D01*
X117964346Y-84186976D01*
X117977134Y-84204219D01*
X117988170Y-84222632D01*
X117997349Y-84242038D01*
X118004581Y-84262250D01*
X118009797Y-84283074D01*
X118012947Y-84304309D01*
X118014000Y-84325750D01*
X118014000Y-84838250D01*
X118012947Y-84859691D01*
X118009797Y-84880926D01*
X118004581Y-84901750D01*
X117997349Y-84921962D01*
X117988170Y-84941368D01*
X117977134Y-84959781D01*
X117964346Y-84977024D01*
X117949930Y-84992930D01*
X117934024Y-85007346D01*
X117916781Y-85020134D01*
X117898368Y-85031170D01*
X117878962Y-85040349D01*
X117858750Y-85047581D01*
X117837926Y-85052797D01*
X117816691Y-85055947D01*
X117795250Y-85057000D01*
X117357750Y-85057000D01*
X117336309Y-85055947D01*
X117315074Y-85052797D01*
X117294250Y-85047581D01*
X117274038Y-85040349D01*
X117254632Y-85031170D01*
X117236219Y-85020134D01*
X117218976Y-85007346D01*
X117203070Y-84992930D01*
X117188654Y-84977024D01*
X117175866Y-84959781D01*
X117164830Y-84941368D01*
X117155651Y-84921962D01*
X117148419Y-84901750D01*
X117143203Y-84880926D01*
X117140053Y-84859691D01*
X117139000Y-84838250D01*
X117139000Y-84325750D01*
X117140053Y-84304309D01*
X117143203Y-84283074D01*
X117148419Y-84262250D01*
X117155651Y-84242038D01*
X117164830Y-84222632D01*
X117175866Y-84204219D01*
X117188654Y-84186976D01*
X117203070Y-84171070D01*
X117218976Y-84156654D01*
X117236219Y-84143866D01*
X117254632Y-84132830D01*
X117274038Y-84123651D01*
X117294250Y-84116419D01*
X117315074Y-84111203D01*
X117336309Y-84108053D01*
X117357750Y-84107000D01*
X117795250Y-84107000D01*
X117816691Y-84108053D01*
G37*
G04 #@! TD.AperFunction*
D12*
X130175000Y-81280000D03*
X132080000Y-81280000D03*
D13*
X115570000Y-89535000D03*
X115570000Y-87630000D03*
X115570000Y-82550000D03*
G04 #@! TA.AperFunction,SMDPad,CuDef*
D11*
G36*
X120102691Y-89061053D02*
G01*
X120123926Y-89064203D01*
X120144750Y-89069419D01*
X120164962Y-89076651D01*
X120184368Y-89085830D01*
X120202781Y-89096866D01*
X120220024Y-89109654D01*
X120235930Y-89124070D01*
X120250346Y-89139976D01*
X120263134Y-89157219D01*
X120274170Y-89175632D01*
X120283349Y-89195038D01*
X120290581Y-89215250D01*
X120295797Y-89236074D01*
X120298947Y-89257309D01*
X120300000Y-89278750D01*
X120300000Y-89791250D01*
X120298947Y-89812691D01*
X120295797Y-89833926D01*
X120290581Y-89854750D01*
X120283349Y-89874962D01*
X120274170Y-89894368D01*
X120263134Y-89912781D01*
X120250346Y-89930024D01*
X120235930Y-89945930D01*
X120220024Y-89960346D01*
X120202781Y-89973134D01*
X120184368Y-89984170D01*
X120164962Y-89993349D01*
X120144750Y-90000581D01*
X120123926Y-90005797D01*
X120102691Y-90008947D01*
X120081250Y-90010000D01*
X119643750Y-90010000D01*
X119622309Y-90008947D01*
X119601074Y-90005797D01*
X119580250Y-90000581D01*
X119560038Y-89993349D01*
X119540632Y-89984170D01*
X119522219Y-89973134D01*
X119504976Y-89960346D01*
X119489070Y-89945930D01*
X119474654Y-89930024D01*
X119461866Y-89912781D01*
X119450830Y-89894368D01*
X119441651Y-89874962D01*
X119434419Y-89854750D01*
X119429203Y-89833926D01*
X119426053Y-89812691D01*
X119425000Y-89791250D01*
X119425000Y-89278750D01*
X119426053Y-89257309D01*
X119429203Y-89236074D01*
X119434419Y-89215250D01*
X119441651Y-89195038D01*
X119450830Y-89175632D01*
X119461866Y-89157219D01*
X119474654Y-89139976D01*
X119489070Y-89124070D01*
X119504976Y-89109654D01*
X119522219Y-89096866D01*
X119540632Y-89085830D01*
X119560038Y-89076651D01*
X119580250Y-89069419D01*
X119601074Y-89064203D01*
X119622309Y-89061053D01*
X119643750Y-89060000D01*
X120081250Y-89060000D01*
X120102691Y-89061053D01*
G37*
G04 #@! TD.AperFunction*
G04 #@! TA.AperFunction,SMDPad,CuDef*
G36*
X121677691Y-89061053D02*
G01*
X121698926Y-89064203D01*
X121719750Y-89069419D01*
X121739962Y-89076651D01*
X121759368Y-89085830D01*
X121777781Y-89096866D01*
X121795024Y-89109654D01*
X121810930Y-89124070D01*
X121825346Y-89139976D01*
X121838134Y-89157219D01*
X121849170Y-89175632D01*
X121858349Y-89195038D01*
X121865581Y-89215250D01*
X121870797Y-89236074D01*
X121873947Y-89257309D01*
X121875000Y-89278750D01*
X121875000Y-89791250D01*
X121873947Y-89812691D01*
X121870797Y-89833926D01*
X121865581Y-89854750D01*
X121858349Y-89874962D01*
X121849170Y-89894368D01*
X121838134Y-89912781D01*
X121825346Y-89930024D01*
X121810930Y-89945930D01*
X121795024Y-89960346D01*
X121777781Y-89973134D01*
X121759368Y-89984170D01*
X121739962Y-89993349D01*
X121719750Y-90000581D01*
X121698926Y-90005797D01*
X121677691Y-90008947D01*
X121656250Y-90010000D01*
X121218750Y-90010000D01*
X121197309Y-90008947D01*
X121176074Y-90005797D01*
X121155250Y-90000581D01*
X121135038Y-89993349D01*
X121115632Y-89984170D01*
X121097219Y-89973134D01*
X121079976Y-89960346D01*
X121064070Y-89945930D01*
X121049654Y-89930024D01*
X121036866Y-89912781D01*
X121025830Y-89894368D01*
X121016651Y-89874962D01*
X121009419Y-89854750D01*
X121004203Y-89833926D01*
X121001053Y-89812691D01*
X121000000Y-89791250D01*
X121000000Y-89278750D01*
X121001053Y-89257309D01*
X121004203Y-89236074D01*
X121009419Y-89215250D01*
X121016651Y-89195038D01*
X121025830Y-89175632D01*
X121036866Y-89157219D01*
X121049654Y-89139976D01*
X121064070Y-89124070D01*
X121079976Y-89109654D01*
X121097219Y-89096866D01*
X121115632Y-89085830D01*
X121135038Y-89076651D01*
X121155250Y-89069419D01*
X121176074Y-89064203D01*
X121197309Y-89061053D01*
X121218750Y-89060000D01*
X121656250Y-89060000D01*
X121677691Y-89061053D01*
G37*
G04 #@! TD.AperFunction*
G04 #@! TA.AperFunction,SMDPad,CuDef*
G36*
X120102691Y-87156053D02*
G01*
X120123926Y-87159203D01*
X120144750Y-87164419D01*
X120164962Y-87171651D01*
X120184368Y-87180830D01*
X120202781Y-87191866D01*
X120220024Y-87204654D01*
X120235930Y-87219070D01*
X120250346Y-87234976D01*
X120263134Y-87252219D01*
X120274170Y-87270632D01*
X120283349Y-87290038D01*
X120290581Y-87310250D01*
X120295797Y-87331074D01*
X120298947Y-87352309D01*
X120300000Y-87373750D01*
X120300000Y-87886250D01*
X120298947Y-87907691D01*
X120295797Y-87928926D01*
X120290581Y-87949750D01*
X120283349Y-87969962D01*
X120274170Y-87989368D01*
X120263134Y-88007781D01*
X120250346Y-88025024D01*
X120235930Y-88040930D01*
X120220024Y-88055346D01*
X120202781Y-88068134D01*
X120184368Y-88079170D01*
X120164962Y-88088349D01*
X120144750Y-88095581D01*
X120123926Y-88100797D01*
X120102691Y-88103947D01*
X120081250Y-88105000D01*
X119643750Y-88105000D01*
X119622309Y-88103947D01*
X119601074Y-88100797D01*
X119580250Y-88095581D01*
X119560038Y-88088349D01*
X119540632Y-88079170D01*
X119522219Y-88068134D01*
X119504976Y-88055346D01*
X119489070Y-88040930D01*
X119474654Y-88025024D01*
X119461866Y-88007781D01*
X119450830Y-87989368D01*
X119441651Y-87969962D01*
X119434419Y-87949750D01*
X119429203Y-87928926D01*
X119426053Y-87907691D01*
X119425000Y-87886250D01*
X119425000Y-87373750D01*
X119426053Y-87352309D01*
X119429203Y-87331074D01*
X119434419Y-87310250D01*
X119441651Y-87290038D01*
X119450830Y-87270632D01*
X119461866Y-87252219D01*
X119474654Y-87234976D01*
X119489070Y-87219070D01*
X119504976Y-87204654D01*
X119522219Y-87191866D01*
X119540632Y-87180830D01*
X119560038Y-87171651D01*
X119580250Y-87164419D01*
X119601074Y-87159203D01*
X119622309Y-87156053D01*
X119643750Y-87155000D01*
X120081250Y-87155000D01*
X120102691Y-87156053D01*
G37*
G04 #@! TD.AperFunction*
G04 #@! TA.AperFunction,SMDPad,CuDef*
G36*
X121677691Y-87156053D02*
G01*
X121698926Y-87159203D01*
X121719750Y-87164419D01*
X121739962Y-87171651D01*
X121759368Y-87180830D01*
X121777781Y-87191866D01*
X121795024Y-87204654D01*
X121810930Y-87219070D01*
X121825346Y-87234976D01*
X121838134Y-87252219D01*
X121849170Y-87270632D01*
X121858349Y-87290038D01*
X121865581Y-87310250D01*
X121870797Y-87331074D01*
X121873947Y-87352309D01*
X121875000Y-87373750D01*
X121875000Y-87886250D01*
X121873947Y-87907691D01*
X121870797Y-87928926D01*
X121865581Y-87949750D01*
X121858349Y-87969962D01*
X121849170Y-87989368D01*
X121838134Y-88007781D01*
X121825346Y-88025024D01*
X121810930Y-88040930D01*
X121795024Y-88055346D01*
X121777781Y-88068134D01*
X121759368Y-88079170D01*
X121739962Y-88088349D01*
X121719750Y-88095581D01*
X121698926Y-88100797D01*
X121677691Y-88103947D01*
X121656250Y-88105000D01*
X121218750Y-88105000D01*
X121197309Y-88103947D01*
X121176074Y-88100797D01*
X121155250Y-88095581D01*
X121135038Y-88088349D01*
X121115632Y-88079170D01*
X121097219Y-88068134D01*
X121079976Y-88055346D01*
X121064070Y-88040930D01*
X121049654Y-88025024D01*
X121036866Y-88007781D01*
X121025830Y-87989368D01*
X121016651Y-87969962D01*
X121009419Y-87949750D01*
X121004203Y-87928926D01*
X121001053Y-87907691D01*
X121000000Y-87886250D01*
X121000000Y-87373750D01*
X121001053Y-87352309D01*
X121004203Y-87331074D01*
X121009419Y-87310250D01*
X121016651Y-87290038D01*
X121025830Y-87270632D01*
X121036866Y-87252219D01*
X121049654Y-87234976D01*
X121064070Y-87219070D01*
X121079976Y-87204654D01*
X121097219Y-87191866D01*
X121115632Y-87180830D01*
X121135038Y-87171651D01*
X121155250Y-87164419D01*
X121176074Y-87159203D01*
X121197309Y-87156053D01*
X121218750Y-87155000D01*
X121656250Y-87155000D01*
X121677691Y-87156053D01*
G37*
G04 #@! TD.AperFunction*
D14*
X124430000Y-88900000D03*
X124430000Y-87950000D03*
X124430000Y-89850000D03*
X127030000Y-89850000D03*
X127030000Y-88900000D03*
X127030000Y-87950000D03*
D13*
X115570000Y-80645000D03*
G04 #@! TA.AperFunction,SMDPad,CuDef*
D11*
G36*
X130452691Y-82596053D02*
G01*
X130473926Y-82599203D01*
X130494750Y-82604419D01*
X130514962Y-82611651D01*
X130534368Y-82620830D01*
X130552781Y-82631866D01*
X130570024Y-82644654D01*
X130585930Y-82659070D01*
X130600346Y-82674976D01*
X130613134Y-82692219D01*
X130624170Y-82710632D01*
X130633349Y-82730038D01*
X130640581Y-82750250D01*
X130645797Y-82771074D01*
X130648947Y-82792309D01*
X130650000Y-82813750D01*
X130650000Y-83251250D01*
X130648947Y-83272691D01*
X130645797Y-83293926D01*
X130640581Y-83314750D01*
X130633349Y-83334962D01*
X130624170Y-83354368D01*
X130613134Y-83372781D01*
X130600346Y-83390024D01*
X130585930Y-83405930D01*
X130570024Y-83420346D01*
X130552781Y-83433134D01*
X130534368Y-83444170D01*
X130514962Y-83453349D01*
X130494750Y-83460581D01*
X130473926Y-83465797D01*
X130452691Y-83468947D01*
X130431250Y-83470000D01*
X129918750Y-83470000D01*
X129897309Y-83468947D01*
X129876074Y-83465797D01*
X129855250Y-83460581D01*
X129835038Y-83453349D01*
X129815632Y-83444170D01*
X129797219Y-83433134D01*
X129779976Y-83420346D01*
X129764070Y-83405930D01*
X129749654Y-83390024D01*
X129736866Y-83372781D01*
X129725830Y-83354368D01*
X129716651Y-83334962D01*
X129709419Y-83314750D01*
X129704203Y-83293926D01*
X129701053Y-83272691D01*
X129700000Y-83251250D01*
X129700000Y-82813750D01*
X129701053Y-82792309D01*
X129704203Y-82771074D01*
X129709419Y-82750250D01*
X129716651Y-82730038D01*
X129725830Y-82710632D01*
X129736866Y-82692219D01*
X129749654Y-82674976D01*
X129764070Y-82659070D01*
X129779976Y-82644654D01*
X129797219Y-82631866D01*
X129815632Y-82620830D01*
X129835038Y-82611651D01*
X129855250Y-82604419D01*
X129876074Y-82599203D01*
X129897309Y-82596053D01*
X129918750Y-82595000D01*
X130431250Y-82595000D01*
X130452691Y-82596053D01*
G37*
G04 #@! TD.AperFunction*
G04 #@! TA.AperFunction,SMDPad,CuDef*
G36*
X130452691Y-84171053D02*
G01*
X130473926Y-84174203D01*
X130494750Y-84179419D01*
X130514962Y-84186651D01*
X130534368Y-84195830D01*
X130552781Y-84206866D01*
X130570024Y-84219654D01*
X130585930Y-84234070D01*
X130600346Y-84249976D01*
X130613134Y-84267219D01*
X130624170Y-84285632D01*
X130633349Y-84305038D01*
X130640581Y-84325250D01*
X130645797Y-84346074D01*
X130648947Y-84367309D01*
X130650000Y-84388750D01*
X130650000Y-84826250D01*
X130648947Y-84847691D01*
X130645797Y-84868926D01*
X130640581Y-84889750D01*
X130633349Y-84909962D01*
X130624170Y-84929368D01*
X130613134Y-84947781D01*
X130600346Y-84965024D01*
X130585930Y-84980930D01*
X130570024Y-84995346D01*
X130552781Y-85008134D01*
X130534368Y-85019170D01*
X130514962Y-85028349D01*
X130494750Y-85035581D01*
X130473926Y-85040797D01*
X130452691Y-85043947D01*
X130431250Y-85045000D01*
X129918750Y-85045000D01*
X129897309Y-85043947D01*
X129876074Y-85040797D01*
X129855250Y-85035581D01*
X129835038Y-85028349D01*
X129815632Y-85019170D01*
X129797219Y-85008134D01*
X129779976Y-84995346D01*
X129764070Y-84980930D01*
X129749654Y-84965024D01*
X129736866Y-84947781D01*
X129725830Y-84929368D01*
X129716651Y-84909962D01*
X129709419Y-84889750D01*
X129704203Y-84868926D01*
X129701053Y-84847691D01*
X129700000Y-84826250D01*
X129700000Y-84388750D01*
X129701053Y-84367309D01*
X129704203Y-84346074D01*
X129709419Y-84325250D01*
X129716651Y-84305038D01*
X129725830Y-84285632D01*
X129736866Y-84267219D01*
X129749654Y-84249976D01*
X129764070Y-84234070D01*
X129779976Y-84219654D01*
X129797219Y-84206866D01*
X129815632Y-84195830D01*
X129835038Y-84186651D01*
X129855250Y-84179419D01*
X129876074Y-84174203D01*
X129897309Y-84171053D01*
X129918750Y-84170000D01*
X130431250Y-84170000D01*
X130452691Y-84171053D01*
G37*
G04 #@! TD.AperFunction*
G04 #@! TA.AperFunction,SMDPad,CuDef*
G36*
X132357691Y-82596053D02*
G01*
X132378926Y-82599203D01*
X132399750Y-82604419D01*
X132419962Y-82611651D01*
X132439368Y-82620830D01*
X132457781Y-82631866D01*
X132475024Y-82644654D01*
X132490930Y-82659070D01*
X132505346Y-82674976D01*
X132518134Y-82692219D01*
X132529170Y-82710632D01*
X132538349Y-82730038D01*
X132545581Y-82750250D01*
X132550797Y-82771074D01*
X132553947Y-82792309D01*
X132555000Y-82813750D01*
X132555000Y-83251250D01*
X132553947Y-83272691D01*
X132550797Y-83293926D01*
X132545581Y-83314750D01*
X132538349Y-83334962D01*
X132529170Y-83354368D01*
X132518134Y-83372781D01*
X132505346Y-83390024D01*
X132490930Y-83405930D01*
X132475024Y-83420346D01*
X132457781Y-83433134D01*
X132439368Y-83444170D01*
X132419962Y-83453349D01*
X132399750Y-83460581D01*
X132378926Y-83465797D01*
X132357691Y-83468947D01*
X132336250Y-83470000D01*
X131823750Y-83470000D01*
X131802309Y-83468947D01*
X131781074Y-83465797D01*
X131760250Y-83460581D01*
X131740038Y-83453349D01*
X131720632Y-83444170D01*
X131702219Y-83433134D01*
X131684976Y-83420346D01*
X131669070Y-83405930D01*
X131654654Y-83390024D01*
X131641866Y-83372781D01*
X131630830Y-83354368D01*
X131621651Y-83334962D01*
X131614419Y-83314750D01*
X131609203Y-83293926D01*
X131606053Y-83272691D01*
X131605000Y-83251250D01*
X131605000Y-82813750D01*
X131606053Y-82792309D01*
X131609203Y-82771074D01*
X131614419Y-82750250D01*
X131621651Y-82730038D01*
X131630830Y-82710632D01*
X131641866Y-82692219D01*
X131654654Y-82674976D01*
X131669070Y-82659070D01*
X131684976Y-82644654D01*
X131702219Y-82631866D01*
X131720632Y-82620830D01*
X131740038Y-82611651D01*
X131760250Y-82604419D01*
X131781074Y-82599203D01*
X131802309Y-82596053D01*
X131823750Y-82595000D01*
X132336250Y-82595000D01*
X132357691Y-82596053D01*
G37*
G04 #@! TD.AperFunction*
G04 #@! TA.AperFunction,SMDPad,CuDef*
G36*
X132357691Y-84171053D02*
G01*
X132378926Y-84174203D01*
X132399750Y-84179419D01*
X132419962Y-84186651D01*
X132439368Y-84195830D01*
X132457781Y-84206866D01*
X132475024Y-84219654D01*
X132490930Y-84234070D01*
X132505346Y-84249976D01*
X132518134Y-84267219D01*
X132529170Y-84285632D01*
X132538349Y-84305038D01*
X132545581Y-84325250D01*
X132550797Y-84346074D01*
X132553947Y-84367309D01*
X132555000Y-84388750D01*
X132555000Y-84826250D01*
X132553947Y-84847691D01*
X132550797Y-84868926D01*
X132545581Y-84889750D01*
X132538349Y-84909962D01*
X132529170Y-84929368D01*
X132518134Y-84947781D01*
X132505346Y-84965024D01*
X132490930Y-84980930D01*
X132475024Y-84995346D01*
X132457781Y-85008134D01*
X132439368Y-85019170D01*
X132419962Y-85028349D01*
X132399750Y-85035581D01*
X132378926Y-85040797D01*
X132357691Y-85043947D01*
X132336250Y-85045000D01*
X131823750Y-85045000D01*
X131802309Y-85043947D01*
X131781074Y-85040797D01*
X131760250Y-85035581D01*
X131740038Y-85028349D01*
X131720632Y-85019170D01*
X131702219Y-85008134D01*
X131684976Y-84995346D01*
X131669070Y-84980930D01*
X131654654Y-84965024D01*
X131641866Y-84947781D01*
X131630830Y-84929368D01*
X131621651Y-84909962D01*
X131614419Y-84889750D01*
X131609203Y-84868926D01*
X131606053Y-84847691D01*
X131605000Y-84826250D01*
X131605000Y-84388750D01*
X131606053Y-84367309D01*
X131609203Y-84346074D01*
X131614419Y-84325250D01*
X131621651Y-84305038D01*
X131630830Y-84285632D01*
X131641866Y-84267219D01*
X131654654Y-84249976D01*
X131669070Y-84234070D01*
X131684976Y-84219654D01*
X131702219Y-84206866D01*
X131720632Y-84195830D01*
X131740038Y-84186651D01*
X131760250Y-84179419D01*
X131781074Y-84174203D01*
X131802309Y-84171053D01*
X131823750Y-84170000D01*
X132336250Y-84170000D01*
X132357691Y-84171053D01*
G37*
G04 #@! TD.AperFunction*
D15*
X131318000Y-86584000D03*
X132268000Y-86584000D03*
X130368000Y-86584000D03*
X130368000Y-89184000D03*
X131318000Y-89184000D03*
X132268000Y-89184000D03*
G04 #@! TA.AperFunction,SMDPad,CuDef*
D11*
G36*
X117562691Y-82076053D02*
G01*
X117583926Y-82079203D01*
X117604750Y-82084419D01*
X117624962Y-82091651D01*
X117644368Y-82100830D01*
X117662781Y-82111866D01*
X117680024Y-82124654D01*
X117695930Y-82139070D01*
X117710346Y-82154976D01*
X117723134Y-82172219D01*
X117734170Y-82190632D01*
X117743349Y-82210038D01*
X117750581Y-82230250D01*
X117755797Y-82251074D01*
X117758947Y-82272309D01*
X117760000Y-82293750D01*
X117760000Y-82806250D01*
X117758947Y-82827691D01*
X117755797Y-82848926D01*
X117750581Y-82869750D01*
X117743349Y-82889962D01*
X117734170Y-82909368D01*
X117723134Y-82927781D01*
X117710346Y-82945024D01*
X117695930Y-82960930D01*
X117680024Y-82975346D01*
X117662781Y-82988134D01*
X117644368Y-82999170D01*
X117624962Y-83008349D01*
X117604750Y-83015581D01*
X117583926Y-83020797D01*
X117562691Y-83023947D01*
X117541250Y-83025000D01*
X117103750Y-83025000D01*
X117082309Y-83023947D01*
X117061074Y-83020797D01*
X117040250Y-83015581D01*
X117020038Y-83008349D01*
X117000632Y-82999170D01*
X116982219Y-82988134D01*
X116964976Y-82975346D01*
X116949070Y-82960930D01*
X116934654Y-82945024D01*
X116921866Y-82927781D01*
X116910830Y-82909368D01*
X116901651Y-82889962D01*
X116894419Y-82869750D01*
X116889203Y-82848926D01*
X116886053Y-82827691D01*
X116885000Y-82806250D01*
X116885000Y-82293750D01*
X116886053Y-82272309D01*
X116889203Y-82251074D01*
X116894419Y-82230250D01*
X116901651Y-82210038D01*
X116910830Y-82190632D01*
X116921866Y-82172219D01*
X116934654Y-82154976D01*
X116949070Y-82139070D01*
X116964976Y-82124654D01*
X116982219Y-82111866D01*
X117000632Y-82100830D01*
X117020038Y-82091651D01*
X117040250Y-82084419D01*
X117061074Y-82079203D01*
X117082309Y-82076053D01*
X117103750Y-82075000D01*
X117541250Y-82075000D01*
X117562691Y-82076053D01*
G37*
G04 #@! TD.AperFunction*
G04 #@! TA.AperFunction,SMDPad,CuDef*
G36*
X119137691Y-82076053D02*
G01*
X119158926Y-82079203D01*
X119179750Y-82084419D01*
X119199962Y-82091651D01*
X119219368Y-82100830D01*
X119237781Y-82111866D01*
X119255024Y-82124654D01*
X119270930Y-82139070D01*
X119285346Y-82154976D01*
X119298134Y-82172219D01*
X119309170Y-82190632D01*
X119318349Y-82210038D01*
X119325581Y-82230250D01*
X119330797Y-82251074D01*
X119333947Y-82272309D01*
X119335000Y-82293750D01*
X119335000Y-82806250D01*
X119333947Y-82827691D01*
X119330797Y-82848926D01*
X119325581Y-82869750D01*
X119318349Y-82889962D01*
X119309170Y-82909368D01*
X119298134Y-82927781D01*
X119285346Y-82945024D01*
X119270930Y-82960930D01*
X119255024Y-82975346D01*
X119237781Y-82988134D01*
X119219368Y-82999170D01*
X119199962Y-83008349D01*
X119179750Y-83015581D01*
X119158926Y-83020797D01*
X119137691Y-83023947D01*
X119116250Y-83025000D01*
X118678750Y-83025000D01*
X118657309Y-83023947D01*
X118636074Y-83020797D01*
X118615250Y-83015581D01*
X118595038Y-83008349D01*
X118575632Y-82999170D01*
X118557219Y-82988134D01*
X118539976Y-82975346D01*
X118524070Y-82960930D01*
X118509654Y-82945024D01*
X118496866Y-82927781D01*
X118485830Y-82909368D01*
X118476651Y-82889962D01*
X118469419Y-82869750D01*
X118464203Y-82848926D01*
X118461053Y-82827691D01*
X118460000Y-82806250D01*
X118460000Y-82293750D01*
X118461053Y-82272309D01*
X118464203Y-82251074D01*
X118469419Y-82230250D01*
X118476651Y-82210038D01*
X118485830Y-82190632D01*
X118496866Y-82172219D01*
X118509654Y-82154976D01*
X118524070Y-82139070D01*
X118539976Y-82124654D01*
X118557219Y-82111866D01*
X118575632Y-82100830D01*
X118595038Y-82091651D01*
X118615250Y-82084419D01*
X118636074Y-82079203D01*
X118657309Y-82076053D01*
X118678750Y-82075000D01*
X119116250Y-82075000D01*
X119137691Y-82076053D01*
G37*
G04 #@! TD.AperFunction*
G04 #@! TA.AperFunction,SMDPad,CuDef*
G36*
X117562691Y-80171053D02*
G01*
X117583926Y-80174203D01*
X117604750Y-80179419D01*
X117624962Y-80186651D01*
X117644368Y-80195830D01*
X117662781Y-80206866D01*
X117680024Y-80219654D01*
X117695930Y-80234070D01*
X117710346Y-80249976D01*
X117723134Y-80267219D01*
X117734170Y-80285632D01*
X117743349Y-80305038D01*
X117750581Y-80325250D01*
X117755797Y-80346074D01*
X117758947Y-80367309D01*
X117760000Y-80388750D01*
X117760000Y-80901250D01*
X117758947Y-80922691D01*
X117755797Y-80943926D01*
X117750581Y-80964750D01*
X117743349Y-80984962D01*
X117734170Y-81004368D01*
X117723134Y-81022781D01*
X117710346Y-81040024D01*
X117695930Y-81055930D01*
X117680024Y-81070346D01*
X117662781Y-81083134D01*
X117644368Y-81094170D01*
X117624962Y-81103349D01*
X117604750Y-81110581D01*
X117583926Y-81115797D01*
X117562691Y-81118947D01*
X117541250Y-81120000D01*
X117103750Y-81120000D01*
X117082309Y-81118947D01*
X117061074Y-81115797D01*
X117040250Y-81110581D01*
X117020038Y-81103349D01*
X117000632Y-81094170D01*
X116982219Y-81083134D01*
X116964976Y-81070346D01*
X116949070Y-81055930D01*
X116934654Y-81040024D01*
X116921866Y-81022781D01*
X116910830Y-81004368D01*
X116901651Y-80984962D01*
X116894419Y-80964750D01*
X116889203Y-80943926D01*
X116886053Y-80922691D01*
X116885000Y-80901250D01*
X116885000Y-80388750D01*
X116886053Y-80367309D01*
X116889203Y-80346074D01*
X116894419Y-80325250D01*
X116901651Y-80305038D01*
X116910830Y-80285632D01*
X116921866Y-80267219D01*
X116934654Y-80249976D01*
X116949070Y-80234070D01*
X116964976Y-80219654D01*
X116982219Y-80206866D01*
X117000632Y-80195830D01*
X117020038Y-80186651D01*
X117040250Y-80179419D01*
X117061074Y-80174203D01*
X117082309Y-80171053D01*
X117103750Y-80170000D01*
X117541250Y-80170000D01*
X117562691Y-80171053D01*
G37*
G04 #@! TD.AperFunction*
G04 #@! TA.AperFunction,SMDPad,CuDef*
G36*
X119137691Y-80171053D02*
G01*
X119158926Y-80174203D01*
X119179750Y-80179419D01*
X119199962Y-80186651D01*
X119219368Y-80195830D01*
X119237781Y-80206866D01*
X119255024Y-80219654D01*
X119270930Y-80234070D01*
X119285346Y-80249976D01*
X119298134Y-80267219D01*
X119309170Y-80285632D01*
X119318349Y-80305038D01*
X119325581Y-80325250D01*
X119330797Y-80346074D01*
X119333947Y-80367309D01*
X119335000Y-80388750D01*
X119335000Y-80901250D01*
X119333947Y-80922691D01*
X119330797Y-80943926D01*
X119325581Y-80964750D01*
X119318349Y-80984962D01*
X119309170Y-81004368D01*
X119298134Y-81022781D01*
X119285346Y-81040024D01*
X119270930Y-81055930D01*
X119255024Y-81070346D01*
X119237781Y-81083134D01*
X119219368Y-81094170D01*
X119199962Y-81103349D01*
X119179750Y-81110581D01*
X119158926Y-81115797D01*
X119137691Y-81118947D01*
X119116250Y-81120000D01*
X118678750Y-81120000D01*
X118657309Y-81118947D01*
X118636074Y-81115797D01*
X118615250Y-81110581D01*
X118595038Y-81103349D01*
X118575632Y-81094170D01*
X118557219Y-81083134D01*
X118539976Y-81070346D01*
X118524070Y-81055930D01*
X118509654Y-81040024D01*
X118496866Y-81022781D01*
X118485830Y-81004368D01*
X118476651Y-80984962D01*
X118469419Y-80964750D01*
X118464203Y-80943926D01*
X118461053Y-80922691D01*
X118460000Y-80901250D01*
X118460000Y-80388750D01*
X118461053Y-80367309D01*
X118464203Y-80346074D01*
X118469419Y-80325250D01*
X118476651Y-80305038D01*
X118485830Y-80285632D01*
X118496866Y-80267219D01*
X118509654Y-80249976D01*
X118524070Y-80234070D01*
X118539976Y-80219654D01*
X118557219Y-80206866D01*
X118575632Y-80195830D01*
X118595038Y-80186651D01*
X118615250Y-80179419D01*
X118636074Y-80174203D01*
X118657309Y-80171053D01*
X118678750Y-80170000D01*
X119116250Y-80170000D01*
X119137691Y-80171053D01*
G37*
G04 #@! TD.AperFunction*
D14*
X120620000Y-81788000D03*
X120620000Y-80838000D03*
X120620000Y-82738000D03*
X123220000Y-82738000D03*
X123220000Y-81788000D03*
X123220000Y-80838000D03*
G04 #@! TA.AperFunction,SMDPad,CuDef*
D11*
G36*
X125995691Y-85886053D02*
G01*
X126016926Y-85889203D01*
X126037750Y-85894419D01*
X126057962Y-85901651D01*
X126077368Y-85910830D01*
X126095781Y-85921866D01*
X126113024Y-85934654D01*
X126128930Y-85949070D01*
X126143346Y-85964976D01*
X126156134Y-85982219D01*
X126167170Y-86000632D01*
X126176349Y-86020038D01*
X126183581Y-86040250D01*
X126188797Y-86061074D01*
X126191947Y-86082309D01*
X126193000Y-86103750D01*
X126193000Y-86616250D01*
X126191947Y-86637691D01*
X126188797Y-86658926D01*
X126183581Y-86679750D01*
X126176349Y-86699962D01*
X126167170Y-86719368D01*
X126156134Y-86737781D01*
X126143346Y-86755024D01*
X126128930Y-86770930D01*
X126113024Y-86785346D01*
X126095781Y-86798134D01*
X126077368Y-86809170D01*
X126057962Y-86818349D01*
X126037750Y-86825581D01*
X126016926Y-86830797D01*
X125995691Y-86833947D01*
X125974250Y-86835000D01*
X125536750Y-86835000D01*
X125515309Y-86833947D01*
X125494074Y-86830797D01*
X125473250Y-86825581D01*
X125453038Y-86818349D01*
X125433632Y-86809170D01*
X125415219Y-86798134D01*
X125397976Y-86785346D01*
X125382070Y-86770930D01*
X125367654Y-86755024D01*
X125354866Y-86737781D01*
X125343830Y-86719368D01*
X125334651Y-86699962D01*
X125327419Y-86679750D01*
X125322203Y-86658926D01*
X125319053Y-86637691D01*
X125318000Y-86616250D01*
X125318000Y-86103750D01*
X125319053Y-86082309D01*
X125322203Y-86061074D01*
X125327419Y-86040250D01*
X125334651Y-86020038D01*
X125343830Y-86000632D01*
X125354866Y-85982219D01*
X125367654Y-85964976D01*
X125382070Y-85949070D01*
X125397976Y-85934654D01*
X125415219Y-85921866D01*
X125433632Y-85910830D01*
X125453038Y-85901651D01*
X125473250Y-85894419D01*
X125494074Y-85889203D01*
X125515309Y-85886053D01*
X125536750Y-85885000D01*
X125974250Y-85885000D01*
X125995691Y-85886053D01*
G37*
G04 #@! TD.AperFunction*
G04 #@! TA.AperFunction,SMDPad,CuDef*
G36*
X124420691Y-85886053D02*
G01*
X124441926Y-85889203D01*
X124462750Y-85894419D01*
X124482962Y-85901651D01*
X124502368Y-85910830D01*
X124520781Y-85921866D01*
X124538024Y-85934654D01*
X124553930Y-85949070D01*
X124568346Y-85964976D01*
X124581134Y-85982219D01*
X124592170Y-86000632D01*
X124601349Y-86020038D01*
X124608581Y-86040250D01*
X124613797Y-86061074D01*
X124616947Y-86082309D01*
X124618000Y-86103750D01*
X124618000Y-86616250D01*
X124616947Y-86637691D01*
X124613797Y-86658926D01*
X124608581Y-86679750D01*
X124601349Y-86699962D01*
X124592170Y-86719368D01*
X124581134Y-86737781D01*
X124568346Y-86755024D01*
X124553930Y-86770930D01*
X124538024Y-86785346D01*
X124520781Y-86798134D01*
X124502368Y-86809170D01*
X124482962Y-86818349D01*
X124462750Y-86825581D01*
X124441926Y-86830797D01*
X124420691Y-86833947D01*
X124399250Y-86835000D01*
X123961750Y-86835000D01*
X123940309Y-86833947D01*
X123919074Y-86830797D01*
X123898250Y-86825581D01*
X123878038Y-86818349D01*
X123858632Y-86809170D01*
X123840219Y-86798134D01*
X123822976Y-86785346D01*
X123807070Y-86770930D01*
X123792654Y-86755024D01*
X123779866Y-86737781D01*
X123768830Y-86719368D01*
X123759651Y-86699962D01*
X123752419Y-86679750D01*
X123747203Y-86658926D01*
X123744053Y-86637691D01*
X123743000Y-86616250D01*
X123743000Y-86103750D01*
X123744053Y-86082309D01*
X123747203Y-86061074D01*
X123752419Y-86040250D01*
X123759651Y-86020038D01*
X123768830Y-86000632D01*
X123779866Y-85982219D01*
X123792654Y-85964976D01*
X123807070Y-85949070D01*
X123822976Y-85934654D01*
X123840219Y-85921866D01*
X123858632Y-85910830D01*
X123878038Y-85901651D01*
X123898250Y-85894419D01*
X123919074Y-85889203D01*
X123940309Y-85886053D01*
X123961750Y-85885000D01*
X124399250Y-85885000D01*
X124420691Y-85886053D01*
G37*
G04 #@! TD.AperFunction*
G04 #@! TA.AperFunction,SMDPad,CuDef*
G36*
X126249691Y-84362053D02*
G01*
X126270926Y-84365203D01*
X126291750Y-84370419D01*
X126311962Y-84377651D01*
X126331368Y-84386830D01*
X126349781Y-84397866D01*
X126367024Y-84410654D01*
X126382930Y-84425070D01*
X126397346Y-84440976D01*
X126410134Y-84458219D01*
X126421170Y-84476632D01*
X126430349Y-84496038D01*
X126437581Y-84516250D01*
X126442797Y-84537074D01*
X126445947Y-84558309D01*
X126447000Y-84579750D01*
X126447000Y-85092250D01*
X126445947Y-85113691D01*
X126442797Y-85134926D01*
X126437581Y-85155750D01*
X126430349Y-85175962D01*
X126421170Y-85195368D01*
X126410134Y-85213781D01*
X126397346Y-85231024D01*
X126382930Y-85246930D01*
X126367024Y-85261346D01*
X126349781Y-85274134D01*
X126331368Y-85285170D01*
X126311962Y-85294349D01*
X126291750Y-85301581D01*
X126270926Y-85306797D01*
X126249691Y-85309947D01*
X126228250Y-85311000D01*
X125790750Y-85311000D01*
X125769309Y-85309947D01*
X125748074Y-85306797D01*
X125727250Y-85301581D01*
X125707038Y-85294349D01*
X125687632Y-85285170D01*
X125669219Y-85274134D01*
X125651976Y-85261346D01*
X125636070Y-85246930D01*
X125621654Y-85231024D01*
X125608866Y-85213781D01*
X125597830Y-85195368D01*
X125588651Y-85175962D01*
X125581419Y-85155750D01*
X125576203Y-85134926D01*
X125573053Y-85113691D01*
X125572000Y-85092250D01*
X125572000Y-84579750D01*
X125573053Y-84558309D01*
X125576203Y-84537074D01*
X125581419Y-84516250D01*
X125588651Y-84496038D01*
X125597830Y-84476632D01*
X125608866Y-84458219D01*
X125621654Y-84440976D01*
X125636070Y-84425070D01*
X125651976Y-84410654D01*
X125669219Y-84397866D01*
X125687632Y-84386830D01*
X125707038Y-84377651D01*
X125727250Y-84370419D01*
X125748074Y-84365203D01*
X125769309Y-84362053D01*
X125790750Y-84361000D01*
X126228250Y-84361000D01*
X126249691Y-84362053D01*
G37*
G04 #@! TD.AperFunction*
G04 #@! TA.AperFunction,SMDPad,CuDef*
G36*
X124674691Y-84362053D02*
G01*
X124695926Y-84365203D01*
X124716750Y-84370419D01*
X124736962Y-84377651D01*
X124756368Y-84386830D01*
X124774781Y-84397866D01*
X124792024Y-84410654D01*
X124807930Y-84425070D01*
X124822346Y-84440976D01*
X124835134Y-84458219D01*
X124846170Y-84476632D01*
X124855349Y-84496038D01*
X124862581Y-84516250D01*
X124867797Y-84537074D01*
X124870947Y-84558309D01*
X124872000Y-84579750D01*
X124872000Y-85092250D01*
X124870947Y-85113691D01*
X124867797Y-85134926D01*
X124862581Y-85155750D01*
X124855349Y-85175962D01*
X124846170Y-85195368D01*
X124835134Y-85213781D01*
X124822346Y-85231024D01*
X124807930Y-85246930D01*
X124792024Y-85261346D01*
X124774781Y-85274134D01*
X124756368Y-85285170D01*
X124736962Y-85294349D01*
X124716750Y-85301581D01*
X124695926Y-85306797D01*
X124674691Y-85309947D01*
X124653250Y-85311000D01*
X124215750Y-85311000D01*
X124194309Y-85309947D01*
X124173074Y-85306797D01*
X124152250Y-85301581D01*
X124132038Y-85294349D01*
X124112632Y-85285170D01*
X124094219Y-85274134D01*
X124076976Y-85261346D01*
X124061070Y-85246930D01*
X124046654Y-85231024D01*
X124033866Y-85213781D01*
X124022830Y-85195368D01*
X124013651Y-85175962D01*
X124006419Y-85155750D01*
X124001203Y-85134926D01*
X123998053Y-85113691D01*
X123997000Y-85092250D01*
X123997000Y-84579750D01*
X123998053Y-84558309D01*
X124001203Y-84537074D01*
X124006419Y-84516250D01*
X124013651Y-84496038D01*
X124022830Y-84476632D01*
X124033866Y-84458219D01*
X124046654Y-84440976D01*
X124061070Y-84425070D01*
X124076976Y-84410654D01*
X124094219Y-84397866D01*
X124112632Y-84386830D01*
X124132038Y-84377651D01*
X124152250Y-84370419D01*
X124173074Y-84365203D01*
X124194309Y-84362053D01*
X124215750Y-84361000D01*
X124653250Y-84361000D01*
X124674691Y-84362053D01*
G37*
G04 #@! TD.AperFunction*
G04 #@! TA.AperFunction,SMDPad,CuDef*
G36*
X127531691Y-85949053D02*
G01*
X127552926Y-85952203D01*
X127573750Y-85957419D01*
X127593962Y-85964651D01*
X127613368Y-85973830D01*
X127631781Y-85984866D01*
X127649024Y-85997654D01*
X127664930Y-86012070D01*
X127679346Y-86027976D01*
X127692134Y-86045219D01*
X127703170Y-86063632D01*
X127712349Y-86083038D01*
X127719581Y-86103250D01*
X127724797Y-86124074D01*
X127727947Y-86145309D01*
X127729000Y-86166750D01*
X127729000Y-86604250D01*
X127727947Y-86625691D01*
X127724797Y-86646926D01*
X127719581Y-86667750D01*
X127712349Y-86687962D01*
X127703170Y-86707368D01*
X127692134Y-86725781D01*
X127679346Y-86743024D01*
X127664930Y-86758930D01*
X127649024Y-86773346D01*
X127631781Y-86786134D01*
X127613368Y-86797170D01*
X127593962Y-86806349D01*
X127573750Y-86813581D01*
X127552926Y-86818797D01*
X127531691Y-86821947D01*
X127510250Y-86823000D01*
X126997750Y-86823000D01*
X126976309Y-86821947D01*
X126955074Y-86818797D01*
X126934250Y-86813581D01*
X126914038Y-86806349D01*
X126894632Y-86797170D01*
X126876219Y-86786134D01*
X126858976Y-86773346D01*
X126843070Y-86758930D01*
X126828654Y-86743024D01*
X126815866Y-86725781D01*
X126804830Y-86707368D01*
X126795651Y-86687962D01*
X126788419Y-86667750D01*
X126783203Y-86646926D01*
X126780053Y-86625691D01*
X126779000Y-86604250D01*
X126779000Y-86166750D01*
X126780053Y-86145309D01*
X126783203Y-86124074D01*
X126788419Y-86103250D01*
X126795651Y-86083038D01*
X126804830Y-86063632D01*
X126815866Y-86045219D01*
X126828654Y-86027976D01*
X126843070Y-86012070D01*
X126858976Y-85997654D01*
X126876219Y-85984866D01*
X126894632Y-85973830D01*
X126914038Y-85964651D01*
X126934250Y-85957419D01*
X126955074Y-85952203D01*
X126976309Y-85949053D01*
X126997750Y-85948000D01*
X127510250Y-85948000D01*
X127531691Y-85949053D01*
G37*
G04 #@! TD.AperFunction*
G04 #@! TA.AperFunction,SMDPad,CuDef*
G36*
X127531691Y-84374053D02*
G01*
X127552926Y-84377203D01*
X127573750Y-84382419D01*
X127593962Y-84389651D01*
X127613368Y-84398830D01*
X127631781Y-84409866D01*
X127649024Y-84422654D01*
X127664930Y-84437070D01*
X127679346Y-84452976D01*
X127692134Y-84470219D01*
X127703170Y-84488632D01*
X127712349Y-84508038D01*
X127719581Y-84528250D01*
X127724797Y-84549074D01*
X127727947Y-84570309D01*
X127729000Y-84591750D01*
X127729000Y-85029250D01*
X127727947Y-85050691D01*
X127724797Y-85071926D01*
X127719581Y-85092750D01*
X127712349Y-85112962D01*
X127703170Y-85132368D01*
X127692134Y-85150781D01*
X127679346Y-85168024D01*
X127664930Y-85183930D01*
X127649024Y-85198346D01*
X127631781Y-85211134D01*
X127613368Y-85222170D01*
X127593962Y-85231349D01*
X127573750Y-85238581D01*
X127552926Y-85243797D01*
X127531691Y-85246947D01*
X127510250Y-85248000D01*
X126997750Y-85248000D01*
X126976309Y-85246947D01*
X126955074Y-85243797D01*
X126934250Y-85238581D01*
X126914038Y-85231349D01*
X126894632Y-85222170D01*
X126876219Y-85211134D01*
X126858976Y-85198346D01*
X126843070Y-85183930D01*
X126828654Y-85168024D01*
X126815866Y-85150781D01*
X126804830Y-85132368D01*
X126795651Y-85112962D01*
X126788419Y-85092750D01*
X126783203Y-85071926D01*
X126780053Y-85050691D01*
X126779000Y-85029250D01*
X126779000Y-84591750D01*
X126780053Y-84570309D01*
X126783203Y-84549074D01*
X126788419Y-84528250D01*
X126795651Y-84508038D01*
X126804830Y-84488632D01*
X126815866Y-84470219D01*
X126828654Y-84452976D01*
X126843070Y-84437070D01*
X126858976Y-84422654D01*
X126876219Y-84409866D01*
X126894632Y-84398830D01*
X126914038Y-84389651D01*
X126934250Y-84382419D01*
X126955074Y-84377203D01*
X126976309Y-84374053D01*
X126997750Y-84373000D01*
X127510250Y-84373000D01*
X127531691Y-84374053D01*
G37*
G04 #@! TD.AperFunction*
G04 #@! TA.AperFunction,SMDPad,CuDef*
G36*
X129309691Y-89505053D02*
G01*
X129330926Y-89508203D01*
X129351750Y-89513419D01*
X129371962Y-89520651D01*
X129391368Y-89529830D01*
X129409781Y-89540866D01*
X129427024Y-89553654D01*
X129442930Y-89568070D01*
X129457346Y-89583976D01*
X129470134Y-89601219D01*
X129481170Y-89619632D01*
X129490349Y-89639038D01*
X129497581Y-89659250D01*
X129502797Y-89680074D01*
X129505947Y-89701309D01*
X129507000Y-89722750D01*
X129507000Y-90160250D01*
X129505947Y-90181691D01*
X129502797Y-90202926D01*
X129497581Y-90223750D01*
X129490349Y-90243962D01*
X129481170Y-90263368D01*
X129470134Y-90281781D01*
X129457346Y-90299024D01*
X129442930Y-90314930D01*
X129427024Y-90329346D01*
X129409781Y-90342134D01*
X129391368Y-90353170D01*
X129371962Y-90362349D01*
X129351750Y-90369581D01*
X129330926Y-90374797D01*
X129309691Y-90377947D01*
X129288250Y-90379000D01*
X128775750Y-90379000D01*
X128754309Y-90377947D01*
X128733074Y-90374797D01*
X128712250Y-90369581D01*
X128692038Y-90362349D01*
X128672632Y-90353170D01*
X128654219Y-90342134D01*
X128636976Y-90329346D01*
X128621070Y-90314930D01*
X128606654Y-90299024D01*
X128593866Y-90281781D01*
X128582830Y-90263368D01*
X128573651Y-90243962D01*
X128566419Y-90223750D01*
X128561203Y-90202926D01*
X128558053Y-90181691D01*
X128557000Y-90160250D01*
X128557000Y-89722750D01*
X128558053Y-89701309D01*
X128561203Y-89680074D01*
X128566419Y-89659250D01*
X128573651Y-89639038D01*
X128582830Y-89619632D01*
X128593866Y-89601219D01*
X128606654Y-89583976D01*
X128621070Y-89568070D01*
X128636976Y-89553654D01*
X128654219Y-89540866D01*
X128672632Y-89529830D01*
X128692038Y-89520651D01*
X128712250Y-89513419D01*
X128733074Y-89508203D01*
X128754309Y-89505053D01*
X128775750Y-89504000D01*
X129288250Y-89504000D01*
X129309691Y-89505053D01*
G37*
G04 #@! TD.AperFunction*
G04 #@! TA.AperFunction,SMDPad,CuDef*
G36*
X129309691Y-87930053D02*
G01*
X129330926Y-87933203D01*
X129351750Y-87938419D01*
X129371962Y-87945651D01*
X129391368Y-87954830D01*
X129409781Y-87965866D01*
X129427024Y-87978654D01*
X129442930Y-87993070D01*
X129457346Y-88008976D01*
X129470134Y-88026219D01*
X129481170Y-88044632D01*
X129490349Y-88064038D01*
X129497581Y-88084250D01*
X129502797Y-88105074D01*
X129505947Y-88126309D01*
X129507000Y-88147750D01*
X129507000Y-88585250D01*
X129505947Y-88606691D01*
X129502797Y-88627926D01*
X129497581Y-88648750D01*
X129490349Y-88668962D01*
X129481170Y-88688368D01*
X129470134Y-88706781D01*
X129457346Y-88724024D01*
X129442930Y-88739930D01*
X129427024Y-88754346D01*
X129409781Y-88767134D01*
X129391368Y-88778170D01*
X129371962Y-88787349D01*
X129351750Y-88794581D01*
X129330926Y-88799797D01*
X129309691Y-88802947D01*
X129288250Y-88804000D01*
X128775750Y-88804000D01*
X128754309Y-88802947D01*
X128733074Y-88799797D01*
X128712250Y-88794581D01*
X128692038Y-88787349D01*
X128672632Y-88778170D01*
X128654219Y-88767134D01*
X128636976Y-88754346D01*
X128621070Y-88739930D01*
X128606654Y-88724024D01*
X128593866Y-88706781D01*
X128582830Y-88688368D01*
X128573651Y-88668962D01*
X128566419Y-88648750D01*
X128561203Y-88627926D01*
X128558053Y-88606691D01*
X128557000Y-88585250D01*
X128557000Y-88147750D01*
X128558053Y-88126309D01*
X128561203Y-88105074D01*
X128566419Y-88084250D01*
X128573651Y-88064038D01*
X128582830Y-88044632D01*
X128593866Y-88026219D01*
X128606654Y-88008976D01*
X128621070Y-87993070D01*
X128636976Y-87978654D01*
X128654219Y-87965866D01*
X128672632Y-87954830D01*
X128692038Y-87945651D01*
X128712250Y-87938419D01*
X128733074Y-87933203D01*
X128754309Y-87930053D01*
X128775750Y-87929000D01*
X129288250Y-87929000D01*
X129309691Y-87930053D01*
G37*
G04 #@! TD.AperFunction*
G04 #@! TA.AperFunction,SMDPad,CuDef*
G36*
X128789691Y-83092053D02*
G01*
X128810926Y-83095203D01*
X128831750Y-83100419D01*
X128851962Y-83107651D01*
X128871368Y-83116830D01*
X128889781Y-83127866D01*
X128907024Y-83140654D01*
X128922930Y-83155070D01*
X128937346Y-83170976D01*
X128950134Y-83188219D01*
X128961170Y-83206632D01*
X128970349Y-83226038D01*
X128977581Y-83246250D01*
X128982797Y-83267074D01*
X128985947Y-83288309D01*
X128987000Y-83309750D01*
X128987000Y-83822250D01*
X128985947Y-83843691D01*
X128982797Y-83864926D01*
X128977581Y-83885750D01*
X128970349Y-83905962D01*
X128961170Y-83925368D01*
X128950134Y-83943781D01*
X128937346Y-83961024D01*
X128922930Y-83976930D01*
X128907024Y-83991346D01*
X128889781Y-84004134D01*
X128871368Y-84015170D01*
X128851962Y-84024349D01*
X128831750Y-84031581D01*
X128810926Y-84036797D01*
X128789691Y-84039947D01*
X128768250Y-84041000D01*
X128330750Y-84041000D01*
X128309309Y-84039947D01*
X128288074Y-84036797D01*
X128267250Y-84031581D01*
X128247038Y-84024349D01*
X128227632Y-84015170D01*
X128209219Y-84004134D01*
X128191976Y-83991346D01*
X128176070Y-83976930D01*
X128161654Y-83961024D01*
X128148866Y-83943781D01*
X128137830Y-83925368D01*
X128128651Y-83905962D01*
X128121419Y-83885750D01*
X128116203Y-83864926D01*
X128113053Y-83843691D01*
X128112000Y-83822250D01*
X128112000Y-83309750D01*
X128113053Y-83288309D01*
X128116203Y-83267074D01*
X128121419Y-83246250D01*
X128128651Y-83226038D01*
X128137830Y-83206632D01*
X128148866Y-83188219D01*
X128161654Y-83170976D01*
X128176070Y-83155070D01*
X128191976Y-83140654D01*
X128209219Y-83127866D01*
X128227632Y-83116830D01*
X128247038Y-83107651D01*
X128267250Y-83100419D01*
X128288074Y-83095203D01*
X128309309Y-83092053D01*
X128330750Y-83091000D01*
X128768250Y-83091000D01*
X128789691Y-83092053D01*
G37*
G04 #@! TD.AperFunction*
G04 #@! TA.AperFunction,SMDPad,CuDef*
G36*
X127214691Y-83092053D02*
G01*
X127235926Y-83095203D01*
X127256750Y-83100419D01*
X127276962Y-83107651D01*
X127296368Y-83116830D01*
X127314781Y-83127866D01*
X127332024Y-83140654D01*
X127347930Y-83155070D01*
X127362346Y-83170976D01*
X127375134Y-83188219D01*
X127386170Y-83206632D01*
X127395349Y-83226038D01*
X127402581Y-83246250D01*
X127407797Y-83267074D01*
X127410947Y-83288309D01*
X127412000Y-83309750D01*
X127412000Y-83822250D01*
X127410947Y-83843691D01*
X127407797Y-83864926D01*
X127402581Y-83885750D01*
X127395349Y-83905962D01*
X127386170Y-83925368D01*
X127375134Y-83943781D01*
X127362346Y-83961024D01*
X127347930Y-83976930D01*
X127332024Y-83991346D01*
X127314781Y-84004134D01*
X127296368Y-84015170D01*
X127276962Y-84024349D01*
X127256750Y-84031581D01*
X127235926Y-84036797D01*
X127214691Y-84039947D01*
X127193250Y-84041000D01*
X126755750Y-84041000D01*
X126734309Y-84039947D01*
X126713074Y-84036797D01*
X126692250Y-84031581D01*
X126672038Y-84024349D01*
X126652632Y-84015170D01*
X126634219Y-84004134D01*
X126616976Y-83991346D01*
X126601070Y-83976930D01*
X126586654Y-83961024D01*
X126573866Y-83943781D01*
X126562830Y-83925368D01*
X126553651Y-83905962D01*
X126546419Y-83885750D01*
X126541203Y-83864926D01*
X126538053Y-83843691D01*
X126537000Y-83822250D01*
X126537000Y-83309750D01*
X126538053Y-83288309D01*
X126541203Y-83267074D01*
X126546419Y-83246250D01*
X126553651Y-83226038D01*
X126562830Y-83206632D01*
X126573866Y-83188219D01*
X126586654Y-83170976D01*
X126601070Y-83155070D01*
X126616976Y-83140654D01*
X126634219Y-83127866D01*
X126652632Y-83116830D01*
X126672038Y-83107651D01*
X126692250Y-83100419D01*
X126713074Y-83095203D01*
X126734309Y-83092053D01*
X126755750Y-83091000D01*
X127193250Y-83091000D01*
X127214691Y-83092053D01*
G37*
G04 #@! TD.AperFunction*
D16*
X122682000Y-83820000D03*
X122555000Y-88900000D03*
D17*
X128270000Y-86614000D03*
D16*
X122555000Y-85344000D03*
D17*
X131318000Y-85598000D03*
X127762000Y-80264000D03*
X124460000Y-80264000D03*
D16*
X115062000Y-84328000D03*
D17*
X121920000Y-82296000D03*
D16*
X117601996Y-85598000D03*
D17*
X129286000Y-86106000D03*
X125476000Y-83820000D03*
X132362248Y-87859453D03*
X130810000Y-87884000D03*
X128270000Y-84836000D03*
D16*
X117475000Y-89535000D03*
X117475000Y-87630000D03*
D17*
X126211962Y-89698739D03*
X128016003Y-87630003D03*
X127000000Y-81534000D03*
X126492000Y-80772000D03*
D18*
X116331996Y-84328000D02*
X117601996Y-85598000D01*
X115062000Y-84328000D02*
X116331996Y-84328000D01*
D19*
X117576500Y-85572504D02*
X117601996Y-85598000D01*
D18*
X117576500Y-84582000D02*
X117576500Y-85572504D01*
D20*
X117576500Y-84107000D02*
X117576500Y-84582000D01*
X121666000Y-83566000D02*
X118117500Y-83566000D01*
X118117500Y-83566000D02*
X117576500Y-84107000D01*
X121920000Y-83312000D02*
X121666000Y-83566000D01*
X121920000Y-83312000D02*
X121920000Y-82296000D01*
D19*
X129286000Y-88112500D02*
X129032000Y-88366500D01*
X129286000Y-86106000D02*
X129286000Y-88112500D01*
D20*
X126720500Y-83820000D02*
X126974500Y-83566000D01*
D19*
X126746000Y-83820000D02*
X127000000Y-83566000D01*
X125476000Y-83820000D02*
X126746000Y-83820000D01*
D21*
X132362248Y-89089752D02*
X132268000Y-89184000D01*
X132362248Y-87859453D02*
X132362248Y-89089752D01*
X130368000Y-88326000D02*
X130810000Y-87884000D01*
X130368000Y-89184000D02*
X130368000Y-88326000D01*
X125984000Y-84836000D02*
X127254000Y-84836000D01*
X125730000Y-86360000D02*
X125984000Y-86106000D01*
X125984000Y-86106000D02*
X125984000Y-84836000D01*
X127279500Y-84836000D02*
X127254000Y-84810500D01*
X128270000Y-84836000D02*
X127279500Y-84836000D01*
X123952000Y-86614000D02*
X124206000Y-86360000D01*
X120674990Y-87148516D02*
X121209506Y-86614000D01*
X118110000Y-88900000D02*
X118872000Y-88900000D01*
X117475000Y-89535000D02*
X118110000Y-88900000D01*
X119126000Y-88646000D02*
X120090494Y-88646000D01*
X120090494Y-88646000D02*
X120674990Y-88061504D01*
X121209506Y-86614000D02*
X123952000Y-86614000D01*
X118872000Y-88900000D02*
X119126000Y-88646000D01*
X120674990Y-88061504D02*
X120674990Y-87148516D01*
X118173500Y-87630000D02*
X119189500Y-86614000D01*
X119189500Y-86614000D02*
X120332500Y-86614000D01*
X117475000Y-87630000D02*
X118173500Y-87630000D01*
X124193250Y-84836000D02*
X124460000Y-84836000D01*
X122923250Y-86106000D02*
X124193250Y-84836000D01*
X120332500Y-86614000D02*
X120840500Y-86106000D01*
X120840500Y-86106000D02*
X122923250Y-86106000D01*
D19*
X117322500Y-80645000D02*
X115570000Y-80645000D01*
X117322500Y-82550000D02*
X115570000Y-82550000D01*
X119090500Y-80838000D02*
X118897500Y-80645000D01*
X120620000Y-80838000D02*
X119090500Y-80838000D01*
X119085500Y-82738000D02*
X118897500Y-82550000D01*
X120620000Y-82738000D02*
X119085500Y-82738000D01*
X132268000Y-84795500D02*
X132080000Y-84607500D01*
X132268000Y-86584000D02*
X132268000Y-84795500D01*
X130368000Y-84800500D02*
X130175000Y-84607500D01*
X130368000Y-86584000D02*
X130368000Y-84800500D01*
X132080000Y-83032500D02*
X132080000Y-81280000D01*
X130175000Y-83032500D02*
X130175000Y-81280000D01*
X121757500Y-87950000D02*
X121437500Y-87630000D01*
X124430000Y-87950000D02*
X121757500Y-87950000D01*
D21*
X124460000Y-89850000D02*
X121752500Y-89850000D01*
D19*
X121752500Y-89850000D02*
X121437500Y-89535000D01*
X124430000Y-89850000D02*
X121752500Y-89850000D01*
D21*
X119220000Y-87630000D02*
X119862500Y-87630000D01*
X118470000Y-88380000D02*
X119220000Y-87630000D01*
X116820000Y-88380000D02*
X118470000Y-88380000D01*
X115570000Y-87630000D02*
X116070000Y-87630000D01*
X116070000Y-87630000D02*
X116820000Y-88380000D01*
X116070000Y-89535000D02*
X115570000Y-89535000D01*
X119862500Y-89535000D02*
X118668750Y-89535000D01*
X116820000Y-90285000D02*
X116070000Y-89535000D01*
X117918750Y-90285000D02*
X116820000Y-90285000D01*
X118668750Y-89535000D02*
X117918750Y-90285000D01*
X127030000Y-89850000D02*
X126280000Y-89850000D01*
X126280000Y-89850000D02*
X126211962Y-89781962D01*
X126211962Y-89781962D02*
X126211962Y-89698739D01*
X128016003Y-87713997D02*
X128016003Y-87630003D01*
X127030000Y-87950000D02*
X127780000Y-87950000D01*
X127780000Y-87950000D02*
X128016003Y-87713997D01*
X124968000Y-81534000D02*
X127000000Y-81534000D01*
X123220000Y-82738000D02*
X123764000Y-82738000D01*
X123764000Y-82738000D02*
X124968000Y-81534000D01*
X125926315Y-80772000D02*
X126492000Y-80772000D01*
X125672315Y-81026000D02*
X125926315Y-80772000D01*
X123190000Y-80772000D02*
X123444000Y-81026000D01*
X123444000Y-81026000D02*
X125672315Y-81026000D01*
D22*
G36*
X132971000Y-80076572D02*
G01*
X132931526Y-80028474D01*
X132877623Y-79984236D01*
X132816125Y-79951365D01*
X132749396Y-79931123D01*
X132680000Y-79924288D01*
X131480000Y-79924288D01*
X131410604Y-79931123D01*
X131343875Y-79951365D01*
X131282377Y-79984236D01*
X131228474Y-80028474D01*
X131184236Y-80082377D01*
X131151365Y-80143875D01*
X131131123Y-80210604D01*
X131127500Y-80247388D01*
X131123877Y-80210604D01*
X131103635Y-80143875D01*
X131070764Y-80082377D01*
X131026526Y-80028474D01*
X130972623Y-79984236D01*
X130911125Y-79951365D01*
X130844396Y-79931123D01*
X130775000Y-79924288D01*
X129575000Y-79924288D01*
X129505604Y-79931123D01*
X129438875Y-79951365D01*
X129377377Y-79984236D01*
X129323474Y-80028474D01*
X129279236Y-80082377D01*
X129246365Y-80143875D01*
X129226123Y-80210604D01*
X129219288Y-80280000D01*
X129219288Y-82280000D01*
X129226123Y-82349396D01*
X129246365Y-82416125D01*
X129279236Y-82477623D01*
X129323474Y-82531526D01*
X129377377Y-82575764D01*
X129393197Y-82584220D01*
X129388016Y-82593913D01*
X129355326Y-82701678D01*
X129344288Y-82813750D01*
X129344288Y-83251250D01*
X129355326Y-83363322D01*
X129388016Y-83471087D01*
X129441102Y-83570404D01*
X129512544Y-83657456D01*
X129599596Y-83728898D01*
X129698913Y-83781984D01*
X129806678Y-83814674D01*
X129860754Y-83820000D01*
X129806678Y-83825326D01*
X129698913Y-83858016D01*
X129599596Y-83911102D01*
X129512544Y-83982544D01*
X129441102Y-84069596D01*
X129388016Y-84168913D01*
X129355326Y-84276678D01*
X129344288Y-84388750D01*
X129344288Y-84826250D01*
X129355326Y-84938322D01*
X129388016Y-85046087D01*
X129441102Y-85145404D01*
X129512544Y-85232456D01*
X129599596Y-85303898D01*
X129698913Y-85356984D01*
X129764001Y-85376728D01*
X129764001Y-85588395D01*
X129734774Y-85559168D01*
X129619469Y-85482124D01*
X129491349Y-85429055D01*
X129355338Y-85402000D01*
X129216662Y-85402000D01*
X129080651Y-85429055D01*
X128952531Y-85482124D01*
X128837226Y-85559168D01*
X128739168Y-85657226D01*
X128662124Y-85772531D01*
X128609055Y-85900651D01*
X128582000Y-86036662D01*
X128582000Y-86175338D01*
X128609055Y-86311349D01*
X128662124Y-86439469D01*
X128682000Y-86469216D01*
X128682001Y-87398225D01*
X128639879Y-87296534D01*
X128562835Y-87181229D01*
X128464777Y-87083171D01*
X128349472Y-87006127D01*
X128221352Y-86953058D01*
X128085341Y-86926003D01*
X127946665Y-86926003D01*
X127810654Y-86953058D01*
X127682534Y-87006127D01*
X127567229Y-87083171D01*
X127469171Y-87181229D01*
X127427037Y-87244288D01*
X126530000Y-87244288D01*
X126460604Y-87251123D01*
X126393875Y-87271365D01*
X126332377Y-87304236D01*
X126278474Y-87348474D01*
X126234236Y-87402377D01*
X126201365Y-87463875D01*
X126181123Y-87530604D01*
X126174288Y-87600000D01*
X126174288Y-88300000D01*
X126181123Y-88369396D01*
X126201365Y-88436125D01*
X126234236Y-88497623D01*
X126278474Y-88551526D01*
X126332377Y-88595764D01*
X126393875Y-88628635D01*
X126460604Y-88648877D01*
X126530000Y-88655712D01*
X127530000Y-88655712D01*
X127599396Y-88648877D01*
X127666125Y-88628635D01*
X127727623Y-88595764D01*
X127781526Y-88551526D01*
X127825764Y-88497623D01*
X127858635Y-88436125D01*
X127862560Y-88423186D01*
X127873900Y-88422069D01*
X127964192Y-88394679D01*
X128047405Y-88350200D01*
X128067142Y-88334003D01*
X128085341Y-88334003D01*
X128201288Y-88310939D01*
X128201288Y-88585250D01*
X128212326Y-88697322D01*
X128245016Y-88805087D01*
X128298102Y-88904404D01*
X128369544Y-88991456D01*
X128456596Y-89062898D01*
X128555913Y-89115984D01*
X128663678Y-89148674D01*
X128775750Y-89159712D01*
X129288250Y-89159712D01*
X129400322Y-89148674D01*
X129508087Y-89115984D01*
X129607404Y-89062898D01*
X129662288Y-89017856D01*
X129662288Y-89684000D01*
X129669123Y-89753396D01*
X129689365Y-89820125D01*
X129722236Y-89881623D01*
X129766474Y-89935526D01*
X129820377Y-89979764D01*
X129881875Y-90012635D01*
X129948604Y-90032877D01*
X130018000Y-90039712D01*
X130718000Y-90039712D01*
X130787396Y-90032877D01*
X130854125Y-90012635D01*
X130915623Y-89979764D01*
X130969526Y-89935526D01*
X131013764Y-89881623D01*
X131046635Y-89820125D01*
X131066877Y-89753396D01*
X131073712Y-89684000D01*
X131073712Y-88684000D01*
X131066877Y-88614604D01*
X131046665Y-88547974D01*
X131143469Y-88507876D01*
X131258774Y-88430832D01*
X131356832Y-88332774D01*
X131433876Y-88217469D01*
X131486945Y-88089349D01*
X131514000Y-87953338D01*
X131514000Y-87814662D01*
X131486945Y-87678651D01*
X131433876Y-87550531D01*
X131356832Y-87435226D01*
X131258774Y-87337168D01*
X131143469Y-87260124D01*
X131046665Y-87220026D01*
X131066877Y-87153396D01*
X131073712Y-87084000D01*
X131073712Y-86084000D01*
X131066877Y-86014604D01*
X131046635Y-85947875D01*
X131013764Y-85886377D01*
X130972000Y-85835489D01*
X130972000Y-85013069D01*
X130994674Y-84938322D01*
X131005712Y-84826250D01*
X131005712Y-84388750D01*
X130994674Y-84276678D01*
X130961984Y-84168913D01*
X130908898Y-84069596D01*
X130837456Y-83982544D01*
X130750404Y-83911102D01*
X130651087Y-83858016D01*
X130543322Y-83825326D01*
X130489246Y-83820000D01*
X130543322Y-83814674D01*
X130651087Y-83781984D01*
X130750404Y-83728898D01*
X130837456Y-83657456D01*
X130908898Y-83570404D01*
X130961984Y-83471087D01*
X130994674Y-83363322D01*
X131005712Y-83251250D01*
X131005712Y-82813750D01*
X130994674Y-82701678D01*
X130961984Y-82593913D01*
X130956803Y-82584220D01*
X130972623Y-82575764D01*
X131026526Y-82531526D01*
X131070764Y-82477623D01*
X131103635Y-82416125D01*
X131123877Y-82349396D01*
X131127500Y-82312612D01*
X131131123Y-82349396D01*
X131151365Y-82416125D01*
X131184236Y-82477623D01*
X131228474Y-82531526D01*
X131282377Y-82575764D01*
X131298197Y-82584220D01*
X131293016Y-82593913D01*
X131260326Y-82701678D01*
X131249288Y-82813750D01*
X131249288Y-83251250D01*
X131260326Y-83363322D01*
X131293016Y-83471087D01*
X131346102Y-83570404D01*
X131417544Y-83657456D01*
X131504596Y-83728898D01*
X131603913Y-83781984D01*
X131711678Y-83814674D01*
X131765754Y-83820000D01*
X131711678Y-83825326D01*
X131603913Y-83858016D01*
X131504596Y-83911102D01*
X131417544Y-83982544D01*
X131346102Y-84069596D01*
X131293016Y-84168913D01*
X131260326Y-84276678D01*
X131249288Y-84388750D01*
X131249288Y-84826250D01*
X131260326Y-84938322D01*
X131293016Y-85046087D01*
X131346102Y-85145404D01*
X131417544Y-85232456D01*
X131504596Y-85303898D01*
X131603913Y-85356984D01*
X131664001Y-85375211D01*
X131664000Y-85835488D01*
X131622236Y-85886377D01*
X131589365Y-85947875D01*
X131569123Y-86014604D01*
X131562288Y-86084000D01*
X131562288Y-87084000D01*
X131569123Y-87153396D01*
X131589365Y-87220125D01*
X131622236Y-87281623D01*
X131666474Y-87335526D01*
X131720377Y-87379764D01*
X131781875Y-87412635D01*
X131808677Y-87420765D01*
X131738372Y-87525984D01*
X131685303Y-87654104D01*
X131658248Y-87790115D01*
X131658248Y-87928791D01*
X131685303Y-88064802D01*
X131738372Y-88192922D01*
X131815416Y-88308227D01*
X131843776Y-88336587D01*
X131781875Y-88355365D01*
X131720377Y-88388236D01*
X131666474Y-88432474D01*
X131622236Y-88486377D01*
X131589365Y-88547875D01*
X131569123Y-88614604D01*
X131562288Y-88684000D01*
X131562288Y-89684000D01*
X131569123Y-89753396D01*
X131589365Y-89820125D01*
X131622236Y-89881623D01*
X131666474Y-89935526D01*
X131720377Y-89979764D01*
X131781875Y-90012635D01*
X131848604Y-90032877D01*
X131918000Y-90039712D01*
X132618000Y-90039712D01*
X132687396Y-90032877D01*
X132754125Y-90012635D01*
X132815623Y-89979764D01*
X132869526Y-89935526D01*
X132913764Y-89881623D01*
X132946635Y-89820125D01*
X132966877Y-89753396D01*
X132971001Y-89711526D01*
X132971001Y-90426000D01*
X127802475Y-90426000D01*
X127825764Y-90397623D01*
X127858635Y-90336125D01*
X127878877Y-90269396D01*
X127885712Y-90200000D01*
X127885712Y-89500000D01*
X127878877Y-89430604D01*
X127858635Y-89363875D01*
X127825764Y-89302377D01*
X127781526Y-89248474D01*
X127727623Y-89204236D01*
X127666125Y-89171365D01*
X127599396Y-89151123D01*
X127530000Y-89144288D01*
X126649333Y-89144288D01*
X126545431Y-89074863D01*
X126417311Y-89021794D01*
X126281300Y-88994739D01*
X126142624Y-88994739D01*
X126006613Y-89021794D01*
X125878493Y-89074863D01*
X125763188Y-89151907D01*
X125665130Y-89249965D01*
X125588086Y-89365270D01*
X125535017Y-89493390D01*
X125507962Y-89629401D01*
X125507962Y-89768077D01*
X125535017Y-89904088D01*
X125588086Y-90032208D01*
X125665130Y-90147513D01*
X125763188Y-90245571D01*
X125878493Y-90322615D01*
X126006613Y-90375684D01*
X126142624Y-90402739D01*
X126238435Y-90402739D01*
X126257525Y-90426000D01*
X125202475Y-90426000D01*
X125225764Y-90397623D01*
X125258635Y-90336125D01*
X125278877Y-90269396D01*
X125285712Y-90200000D01*
X125285712Y-89500000D01*
X125278877Y-89430604D01*
X125258635Y-89363875D01*
X125225764Y-89302377D01*
X125181526Y-89248474D01*
X125127623Y-89204236D01*
X125066125Y-89171365D01*
X124999396Y-89151123D01*
X124930000Y-89144288D01*
X123930000Y-89144288D01*
X123860604Y-89151123D01*
X123793875Y-89171365D01*
X123732377Y-89204236D01*
X123681489Y-89246000D01*
X122227486Y-89246000D01*
X122219674Y-89166678D01*
X122186984Y-89058913D01*
X122133898Y-88959596D01*
X122062456Y-88872544D01*
X121975404Y-88801102D01*
X121876087Y-88748016D01*
X121768322Y-88715326D01*
X121656250Y-88704288D01*
X121218750Y-88704288D01*
X121106678Y-88715326D01*
X120998913Y-88748016D01*
X120899596Y-88801102D01*
X120812544Y-88872544D01*
X120741102Y-88959596D01*
X120688016Y-89058913D01*
X120655326Y-89166678D01*
X120650000Y-89220754D01*
X120644674Y-89166678D01*
X120611984Y-89058913D01*
X120558898Y-88959596D01*
X120511752Y-88902149D01*
X120997055Y-88416847D01*
X120997687Y-88416329D01*
X120998913Y-88416984D01*
X121106678Y-88449674D01*
X121218750Y-88460712D01*
X121431677Y-88460712D01*
X121525241Y-88510723D01*
X121639095Y-88545260D01*
X121727833Y-88554000D01*
X121727835Y-88554000D01*
X121757499Y-88556922D01*
X121787164Y-88554000D01*
X123681489Y-88554000D01*
X123732377Y-88595764D01*
X123793875Y-88628635D01*
X123860604Y-88648877D01*
X123930000Y-88655712D01*
X124930000Y-88655712D01*
X124999396Y-88648877D01*
X125066125Y-88628635D01*
X125127623Y-88595764D01*
X125181526Y-88551526D01*
X125225764Y-88497623D01*
X125258635Y-88436125D01*
X125278877Y-88369396D01*
X125285712Y-88300000D01*
X125285712Y-87600000D01*
X125278877Y-87530604D01*
X125258635Y-87463875D01*
X125225764Y-87402377D01*
X125181526Y-87348474D01*
X125127623Y-87304236D01*
X125066125Y-87271365D01*
X124999396Y-87251123D01*
X124930000Y-87244288D01*
X123930000Y-87244288D01*
X123860604Y-87251123D01*
X123793875Y-87271365D01*
X123732377Y-87304236D01*
X123681489Y-87346000D01*
X122227979Y-87346000D01*
X122219674Y-87261678D01*
X122186984Y-87153913D01*
X122154425Y-87093000D01*
X123641502Y-87093000D01*
X123642596Y-87093898D01*
X123741913Y-87146984D01*
X123849678Y-87179674D01*
X123961750Y-87190712D01*
X124399250Y-87190712D01*
X124511322Y-87179674D01*
X124619087Y-87146984D01*
X124718404Y-87093898D01*
X124805456Y-87022456D01*
X124876898Y-86935404D01*
X124929984Y-86836087D01*
X124962674Y-86728322D01*
X124968000Y-86674246D01*
X124973326Y-86728322D01*
X125006016Y-86836087D01*
X125059102Y-86935404D01*
X125130544Y-87022456D01*
X125217596Y-87093898D01*
X125316913Y-87146984D01*
X125424678Y-87179674D01*
X125536750Y-87190712D01*
X125974250Y-87190712D01*
X126086322Y-87179674D01*
X126194087Y-87146984D01*
X126293404Y-87093898D01*
X126380456Y-87022456D01*
X126451898Y-86935404D01*
X126504984Y-86836087D01*
X126537674Y-86728322D01*
X126548712Y-86616250D01*
X126548712Y-86103750D01*
X126537674Y-85991678D01*
X126504984Y-85883913D01*
X126463000Y-85805366D01*
X126463000Y-85615013D01*
X126547404Y-85569898D01*
X126634456Y-85498456D01*
X126648081Y-85481855D01*
X126678596Y-85506898D01*
X126777913Y-85559984D01*
X126885678Y-85592674D01*
X126997750Y-85603712D01*
X127510250Y-85603712D01*
X127622322Y-85592674D01*
X127730087Y-85559984D01*
X127829404Y-85506898D01*
X127909064Y-85441523D01*
X127936531Y-85459876D01*
X128064651Y-85512945D01*
X128200662Y-85540000D01*
X128339338Y-85540000D01*
X128475349Y-85512945D01*
X128603469Y-85459876D01*
X128718774Y-85382832D01*
X128816832Y-85284774D01*
X128893876Y-85169469D01*
X128946945Y-85041349D01*
X128974000Y-84905338D01*
X128974000Y-84766662D01*
X128946945Y-84630651D01*
X128893876Y-84502531D01*
X128816832Y-84387226D01*
X128718774Y-84289168D01*
X128603469Y-84212124D01*
X128475349Y-84159055D01*
X128339338Y-84132000D01*
X128200662Y-84132000D01*
X128064651Y-84159055D01*
X127937829Y-84211587D01*
X127916456Y-84185544D01*
X127829404Y-84114102D01*
X127730087Y-84061016D01*
X127716129Y-84056782D01*
X127723984Y-84042087D01*
X127756674Y-83934322D01*
X127767712Y-83822250D01*
X127767712Y-83309750D01*
X127756674Y-83197678D01*
X127723984Y-83089913D01*
X127670898Y-82990596D01*
X127599456Y-82903544D01*
X127512404Y-82832102D01*
X127413087Y-82779016D01*
X127305322Y-82746326D01*
X127193250Y-82735288D01*
X126755750Y-82735288D01*
X126643678Y-82746326D01*
X126535913Y-82779016D01*
X126436596Y-82832102D01*
X126349544Y-82903544D01*
X126278102Y-82990596D01*
X126225016Y-83089913D01*
X126192326Y-83197678D01*
X126190521Y-83216000D01*
X125839216Y-83216000D01*
X125809469Y-83196124D01*
X125681349Y-83143055D01*
X125545338Y-83116000D01*
X125406662Y-83116000D01*
X125270651Y-83143055D01*
X125142531Y-83196124D01*
X125027226Y-83273168D01*
X124929168Y-83371226D01*
X124852124Y-83486531D01*
X124799055Y-83614651D01*
X124772000Y-83750662D01*
X124772000Y-83889338D01*
X124799055Y-84025349D01*
X124799628Y-84026733D01*
X124765322Y-84016326D01*
X124653250Y-84005288D01*
X124215750Y-84005288D01*
X124103678Y-84016326D01*
X123995913Y-84049016D01*
X123896596Y-84102102D01*
X123809544Y-84173544D01*
X123738102Y-84260596D01*
X123685016Y-84359913D01*
X123652326Y-84467678D01*
X123641288Y-84579750D01*
X123641288Y-84710554D01*
X122724843Y-85627000D01*
X120864020Y-85627000D01*
X120840499Y-85624683D01*
X120816978Y-85627000D01*
X120816974Y-85627000D01*
X120746600Y-85633931D01*
X120656308Y-85661321D01*
X120635839Y-85672262D01*
X120573093Y-85705800D01*
X120518430Y-85750661D01*
X120500157Y-85765657D01*
X120485161Y-85783930D01*
X120134092Y-86135000D01*
X119213023Y-86135000D01*
X119189500Y-86132683D01*
X119165977Y-86135000D01*
X119165974Y-86135000D01*
X119095600Y-86141931D01*
X119005308Y-86169321D01*
X118966573Y-86190026D01*
X118922094Y-86213800D01*
X118904839Y-86227961D01*
X118849157Y-86273657D01*
X118834160Y-86291932D01*
X118018705Y-87107388D01*
X117955647Y-87044330D01*
X117832153Y-86961814D01*
X117694934Y-86904976D01*
X117549262Y-86876000D01*
X117400738Y-86876000D01*
X117255066Y-86904976D01*
X117117847Y-86961814D01*
X116994353Y-87044330D01*
X116925712Y-87112971D01*
X116925712Y-87030000D01*
X116918877Y-86960604D01*
X116898635Y-86893875D01*
X116865764Y-86832377D01*
X116821526Y-86778474D01*
X116767623Y-86734236D01*
X116706125Y-86701365D01*
X116639396Y-86681123D01*
X116570000Y-86674288D01*
X114570000Y-86674288D01*
X114500604Y-86681123D01*
X114433875Y-86701365D01*
X114425000Y-86706109D01*
X114425000Y-84735758D01*
X114432039Y-84748927D01*
X114455650Y-84777697D01*
X114476330Y-84808647D01*
X114502650Y-84834967D01*
X114526262Y-84863738D01*
X114555032Y-84887349D01*
X114581353Y-84913670D01*
X114612303Y-84934350D01*
X114641073Y-84957961D01*
X114673895Y-84975505D01*
X114704847Y-84996186D01*
X114739241Y-85010432D01*
X114772061Y-85027975D01*
X114807673Y-85038778D01*
X114842066Y-85053024D01*
X114878575Y-85060286D01*
X114914190Y-85071090D01*
X114951230Y-85074738D01*
X114987738Y-85082000D01*
X115700863Y-85082000D01*
X115709678Y-85084674D01*
X115821750Y-85095712D01*
X116033392Y-85095712D01*
X117016326Y-86078647D01*
X117017157Y-86079478D01*
X117040763Y-86108242D01*
X117069527Y-86131848D01*
X117121349Y-86183670D01*
X117152300Y-86204351D01*
X117181069Y-86227961D01*
X117213890Y-86245504D01*
X117244843Y-86266186D01*
X117279240Y-86280434D01*
X117312056Y-86297974D01*
X117347662Y-86308775D01*
X117382062Y-86323024D01*
X117418579Y-86330288D01*
X117454186Y-86341089D01*
X117491216Y-86344736D01*
X117527734Y-86352000D01*
X117564967Y-86352000D01*
X117601995Y-86355647D01*
X117639024Y-86352000D01*
X117676258Y-86352000D01*
X117712777Y-86344736D01*
X117749805Y-86341089D01*
X117785410Y-86330288D01*
X117821930Y-86323024D01*
X117856333Y-86308774D01*
X117891935Y-86297974D01*
X117924748Y-86280435D01*
X117959149Y-86266186D01*
X117990106Y-86245501D01*
X118022922Y-86227961D01*
X118051686Y-86204355D01*
X118082643Y-86183670D01*
X118108973Y-86157340D01*
X118137733Y-86133737D01*
X118161336Y-86104977D01*
X118187666Y-86078647D01*
X118208351Y-86047690D01*
X118231957Y-86018926D01*
X118249497Y-85986110D01*
X118270182Y-85955153D01*
X118284431Y-85920752D01*
X118301970Y-85887939D01*
X118312770Y-85852337D01*
X118327020Y-85817934D01*
X118334284Y-85781414D01*
X118345085Y-85745809D01*
X118348732Y-85708781D01*
X118355996Y-85672262D01*
X118355996Y-85635028D01*
X118359643Y-85597999D01*
X118355996Y-85560971D01*
X118355996Y-85523738D01*
X118348732Y-85487220D01*
X118345085Y-85450190D01*
X118334284Y-85414583D01*
X118330500Y-85395561D01*
X118330500Y-85043200D01*
X118358674Y-84950322D01*
X118369712Y-84838250D01*
X118369712Y-84325750D01*
X118358674Y-84213678D01*
X118325984Y-84105913D01*
X118313572Y-84082691D01*
X118326263Y-84070000D01*
X121641246Y-84070000D01*
X121666000Y-84072438D01*
X121694856Y-84069596D01*
X121764801Y-84062707D01*
X121859805Y-84033888D01*
X121947362Y-83987088D01*
X122024106Y-83924106D01*
X122039890Y-83904873D01*
X122258873Y-83685890D01*
X122278106Y-83670106D01*
X122341088Y-83593362D01*
X122387888Y-83505805D01*
X122416707Y-83410801D01*
X122424000Y-83336754D01*
X122424000Y-83336752D01*
X122426438Y-83312001D01*
X122424000Y-83287250D01*
X122424000Y-83285181D01*
X122424236Y-83285623D01*
X122468474Y-83339526D01*
X122522377Y-83383764D01*
X122583875Y-83416635D01*
X122650604Y-83436877D01*
X122720000Y-83443712D01*
X123720000Y-83443712D01*
X123789396Y-83436877D01*
X123856125Y-83416635D01*
X123917623Y-83383764D01*
X123971526Y-83339526D01*
X124015764Y-83285623D01*
X124048635Y-83224125D01*
X124068877Y-83157396D01*
X124074229Y-83103056D01*
X124104343Y-83078343D01*
X124119347Y-83060060D01*
X125166408Y-82013000D01*
X126483394Y-82013000D01*
X126551226Y-82080832D01*
X126666531Y-82157876D01*
X126794651Y-82210945D01*
X126930662Y-82238000D01*
X127069338Y-82238000D01*
X127205349Y-82210945D01*
X127333469Y-82157876D01*
X127448774Y-82080832D01*
X127546832Y-81982774D01*
X127623876Y-81867469D01*
X127676945Y-81739349D01*
X127704000Y-81603338D01*
X127704000Y-81464662D01*
X127676945Y-81328651D01*
X127623876Y-81200531D01*
X127546832Y-81085226D01*
X127448774Y-80987168D01*
X127333469Y-80910124D01*
X127205349Y-80857055D01*
X127193348Y-80854668D01*
X127196000Y-80841338D01*
X127196000Y-80702662D01*
X127168945Y-80566651D01*
X127115876Y-80438531D01*
X127038832Y-80323226D01*
X126940774Y-80225168D01*
X126825469Y-80148124D01*
X126697349Y-80095055D01*
X126561338Y-80068000D01*
X126422662Y-80068000D01*
X126286651Y-80095055D01*
X126158531Y-80148124D01*
X126043226Y-80225168D01*
X125975394Y-80293000D01*
X125949835Y-80293000D01*
X125926314Y-80290683D01*
X125902793Y-80293000D01*
X125902789Y-80293000D01*
X125832415Y-80299931D01*
X125742123Y-80327321D01*
X125703388Y-80348026D01*
X125658909Y-80371800D01*
X125639466Y-80387757D01*
X125585972Y-80431657D01*
X125570968Y-80449940D01*
X125473908Y-80547000D01*
X124075712Y-80547000D01*
X124075712Y-80488000D01*
X124068877Y-80418604D01*
X124048635Y-80351875D01*
X124015764Y-80290377D01*
X123971526Y-80236474D01*
X123917623Y-80192236D01*
X123856125Y-80159365D01*
X123789396Y-80139123D01*
X123720000Y-80132288D01*
X122720000Y-80132288D01*
X122650604Y-80139123D01*
X122583875Y-80159365D01*
X122522377Y-80192236D01*
X122468474Y-80236474D01*
X122424236Y-80290377D01*
X122391365Y-80351875D01*
X122371123Y-80418604D01*
X122364288Y-80488000D01*
X122364288Y-81188000D01*
X122371123Y-81257396D01*
X122391365Y-81324125D01*
X122424236Y-81385623D01*
X122468474Y-81439526D01*
X122522377Y-81483764D01*
X122583875Y-81516635D01*
X122650604Y-81536877D01*
X122720000Y-81543712D01*
X123720000Y-81543712D01*
X123789396Y-81536877D01*
X123856125Y-81516635D01*
X123877893Y-81505000D01*
X124319592Y-81505000D01*
X123785822Y-82038771D01*
X123720000Y-82032288D01*
X122720000Y-82032288D01*
X122650604Y-82039123D01*
X122583974Y-82059335D01*
X122543876Y-81962531D01*
X122466832Y-81847226D01*
X122368774Y-81749168D01*
X122253469Y-81672124D01*
X122125349Y-81619055D01*
X121989338Y-81592000D01*
X121850662Y-81592000D01*
X121714651Y-81619055D01*
X121586531Y-81672124D01*
X121471226Y-81749168D01*
X121373168Y-81847226D01*
X121296124Y-81962531D01*
X121256026Y-82059335D01*
X121189396Y-82039123D01*
X121120000Y-82032288D01*
X120120000Y-82032288D01*
X120050604Y-82039123D01*
X119983875Y-82059365D01*
X119922377Y-82092236D01*
X119871489Y-82134000D01*
X119665211Y-82134000D01*
X119646984Y-82073913D01*
X119593898Y-81974596D01*
X119522456Y-81887544D01*
X119435404Y-81816102D01*
X119336087Y-81763016D01*
X119228322Y-81730326D01*
X119116250Y-81719288D01*
X118678750Y-81719288D01*
X118566678Y-81730326D01*
X118458913Y-81763016D01*
X118359596Y-81816102D01*
X118272544Y-81887544D01*
X118201102Y-81974596D01*
X118148016Y-82073913D01*
X118115326Y-82181678D01*
X118110000Y-82235754D01*
X118104674Y-82181678D01*
X118071984Y-82073913D01*
X118018898Y-81974596D01*
X117947456Y-81887544D01*
X117860404Y-81816102D01*
X117761087Y-81763016D01*
X117653322Y-81730326D01*
X117541250Y-81719288D01*
X117103750Y-81719288D01*
X116991678Y-81730326D01*
X116883913Y-81763016D01*
X116874220Y-81768197D01*
X116865764Y-81752377D01*
X116821526Y-81698474D01*
X116767623Y-81654236D01*
X116706125Y-81621365D01*
X116639396Y-81601123D01*
X116602612Y-81597500D01*
X116639396Y-81593877D01*
X116706125Y-81573635D01*
X116767623Y-81540764D01*
X116821526Y-81496526D01*
X116865764Y-81442623D01*
X116874220Y-81426803D01*
X116883913Y-81431984D01*
X116991678Y-81464674D01*
X117103750Y-81475712D01*
X117541250Y-81475712D01*
X117653322Y-81464674D01*
X117761087Y-81431984D01*
X117860404Y-81378898D01*
X117947456Y-81307456D01*
X118018898Y-81220404D01*
X118071984Y-81121087D01*
X118104674Y-81013322D01*
X118110000Y-80959246D01*
X118115326Y-81013322D01*
X118148016Y-81121087D01*
X118201102Y-81220404D01*
X118272544Y-81307456D01*
X118359596Y-81378898D01*
X118458913Y-81431984D01*
X118566678Y-81464674D01*
X118678750Y-81475712D01*
X119116250Y-81475712D01*
X119228322Y-81464674D01*
X119303069Y-81442000D01*
X119871489Y-81442000D01*
X119922377Y-81483764D01*
X119983875Y-81516635D01*
X120050604Y-81536877D01*
X120120000Y-81543712D01*
X121120000Y-81543712D01*
X121189396Y-81536877D01*
X121256125Y-81516635D01*
X121317623Y-81483764D01*
X121371526Y-81439526D01*
X121415764Y-81385623D01*
X121448635Y-81324125D01*
X121468877Y-81257396D01*
X121475712Y-81188000D01*
X121475712Y-80488000D01*
X121468877Y-80418604D01*
X121448635Y-80351875D01*
X121415764Y-80290377D01*
X121371526Y-80236474D01*
X121317623Y-80192236D01*
X121256125Y-80159365D01*
X121189396Y-80139123D01*
X121120000Y-80132288D01*
X120120000Y-80132288D01*
X120050604Y-80139123D01*
X119983875Y-80159365D01*
X119922377Y-80192236D01*
X119871489Y-80234000D01*
X119666728Y-80234000D01*
X119646984Y-80168913D01*
X119593898Y-80069596D01*
X119522456Y-79982544D01*
X119435404Y-79911102D01*
X119379087Y-79881000D01*
X132971000Y-79881000D01*
X132971000Y-80076572D01*
G37*
X132971000Y-80076572D02*
X132931526Y-80028474D01*
X132877623Y-79984236D01*
X132816125Y-79951365D01*
X132749396Y-79931123D01*
X132680000Y-79924288D01*
X131480000Y-79924288D01*
X131410604Y-79931123D01*
X131343875Y-79951365D01*
X131282377Y-79984236D01*
X131228474Y-80028474D01*
X131184236Y-80082377D01*
X131151365Y-80143875D01*
X131131123Y-80210604D01*
X131127500Y-80247388D01*
X131123877Y-80210604D01*
X131103635Y-80143875D01*
X131070764Y-80082377D01*
X131026526Y-80028474D01*
X130972623Y-79984236D01*
X130911125Y-79951365D01*
X130844396Y-79931123D01*
X130775000Y-79924288D01*
X129575000Y-79924288D01*
X129505604Y-79931123D01*
X129438875Y-79951365D01*
X129377377Y-79984236D01*
X129323474Y-80028474D01*
X129279236Y-80082377D01*
X129246365Y-80143875D01*
X129226123Y-80210604D01*
X129219288Y-80280000D01*
X129219288Y-82280000D01*
X129226123Y-82349396D01*
X129246365Y-82416125D01*
X129279236Y-82477623D01*
X129323474Y-82531526D01*
X129377377Y-82575764D01*
X129393197Y-82584220D01*
X129388016Y-82593913D01*
X129355326Y-82701678D01*
X129344288Y-82813750D01*
X129344288Y-83251250D01*
X129355326Y-83363322D01*
X129388016Y-83471087D01*
X129441102Y-83570404D01*
X129512544Y-83657456D01*
X129599596Y-83728898D01*
X129698913Y-83781984D01*
X129806678Y-83814674D01*
X129860754Y-83820000D01*
X129806678Y-83825326D01*
X129698913Y-83858016D01*
X129599596Y-83911102D01*
X129512544Y-83982544D01*
X129441102Y-84069596D01*
X129388016Y-84168913D01*
X129355326Y-84276678D01*
X129344288Y-84388750D01*
X129344288Y-84826250D01*
X129355326Y-84938322D01*
X129388016Y-85046087D01*
X129441102Y-85145404D01*
X129512544Y-85232456D01*
X129599596Y-85303898D01*
X129698913Y-85356984D01*
X129764001Y-85376728D01*
X129764001Y-85588395D01*
X129734774Y-85559168D01*
X129619469Y-85482124D01*
X129491349Y-85429055D01*
X129355338Y-85402000D01*
X129216662Y-85402000D01*
X129080651Y-85429055D01*
X128952531Y-85482124D01*
X128837226Y-85559168D01*
X128739168Y-85657226D01*
X128662124Y-85772531D01*
X128609055Y-85900651D01*
X128582000Y-86036662D01*
X128582000Y-86175338D01*
X128609055Y-86311349D01*
X128662124Y-86439469D01*
X128682000Y-86469216D01*
X128682001Y-87398225D01*
X128639879Y-87296534D01*
X128562835Y-87181229D01*
X128464777Y-87083171D01*
X128349472Y-87006127D01*
X128221352Y-86953058D01*
X128085341Y-86926003D01*
X127946665Y-86926003D01*
X127810654Y-86953058D01*
X127682534Y-87006127D01*
X127567229Y-87083171D01*
X127469171Y-87181229D01*
X127427037Y-87244288D01*
X126530000Y-87244288D01*
X126460604Y-87251123D01*
X126393875Y-87271365D01*
X126332377Y-87304236D01*
X126278474Y-87348474D01*
X126234236Y-87402377D01*
X126201365Y-87463875D01*
X126181123Y-87530604D01*
X126174288Y-87600000D01*
X126174288Y-88300000D01*
X126181123Y-88369396D01*
X126201365Y-88436125D01*
X126234236Y-88497623D01*
X126278474Y-88551526D01*
X126332377Y-88595764D01*
X126393875Y-88628635D01*
X126460604Y-88648877D01*
X126530000Y-88655712D01*
X127530000Y-88655712D01*
X127599396Y-88648877D01*
X127666125Y-88628635D01*
X127727623Y-88595764D01*
X127781526Y-88551526D01*
X127825764Y-88497623D01*
X127858635Y-88436125D01*
X127862560Y-88423186D01*
X127873900Y-88422069D01*
X127964192Y-88394679D01*
X128047405Y-88350200D01*
X128067142Y-88334003D01*
X128085341Y-88334003D01*
X128201288Y-88310939D01*
X128201288Y-88585250D01*
X128212326Y-88697322D01*
X128245016Y-88805087D01*
X128298102Y-88904404D01*
X128369544Y-88991456D01*
X128456596Y-89062898D01*
X128555913Y-89115984D01*
X128663678Y-89148674D01*
X128775750Y-89159712D01*
X129288250Y-89159712D01*
X129400322Y-89148674D01*
X129508087Y-89115984D01*
X129607404Y-89062898D01*
X129662288Y-89017856D01*
X129662288Y-89684000D01*
X129669123Y-89753396D01*
X129689365Y-89820125D01*
X129722236Y-89881623D01*
X129766474Y-89935526D01*
X129820377Y-89979764D01*
X129881875Y-90012635D01*
X129948604Y-90032877D01*
X130018000Y-90039712D01*
X130718000Y-90039712D01*
X130787396Y-90032877D01*
X130854125Y-90012635D01*
X130915623Y-89979764D01*
X130969526Y-89935526D01*
X131013764Y-89881623D01*
X131046635Y-89820125D01*
X131066877Y-89753396D01*
X131073712Y-89684000D01*
X131073712Y-88684000D01*
X131066877Y-88614604D01*
X131046665Y-88547974D01*
X131143469Y-88507876D01*
X131258774Y-88430832D01*
X131356832Y-88332774D01*
X131433876Y-88217469D01*
X131486945Y-88089349D01*
X131514000Y-87953338D01*
X131514000Y-87814662D01*
X131486945Y-87678651D01*
X131433876Y-87550531D01*
X131356832Y-87435226D01*
X131258774Y-87337168D01*
X131143469Y-87260124D01*
X131046665Y-87220026D01*
X131066877Y-87153396D01*
X131073712Y-87084000D01*
X131073712Y-86084000D01*
X131066877Y-86014604D01*
X131046635Y-85947875D01*
X131013764Y-85886377D01*
X130972000Y-85835489D01*
X130972000Y-85013069D01*
X130994674Y-84938322D01*
X131005712Y-84826250D01*
X131005712Y-84388750D01*
X130994674Y-84276678D01*
X130961984Y-84168913D01*
X130908898Y-84069596D01*
X130837456Y-83982544D01*
X130750404Y-83911102D01*
X130651087Y-83858016D01*
X130543322Y-83825326D01*
X130489246Y-83820000D01*
X130543322Y-83814674D01*
X130651087Y-83781984D01*
X130750404Y-83728898D01*
X130837456Y-83657456D01*
X130908898Y-83570404D01*
X130961984Y-83471087D01*
X130994674Y-83363322D01*
X131005712Y-83251250D01*
X131005712Y-82813750D01*
X130994674Y-82701678D01*
X130961984Y-82593913D01*
X130956803Y-82584220D01*
X130972623Y-82575764D01*
X131026526Y-82531526D01*
X131070764Y-82477623D01*
X131103635Y-82416125D01*
X131123877Y-82349396D01*
X131127500Y-82312612D01*
X131131123Y-82349396D01*
X131151365Y-82416125D01*
X131184236Y-82477623D01*
X131228474Y-82531526D01*
X131282377Y-82575764D01*
X131298197Y-82584220D01*
X131293016Y-82593913D01*
X131260326Y-82701678D01*
X131249288Y-82813750D01*
X131249288Y-83251250D01*
X131260326Y-83363322D01*
X131293016Y-83471087D01*
X131346102Y-83570404D01*
X131417544Y-83657456D01*
X131504596Y-83728898D01*
X131603913Y-83781984D01*
X131711678Y-83814674D01*
X131765754Y-83820000D01*
X131711678Y-83825326D01*
X131603913Y-83858016D01*
X131504596Y-83911102D01*
X131417544Y-83982544D01*
X131346102Y-84069596D01*
X131293016Y-84168913D01*
X131260326Y-84276678D01*
X131249288Y-84388750D01*
X131249288Y-84826250D01*
X131260326Y-84938322D01*
X131293016Y-85046087D01*
X131346102Y-85145404D01*
X131417544Y-85232456D01*
X131504596Y-85303898D01*
X131603913Y-85356984D01*
X131664001Y-85375211D01*
X131664000Y-85835488D01*
X131622236Y-85886377D01*
X131589365Y-85947875D01*
X131569123Y-86014604D01*
X131562288Y-86084000D01*
X131562288Y-87084000D01*
X131569123Y-87153396D01*
X131589365Y-87220125D01*
X131622236Y-87281623D01*
X131666474Y-87335526D01*
X131720377Y-87379764D01*
X131781875Y-87412635D01*
X131808677Y-87420765D01*
X131738372Y-87525984D01*
X131685303Y-87654104D01*
X131658248Y-87790115D01*
X131658248Y-87928791D01*
X131685303Y-88064802D01*
X131738372Y-88192922D01*
X131815416Y-88308227D01*
X131843776Y-88336587D01*
X131781875Y-88355365D01*
X131720377Y-88388236D01*
X131666474Y-88432474D01*
X131622236Y-88486377D01*
X131589365Y-88547875D01*
X131569123Y-88614604D01*
X131562288Y-88684000D01*
X131562288Y-89684000D01*
X131569123Y-89753396D01*
X131589365Y-89820125D01*
X131622236Y-89881623D01*
X131666474Y-89935526D01*
X131720377Y-89979764D01*
X131781875Y-90012635D01*
X131848604Y-90032877D01*
X131918000Y-90039712D01*
X132618000Y-90039712D01*
X132687396Y-90032877D01*
X132754125Y-90012635D01*
X132815623Y-89979764D01*
X132869526Y-89935526D01*
X132913764Y-89881623D01*
X132946635Y-89820125D01*
X132966877Y-89753396D01*
X132971001Y-89711526D01*
X132971001Y-90426000D01*
X127802475Y-90426000D01*
X127825764Y-90397623D01*
X127858635Y-90336125D01*
X127878877Y-90269396D01*
X127885712Y-90200000D01*
X127885712Y-89500000D01*
X127878877Y-89430604D01*
X127858635Y-89363875D01*
X127825764Y-89302377D01*
X127781526Y-89248474D01*
X127727623Y-89204236D01*
X127666125Y-89171365D01*
X127599396Y-89151123D01*
X127530000Y-89144288D01*
X126649333Y-89144288D01*
X126545431Y-89074863D01*
X126417311Y-89021794D01*
X126281300Y-88994739D01*
X126142624Y-88994739D01*
X126006613Y-89021794D01*
X125878493Y-89074863D01*
X125763188Y-89151907D01*
X125665130Y-89249965D01*
X125588086Y-89365270D01*
X125535017Y-89493390D01*
X125507962Y-89629401D01*
X125507962Y-89768077D01*
X125535017Y-89904088D01*
X125588086Y-90032208D01*
X125665130Y-90147513D01*
X125763188Y-90245571D01*
X125878493Y-90322615D01*
X126006613Y-90375684D01*
X126142624Y-90402739D01*
X126238435Y-90402739D01*
X126257525Y-90426000D01*
X125202475Y-90426000D01*
X125225764Y-90397623D01*
X125258635Y-90336125D01*
X125278877Y-90269396D01*
X125285712Y-90200000D01*
X125285712Y-89500000D01*
X125278877Y-89430604D01*
X125258635Y-89363875D01*
X125225764Y-89302377D01*
X125181526Y-89248474D01*
X125127623Y-89204236D01*
X125066125Y-89171365D01*
X124999396Y-89151123D01*
X124930000Y-89144288D01*
X123930000Y-89144288D01*
X123860604Y-89151123D01*
X123793875Y-89171365D01*
X123732377Y-89204236D01*
X123681489Y-89246000D01*
X122227486Y-89246000D01*
X122219674Y-89166678D01*
X122186984Y-89058913D01*
X122133898Y-88959596D01*
X122062456Y-88872544D01*
X121975404Y-88801102D01*
X121876087Y-88748016D01*
X121768322Y-88715326D01*
X121656250Y-88704288D01*
X121218750Y-88704288D01*
X121106678Y-88715326D01*
X120998913Y-88748016D01*
X120899596Y-88801102D01*
X120812544Y-88872544D01*
X120741102Y-88959596D01*
X120688016Y-89058913D01*
X120655326Y-89166678D01*
X120650000Y-89220754D01*
X120644674Y-89166678D01*
X120611984Y-89058913D01*
X120558898Y-88959596D01*
X120511752Y-88902149D01*
X120997055Y-88416847D01*
X120997687Y-88416329D01*
X120998913Y-88416984D01*
X121106678Y-88449674D01*
X121218750Y-88460712D01*
X121431677Y-88460712D01*
X121525241Y-88510723D01*
X121639095Y-88545260D01*
X121727833Y-88554000D01*
X121727835Y-88554000D01*
X121757499Y-88556922D01*
X121787164Y-88554000D01*
X123681489Y-88554000D01*
X123732377Y-88595764D01*
X123793875Y-88628635D01*
X123860604Y-88648877D01*
X123930000Y-88655712D01*
X124930000Y-88655712D01*
X124999396Y-88648877D01*
X125066125Y-88628635D01*
X125127623Y-88595764D01*
X125181526Y-88551526D01*
X125225764Y-88497623D01*
X125258635Y-88436125D01*
X125278877Y-88369396D01*
X125285712Y-88300000D01*
X125285712Y-87600000D01*
X125278877Y-87530604D01*
X125258635Y-87463875D01*
X125225764Y-87402377D01*
X125181526Y-87348474D01*
X125127623Y-87304236D01*
X125066125Y-87271365D01*
X124999396Y-87251123D01*
X124930000Y-87244288D01*
X123930000Y-87244288D01*
X123860604Y-87251123D01*
X123793875Y-87271365D01*
X123732377Y-87304236D01*
X123681489Y-87346000D01*
X122227979Y-87346000D01*
X122219674Y-87261678D01*
X122186984Y-87153913D01*
X122154425Y-87093000D01*
X123641502Y-87093000D01*
X123642596Y-87093898D01*
X123741913Y-87146984D01*
X123849678Y-87179674D01*
X123961750Y-87190712D01*
X124399250Y-87190712D01*
X124511322Y-87179674D01*
X124619087Y-87146984D01*
X124718404Y-87093898D01*
X124805456Y-87022456D01*
X124876898Y-86935404D01*
X124929984Y-86836087D01*
X124962674Y-86728322D01*
X124968000Y-86674246D01*
X124973326Y-86728322D01*
X125006016Y-86836087D01*
X125059102Y-86935404D01*
X125130544Y-87022456D01*
X125217596Y-87093898D01*
X125316913Y-87146984D01*
X125424678Y-87179674D01*
X125536750Y-87190712D01*
X125974250Y-87190712D01*
X126086322Y-87179674D01*
X126194087Y-87146984D01*
X126293404Y-87093898D01*
X126380456Y-87022456D01*
X126451898Y-86935404D01*
X126504984Y-86836087D01*
X126537674Y-86728322D01*
X126548712Y-86616250D01*
X126548712Y-86103750D01*
X126537674Y-85991678D01*
X126504984Y-85883913D01*
X126463000Y-85805366D01*
X126463000Y-85615013D01*
X126547404Y-85569898D01*
X126634456Y-85498456D01*
X126648081Y-85481855D01*
X126678596Y-85506898D01*
X126777913Y-85559984D01*
X126885678Y-85592674D01*
X126997750Y-85603712D01*
X127510250Y-85603712D01*
X127622322Y-85592674D01*
X127730087Y-85559984D01*
X127829404Y-85506898D01*
X127909064Y-85441523D01*
X127936531Y-85459876D01*
X128064651Y-85512945D01*
X128200662Y-85540000D01*
X128339338Y-85540000D01*
X128475349Y-85512945D01*
X128603469Y-85459876D01*
X128718774Y-85382832D01*
X128816832Y-85284774D01*
X128893876Y-85169469D01*
X128946945Y-85041349D01*
X128974000Y-84905338D01*
X128974000Y-84766662D01*
X128946945Y-84630651D01*
X128893876Y-84502531D01*
X128816832Y-84387226D01*
X128718774Y-84289168D01*
X128603469Y-84212124D01*
X128475349Y-84159055D01*
X128339338Y-84132000D01*
X128200662Y-84132000D01*
X128064651Y-84159055D01*
X127937829Y-84211587D01*
X127916456Y-84185544D01*
X127829404Y-84114102D01*
X127730087Y-84061016D01*
X127716129Y-84056782D01*
X127723984Y-84042087D01*
X127756674Y-83934322D01*
X127767712Y-83822250D01*
X127767712Y-83309750D01*
X127756674Y-83197678D01*
X127723984Y-83089913D01*
X127670898Y-82990596D01*
X127599456Y-82903544D01*
X127512404Y-82832102D01*
X127413087Y-82779016D01*
X127305322Y-82746326D01*
X127193250Y-82735288D01*
X126755750Y-82735288D01*
X126643678Y-82746326D01*
X126535913Y-82779016D01*
X126436596Y-82832102D01*
X126349544Y-82903544D01*
X126278102Y-82990596D01*
X126225016Y-83089913D01*
X126192326Y-83197678D01*
X126190521Y-83216000D01*
X125839216Y-83216000D01*
X125809469Y-83196124D01*
X125681349Y-83143055D01*
X125545338Y-83116000D01*
X125406662Y-83116000D01*
X125270651Y-83143055D01*
X125142531Y-83196124D01*
X125027226Y-83273168D01*
X124929168Y-83371226D01*
X124852124Y-83486531D01*
X124799055Y-83614651D01*
X124772000Y-83750662D01*
X124772000Y-83889338D01*
X124799055Y-84025349D01*
X124799628Y-84026733D01*
X124765322Y-84016326D01*
X124653250Y-84005288D01*
X124215750Y-84005288D01*
X124103678Y-84016326D01*
X123995913Y-84049016D01*
X123896596Y-84102102D01*
X123809544Y-84173544D01*
X123738102Y-84260596D01*
X123685016Y-84359913D01*
X123652326Y-84467678D01*
X123641288Y-84579750D01*
X123641288Y-84710554D01*
X122724843Y-85627000D01*
X120864020Y-85627000D01*
X120840499Y-85624683D01*
X120816978Y-85627000D01*
X120816974Y-85627000D01*
X120746600Y-85633931D01*
X120656308Y-85661321D01*
X120635839Y-85672262D01*
X120573093Y-85705800D01*
X120518430Y-85750661D01*
X120500157Y-85765657D01*
X120485161Y-85783930D01*
X120134092Y-86135000D01*
X119213023Y-86135000D01*
X119189500Y-86132683D01*
X119165977Y-86135000D01*
X119165974Y-86135000D01*
X119095600Y-86141931D01*
X119005308Y-86169321D01*
X118966573Y-86190026D01*
X118922094Y-86213800D01*
X118904839Y-86227961D01*
X118849157Y-86273657D01*
X118834160Y-86291932D01*
X118018705Y-87107388D01*
X117955647Y-87044330D01*
X117832153Y-86961814D01*
X117694934Y-86904976D01*
X117549262Y-86876000D01*
X117400738Y-86876000D01*
X117255066Y-86904976D01*
X117117847Y-86961814D01*
X116994353Y-87044330D01*
X116925712Y-87112971D01*
X116925712Y-87030000D01*
X116918877Y-86960604D01*
X116898635Y-86893875D01*
X116865764Y-86832377D01*
X116821526Y-86778474D01*
X116767623Y-86734236D01*
X116706125Y-86701365D01*
X116639396Y-86681123D01*
X116570000Y-86674288D01*
X114570000Y-86674288D01*
X114500604Y-86681123D01*
X114433875Y-86701365D01*
X114425000Y-86706109D01*
X114425000Y-84735758D01*
X114432039Y-84748927D01*
X114455650Y-84777697D01*
X114476330Y-84808647D01*
X114502650Y-84834967D01*
X114526262Y-84863738D01*
X114555032Y-84887349D01*
X114581353Y-84913670D01*
X114612303Y-84934350D01*
X114641073Y-84957961D01*
X114673895Y-84975505D01*
X114704847Y-84996186D01*
X114739241Y-85010432D01*
X114772061Y-85027975D01*
X114807673Y-85038778D01*
X114842066Y-85053024D01*
X114878575Y-85060286D01*
X114914190Y-85071090D01*
X114951230Y-85074738D01*
X114987738Y-85082000D01*
X115700863Y-85082000D01*
X115709678Y-85084674D01*
X115821750Y-85095712D01*
X116033392Y-85095712D01*
X117016326Y-86078647D01*
X117017157Y-86079478D01*
X117040763Y-86108242D01*
X117069527Y-86131848D01*
X117121349Y-86183670D01*
X117152300Y-86204351D01*
X117181069Y-86227961D01*
X117213890Y-86245504D01*
X117244843Y-86266186D01*
X117279240Y-86280434D01*
X117312056Y-86297974D01*
X117347662Y-86308775D01*
X117382062Y-86323024D01*
X117418579Y-86330288D01*
X117454186Y-86341089D01*
X117491216Y-86344736D01*
X117527734Y-86352000D01*
X117564967Y-86352000D01*
X117601995Y-86355647D01*
X117639024Y-86352000D01*
X117676258Y-86352000D01*
X117712777Y-86344736D01*
X117749805Y-86341089D01*
X117785410Y-86330288D01*
X117821930Y-86323024D01*
X117856333Y-86308774D01*
X117891935Y-86297974D01*
X117924748Y-86280435D01*
X117959149Y-86266186D01*
X117990106Y-86245501D01*
X118022922Y-86227961D01*
X118051686Y-86204355D01*
X118082643Y-86183670D01*
X118108973Y-86157340D01*
X118137733Y-86133737D01*
X118161336Y-86104977D01*
X118187666Y-86078647D01*
X118208351Y-86047690D01*
X118231957Y-86018926D01*
X118249497Y-85986110D01*
X118270182Y-85955153D01*
X118284431Y-85920752D01*
X118301970Y-85887939D01*
X118312770Y-85852337D01*
X118327020Y-85817934D01*
X118334284Y-85781414D01*
X118345085Y-85745809D01*
X118348732Y-85708781D01*
X118355996Y-85672262D01*
X118355996Y-85635028D01*
X118359643Y-85597999D01*
X118355996Y-85560971D01*
X118355996Y-85523738D01*
X118348732Y-85487220D01*
X118345085Y-85450190D01*
X118334284Y-85414583D01*
X118330500Y-85395561D01*
X118330500Y-85043200D01*
X118358674Y-84950322D01*
X118369712Y-84838250D01*
X118369712Y-84325750D01*
X118358674Y-84213678D01*
X118325984Y-84105913D01*
X118313572Y-84082691D01*
X118326263Y-84070000D01*
X121641246Y-84070000D01*
X121666000Y-84072438D01*
X121694856Y-84069596D01*
X121764801Y-84062707D01*
X121859805Y-84033888D01*
X121947362Y-83987088D01*
X122024106Y-83924106D01*
X122039890Y-83904873D01*
X122258873Y-83685890D01*
X122278106Y-83670106D01*
X122341088Y-83593362D01*
X122387888Y-83505805D01*
X122416707Y-83410801D01*
X122424000Y-83336754D01*
X122424000Y-83336752D01*
X122426438Y-83312001D01*
X122424000Y-83287250D01*
X122424000Y-83285181D01*
X122424236Y-83285623D01*
X122468474Y-83339526D01*
X122522377Y-83383764D01*
X122583875Y-83416635D01*
X122650604Y-83436877D01*
X122720000Y-83443712D01*
X123720000Y-83443712D01*
X123789396Y-83436877D01*
X123856125Y-83416635D01*
X123917623Y-83383764D01*
X123971526Y-83339526D01*
X124015764Y-83285623D01*
X124048635Y-83224125D01*
X124068877Y-83157396D01*
X124074229Y-83103056D01*
X124104343Y-83078343D01*
X124119347Y-83060060D01*
X125166408Y-82013000D01*
X126483394Y-82013000D01*
X126551226Y-82080832D01*
X126666531Y-82157876D01*
X126794651Y-82210945D01*
X126930662Y-82238000D01*
X127069338Y-82238000D01*
X127205349Y-82210945D01*
X127333469Y-82157876D01*
X127448774Y-82080832D01*
X127546832Y-81982774D01*
X127623876Y-81867469D01*
X127676945Y-81739349D01*
X127704000Y-81603338D01*
X127704000Y-81464662D01*
X127676945Y-81328651D01*
X127623876Y-81200531D01*
X127546832Y-81085226D01*
X127448774Y-80987168D01*
X127333469Y-80910124D01*
X127205349Y-80857055D01*
X127193348Y-80854668D01*
X127196000Y-80841338D01*
X127196000Y-80702662D01*
X127168945Y-80566651D01*
X127115876Y-80438531D01*
X127038832Y-80323226D01*
X126940774Y-80225168D01*
X126825469Y-80148124D01*
X126697349Y-80095055D01*
X126561338Y-80068000D01*
X126422662Y-80068000D01*
X126286651Y-80095055D01*
X126158531Y-80148124D01*
X126043226Y-80225168D01*
X125975394Y-80293000D01*
X125949835Y-80293000D01*
X125926314Y-80290683D01*
X125902793Y-80293000D01*
X125902789Y-80293000D01*
X125832415Y-80299931D01*
X125742123Y-80327321D01*
X125703388Y-80348026D01*
X125658909Y-80371800D01*
X125639466Y-80387757D01*
X125585972Y-80431657D01*
X125570968Y-80449940D01*
X125473908Y-80547000D01*
X124075712Y-80547000D01*
X124075712Y-80488000D01*
X124068877Y-80418604D01*
X124048635Y-80351875D01*
X124015764Y-80290377D01*
X123971526Y-80236474D01*
X123917623Y-80192236D01*
X123856125Y-80159365D01*
X123789396Y-80139123D01*
X123720000Y-80132288D01*
X122720000Y-80132288D01*
X122650604Y-80139123D01*
X122583875Y-80159365D01*
X122522377Y-80192236D01*
X122468474Y-80236474D01*
X122424236Y-80290377D01*
X122391365Y-80351875D01*
X122371123Y-80418604D01*
X122364288Y-80488000D01*
X122364288Y-81188000D01*
X122371123Y-81257396D01*
X122391365Y-81324125D01*
X122424236Y-81385623D01*
X122468474Y-81439526D01*
X122522377Y-81483764D01*
X122583875Y-81516635D01*
X122650604Y-81536877D01*
X122720000Y-81543712D01*
X123720000Y-81543712D01*
X123789396Y-81536877D01*
X123856125Y-81516635D01*
X123877893Y-81505000D01*
X124319592Y-81505000D01*
X123785822Y-82038771D01*
X123720000Y-82032288D01*
X122720000Y-82032288D01*
X122650604Y-82039123D01*
X122583974Y-82059335D01*
X122543876Y-81962531D01*
X122466832Y-81847226D01*
X122368774Y-81749168D01*
X122253469Y-81672124D01*
X122125349Y-81619055D01*
X121989338Y-81592000D01*
X121850662Y-81592000D01*
X121714651Y-81619055D01*
X121586531Y-81672124D01*
X121471226Y-81749168D01*
X121373168Y-81847226D01*
X121296124Y-81962531D01*
X121256026Y-82059335D01*
X121189396Y-82039123D01*
X121120000Y-82032288D01*
X120120000Y-82032288D01*
X120050604Y-82039123D01*
X119983875Y-82059365D01*
X119922377Y-82092236D01*
X119871489Y-82134000D01*
X119665211Y-82134000D01*
X119646984Y-82073913D01*
X119593898Y-81974596D01*
X119522456Y-81887544D01*
X119435404Y-81816102D01*
X119336087Y-81763016D01*
X119228322Y-81730326D01*
X119116250Y-81719288D01*
X118678750Y-81719288D01*
X118566678Y-81730326D01*
X118458913Y-81763016D01*
X118359596Y-81816102D01*
X118272544Y-81887544D01*
X118201102Y-81974596D01*
X118148016Y-82073913D01*
X118115326Y-82181678D01*
X118110000Y-82235754D01*
X118104674Y-82181678D01*
X118071984Y-82073913D01*
X118018898Y-81974596D01*
X117947456Y-81887544D01*
X117860404Y-81816102D01*
X117761087Y-81763016D01*
X117653322Y-81730326D01*
X117541250Y-81719288D01*
X117103750Y-81719288D01*
X116991678Y-81730326D01*
X116883913Y-81763016D01*
X116874220Y-81768197D01*
X116865764Y-81752377D01*
X116821526Y-81698474D01*
X116767623Y-81654236D01*
X116706125Y-81621365D01*
X116639396Y-81601123D01*
X116602612Y-81597500D01*
X116639396Y-81593877D01*
X116706125Y-81573635D01*
X116767623Y-81540764D01*
X116821526Y-81496526D01*
X116865764Y-81442623D01*
X116874220Y-81426803D01*
X116883913Y-81431984D01*
X116991678Y-81464674D01*
X117103750Y-81475712D01*
X117541250Y-81475712D01*
X117653322Y-81464674D01*
X117761087Y-81431984D01*
X117860404Y-81378898D01*
X117947456Y-81307456D01*
X118018898Y-81220404D01*
X118071984Y-81121087D01*
X118104674Y-81013322D01*
X118110000Y-80959246D01*
X118115326Y-81013322D01*
X118148016Y-81121087D01*
X118201102Y-81220404D01*
X118272544Y-81307456D01*
X118359596Y-81378898D01*
X118458913Y-81431984D01*
X118566678Y-81464674D01*
X118678750Y-81475712D01*
X119116250Y-81475712D01*
X119228322Y-81464674D01*
X119303069Y-81442000D01*
X119871489Y-81442000D01*
X119922377Y-81483764D01*
X119983875Y-81516635D01*
X120050604Y-81536877D01*
X120120000Y-81543712D01*
X121120000Y-81543712D01*
X121189396Y-81536877D01*
X121256125Y-81516635D01*
X121317623Y-81483764D01*
X121371526Y-81439526D01*
X121415764Y-81385623D01*
X121448635Y-81324125D01*
X121468877Y-81257396D01*
X121475712Y-81188000D01*
X121475712Y-80488000D01*
X121468877Y-80418604D01*
X121448635Y-80351875D01*
X121415764Y-80290377D01*
X121371526Y-80236474D01*
X121317623Y-80192236D01*
X121256125Y-80159365D01*
X121189396Y-80139123D01*
X121120000Y-80132288D01*
X120120000Y-80132288D01*
X120050604Y-80139123D01*
X119983875Y-80159365D01*
X119922377Y-80192236D01*
X119871489Y-80234000D01*
X119666728Y-80234000D01*
X119646984Y-80168913D01*
X119593898Y-80069596D01*
X119522456Y-79982544D01*
X119435404Y-79911102D01*
X119379087Y-79881000D01*
X132971000Y-79881000D01*
X132971000Y-80076572D01*
M02*
