G04 #@! TF.GenerationSoftware,KiCad,Pcbnew,(5.1.5)-2*
G04 #@! TF.CreationDate,2020-01-24T10:59:36+03:00*
G04 #@! TF.ProjectId,tcrt5000,74637274-3530-4303-902e-6b696361645f,rev?*
G04 #@! TF.SameCoordinates,Original*
G04 #@! TF.FileFunction,Soldermask,Bot*
G04 #@! TF.FilePolarity,Negative*
%FSLAX46Y46*%
G04 Gerber Fmt 4.6, Leading zero omitted, Abs format (unit mm)*
G04 Created by KiCad (PCBNEW (5.1.5)-2) date 2020-01-24 10:59:37*
%MOMM*%
%LPD*%
G04 APERTURE LIST*
%ADD10C,0.100000*%
G04 APERTURE END LIST*
D10*
G36*
X127635000Y-94615000D02*
G01*
X133350000Y-94615000D01*
X134620000Y-93345000D01*
X139065000Y-93345000D01*
X139065000Y-95250000D01*
X122555000Y-95250000D01*
X122555000Y-93345000D01*
X126365000Y-93345000D01*
X127635000Y-94615000D01*
G37*
X127635000Y-94615000D02*
X133350000Y-94615000D01*
X134620000Y-93345000D01*
X139065000Y-93345000D01*
X139065000Y-95250000D01*
X122555000Y-95250000D01*
X122555000Y-93345000D01*
X126365000Y-93345000D01*
X127635000Y-94615000D01*
G36*
X139065000Y-85090000D02*
G01*
X122555000Y-85090000D01*
X122555000Y-83185000D01*
X139065000Y-83185000D01*
X139065000Y-85090000D01*
G37*
X139065000Y-85090000D02*
X122555000Y-85090000D01*
X122555000Y-83185000D01*
X139065000Y-83185000D01*
X139065000Y-85090000D01*
G36*
X135486000Y-94111000D02*
G01*
X134484000Y-94111000D01*
X134484000Y-93209000D01*
X135486000Y-93209000D01*
X135486000Y-94111000D01*
G37*
G36*
X133486000Y-93161000D02*
G01*
X132484000Y-93161000D01*
X132484000Y-92259000D01*
X133486000Y-92259000D01*
X133486000Y-93161000D01*
G37*
G36*
X137744468Y-91843565D02*
G01*
X137783138Y-91855296D01*
X137818777Y-91874346D01*
X137850017Y-91899983D01*
X137875654Y-91931223D01*
X137894704Y-91966862D01*
X137906435Y-92005532D01*
X137911000Y-92051888D01*
X137911000Y-92703112D01*
X137906435Y-92749468D01*
X137894704Y-92788138D01*
X137875654Y-92823777D01*
X137850017Y-92855017D01*
X137818777Y-92880654D01*
X137783138Y-92899704D01*
X137744468Y-92911435D01*
X137698112Y-92916000D01*
X136621888Y-92916000D01*
X136575532Y-92911435D01*
X136536862Y-92899704D01*
X136501223Y-92880654D01*
X136469983Y-92855017D01*
X136444346Y-92823777D01*
X136425296Y-92788138D01*
X136413565Y-92749468D01*
X136409000Y-92703112D01*
X136409000Y-92051888D01*
X136413565Y-92005532D01*
X136425296Y-91966862D01*
X136444346Y-91931223D01*
X136469983Y-91899983D01*
X136501223Y-91874346D01*
X136536862Y-91855296D01*
X136575532Y-91843565D01*
X136621888Y-91839000D01*
X137698112Y-91839000D01*
X137744468Y-91843565D01*
G37*
G36*
X130124468Y-91843565D02*
G01*
X130163138Y-91855296D01*
X130198777Y-91874346D01*
X130230017Y-91899983D01*
X130255654Y-91931223D01*
X130274704Y-91966862D01*
X130286435Y-92005532D01*
X130291000Y-92051888D01*
X130291000Y-92703112D01*
X130286435Y-92749468D01*
X130274704Y-92788138D01*
X130255654Y-92823777D01*
X130230017Y-92855017D01*
X130198777Y-92880654D01*
X130163138Y-92899704D01*
X130124468Y-92911435D01*
X130078112Y-92916000D01*
X129001888Y-92916000D01*
X128955532Y-92911435D01*
X128916862Y-92899704D01*
X128881223Y-92880654D01*
X128849983Y-92855017D01*
X128824346Y-92823777D01*
X128805296Y-92788138D01*
X128793565Y-92749468D01*
X128789000Y-92703112D01*
X128789000Y-92051888D01*
X128793565Y-92005532D01*
X128805296Y-91966862D01*
X128824346Y-91931223D01*
X128849983Y-91899983D01*
X128881223Y-91874346D01*
X128916862Y-91855296D01*
X128955532Y-91843565D01*
X129001888Y-91839000D01*
X130078112Y-91839000D01*
X130124468Y-91843565D01*
G37*
G36*
X125191549Y-90540553D02*
G01*
X125357812Y-90573624D01*
X125521784Y-90641544D01*
X125669354Y-90740147D01*
X125794853Y-90865646D01*
X125893456Y-91013216D01*
X125961376Y-91177188D01*
X125996000Y-91351259D01*
X125996000Y-91528741D01*
X125961376Y-91702812D01*
X125893456Y-91866784D01*
X125794853Y-92014354D01*
X125669354Y-92139853D01*
X125521784Y-92238456D01*
X125357812Y-92306376D01*
X125208512Y-92336073D01*
X125183742Y-92341000D01*
X125006258Y-92341000D01*
X124981488Y-92336073D01*
X124832188Y-92306376D01*
X124668216Y-92238456D01*
X124520646Y-92139853D01*
X124395147Y-92014354D01*
X124296544Y-91866784D01*
X124228624Y-91702812D01*
X124194000Y-91528741D01*
X124194000Y-91351259D01*
X124228624Y-91177188D01*
X124296544Y-91013216D01*
X124395147Y-90865646D01*
X124520646Y-90740147D01*
X124668216Y-90641544D01*
X124832188Y-90573624D01*
X124998451Y-90540553D01*
X125006258Y-90539000D01*
X125183742Y-90539000D01*
X125191549Y-90540553D01*
G37*
G36*
X135486000Y-92211000D02*
G01*
X134484000Y-92211000D01*
X134484000Y-91309000D01*
X135486000Y-91309000D01*
X135486000Y-92211000D01*
G37*
G36*
X137744468Y-89968565D02*
G01*
X137783138Y-89980296D01*
X137818777Y-89999346D01*
X137850017Y-90024983D01*
X137875654Y-90056223D01*
X137894704Y-90091862D01*
X137906435Y-90130532D01*
X137911000Y-90176888D01*
X137911000Y-90828112D01*
X137906435Y-90874468D01*
X137894704Y-90913138D01*
X137875654Y-90948777D01*
X137850017Y-90980017D01*
X137818777Y-91005654D01*
X137783138Y-91024704D01*
X137744468Y-91036435D01*
X137698112Y-91041000D01*
X136621888Y-91041000D01*
X136575532Y-91036435D01*
X136536862Y-91024704D01*
X136501223Y-91005654D01*
X136469983Y-90980017D01*
X136444346Y-90948777D01*
X136425296Y-90913138D01*
X136413565Y-90874468D01*
X136409000Y-90828112D01*
X136409000Y-90176888D01*
X136413565Y-90130532D01*
X136425296Y-90091862D01*
X136444346Y-90056223D01*
X136469983Y-90024983D01*
X136501223Y-89999346D01*
X136536862Y-89980296D01*
X136575532Y-89968565D01*
X136621888Y-89964000D01*
X137698112Y-89964000D01*
X137744468Y-89968565D01*
G37*
G36*
X130124468Y-89968565D02*
G01*
X130163138Y-89980296D01*
X130198777Y-89999346D01*
X130230017Y-90024983D01*
X130255654Y-90056223D01*
X130274704Y-90091862D01*
X130286435Y-90130532D01*
X130291000Y-90176888D01*
X130291000Y-90828112D01*
X130286435Y-90874468D01*
X130274704Y-90913138D01*
X130255654Y-90948777D01*
X130230017Y-90980017D01*
X130198777Y-91005654D01*
X130163138Y-91024704D01*
X130124468Y-91036435D01*
X130078112Y-91041000D01*
X129001888Y-91041000D01*
X128955532Y-91036435D01*
X128916862Y-91024704D01*
X128881223Y-91005654D01*
X128849983Y-90980017D01*
X128824346Y-90948777D01*
X128805296Y-90913138D01*
X128793565Y-90874468D01*
X128789000Y-90828112D01*
X128789000Y-90176888D01*
X128793565Y-90130532D01*
X128805296Y-90091862D01*
X128824346Y-90056223D01*
X128849983Y-90024983D01*
X128881223Y-89999346D01*
X128916862Y-89980296D01*
X128955532Y-89968565D01*
X129001888Y-89964000D01*
X130078112Y-89964000D01*
X130124468Y-89968565D01*
G37*
G36*
X132669487Y-88278996D02*
G01*
X132906253Y-88377068D01*
X132906255Y-88377069D01*
X133119339Y-88519447D01*
X133300553Y-88700661D01*
X133426583Y-88889278D01*
X133442932Y-88913747D01*
X133541004Y-89150513D01*
X133591000Y-89401861D01*
X133591000Y-89658139D01*
X133541004Y-89909487D01*
X133449576Y-90130212D01*
X133442931Y-90146255D01*
X133300553Y-90359339D01*
X133119339Y-90540553D01*
X132906255Y-90682931D01*
X132906254Y-90682932D01*
X132906253Y-90682932D01*
X132669487Y-90781004D01*
X132418139Y-90831000D01*
X132161861Y-90831000D01*
X131910513Y-90781004D01*
X131673747Y-90682932D01*
X131673746Y-90682932D01*
X131673745Y-90682931D01*
X131460661Y-90540553D01*
X131279447Y-90359339D01*
X131137069Y-90146255D01*
X131130424Y-90130212D01*
X131038996Y-89909487D01*
X130989000Y-89658139D01*
X130989000Y-89401861D01*
X131038996Y-89150513D01*
X131137068Y-88913747D01*
X131153418Y-88889278D01*
X131279447Y-88700661D01*
X131460661Y-88519447D01*
X131673745Y-88377069D01*
X131673747Y-88377068D01*
X131910513Y-88278996D01*
X132161861Y-88229000D01*
X132418139Y-88229000D01*
X132669487Y-88278996D01*
G37*
G36*
X127800721Y-89640174D02*
G01*
X127900995Y-89681709D01*
X127929866Y-89701000D01*
X127991242Y-89742010D01*
X128067990Y-89818758D01*
X128067991Y-89818760D01*
X128128291Y-89909005D01*
X128169826Y-90009279D01*
X128191000Y-90115730D01*
X128191000Y-90224270D01*
X128169826Y-90330721D01*
X128128291Y-90430995D01*
X128128290Y-90430996D01*
X128067990Y-90521242D01*
X127991242Y-90597990D01*
X127945812Y-90628345D01*
X127900995Y-90658291D01*
X127800721Y-90699826D01*
X127694270Y-90721000D01*
X127585730Y-90721000D01*
X127479279Y-90699826D01*
X127379005Y-90658291D01*
X127334188Y-90628345D01*
X127288758Y-90597990D01*
X127212010Y-90521242D01*
X127151710Y-90430996D01*
X127151709Y-90430995D01*
X127110174Y-90330721D01*
X127089000Y-90224270D01*
X127089000Y-90115730D01*
X127110174Y-90009279D01*
X127151709Y-89909005D01*
X127212009Y-89818760D01*
X127212010Y-89818758D01*
X127288758Y-89742010D01*
X127350134Y-89701000D01*
X127379005Y-89681709D01*
X127479279Y-89640174D01*
X127585730Y-89619000D01*
X127694270Y-89619000D01*
X127800721Y-89640174D01*
G37*
G36*
X125208512Y-88003927D02*
G01*
X125357812Y-88033624D01*
X125521784Y-88101544D01*
X125669354Y-88200147D01*
X125794853Y-88325646D01*
X125893456Y-88473216D01*
X125961376Y-88637188D01*
X125996000Y-88811259D01*
X125996000Y-88988741D01*
X125961376Y-89162812D01*
X125893456Y-89326784D01*
X125794853Y-89474354D01*
X125669354Y-89599853D01*
X125521784Y-89698456D01*
X125357812Y-89766376D01*
X125208512Y-89796073D01*
X125183742Y-89801000D01*
X125006258Y-89801000D01*
X124981488Y-89796073D01*
X124832188Y-89766376D01*
X124668216Y-89698456D01*
X124520646Y-89599853D01*
X124395147Y-89474354D01*
X124296544Y-89326784D01*
X124228624Y-89162812D01*
X124194000Y-88988741D01*
X124194000Y-88811259D01*
X124228624Y-88637188D01*
X124296544Y-88473216D01*
X124395147Y-88325646D01*
X124520646Y-88200147D01*
X124668216Y-88101544D01*
X124832188Y-88033624D01*
X124981488Y-88003927D01*
X125006258Y-87999000D01*
X125183742Y-87999000D01*
X125208512Y-88003927D01*
G37*
G36*
X135273642Y-88129781D02*
G01*
X135419414Y-88190162D01*
X135419416Y-88190163D01*
X135550608Y-88277822D01*
X135662178Y-88389392D01*
X135718187Y-88473216D01*
X135749838Y-88520586D01*
X135810219Y-88666358D01*
X135841000Y-88821107D01*
X135841000Y-88978893D01*
X135810219Y-89133642D01*
X135798136Y-89162812D01*
X135749837Y-89279416D01*
X135662178Y-89410608D01*
X135550608Y-89522178D01*
X135419416Y-89609837D01*
X135419415Y-89609838D01*
X135419414Y-89609838D01*
X135273642Y-89670219D01*
X135118893Y-89701000D01*
X134961107Y-89701000D01*
X134806358Y-89670219D01*
X134660586Y-89609838D01*
X134660585Y-89609838D01*
X134660584Y-89609837D01*
X134529392Y-89522178D01*
X134417822Y-89410608D01*
X134330163Y-89279416D01*
X134281864Y-89162812D01*
X134269781Y-89133642D01*
X134239000Y-88978893D01*
X134239000Y-88821107D01*
X134269781Y-88666358D01*
X134330162Y-88520586D01*
X134361813Y-88473216D01*
X134417822Y-88389392D01*
X134529392Y-88277822D01*
X134660584Y-88190163D01*
X134660586Y-88190162D01*
X134806358Y-88129781D01*
X134961107Y-88099000D01*
X135118893Y-88099000D01*
X135273642Y-88129781D01*
G37*
G36*
X129773642Y-88129781D02*
G01*
X129919414Y-88190162D01*
X129919416Y-88190163D01*
X130050608Y-88277822D01*
X130162178Y-88389392D01*
X130218187Y-88473216D01*
X130249838Y-88520586D01*
X130310219Y-88666358D01*
X130341000Y-88821107D01*
X130341000Y-88978893D01*
X130310219Y-89133642D01*
X130298136Y-89162812D01*
X130249837Y-89279416D01*
X130162178Y-89410608D01*
X130050608Y-89522178D01*
X129919416Y-89609837D01*
X129919415Y-89609838D01*
X129919414Y-89609838D01*
X129773642Y-89670219D01*
X129618893Y-89701000D01*
X129461107Y-89701000D01*
X129306358Y-89670219D01*
X129160586Y-89609838D01*
X129160585Y-89609838D01*
X129160584Y-89609837D01*
X129029392Y-89522178D01*
X128917822Y-89410608D01*
X128830163Y-89279416D01*
X128781864Y-89162812D01*
X128769781Y-89133642D01*
X128739000Y-88978893D01*
X128739000Y-88821107D01*
X128769781Y-88666358D01*
X128830162Y-88520586D01*
X128861813Y-88473216D01*
X128917822Y-88389392D01*
X129029392Y-88277822D01*
X129160584Y-88190163D01*
X129160586Y-88190162D01*
X129306358Y-88129781D01*
X129461107Y-88099000D01*
X129618893Y-88099000D01*
X129773642Y-88129781D01*
G37*
G36*
X137744468Y-88033565D02*
G01*
X137783138Y-88045296D01*
X137818777Y-88064346D01*
X137850017Y-88089983D01*
X137875654Y-88121223D01*
X137894704Y-88156862D01*
X137906435Y-88195532D01*
X137911000Y-88241888D01*
X137911000Y-88893112D01*
X137906435Y-88939468D01*
X137894704Y-88978138D01*
X137875654Y-89013777D01*
X137850017Y-89045017D01*
X137818777Y-89070654D01*
X137783138Y-89089704D01*
X137744468Y-89101435D01*
X137698112Y-89106000D01*
X136621888Y-89106000D01*
X136575532Y-89101435D01*
X136536862Y-89089704D01*
X136501223Y-89070654D01*
X136469983Y-89045017D01*
X136444346Y-89013777D01*
X136425296Y-88978138D01*
X136413565Y-88939468D01*
X136409000Y-88893112D01*
X136409000Y-88241888D01*
X136413565Y-88195532D01*
X136425296Y-88156862D01*
X136444346Y-88121223D01*
X136469983Y-88089983D01*
X136501223Y-88064346D01*
X136536862Y-88045296D01*
X136575532Y-88033565D01*
X136621888Y-88029000D01*
X137698112Y-88029000D01*
X137744468Y-88033565D01*
G37*
G36*
X128219468Y-88033565D02*
G01*
X128258138Y-88045296D01*
X128293777Y-88064346D01*
X128325017Y-88089983D01*
X128350654Y-88121223D01*
X128369704Y-88156862D01*
X128381435Y-88195532D01*
X128386000Y-88241888D01*
X128386000Y-88893112D01*
X128381435Y-88939468D01*
X128369704Y-88978138D01*
X128350654Y-89013777D01*
X128325017Y-89045017D01*
X128293777Y-89070654D01*
X128258138Y-89089704D01*
X128219468Y-89101435D01*
X128173112Y-89106000D01*
X127096888Y-89106000D01*
X127050532Y-89101435D01*
X127011862Y-89089704D01*
X126976223Y-89070654D01*
X126944983Y-89045017D01*
X126919346Y-89013777D01*
X126900296Y-88978138D01*
X126888565Y-88939468D01*
X126884000Y-88893112D01*
X126884000Y-88241888D01*
X126888565Y-88195532D01*
X126900296Y-88156862D01*
X126919346Y-88121223D01*
X126944983Y-88089983D01*
X126976223Y-88064346D01*
X127011862Y-88045296D01*
X127050532Y-88033565D01*
X127096888Y-88029000D01*
X128173112Y-88029000D01*
X128219468Y-88033565D01*
G37*
G36*
X125996000Y-87261000D02*
G01*
X124194000Y-87261000D01*
X124194000Y-85459000D01*
X125996000Y-85459000D01*
X125996000Y-87261000D01*
G37*
G36*
X137744468Y-86158565D02*
G01*
X137783138Y-86170296D01*
X137818777Y-86189346D01*
X137850017Y-86214983D01*
X137875654Y-86246223D01*
X137894704Y-86281862D01*
X137906435Y-86320532D01*
X137911000Y-86366888D01*
X137911000Y-87018112D01*
X137906435Y-87064468D01*
X137894704Y-87103138D01*
X137875654Y-87138777D01*
X137850017Y-87170017D01*
X137818777Y-87195654D01*
X137783138Y-87214704D01*
X137744468Y-87226435D01*
X137698112Y-87231000D01*
X136621888Y-87231000D01*
X136575532Y-87226435D01*
X136536862Y-87214704D01*
X136501223Y-87195654D01*
X136469983Y-87170017D01*
X136444346Y-87138777D01*
X136425296Y-87103138D01*
X136413565Y-87064468D01*
X136409000Y-87018112D01*
X136409000Y-86366888D01*
X136413565Y-86320532D01*
X136425296Y-86281862D01*
X136444346Y-86246223D01*
X136469983Y-86214983D01*
X136501223Y-86189346D01*
X136536862Y-86170296D01*
X136575532Y-86158565D01*
X136621888Y-86154000D01*
X137698112Y-86154000D01*
X137744468Y-86158565D01*
G37*
G36*
X128219468Y-86158565D02*
G01*
X128258138Y-86170296D01*
X128293777Y-86189346D01*
X128325017Y-86214983D01*
X128350654Y-86246223D01*
X128369704Y-86281862D01*
X128381435Y-86320532D01*
X128386000Y-86366888D01*
X128386000Y-87018112D01*
X128381435Y-87064468D01*
X128369704Y-87103138D01*
X128350654Y-87138777D01*
X128325017Y-87170017D01*
X128293777Y-87195654D01*
X128258138Y-87214704D01*
X128219468Y-87226435D01*
X128173112Y-87231000D01*
X127096888Y-87231000D01*
X127050532Y-87226435D01*
X127011862Y-87214704D01*
X126976223Y-87195654D01*
X126944983Y-87170017D01*
X126919346Y-87138777D01*
X126900296Y-87103138D01*
X126888565Y-87064468D01*
X126884000Y-87018112D01*
X126884000Y-86366888D01*
X126888565Y-86320532D01*
X126900296Y-86281862D01*
X126919346Y-86246223D01*
X126944983Y-86214983D01*
X126976223Y-86189346D01*
X127011862Y-86170296D01*
X127050532Y-86158565D01*
X127096888Y-86154000D01*
X128173112Y-86154000D01*
X128219468Y-86158565D01*
G37*
G36*
X135273642Y-85589781D02*
G01*
X135419414Y-85650162D01*
X135419416Y-85650163D01*
X135550608Y-85737822D01*
X135662178Y-85849392D01*
X135749837Y-85980584D01*
X135749838Y-85980586D01*
X135810219Y-86126358D01*
X135841000Y-86281107D01*
X135841000Y-86438893D01*
X135810219Y-86593642D01*
X135749838Y-86739414D01*
X135749837Y-86739416D01*
X135662178Y-86870608D01*
X135550608Y-86982178D01*
X135419416Y-87069837D01*
X135419415Y-87069838D01*
X135419414Y-87069838D01*
X135273642Y-87130219D01*
X135118893Y-87161000D01*
X134961107Y-87161000D01*
X134806358Y-87130219D01*
X134660586Y-87069838D01*
X134660585Y-87069838D01*
X134660584Y-87069837D01*
X134529392Y-86982178D01*
X134417822Y-86870608D01*
X134330163Y-86739416D01*
X134330162Y-86739414D01*
X134269781Y-86593642D01*
X134239000Y-86438893D01*
X134239000Y-86281107D01*
X134269781Y-86126358D01*
X134330162Y-85980586D01*
X134330163Y-85980584D01*
X134417822Y-85849392D01*
X134529392Y-85737822D01*
X134660584Y-85650163D01*
X134660586Y-85650162D01*
X134806358Y-85589781D01*
X134961107Y-85559000D01*
X135118893Y-85559000D01*
X135273642Y-85589781D01*
G37*
G36*
X129773642Y-85589781D02*
G01*
X129919414Y-85650162D01*
X129919416Y-85650163D01*
X130050608Y-85737822D01*
X130162178Y-85849392D01*
X130249837Y-85980584D01*
X130249838Y-85980586D01*
X130310219Y-86126358D01*
X130341000Y-86281107D01*
X130341000Y-86438893D01*
X130310219Y-86593642D01*
X130249838Y-86739414D01*
X130249837Y-86739416D01*
X130162178Y-86870608D01*
X130050608Y-86982178D01*
X129919416Y-87069837D01*
X129919415Y-87069838D01*
X129919414Y-87069838D01*
X129773642Y-87130219D01*
X129618893Y-87161000D01*
X129461107Y-87161000D01*
X129306358Y-87130219D01*
X129160586Y-87069838D01*
X129160585Y-87069838D01*
X129160584Y-87069837D01*
X129029392Y-86982178D01*
X128917822Y-86870608D01*
X128830163Y-86739416D01*
X128830162Y-86739414D01*
X128769781Y-86593642D01*
X128739000Y-86438893D01*
X128739000Y-86281107D01*
X128769781Y-86126358D01*
X128830162Y-85980586D01*
X128830163Y-85980584D01*
X128917822Y-85849392D01*
X129029392Y-85737822D01*
X129160584Y-85650163D01*
X129160586Y-85650162D01*
X129306358Y-85589781D01*
X129461107Y-85559000D01*
X129618893Y-85559000D01*
X129773642Y-85589781D01*
G37*
G36*
X132669487Y-84478996D02*
G01*
X132906253Y-84577068D01*
X132906255Y-84577069D01*
X133119339Y-84719447D01*
X133300553Y-84900661D01*
X133442932Y-85113747D01*
X133541004Y-85350513D01*
X133591000Y-85601861D01*
X133591000Y-85858139D01*
X133541004Y-86109487D01*
X133453586Y-86320532D01*
X133442931Y-86346255D01*
X133300553Y-86559339D01*
X133119339Y-86740553D01*
X132906255Y-86882931D01*
X132906254Y-86882932D01*
X132906253Y-86882932D01*
X132669487Y-86981004D01*
X132418139Y-87031000D01*
X132161861Y-87031000D01*
X131910513Y-86981004D01*
X131673747Y-86882932D01*
X131673746Y-86882932D01*
X131673745Y-86882931D01*
X131460661Y-86740553D01*
X131279447Y-86559339D01*
X131137069Y-86346255D01*
X131126414Y-86320532D01*
X131038996Y-86109487D01*
X130989000Y-85858139D01*
X130989000Y-85601861D01*
X131038996Y-85350513D01*
X131137068Y-85113747D01*
X131279447Y-84900661D01*
X131460661Y-84719447D01*
X131673745Y-84577069D01*
X131673747Y-84577068D01*
X131910513Y-84478996D01*
X132161861Y-84429000D01*
X132418139Y-84429000D01*
X132669487Y-84478996D01*
G37*
M02*
