G04 #@! TF.GenerationSoftware,KiCad,Pcbnew,(5.1.5)-2*
G04 #@! TF.CreationDate,2020-01-24T09:59:23+03:00*
G04 #@! TF.ProjectId,tcrt5000,74637274-3530-4303-902e-6b696361645f,rev?*
G04 #@! TF.SameCoordinates,Original*
G04 #@! TF.FileFunction,Legend,Top*
G04 #@! TF.FilePolarity,Positive*
%FSLAX46Y46*%
G04 Gerber Fmt 4.6, Leading zero omitted, Abs format (unit mm)*
G04 Created by KiCad (PCBNEW (5.1.5)-2) date 2020-01-24 09:59:23*
%MOMM*%
%LPD*%
G04 APERTURE LIST*
%ADD10C,0.150000*%
%ADD11C,0.120000*%
G04 APERTURE END LIST*
D10*
X127913333Y-92495714D02*
X128294285Y-92495714D01*
X128056190Y-92162380D02*
X128056190Y-93019523D01*
X128103809Y-93114761D01*
X128199047Y-93162380D01*
X128294285Y-93162380D01*
X128627619Y-92495714D02*
X128627619Y-93162380D01*
X128627619Y-92590952D02*
X128675238Y-92543333D01*
X128770476Y-92495714D01*
X128913333Y-92495714D01*
X129008571Y-92543333D01*
X129056190Y-92638571D01*
X129056190Y-93162380D01*
X129389523Y-92495714D02*
X129770476Y-92495714D01*
X129532380Y-92162380D02*
X129532380Y-93019523D01*
X129580000Y-93114761D01*
X129675238Y-93162380D01*
X129770476Y-93162380D01*
X130056190Y-92257619D02*
X130103809Y-92210000D01*
X130199047Y-92162380D01*
X130437142Y-92162380D01*
X130532380Y-92210000D01*
X130580000Y-92257619D01*
X130627619Y-92352857D01*
X130627619Y-92448095D01*
X130580000Y-92590952D01*
X130008571Y-93162380D01*
X130627619Y-93162380D01*
X130960952Y-92162380D02*
X131580000Y-92162380D01*
X131246666Y-92543333D01*
X131389523Y-92543333D01*
X131484761Y-92590952D01*
X131532380Y-92638571D01*
X131580000Y-92733809D01*
X131580000Y-92971904D01*
X131532380Y-93067142D01*
X131484761Y-93114761D01*
X131389523Y-93162380D01*
X131103809Y-93162380D01*
X131008571Y-93114761D01*
X130960952Y-93067142D01*
X132722857Y-92257619D02*
X132770476Y-92210000D01*
X132865714Y-92162380D01*
X133103809Y-92162380D01*
X133199047Y-92210000D01*
X133246666Y-92257619D01*
X133294285Y-92352857D01*
X133294285Y-92448095D01*
X133246666Y-92590952D01*
X132675238Y-93162380D01*
X133294285Y-93162380D01*
X133913333Y-92162380D02*
X134008571Y-92162380D01*
X134103809Y-92210000D01*
X134151428Y-92257619D01*
X134199047Y-92352857D01*
X134246666Y-92543333D01*
X134246666Y-92781428D01*
X134199047Y-92971904D01*
X134151428Y-93067142D01*
X134103809Y-93114761D01*
X134008571Y-93162380D01*
X133913333Y-93162380D01*
X133818095Y-93114761D01*
X133770476Y-93067142D01*
X133722857Y-92971904D01*
X133675238Y-92781428D01*
X133675238Y-92543333D01*
X133722857Y-92352857D01*
X133770476Y-92257619D01*
X133818095Y-92210000D01*
X133913333Y-92162380D01*
X134627619Y-92257619D02*
X134675238Y-92210000D01*
X134770476Y-92162380D01*
X135008571Y-92162380D01*
X135103809Y-92210000D01*
X135151428Y-92257619D01*
X135199047Y-92352857D01*
X135199047Y-92448095D01*
X135151428Y-92590952D01*
X134580000Y-93162380D01*
X135199047Y-93162380D01*
X135818095Y-92162380D02*
X135913333Y-92162380D01*
X136008571Y-92210000D01*
X136056190Y-92257619D01*
X136103809Y-92352857D01*
X136151428Y-92543333D01*
X136151428Y-92781428D01*
X136103809Y-92971904D01*
X136056190Y-93067142D01*
X136008571Y-93114761D01*
X135913333Y-93162380D01*
X135818095Y-93162380D01*
X135722857Y-93114761D01*
X135675238Y-93067142D01*
X135627619Y-92971904D01*
X135580000Y-92781428D01*
X135580000Y-92543333D01*
X135627619Y-92352857D01*
X135675238Y-92257619D01*
X135722857Y-92210000D01*
X135818095Y-92162380D01*
D11*
X123130000Y-85030000D02*
X124460000Y-85030000D01*
X123130000Y-86360000D02*
X123130000Y-85030000D01*
X123130000Y-87630000D02*
X125790000Y-87630000D01*
X125790000Y-87630000D02*
X125790000Y-92770000D01*
X123130000Y-87630000D02*
X123130000Y-92770000D01*
X123130000Y-92770000D02*
X125790000Y-92770000D01*
X127210000Y-84455000D02*
X135465000Y-84455000D01*
X127210000Y-84455000D02*
X127210000Y-90805000D01*
X127210000Y-90805000D02*
X135465000Y-90805000D01*
X137370000Y-88900000D02*
X137370000Y-86360000D01*
X135465000Y-84455000D02*
X137370000Y-86360000D01*
X137370000Y-88900000D02*
X135465000Y-90805000D01*
M02*
