G04 #@! TF.GenerationSoftware,KiCad,Pcbnew,(5.1.5)-2*
G04 #@! TF.CreationDate,2020-01-30T15:58:27+03:00*
G04 #@! TF.ProjectId,dccshield,64636373-6869-4656-9c64-2e6b69636164,rev?*
G04 #@! TF.SameCoordinates,Original*
G04 #@! TF.FileFunction,Copper,L2,Bot*
G04 #@! TF.FilePolarity,Positive*
%FSLAX46Y46*%
G04 Gerber Fmt 4.6, Leading zero omitted, Abs format (unit mm)*
G04 Created by KiCad (PCBNEW (5.1.5)-2) date 2020-01-30 15:58:27*
%MOMM*%
%LPD*%
G04 APERTURE LIST*
%ADD10O,1.600000X1.600000*%
%ADD11R,1.600000X1.600000*%
%ADD12C,3.000000*%
%ADD13R,3.000000X3.000000*%
%ADD14C,0.800000*%
%ADD15C,0.300000*%
%ADD16C,1.500000*%
%ADD17C,0.500000*%
%ADD18C,0.254000*%
G04 APERTURE END LIST*
D10*
X185420000Y-127000000D03*
X187960000Y-127000000D03*
X148340000Y-127000000D03*
X187960000Y-78740000D03*
X150880000Y-127000000D03*
X185420000Y-78740000D03*
X153420000Y-127000000D03*
X182880000Y-78740000D03*
X155960000Y-127000000D03*
X180340000Y-78740000D03*
X158500000Y-127000000D03*
X177800000Y-78740000D03*
X161040000Y-127000000D03*
X175260000Y-78740000D03*
X163580000Y-127000000D03*
X170180000Y-78740000D03*
X166120000Y-127000000D03*
X167640000Y-78740000D03*
X170180000Y-127000000D03*
X165100000Y-78740000D03*
X172720000Y-127000000D03*
X162560000Y-78740000D03*
X175260000Y-127000000D03*
X160020000Y-78740000D03*
X177800000Y-127000000D03*
X157480000Y-78740000D03*
X180340000Y-127000000D03*
X154940000Y-78740000D03*
X182880000Y-127000000D03*
D11*
X152400000Y-78740000D03*
D10*
X145800000Y-127000000D03*
X143260000Y-127000000D03*
D12*
X185420000Y-96520000D03*
X185420000Y-101600000D03*
D13*
X185420000Y-91440000D03*
D12*
X185420000Y-106680000D03*
X185420000Y-111760000D03*
X185420000Y-116840000D03*
D14*
X168910000Y-124460000D03*
X153670000Y-109855000D03*
X153670000Y-95250000D03*
X154305000Y-114935000D03*
X153035000Y-100965000D03*
X169545000Y-116205000D03*
X170815000Y-116205000D03*
X170815000Y-120015000D03*
X169545000Y-120015000D03*
X176530000Y-122555000D03*
X177800000Y-122555000D03*
X162560000Y-102870000D03*
X163830000Y-102870000D03*
X165100000Y-102870000D03*
X166370000Y-102870000D03*
X166370000Y-90170000D03*
X162560000Y-90170000D03*
X163830000Y-90170000D03*
X165100000Y-90170000D03*
X169545000Y-114935000D03*
X170815000Y-114935000D03*
X176530000Y-83820000D03*
X148336000Y-118364000D03*
X149860000Y-116332000D03*
X148590000Y-83820000D03*
X148590000Y-101600000D03*
X140970000Y-77470000D03*
X138430000Y-81280000D03*
X138430000Y-88900000D03*
X138430000Y-101600000D03*
X138430000Y-114300000D03*
X138430000Y-124460000D03*
X146050000Y-124460000D03*
X153150010Y-104435162D03*
X179070000Y-122555000D03*
X185420000Y-122555000D03*
X156845000Y-111125000D03*
X162560000Y-100330000D03*
X163830000Y-100330000D03*
X165100000Y-100330000D03*
X166370000Y-100330000D03*
X166370000Y-113030000D03*
X162560000Y-113030000D03*
X163830000Y-113030000D03*
X165100000Y-113030000D03*
X172085000Y-121285000D03*
X173355000Y-121285000D03*
X174625000Y-121285000D03*
X172085000Y-122555000D03*
X163195000Y-85725000D03*
X164465000Y-85725000D03*
X165735000Y-85725000D03*
X167005000Y-85725000D03*
X167005000Y-86995000D03*
X167005000Y-88265000D03*
X165735000Y-88265000D03*
X164465000Y-88265000D03*
X163195000Y-88265000D03*
X179070000Y-81280000D03*
X155956000Y-114300000D03*
X154432000Y-122428000D03*
X151130000Y-107950000D03*
X153670000Y-93980000D03*
X158750000Y-121285000D03*
X157480000Y-118745000D03*
X188595000Y-86360000D03*
X180340000Y-117475000D03*
X152400000Y-108585000D03*
X154305000Y-116840000D03*
D15*
X180340000Y-124460000D02*
X168656000Y-124460000D01*
X182880000Y-127000000D02*
X180340000Y-124460000D01*
X153670000Y-108621061D02*
X151130000Y-106081061D01*
X151130000Y-97790000D02*
X153270001Y-95649999D01*
X153270001Y-95649999D02*
X153670000Y-95250000D01*
X153670000Y-109855000D02*
X153670000Y-108621061D01*
X151130000Y-106081061D02*
X151130000Y-97790000D01*
X152400000Y-101600000D02*
X153035000Y-100965000D01*
X151765000Y-102235000D02*
X152400000Y-101600000D01*
X154305000Y-114935000D02*
X154305000Y-110490000D01*
X154704999Y-108349999D02*
X151765000Y-105410000D01*
X154704999Y-110090001D02*
X154704999Y-108349999D01*
X154305000Y-110490000D02*
X154704999Y-110090001D01*
X151765000Y-105410000D02*
X151765000Y-102235000D01*
D16*
X163830000Y-81280000D02*
X179070000Y-81280000D01*
X162560000Y-78740000D02*
X162560000Y-80010000D01*
X162560000Y-80010000D02*
X163830000Y-81280000D01*
D15*
X155956000Y-120396000D02*
X155956000Y-114300000D01*
X180340000Y-127000000D02*
X178816000Y-125476000D01*
X168021000Y-125476000D02*
X167005000Y-124460000D01*
X178816000Y-125476000D02*
X168021000Y-125476000D01*
X167005000Y-124460000D02*
X163830000Y-124460000D01*
X163830000Y-124460000D02*
X161925000Y-122555000D01*
X161925000Y-122555000D02*
X158115000Y-122555000D01*
X158115000Y-122555000D02*
X155956000Y-120396000D01*
X151130000Y-119126000D02*
X151130000Y-107950000D01*
X154432000Y-122428000D02*
X151130000Y-119126000D01*
X153270001Y-94379999D02*
X153670000Y-93980000D01*
X149860000Y-106680000D02*
X149860000Y-97790000D01*
X149860000Y-97790000D02*
X153270001Y-94379999D01*
X151130000Y-107950000D02*
X149860000Y-106680000D01*
X158750000Y-121285000D02*
X157480000Y-120015000D01*
X157480000Y-120015000D02*
X157480000Y-118745000D01*
D17*
X180739999Y-117075001D02*
X180340000Y-117475000D01*
X186729101Y-114300000D02*
X183515000Y-114300000D01*
X190500000Y-88265000D02*
X190500000Y-107950000D01*
X183515000Y-114300000D02*
X180739999Y-117075001D01*
X188595000Y-86360000D02*
X190500000Y-88265000D01*
X187960000Y-110490000D02*
X187960000Y-113069101D01*
X190500000Y-107950000D02*
X187960000Y-110490000D01*
X187960000Y-113069101D02*
X186729101Y-114300000D01*
D15*
X152400000Y-114935000D02*
X154305000Y-116840000D01*
X152400000Y-108585000D02*
X152400000Y-114935000D01*
D18*
G36*
X176440197Y-85814803D02*
G01*
X176459443Y-85830597D01*
X176481399Y-85842333D01*
X176505224Y-85849560D01*
X176530000Y-85852000D01*
X186002394Y-85852000D01*
X188468000Y-88317606D01*
X188468000Y-93218000D01*
X175312606Y-93218000D01*
X170904803Y-88810197D01*
X170885557Y-88794403D01*
X170863601Y-88782667D01*
X170839776Y-88775440D01*
X170815000Y-88773000D01*
X161290000Y-88773000D01*
X161265224Y-88775440D01*
X161241399Y-88782667D01*
X161219443Y-88794403D01*
X161200197Y-88810197D01*
X161184403Y-88829443D01*
X161172667Y-88851399D01*
X161165440Y-88875224D01*
X161163000Y-88900000D01*
X161163000Y-95250000D01*
X161165440Y-95274776D01*
X161172667Y-95298601D01*
X161184403Y-95320557D01*
X161200197Y-95339803D01*
X161219443Y-95355597D01*
X161241399Y-95367333D01*
X161265224Y-95374560D01*
X161290000Y-95377000D01*
X166878000Y-95377000D01*
X166878000Y-100838000D01*
X161290000Y-100838000D01*
X161265224Y-100840440D01*
X161241399Y-100847667D01*
X161219443Y-100859403D01*
X161200197Y-100875197D01*
X161184403Y-100894443D01*
X161172667Y-100916399D01*
X161165440Y-100940224D01*
X161163000Y-100965000D01*
X161163000Y-107950000D01*
X161165440Y-107974776D01*
X161172667Y-107998601D01*
X161184403Y-108020557D01*
X161200197Y-108039803D01*
X161219443Y-108055597D01*
X161241399Y-108067333D01*
X161265224Y-108074560D01*
X161290000Y-108077000D01*
X168148000Y-108077000D01*
X168148000Y-120650000D01*
X168150440Y-120674776D01*
X168157667Y-120698601D01*
X168169403Y-120720557D01*
X168185197Y-120739803D01*
X168204443Y-120755597D01*
X168226399Y-120767333D01*
X168250224Y-120774560D01*
X168275000Y-120777000D01*
X168843289Y-120777000D01*
X168885226Y-120818937D01*
X169054744Y-120932205D01*
X169243102Y-121010226D01*
X169443061Y-121050000D01*
X169646939Y-121050000D01*
X169846898Y-121010226D01*
X170035256Y-120932205D01*
X170180000Y-120835490D01*
X170324744Y-120932205D01*
X170513102Y-121010226D01*
X170713061Y-121050000D01*
X170916939Y-121050000D01*
X171116898Y-121010226D01*
X171305256Y-120932205D01*
X171474774Y-120818937D01*
X171516711Y-120777000D01*
X175133000Y-120777000D01*
X175133000Y-123063000D01*
X164517606Y-123063000D01*
X158242000Y-116787394D01*
X158242000Y-108267500D01*
X158239560Y-108242724D01*
X158232333Y-108218899D01*
X158220597Y-108196943D01*
X158204803Y-108177697D01*
X155067000Y-105039894D01*
X155067000Y-83312000D01*
X173937394Y-83312000D01*
X176440197Y-85814803D01*
G37*
X176440197Y-85814803D02*
X176459443Y-85830597D01*
X176481399Y-85842333D01*
X176505224Y-85849560D01*
X176530000Y-85852000D01*
X186002394Y-85852000D01*
X188468000Y-88317606D01*
X188468000Y-93218000D01*
X175312606Y-93218000D01*
X170904803Y-88810197D01*
X170885557Y-88794403D01*
X170863601Y-88782667D01*
X170839776Y-88775440D01*
X170815000Y-88773000D01*
X161290000Y-88773000D01*
X161265224Y-88775440D01*
X161241399Y-88782667D01*
X161219443Y-88794403D01*
X161200197Y-88810197D01*
X161184403Y-88829443D01*
X161172667Y-88851399D01*
X161165440Y-88875224D01*
X161163000Y-88900000D01*
X161163000Y-95250000D01*
X161165440Y-95274776D01*
X161172667Y-95298601D01*
X161184403Y-95320557D01*
X161200197Y-95339803D01*
X161219443Y-95355597D01*
X161241399Y-95367333D01*
X161265224Y-95374560D01*
X161290000Y-95377000D01*
X166878000Y-95377000D01*
X166878000Y-100838000D01*
X161290000Y-100838000D01*
X161265224Y-100840440D01*
X161241399Y-100847667D01*
X161219443Y-100859403D01*
X161200197Y-100875197D01*
X161184403Y-100894443D01*
X161172667Y-100916399D01*
X161165440Y-100940224D01*
X161163000Y-100965000D01*
X161163000Y-107950000D01*
X161165440Y-107974776D01*
X161172667Y-107998601D01*
X161184403Y-108020557D01*
X161200197Y-108039803D01*
X161219443Y-108055597D01*
X161241399Y-108067333D01*
X161265224Y-108074560D01*
X161290000Y-108077000D01*
X168148000Y-108077000D01*
X168148000Y-120650000D01*
X168150440Y-120674776D01*
X168157667Y-120698601D01*
X168169403Y-120720557D01*
X168185197Y-120739803D01*
X168204443Y-120755597D01*
X168226399Y-120767333D01*
X168250224Y-120774560D01*
X168275000Y-120777000D01*
X168843289Y-120777000D01*
X168885226Y-120818937D01*
X169054744Y-120932205D01*
X169243102Y-121010226D01*
X169443061Y-121050000D01*
X169646939Y-121050000D01*
X169846898Y-121010226D01*
X170035256Y-120932205D01*
X170180000Y-120835490D01*
X170324744Y-120932205D01*
X170513102Y-121010226D01*
X170713061Y-121050000D01*
X170916939Y-121050000D01*
X171116898Y-121010226D01*
X171305256Y-120932205D01*
X171474774Y-120818937D01*
X171516711Y-120777000D01*
X175133000Y-120777000D01*
X175133000Y-123063000D01*
X164517606Y-123063000D01*
X158242000Y-116787394D01*
X158242000Y-108267500D01*
X158239560Y-108242724D01*
X158232333Y-108218899D01*
X158220597Y-108196943D01*
X158204803Y-108177697D01*
X155067000Y-105039894D01*
X155067000Y-83312000D01*
X173937394Y-83312000D01*
X176440197Y-85814803D01*
G36*
X174535197Y-94069803D02*
G01*
X174554443Y-94085597D01*
X174576399Y-94097333D01*
X174600224Y-94104560D01*
X174625000Y-94107000D01*
X188468000Y-94107000D01*
X188468000Y-98933000D01*
X178435000Y-98933000D01*
X178410224Y-98935440D01*
X178386399Y-98942667D01*
X178364443Y-98954403D01*
X178345197Y-98970197D01*
X178329403Y-98989443D01*
X178317667Y-99011399D01*
X178310440Y-99035224D01*
X178308000Y-99060000D01*
X178308000Y-120650000D01*
X178310440Y-120674776D01*
X178317667Y-120698601D01*
X178329403Y-120720557D01*
X178345197Y-120739803D01*
X178364443Y-120755597D01*
X178386399Y-120767333D01*
X178410224Y-120774560D01*
X178435000Y-120777000D01*
X179578000Y-120777000D01*
X179578000Y-123063000D01*
X175895000Y-123063000D01*
X175895000Y-120650000D01*
X175882799Y-120526118D01*
X175846664Y-120406996D01*
X175787983Y-120297213D01*
X175709013Y-120200987D01*
X175612787Y-120122017D01*
X175503004Y-120063336D01*
X175383882Y-120027201D01*
X175260000Y-120015000D01*
X169037000Y-120015000D01*
X169037000Y-107315000D01*
X169034560Y-107290224D01*
X169027333Y-107266399D01*
X169015597Y-107244443D01*
X168999803Y-107225197D01*
X168980557Y-107209403D01*
X168958601Y-107197667D01*
X168934776Y-107190440D01*
X168910000Y-107188000D01*
X162052000Y-107188000D01*
X162052000Y-101727000D01*
X167640000Y-101727000D01*
X167664776Y-101724560D01*
X167688601Y-101717333D01*
X167710557Y-101705597D01*
X167729803Y-101689803D01*
X167745597Y-101670557D01*
X167757333Y-101648601D01*
X167764560Y-101624776D01*
X167767000Y-101600000D01*
X167767000Y-94615000D01*
X167764560Y-94590224D01*
X167757333Y-94566399D01*
X167745597Y-94544443D01*
X167729803Y-94525197D01*
X167710557Y-94509403D01*
X167688601Y-94497667D01*
X167664776Y-94490440D01*
X167640000Y-94488000D01*
X162052000Y-94488000D01*
X162052000Y-89662000D01*
X170127394Y-89662000D01*
X174535197Y-94069803D01*
G37*
X174535197Y-94069803D02*
X174554443Y-94085597D01*
X174576399Y-94097333D01*
X174600224Y-94104560D01*
X174625000Y-94107000D01*
X188468000Y-94107000D01*
X188468000Y-98933000D01*
X178435000Y-98933000D01*
X178410224Y-98935440D01*
X178386399Y-98942667D01*
X178364443Y-98954403D01*
X178345197Y-98970197D01*
X178329403Y-98989443D01*
X178317667Y-99011399D01*
X178310440Y-99035224D01*
X178308000Y-99060000D01*
X178308000Y-120650000D01*
X178310440Y-120674776D01*
X178317667Y-120698601D01*
X178329403Y-120720557D01*
X178345197Y-120739803D01*
X178364443Y-120755597D01*
X178386399Y-120767333D01*
X178410224Y-120774560D01*
X178435000Y-120777000D01*
X179578000Y-120777000D01*
X179578000Y-123063000D01*
X175895000Y-123063000D01*
X175895000Y-120650000D01*
X175882799Y-120526118D01*
X175846664Y-120406996D01*
X175787983Y-120297213D01*
X175709013Y-120200987D01*
X175612787Y-120122017D01*
X175503004Y-120063336D01*
X175383882Y-120027201D01*
X175260000Y-120015000D01*
X169037000Y-120015000D01*
X169037000Y-107315000D01*
X169034560Y-107290224D01*
X169027333Y-107266399D01*
X169015597Y-107244443D01*
X168999803Y-107225197D01*
X168980557Y-107209403D01*
X168958601Y-107197667D01*
X168934776Y-107190440D01*
X168910000Y-107188000D01*
X162052000Y-107188000D01*
X162052000Y-101727000D01*
X167640000Y-101727000D01*
X167664776Y-101724560D01*
X167688601Y-101717333D01*
X167710557Y-101705597D01*
X167729803Y-101689803D01*
X167745597Y-101670557D01*
X167757333Y-101648601D01*
X167764560Y-101624776D01*
X167767000Y-101600000D01*
X167767000Y-94615000D01*
X167764560Y-94590224D01*
X167757333Y-94566399D01*
X167745597Y-94544443D01*
X167729803Y-94525197D01*
X167710557Y-94509403D01*
X167688601Y-94497667D01*
X167664776Y-94490440D01*
X167640000Y-94488000D01*
X162052000Y-94488000D01*
X162052000Y-89662000D01*
X170127394Y-89662000D01*
X174535197Y-94069803D01*
G36*
X190094000Y-78720067D02*
G01*
X190092037Y-78740000D01*
X190094000Y-78759933D01*
X190094000Y-78759940D01*
X190099875Y-78819589D01*
X190123090Y-78896120D01*
X190160790Y-78966652D01*
X190211526Y-79028474D01*
X190227024Y-79041193D01*
X192634001Y-81448172D01*
X192634001Y-84963000D01*
X191061837Y-84963000D01*
X191102044Y-84946346D01*
X191310215Y-84807250D01*
X191487250Y-84630215D01*
X191626346Y-84422044D01*
X191722156Y-84190737D01*
X191771000Y-83945183D01*
X191771000Y-83694817D01*
X191722156Y-83449263D01*
X191626346Y-83217956D01*
X191487250Y-83009785D01*
X191310215Y-82832750D01*
X191102044Y-82693654D01*
X190870737Y-82597844D01*
X190625183Y-82549000D01*
X190374817Y-82549000D01*
X190129263Y-82597844D01*
X189897956Y-82693654D01*
X189689785Y-82832750D01*
X189512750Y-83009785D01*
X189373654Y-83217956D01*
X189277844Y-83449263D01*
X189229000Y-83694817D01*
X189229000Y-83945183D01*
X189277844Y-84190737D01*
X189373654Y-84422044D01*
X189512750Y-84630215D01*
X189689785Y-84807250D01*
X189897956Y-84946346D01*
X189938163Y-84963000D01*
X176666026Y-84963000D01*
X174439013Y-82735987D01*
X174342787Y-82657017D01*
X174233004Y-82598336D01*
X174113882Y-82562201D01*
X173990000Y-82550000D01*
X154940000Y-82550000D01*
X154816118Y-82562201D01*
X154696996Y-82598336D01*
X154587213Y-82657017D01*
X154490987Y-82735987D01*
X154412017Y-82832213D01*
X154353336Y-82941996D01*
X154317201Y-83061118D01*
X154305000Y-83185000D01*
X154305000Y-93524582D01*
X154276642Y-93482141D01*
X154167859Y-93373358D01*
X154039942Y-93287887D01*
X153897809Y-93229013D01*
X153746922Y-93199000D01*
X153593078Y-93199000D01*
X153442191Y-93229013D01*
X153300058Y-93287887D01*
X153172141Y-93373358D01*
X153063358Y-93482141D01*
X152977887Y-93610058D01*
X152919013Y-93752191D01*
X152889000Y-93903078D01*
X152889000Y-94010052D01*
X149502971Y-97396083D01*
X149482711Y-97412710D01*
X149466084Y-97432970D01*
X149466083Y-97432971D01*
X149416354Y-97493565D01*
X149367047Y-97585813D01*
X149336684Y-97685907D01*
X149326432Y-97790000D01*
X149329001Y-97816084D01*
X149329000Y-106653926D01*
X149326432Y-106680000D01*
X149329000Y-106706074D01*
X149329000Y-106706083D01*
X149336683Y-106784093D01*
X149367047Y-106884187D01*
X149416354Y-106976435D01*
X149482710Y-107057290D01*
X149502975Y-107073921D01*
X150349000Y-107919947D01*
X150349000Y-108026922D01*
X150379013Y-108177809D01*
X150437887Y-108319942D01*
X150523358Y-108447859D01*
X150599001Y-108523502D01*
X150599000Y-119099926D01*
X150596432Y-119126000D01*
X150599000Y-119152074D01*
X150599000Y-119152083D01*
X150606683Y-119230093D01*
X150637047Y-119330187D01*
X150686354Y-119422435D01*
X150752710Y-119503290D01*
X150772975Y-119519921D01*
X153651000Y-122397947D01*
X153651000Y-122504922D01*
X153681013Y-122655809D01*
X153739887Y-122797942D01*
X153825358Y-122925859D01*
X153934141Y-123034642D01*
X154062058Y-123120113D01*
X154204191Y-123178987D01*
X154355078Y-123209000D01*
X154508922Y-123209000D01*
X154659809Y-123178987D01*
X154801942Y-123120113D01*
X154929859Y-123034642D01*
X155038642Y-122925859D01*
X155124113Y-122797942D01*
X155182987Y-122655809D01*
X155213000Y-122504922D01*
X155213000Y-122351078D01*
X155182987Y-122200191D01*
X155124113Y-122058058D01*
X155038642Y-121930141D01*
X154929859Y-121821358D01*
X154801942Y-121735887D01*
X154659809Y-121677013D01*
X154508922Y-121647000D01*
X154401947Y-121647000D01*
X151661000Y-118906054D01*
X151661000Y-108841748D01*
X151707887Y-108954942D01*
X151793358Y-109082859D01*
X151869000Y-109158501D01*
X151869001Y-114908916D01*
X151866432Y-114935000D01*
X151876684Y-115039093D01*
X151907047Y-115139187D01*
X151956354Y-115231435D01*
X152006083Y-115292029D01*
X152022711Y-115312290D01*
X152042971Y-115328917D01*
X153524000Y-116809947D01*
X153524000Y-116916922D01*
X153554013Y-117067809D01*
X153612887Y-117209942D01*
X153698358Y-117337859D01*
X153807141Y-117446642D01*
X153935058Y-117532113D01*
X154077191Y-117590987D01*
X154228078Y-117621000D01*
X154381922Y-117621000D01*
X154532809Y-117590987D01*
X154674942Y-117532113D01*
X154802859Y-117446642D01*
X154911642Y-117337859D01*
X154997113Y-117209942D01*
X155055987Y-117067809D01*
X155086000Y-116916922D01*
X155086000Y-116763078D01*
X155055987Y-116612191D01*
X154997113Y-116470058D01*
X154911642Y-116342141D01*
X154802859Y-116233358D01*
X154674942Y-116147887D01*
X154532809Y-116089013D01*
X154381922Y-116059000D01*
X154274947Y-116059000D01*
X152931000Y-114715054D01*
X152931000Y-110111748D01*
X152977887Y-110224942D01*
X153063358Y-110352859D01*
X153172141Y-110461642D01*
X153300058Y-110547113D01*
X153442191Y-110605987D01*
X153593078Y-110636000D01*
X153746922Y-110636000D01*
X153774001Y-110630614D01*
X153774000Y-114361499D01*
X153698358Y-114437141D01*
X153612887Y-114565058D01*
X153554013Y-114707191D01*
X153524000Y-114858078D01*
X153524000Y-115011922D01*
X153554013Y-115162809D01*
X153612887Y-115304942D01*
X153698358Y-115432859D01*
X153807141Y-115541642D01*
X153935058Y-115627113D01*
X154077191Y-115685987D01*
X154228078Y-115716000D01*
X154381922Y-115716000D01*
X154532809Y-115685987D01*
X154674942Y-115627113D01*
X154802859Y-115541642D01*
X154911642Y-115432859D01*
X154997113Y-115304942D01*
X155055987Y-115162809D01*
X155086000Y-115011922D01*
X155086000Y-114858078D01*
X155055987Y-114707191D01*
X154997113Y-114565058D01*
X154911642Y-114437141D01*
X154836000Y-114361499D01*
X154836000Y-110709946D01*
X155062029Y-110483918D01*
X155082289Y-110467291D01*
X155098916Y-110447031D01*
X155148645Y-110386437D01*
X155197952Y-110294189D01*
X155218958Y-110224942D01*
X155228316Y-110194095D01*
X155235999Y-110116085D01*
X155235999Y-110116076D01*
X155238567Y-110090002D01*
X155235999Y-110063928D01*
X155235999Y-108376070D01*
X155238567Y-108349998D01*
X155235999Y-108323926D01*
X155235999Y-108323915D01*
X155228316Y-108245905D01*
X155197952Y-108145811D01*
X155166592Y-108087141D01*
X155148645Y-108053563D01*
X155098916Y-107992969D01*
X155082289Y-107972709D01*
X155062029Y-107956082D01*
X152296000Y-105190054D01*
X152296000Y-102454947D01*
X152793918Y-101957030D01*
X152793927Y-101957019D01*
X153004947Y-101746000D01*
X153111922Y-101746000D01*
X153262809Y-101715987D01*
X153404942Y-101657113D01*
X153532859Y-101571642D01*
X153641642Y-101462859D01*
X153727113Y-101334942D01*
X153785987Y-101192809D01*
X153816000Y-101041922D01*
X153816000Y-100888078D01*
X153785987Y-100737191D01*
X153727113Y-100595058D01*
X153641642Y-100467141D01*
X153532859Y-100358358D01*
X153404942Y-100272887D01*
X153262809Y-100214013D01*
X153111922Y-100184000D01*
X152958078Y-100184000D01*
X152807191Y-100214013D01*
X152665058Y-100272887D01*
X152537141Y-100358358D01*
X152428358Y-100467141D01*
X152342887Y-100595058D01*
X152284013Y-100737191D01*
X152254000Y-100888078D01*
X152254000Y-100995053D01*
X152042981Y-101206073D01*
X152042970Y-101206082D01*
X151661000Y-101588053D01*
X151661000Y-98009946D01*
X153639947Y-96031000D01*
X153746922Y-96031000D01*
X153897809Y-96000987D01*
X154039942Y-95942113D01*
X154167859Y-95856642D01*
X154276642Y-95747859D01*
X154305000Y-95705418D01*
X154305000Y-105092500D01*
X154317201Y-105216382D01*
X154353336Y-105335504D01*
X154412017Y-105445287D01*
X154490987Y-105541513D01*
X157480000Y-108530526D01*
X157480000Y-116840000D01*
X157492201Y-116963882D01*
X157528336Y-117083004D01*
X157587017Y-117192787D01*
X157665987Y-117289013D01*
X164015987Y-123639013D01*
X164112213Y-123717983D01*
X164221996Y-123776664D01*
X164243616Y-123783222D01*
X164389394Y-123929000D01*
X164049947Y-123929000D01*
X162318921Y-122197975D01*
X162302290Y-122177710D01*
X162221435Y-122111354D01*
X162129188Y-122062047D01*
X162029094Y-122031683D01*
X161951084Y-122024000D01*
X161951074Y-122024000D01*
X161925000Y-122021432D01*
X161898926Y-122024000D01*
X159006748Y-122024000D01*
X159119942Y-121977113D01*
X159247859Y-121891642D01*
X159356642Y-121782859D01*
X159442113Y-121654942D01*
X159500987Y-121512809D01*
X159531000Y-121361922D01*
X159531000Y-121208078D01*
X159500987Y-121057191D01*
X159442113Y-120915058D01*
X159356642Y-120787141D01*
X159247859Y-120678358D01*
X159119942Y-120592887D01*
X158977809Y-120534013D01*
X158826922Y-120504000D01*
X158719947Y-120504000D01*
X158011000Y-119795054D01*
X158011000Y-119318501D01*
X158086642Y-119242859D01*
X158172113Y-119114942D01*
X158230987Y-118972809D01*
X158261000Y-118821922D01*
X158261000Y-118668078D01*
X158230987Y-118517191D01*
X158172113Y-118375058D01*
X158086642Y-118247141D01*
X157977859Y-118138358D01*
X157849942Y-118052887D01*
X157707809Y-117994013D01*
X157556922Y-117964000D01*
X157403078Y-117964000D01*
X157252191Y-117994013D01*
X157110058Y-118052887D01*
X156982141Y-118138358D01*
X156873358Y-118247141D01*
X156787887Y-118375058D01*
X156729013Y-118517191D01*
X156699000Y-118668078D01*
X156699000Y-118821922D01*
X156729013Y-118972809D01*
X156787887Y-119114942D01*
X156873358Y-119242859D01*
X156949001Y-119318502D01*
X156949000Y-119988926D01*
X156946432Y-120015000D01*
X156949000Y-120041074D01*
X156949000Y-120041083D01*
X156956683Y-120119093D01*
X156987047Y-120219187D01*
X157036354Y-120311435D01*
X157102710Y-120392290D01*
X157122975Y-120408921D01*
X157969000Y-121254947D01*
X157969000Y-121361922D01*
X157999013Y-121512809D01*
X158057887Y-121654942D01*
X158143358Y-121782859D01*
X158252141Y-121891642D01*
X158380058Y-121977113D01*
X158493252Y-122024000D01*
X158334947Y-122024000D01*
X156487000Y-120176054D01*
X156487000Y-114873501D01*
X156562642Y-114797859D01*
X156648113Y-114669942D01*
X156706987Y-114527809D01*
X156737000Y-114376922D01*
X156737000Y-114223078D01*
X156706987Y-114072191D01*
X156648113Y-113930058D01*
X156562642Y-113802141D01*
X156453859Y-113693358D01*
X156325942Y-113607887D01*
X156183809Y-113549013D01*
X156032922Y-113519000D01*
X155879078Y-113519000D01*
X155728191Y-113549013D01*
X155586058Y-113607887D01*
X155458141Y-113693358D01*
X155349358Y-113802141D01*
X155263887Y-113930058D01*
X155205013Y-114072191D01*
X155175000Y-114223078D01*
X155175000Y-114376922D01*
X155205013Y-114527809D01*
X155263887Y-114669942D01*
X155349358Y-114797859D01*
X155425001Y-114873502D01*
X155425000Y-120369926D01*
X155422432Y-120396000D01*
X155425000Y-120422074D01*
X155425000Y-120422083D01*
X155432683Y-120500093D01*
X155463047Y-120600187D01*
X155512354Y-120692435D01*
X155578710Y-120773290D01*
X155598975Y-120789921D01*
X157721082Y-122912029D01*
X157737710Y-122932290D01*
X157757970Y-122948917D01*
X157818564Y-122998646D01*
X157885909Y-123034642D01*
X157910812Y-123047953D01*
X158010906Y-123078317D01*
X158088916Y-123086000D01*
X158088925Y-123086000D01*
X158114999Y-123088568D01*
X158141073Y-123086000D01*
X161705054Y-123086000D01*
X163436082Y-124817029D01*
X163452710Y-124837290D01*
X163472970Y-124853917D01*
X163533564Y-124903646D01*
X163610933Y-124945000D01*
X163625812Y-124952953D01*
X163725906Y-124983317D01*
X163803916Y-124991000D01*
X163803926Y-124991000D01*
X163830000Y-124993568D01*
X163856074Y-124991000D01*
X166785054Y-124991000D01*
X167627082Y-125833029D01*
X167643710Y-125853290D01*
X167663970Y-125869917D01*
X167724564Y-125919646D01*
X167816812Y-125968953D01*
X167916906Y-125999317D01*
X167994916Y-126007000D01*
X167994926Y-126007000D01*
X168021000Y-126009568D01*
X168047074Y-126007000D01*
X169540387Y-126007000D01*
X169427157Y-126082658D01*
X169262658Y-126247157D01*
X169133412Y-126440587D01*
X169044386Y-126655515D01*
X168999000Y-126883682D01*
X168999000Y-127116318D01*
X169044386Y-127344485D01*
X169133412Y-127559413D01*
X169262658Y-127752843D01*
X169427157Y-127917342D01*
X169620587Y-128046588D01*
X169835515Y-128135614D01*
X170063682Y-128181000D01*
X170296318Y-128181000D01*
X170524485Y-128135614D01*
X170739413Y-128046588D01*
X170932843Y-127917342D01*
X171097342Y-127752843D01*
X171226588Y-127559413D01*
X171315614Y-127344485D01*
X171361000Y-127116318D01*
X171361000Y-126883682D01*
X171315614Y-126655515D01*
X171226588Y-126440587D01*
X171097342Y-126247157D01*
X170932843Y-126082658D01*
X170819613Y-126007000D01*
X172080387Y-126007000D01*
X171967157Y-126082658D01*
X171802658Y-126247157D01*
X171673412Y-126440587D01*
X171584386Y-126655515D01*
X171539000Y-126883682D01*
X171539000Y-127116318D01*
X171584386Y-127344485D01*
X171673412Y-127559413D01*
X171802658Y-127752843D01*
X171967157Y-127917342D01*
X172160587Y-128046588D01*
X172375515Y-128135614D01*
X172603682Y-128181000D01*
X172836318Y-128181000D01*
X173064485Y-128135614D01*
X173279413Y-128046588D01*
X173472843Y-127917342D01*
X173637342Y-127752843D01*
X173766588Y-127559413D01*
X173855614Y-127344485D01*
X173901000Y-127116318D01*
X173901000Y-126883682D01*
X173855614Y-126655515D01*
X173766588Y-126440587D01*
X173637342Y-126247157D01*
X173472843Y-126082658D01*
X173359613Y-126007000D01*
X174620387Y-126007000D01*
X174507157Y-126082658D01*
X174342658Y-126247157D01*
X174213412Y-126440587D01*
X174124386Y-126655515D01*
X174079000Y-126883682D01*
X174079000Y-127116318D01*
X174124386Y-127344485D01*
X174213412Y-127559413D01*
X174342658Y-127752843D01*
X174507157Y-127917342D01*
X174700587Y-128046588D01*
X174915515Y-128135614D01*
X175143682Y-128181000D01*
X175376318Y-128181000D01*
X175604485Y-128135614D01*
X175819413Y-128046588D01*
X176012843Y-127917342D01*
X176177342Y-127752843D01*
X176306588Y-127559413D01*
X176395614Y-127344485D01*
X176441000Y-127116318D01*
X176441000Y-126883682D01*
X176395614Y-126655515D01*
X176306588Y-126440587D01*
X176177342Y-126247157D01*
X176012843Y-126082658D01*
X175899613Y-126007000D01*
X177160387Y-126007000D01*
X177047157Y-126082658D01*
X176882658Y-126247157D01*
X176753412Y-126440587D01*
X176664386Y-126655515D01*
X176619000Y-126883682D01*
X176619000Y-127116318D01*
X176664386Y-127344485D01*
X176753412Y-127559413D01*
X176882658Y-127752843D01*
X177047157Y-127917342D01*
X177240587Y-128046588D01*
X177455515Y-128135614D01*
X177683682Y-128181000D01*
X177916318Y-128181000D01*
X178144485Y-128135614D01*
X178359413Y-128046588D01*
X178552843Y-127917342D01*
X178717342Y-127752843D01*
X178846588Y-127559413D01*
X178935614Y-127344485D01*
X178981000Y-127116318D01*
X178981000Y-126883682D01*
X178935614Y-126655515D01*
X178846588Y-126440587D01*
X178717342Y-126247157D01*
X178552843Y-126082658D01*
X178439613Y-126007000D01*
X178596054Y-126007000D01*
X179216155Y-126627102D01*
X179204386Y-126655515D01*
X179159000Y-126883682D01*
X179159000Y-127116318D01*
X179204386Y-127344485D01*
X179293412Y-127559413D01*
X179422658Y-127752843D01*
X179587157Y-127917342D01*
X179780587Y-128046588D01*
X179995515Y-128135614D01*
X180223682Y-128181000D01*
X180456318Y-128181000D01*
X180684485Y-128135614D01*
X180899413Y-128046588D01*
X181092843Y-127917342D01*
X181257342Y-127752843D01*
X181386588Y-127559413D01*
X181475614Y-127344485D01*
X181521000Y-127116318D01*
X181521000Y-126883682D01*
X181475614Y-126655515D01*
X181386588Y-126440587D01*
X181257342Y-126247157D01*
X181092843Y-126082658D01*
X180899413Y-125953412D01*
X180684485Y-125864386D01*
X180456318Y-125819000D01*
X180223682Y-125819000D01*
X179995515Y-125864386D01*
X179967102Y-125876155D01*
X179209921Y-125118975D01*
X179193290Y-125098710D01*
X179112435Y-125032354D01*
X179035067Y-124991000D01*
X180120054Y-124991000D01*
X181756155Y-126627102D01*
X181744386Y-126655515D01*
X181699000Y-126883682D01*
X181699000Y-127116318D01*
X181744386Y-127344485D01*
X181833412Y-127559413D01*
X181962658Y-127752843D01*
X182127157Y-127917342D01*
X182320587Y-128046588D01*
X182535515Y-128135614D01*
X182763682Y-128181000D01*
X182996318Y-128181000D01*
X183224485Y-128135614D01*
X183439413Y-128046588D01*
X183632843Y-127917342D01*
X183797342Y-127752843D01*
X183926588Y-127559413D01*
X184015614Y-127344485D01*
X184061000Y-127116318D01*
X184061000Y-126883682D01*
X184239000Y-126883682D01*
X184239000Y-127116318D01*
X184284386Y-127344485D01*
X184373412Y-127559413D01*
X184502658Y-127752843D01*
X184667157Y-127917342D01*
X184860587Y-128046588D01*
X185075515Y-128135614D01*
X185303682Y-128181000D01*
X185536318Y-128181000D01*
X185764485Y-128135614D01*
X185979413Y-128046588D01*
X186172843Y-127917342D01*
X186337342Y-127752843D01*
X186466588Y-127559413D01*
X186555614Y-127344485D01*
X186601000Y-127116318D01*
X186601000Y-126883682D01*
X186779000Y-126883682D01*
X186779000Y-127116318D01*
X186824386Y-127344485D01*
X186913412Y-127559413D01*
X187042658Y-127752843D01*
X187207157Y-127917342D01*
X187400587Y-128046588D01*
X187615515Y-128135614D01*
X187843682Y-128181000D01*
X188076318Y-128181000D01*
X188304485Y-128135614D01*
X188519413Y-128046588D01*
X188712843Y-127917342D01*
X188877342Y-127752843D01*
X189006588Y-127559413D01*
X189095614Y-127344485D01*
X189141000Y-127116318D01*
X189141000Y-126883682D01*
X189095614Y-126655515D01*
X189006588Y-126440587D01*
X188877342Y-126247157D01*
X188712843Y-126082658D01*
X188519413Y-125953412D01*
X188304485Y-125864386D01*
X188076318Y-125819000D01*
X187843682Y-125819000D01*
X187615515Y-125864386D01*
X187400587Y-125953412D01*
X187207157Y-126082658D01*
X187042658Y-126247157D01*
X186913412Y-126440587D01*
X186824386Y-126655515D01*
X186779000Y-126883682D01*
X186601000Y-126883682D01*
X186555614Y-126655515D01*
X186466588Y-126440587D01*
X186337342Y-126247157D01*
X186172843Y-126082658D01*
X185979413Y-125953412D01*
X185764485Y-125864386D01*
X185536318Y-125819000D01*
X185303682Y-125819000D01*
X185075515Y-125864386D01*
X184860587Y-125953412D01*
X184667157Y-126082658D01*
X184502658Y-126247157D01*
X184373412Y-126440587D01*
X184284386Y-126655515D01*
X184239000Y-126883682D01*
X184061000Y-126883682D01*
X184015614Y-126655515D01*
X183926588Y-126440587D01*
X183797342Y-126247157D01*
X183632843Y-126082658D01*
X183439413Y-125953412D01*
X183224485Y-125864386D01*
X182996318Y-125819000D01*
X182763682Y-125819000D01*
X182535515Y-125864386D01*
X182507102Y-125876155D01*
X180733921Y-124102975D01*
X180717290Y-124082710D01*
X180636435Y-124016354D01*
X180544188Y-123967047D01*
X180467000Y-123943632D01*
X180467000Y-120777000D01*
X190094001Y-120777000D01*
X190094000Y-128101829D01*
X189061831Y-129134000D01*
X136652000Y-129134000D01*
X136652000Y-126874817D01*
X138429000Y-126874817D01*
X138429000Y-127125183D01*
X138477844Y-127370737D01*
X138573654Y-127602044D01*
X138712750Y-127810215D01*
X138889785Y-127987250D01*
X139097956Y-128126346D01*
X139329263Y-128222156D01*
X139574817Y-128271000D01*
X139825183Y-128271000D01*
X140070737Y-128222156D01*
X140302044Y-128126346D01*
X140510215Y-127987250D01*
X140687250Y-127810215D01*
X140826346Y-127602044D01*
X140922156Y-127370737D01*
X140971000Y-127125183D01*
X140971000Y-126883682D01*
X142079000Y-126883682D01*
X142079000Y-127116318D01*
X142124386Y-127344485D01*
X142213412Y-127559413D01*
X142342658Y-127752843D01*
X142507157Y-127917342D01*
X142700587Y-128046588D01*
X142915515Y-128135614D01*
X143143682Y-128181000D01*
X143376318Y-128181000D01*
X143604485Y-128135614D01*
X143819413Y-128046588D01*
X144012843Y-127917342D01*
X144177342Y-127752843D01*
X144306588Y-127559413D01*
X144395614Y-127344485D01*
X144441000Y-127116318D01*
X144441000Y-126883682D01*
X144619000Y-126883682D01*
X144619000Y-127116318D01*
X144664386Y-127344485D01*
X144753412Y-127559413D01*
X144882658Y-127752843D01*
X145047157Y-127917342D01*
X145240587Y-128046588D01*
X145455515Y-128135614D01*
X145683682Y-128181000D01*
X145916318Y-128181000D01*
X146144485Y-128135614D01*
X146359413Y-128046588D01*
X146552843Y-127917342D01*
X146717342Y-127752843D01*
X146846588Y-127559413D01*
X146935614Y-127344485D01*
X146981000Y-127116318D01*
X146981000Y-126883682D01*
X147159000Y-126883682D01*
X147159000Y-127116318D01*
X147204386Y-127344485D01*
X147293412Y-127559413D01*
X147422658Y-127752843D01*
X147587157Y-127917342D01*
X147780587Y-128046588D01*
X147995515Y-128135614D01*
X148223682Y-128181000D01*
X148456318Y-128181000D01*
X148684485Y-128135614D01*
X148899413Y-128046588D01*
X149092843Y-127917342D01*
X149257342Y-127752843D01*
X149386588Y-127559413D01*
X149475614Y-127344485D01*
X149518875Y-127127002D01*
X149609375Y-127127002D01*
X149488091Y-127349040D01*
X149582930Y-127613881D01*
X149727615Y-127855131D01*
X149916586Y-128063519D01*
X150142580Y-128231037D01*
X150396913Y-128351246D01*
X150530961Y-128391904D01*
X150753000Y-128269915D01*
X150753000Y-127127000D01*
X150733000Y-127127000D01*
X150733000Y-126873000D01*
X150753000Y-126873000D01*
X150753000Y-125730085D01*
X151007000Y-125730085D01*
X151007000Y-126873000D01*
X151027000Y-126873000D01*
X151027000Y-127127000D01*
X151007000Y-127127000D01*
X151007000Y-128269915D01*
X151229039Y-128391904D01*
X151363087Y-128351246D01*
X151617420Y-128231037D01*
X151843414Y-128063519D01*
X152032385Y-127855131D01*
X152177070Y-127613881D01*
X152271909Y-127349040D01*
X152150625Y-127127002D01*
X152241125Y-127127002D01*
X152284386Y-127344485D01*
X152373412Y-127559413D01*
X152502658Y-127752843D01*
X152667157Y-127917342D01*
X152860587Y-128046588D01*
X153075515Y-128135614D01*
X153303682Y-128181000D01*
X153536318Y-128181000D01*
X153764485Y-128135614D01*
X153979413Y-128046588D01*
X154172843Y-127917342D01*
X154337342Y-127752843D01*
X154466588Y-127559413D01*
X154555614Y-127344485D01*
X154601000Y-127116318D01*
X154601000Y-126883682D01*
X154779000Y-126883682D01*
X154779000Y-127116318D01*
X154824386Y-127344485D01*
X154913412Y-127559413D01*
X155042658Y-127752843D01*
X155207157Y-127917342D01*
X155400587Y-128046588D01*
X155615515Y-128135614D01*
X155843682Y-128181000D01*
X156076318Y-128181000D01*
X156304485Y-128135614D01*
X156519413Y-128046588D01*
X156712843Y-127917342D01*
X156877342Y-127752843D01*
X157006588Y-127559413D01*
X157095614Y-127344485D01*
X157141000Y-127116318D01*
X157141000Y-126883682D01*
X157319000Y-126883682D01*
X157319000Y-127116318D01*
X157364386Y-127344485D01*
X157453412Y-127559413D01*
X157582658Y-127752843D01*
X157747157Y-127917342D01*
X157940587Y-128046588D01*
X158155515Y-128135614D01*
X158383682Y-128181000D01*
X158616318Y-128181000D01*
X158844485Y-128135614D01*
X159059413Y-128046588D01*
X159252843Y-127917342D01*
X159417342Y-127752843D01*
X159546588Y-127559413D01*
X159635614Y-127344485D01*
X159681000Y-127116318D01*
X159681000Y-126883682D01*
X159859000Y-126883682D01*
X159859000Y-127116318D01*
X159904386Y-127344485D01*
X159993412Y-127559413D01*
X160122658Y-127752843D01*
X160287157Y-127917342D01*
X160480587Y-128046588D01*
X160695515Y-128135614D01*
X160923682Y-128181000D01*
X161156318Y-128181000D01*
X161384485Y-128135614D01*
X161599413Y-128046588D01*
X161792843Y-127917342D01*
X161957342Y-127752843D01*
X162086588Y-127559413D01*
X162175614Y-127344485D01*
X162221000Y-127116318D01*
X162221000Y-126883682D01*
X162399000Y-126883682D01*
X162399000Y-127116318D01*
X162444386Y-127344485D01*
X162533412Y-127559413D01*
X162662658Y-127752843D01*
X162827157Y-127917342D01*
X163020587Y-128046588D01*
X163235515Y-128135614D01*
X163463682Y-128181000D01*
X163696318Y-128181000D01*
X163924485Y-128135614D01*
X164139413Y-128046588D01*
X164332843Y-127917342D01*
X164497342Y-127752843D01*
X164626588Y-127559413D01*
X164715614Y-127344485D01*
X164761000Y-127116318D01*
X164761000Y-126883682D01*
X164939000Y-126883682D01*
X164939000Y-127116318D01*
X164984386Y-127344485D01*
X165073412Y-127559413D01*
X165202658Y-127752843D01*
X165367157Y-127917342D01*
X165560587Y-128046588D01*
X165775515Y-128135614D01*
X166003682Y-128181000D01*
X166236318Y-128181000D01*
X166464485Y-128135614D01*
X166679413Y-128046588D01*
X166872843Y-127917342D01*
X167037342Y-127752843D01*
X167166588Y-127559413D01*
X167255614Y-127344485D01*
X167301000Y-127116318D01*
X167301000Y-126883682D01*
X167255614Y-126655515D01*
X167166588Y-126440587D01*
X167037342Y-126247157D01*
X166872843Y-126082658D01*
X166679413Y-125953412D01*
X166464485Y-125864386D01*
X166236318Y-125819000D01*
X166003682Y-125819000D01*
X165775515Y-125864386D01*
X165560587Y-125953412D01*
X165367157Y-126082658D01*
X165202658Y-126247157D01*
X165073412Y-126440587D01*
X164984386Y-126655515D01*
X164939000Y-126883682D01*
X164761000Y-126883682D01*
X164715614Y-126655515D01*
X164626588Y-126440587D01*
X164497342Y-126247157D01*
X164332843Y-126082658D01*
X164139413Y-125953412D01*
X163924485Y-125864386D01*
X163696318Y-125819000D01*
X163463682Y-125819000D01*
X163235515Y-125864386D01*
X163020587Y-125953412D01*
X162827157Y-126082658D01*
X162662658Y-126247157D01*
X162533412Y-126440587D01*
X162444386Y-126655515D01*
X162399000Y-126883682D01*
X162221000Y-126883682D01*
X162175614Y-126655515D01*
X162086588Y-126440587D01*
X161957342Y-126247157D01*
X161792843Y-126082658D01*
X161599413Y-125953412D01*
X161384485Y-125864386D01*
X161156318Y-125819000D01*
X160923682Y-125819000D01*
X160695515Y-125864386D01*
X160480587Y-125953412D01*
X160287157Y-126082658D01*
X160122658Y-126247157D01*
X159993412Y-126440587D01*
X159904386Y-126655515D01*
X159859000Y-126883682D01*
X159681000Y-126883682D01*
X159635614Y-126655515D01*
X159546588Y-126440587D01*
X159417342Y-126247157D01*
X159252843Y-126082658D01*
X159059413Y-125953412D01*
X158844485Y-125864386D01*
X158616318Y-125819000D01*
X158383682Y-125819000D01*
X158155515Y-125864386D01*
X157940587Y-125953412D01*
X157747157Y-126082658D01*
X157582658Y-126247157D01*
X157453412Y-126440587D01*
X157364386Y-126655515D01*
X157319000Y-126883682D01*
X157141000Y-126883682D01*
X157095614Y-126655515D01*
X157006588Y-126440587D01*
X156877342Y-126247157D01*
X156712843Y-126082658D01*
X156519413Y-125953412D01*
X156304485Y-125864386D01*
X156076318Y-125819000D01*
X155843682Y-125819000D01*
X155615515Y-125864386D01*
X155400587Y-125953412D01*
X155207157Y-126082658D01*
X155042658Y-126247157D01*
X154913412Y-126440587D01*
X154824386Y-126655515D01*
X154779000Y-126883682D01*
X154601000Y-126883682D01*
X154555614Y-126655515D01*
X154466588Y-126440587D01*
X154337342Y-126247157D01*
X154172843Y-126082658D01*
X153979413Y-125953412D01*
X153764485Y-125864386D01*
X153536318Y-125819000D01*
X153303682Y-125819000D01*
X153075515Y-125864386D01*
X152860587Y-125953412D01*
X152667157Y-126082658D01*
X152502658Y-126247157D01*
X152373412Y-126440587D01*
X152284386Y-126655515D01*
X152241125Y-126872998D01*
X152150625Y-126872998D01*
X152271909Y-126650960D01*
X152177070Y-126386119D01*
X152032385Y-126144869D01*
X151843414Y-125936481D01*
X151617420Y-125768963D01*
X151363087Y-125648754D01*
X151229039Y-125608096D01*
X151007000Y-125730085D01*
X150753000Y-125730085D01*
X150530961Y-125608096D01*
X150396913Y-125648754D01*
X150142580Y-125768963D01*
X149916586Y-125936481D01*
X149727615Y-126144869D01*
X149582930Y-126386119D01*
X149488091Y-126650960D01*
X149609375Y-126872998D01*
X149518875Y-126872998D01*
X149475614Y-126655515D01*
X149386588Y-126440587D01*
X149257342Y-126247157D01*
X149092843Y-126082658D01*
X148899413Y-125953412D01*
X148684485Y-125864386D01*
X148456318Y-125819000D01*
X148223682Y-125819000D01*
X147995515Y-125864386D01*
X147780587Y-125953412D01*
X147587157Y-126082658D01*
X147422658Y-126247157D01*
X147293412Y-126440587D01*
X147204386Y-126655515D01*
X147159000Y-126883682D01*
X146981000Y-126883682D01*
X146935614Y-126655515D01*
X146846588Y-126440587D01*
X146717342Y-126247157D01*
X146552843Y-126082658D01*
X146359413Y-125953412D01*
X146144485Y-125864386D01*
X145916318Y-125819000D01*
X145683682Y-125819000D01*
X145455515Y-125864386D01*
X145240587Y-125953412D01*
X145047157Y-126082658D01*
X144882658Y-126247157D01*
X144753412Y-126440587D01*
X144664386Y-126655515D01*
X144619000Y-126883682D01*
X144441000Y-126883682D01*
X144395614Y-126655515D01*
X144306588Y-126440587D01*
X144177342Y-126247157D01*
X144012843Y-126082658D01*
X143819413Y-125953412D01*
X143604485Y-125864386D01*
X143376318Y-125819000D01*
X143143682Y-125819000D01*
X142915515Y-125864386D01*
X142700587Y-125953412D01*
X142507157Y-126082658D01*
X142342658Y-126247157D01*
X142213412Y-126440587D01*
X142124386Y-126655515D01*
X142079000Y-126883682D01*
X140971000Y-126883682D01*
X140971000Y-126874817D01*
X140922156Y-126629263D01*
X140826346Y-126397956D01*
X140687250Y-126189785D01*
X140510215Y-126012750D01*
X140302044Y-125873654D01*
X140070737Y-125777844D01*
X139825183Y-125729000D01*
X139574817Y-125729000D01*
X139329263Y-125777844D01*
X139097956Y-125873654D01*
X138889785Y-126012750D01*
X138712750Y-126189785D01*
X138573654Y-126397956D01*
X138477844Y-126629263D01*
X138429000Y-126874817D01*
X136652000Y-126874817D01*
X136652000Y-78614817D01*
X137159000Y-78614817D01*
X137159000Y-78865183D01*
X137207844Y-79110737D01*
X137303654Y-79342044D01*
X137442750Y-79550215D01*
X137619785Y-79727250D01*
X137827956Y-79866346D01*
X138059263Y-79962156D01*
X138304817Y-80011000D01*
X138555183Y-80011000D01*
X138800737Y-79962156D01*
X139032044Y-79866346D01*
X139240215Y-79727250D01*
X139417250Y-79550215D01*
X139556346Y-79342044D01*
X139652156Y-79110737D01*
X139701000Y-78865183D01*
X139701000Y-78614817D01*
X139652156Y-78369263D01*
X139556346Y-78137956D01*
X139424076Y-77940000D01*
X151217157Y-77940000D01*
X151217157Y-79540000D01*
X151224513Y-79614689D01*
X151246299Y-79686508D01*
X151281678Y-79752696D01*
X151329289Y-79810711D01*
X151387304Y-79858322D01*
X151453492Y-79893701D01*
X151525311Y-79915487D01*
X151600000Y-79922843D01*
X153200000Y-79922843D01*
X153274689Y-79915487D01*
X153346508Y-79893701D01*
X153412696Y-79858322D01*
X153470711Y-79810711D01*
X153518322Y-79752696D01*
X153553701Y-79686508D01*
X153575487Y-79614689D01*
X153582843Y-79540000D01*
X153582843Y-78623682D01*
X153759000Y-78623682D01*
X153759000Y-78856318D01*
X153804386Y-79084485D01*
X153893412Y-79299413D01*
X154022658Y-79492843D01*
X154187157Y-79657342D01*
X154380587Y-79786588D01*
X154595515Y-79875614D01*
X154823682Y-79921000D01*
X155056318Y-79921000D01*
X155284485Y-79875614D01*
X155499413Y-79786588D01*
X155692843Y-79657342D01*
X155857342Y-79492843D01*
X155986588Y-79299413D01*
X156075614Y-79084485D01*
X156121000Y-78856318D01*
X156121000Y-78623682D01*
X156299000Y-78623682D01*
X156299000Y-78856318D01*
X156344386Y-79084485D01*
X156433412Y-79299413D01*
X156562658Y-79492843D01*
X156727157Y-79657342D01*
X156920587Y-79786588D01*
X157135515Y-79875614D01*
X157363682Y-79921000D01*
X157596318Y-79921000D01*
X157824485Y-79875614D01*
X158039413Y-79786588D01*
X158232843Y-79657342D01*
X158397342Y-79492843D01*
X158526588Y-79299413D01*
X158615614Y-79084485D01*
X158661000Y-78856318D01*
X158661000Y-78623682D01*
X158839000Y-78623682D01*
X158839000Y-78856318D01*
X158884386Y-79084485D01*
X158973412Y-79299413D01*
X159102658Y-79492843D01*
X159267157Y-79657342D01*
X159460587Y-79786588D01*
X159675515Y-79875614D01*
X159903682Y-79921000D01*
X160136318Y-79921000D01*
X160364485Y-79875614D01*
X160579413Y-79786588D01*
X160772843Y-79657342D01*
X160937342Y-79492843D01*
X161066588Y-79299413D01*
X161155614Y-79084485D01*
X161201000Y-78856318D01*
X161201000Y-78623682D01*
X161379000Y-78623682D01*
X161379000Y-78856318D01*
X161424386Y-79084485D01*
X161429000Y-79095624D01*
X161429000Y-79954450D01*
X161423529Y-80010000D01*
X161429000Y-80065550D01*
X161429000Y-80065558D01*
X161445365Y-80231715D01*
X161510037Y-80444909D01*
X161549932Y-80519547D01*
X161615058Y-80641389D01*
X161720977Y-80770452D01*
X161720980Y-80770455D01*
X161756394Y-80813607D01*
X161799546Y-80849021D01*
X162990979Y-82040455D01*
X163026393Y-82083607D01*
X163198610Y-82224942D01*
X163395091Y-82329963D01*
X163608285Y-82394635D01*
X163774442Y-82411000D01*
X163774451Y-82411000D01*
X163829999Y-82416471D01*
X163885547Y-82411000D01*
X179125558Y-82411000D01*
X179291715Y-82394635D01*
X179504909Y-82329963D01*
X179701390Y-82224942D01*
X179873607Y-82083607D01*
X180014942Y-81911390D01*
X180119963Y-81714909D01*
X180184635Y-81501715D01*
X180206472Y-81280000D01*
X180184635Y-81058285D01*
X180119963Y-80845091D01*
X180014942Y-80648610D01*
X179873607Y-80476393D01*
X179701390Y-80335058D01*
X179504909Y-80230037D01*
X179291715Y-80165365D01*
X179125558Y-80149000D01*
X167767002Y-80149000D01*
X167767002Y-80009916D01*
X167989039Y-80131904D01*
X168123087Y-80091246D01*
X168377420Y-79971037D01*
X168603414Y-79803519D01*
X168792385Y-79595131D01*
X168937070Y-79353881D01*
X169031909Y-79089040D01*
X168910625Y-78867002D01*
X169001125Y-78867002D01*
X169044386Y-79084485D01*
X169133412Y-79299413D01*
X169262658Y-79492843D01*
X169427157Y-79657342D01*
X169620587Y-79786588D01*
X169835515Y-79875614D01*
X170063682Y-79921000D01*
X170296318Y-79921000D01*
X170524485Y-79875614D01*
X170739413Y-79786588D01*
X170932843Y-79657342D01*
X171097342Y-79492843D01*
X171226588Y-79299413D01*
X171315614Y-79084485D01*
X171361000Y-78856318D01*
X171361000Y-78623682D01*
X174079000Y-78623682D01*
X174079000Y-78856318D01*
X174124386Y-79084485D01*
X174213412Y-79299413D01*
X174342658Y-79492843D01*
X174507157Y-79657342D01*
X174700587Y-79786588D01*
X174915515Y-79875614D01*
X175143682Y-79921000D01*
X175376318Y-79921000D01*
X175604485Y-79875614D01*
X175819413Y-79786588D01*
X176012843Y-79657342D01*
X176177342Y-79492843D01*
X176306588Y-79299413D01*
X176395614Y-79084485D01*
X176441000Y-78856318D01*
X176441000Y-78623682D01*
X176619000Y-78623682D01*
X176619000Y-78856318D01*
X176664386Y-79084485D01*
X176753412Y-79299413D01*
X176882658Y-79492843D01*
X177047157Y-79657342D01*
X177240587Y-79786588D01*
X177455515Y-79875614D01*
X177683682Y-79921000D01*
X177916318Y-79921000D01*
X178144485Y-79875614D01*
X178359413Y-79786588D01*
X178552843Y-79657342D01*
X178717342Y-79492843D01*
X178846588Y-79299413D01*
X178935614Y-79084485D01*
X178981000Y-78856318D01*
X178981000Y-78623682D01*
X179159000Y-78623682D01*
X179159000Y-78856318D01*
X179204386Y-79084485D01*
X179293412Y-79299413D01*
X179422658Y-79492843D01*
X179587157Y-79657342D01*
X179780587Y-79786588D01*
X179995515Y-79875614D01*
X180223682Y-79921000D01*
X180456318Y-79921000D01*
X180684485Y-79875614D01*
X180899413Y-79786588D01*
X181092843Y-79657342D01*
X181257342Y-79492843D01*
X181386588Y-79299413D01*
X181475614Y-79084485D01*
X181521000Y-78856318D01*
X181521000Y-78623682D01*
X181699000Y-78623682D01*
X181699000Y-78856318D01*
X181744386Y-79084485D01*
X181833412Y-79299413D01*
X181962658Y-79492843D01*
X182127157Y-79657342D01*
X182320587Y-79786588D01*
X182535515Y-79875614D01*
X182763682Y-79921000D01*
X182996318Y-79921000D01*
X183224485Y-79875614D01*
X183439413Y-79786588D01*
X183632843Y-79657342D01*
X183797342Y-79492843D01*
X183926588Y-79299413D01*
X184015614Y-79084485D01*
X184061000Y-78856318D01*
X184061000Y-78623682D01*
X184239000Y-78623682D01*
X184239000Y-78856318D01*
X184284386Y-79084485D01*
X184373412Y-79299413D01*
X184502658Y-79492843D01*
X184667157Y-79657342D01*
X184860587Y-79786588D01*
X185075515Y-79875614D01*
X185303682Y-79921000D01*
X185536318Y-79921000D01*
X185764485Y-79875614D01*
X185979413Y-79786588D01*
X186172843Y-79657342D01*
X186337342Y-79492843D01*
X186466588Y-79299413D01*
X186555614Y-79084485D01*
X186601000Y-78856318D01*
X186601000Y-78623682D01*
X186779000Y-78623682D01*
X186779000Y-78856318D01*
X186824386Y-79084485D01*
X186913412Y-79299413D01*
X187042658Y-79492843D01*
X187207157Y-79657342D01*
X187400587Y-79786588D01*
X187615515Y-79875614D01*
X187843682Y-79921000D01*
X188076318Y-79921000D01*
X188304485Y-79875614D01*
X188519413Y-79786588D01*
X188712843Y-79657342D01*
X188877342Y-79492843D01*
X189006588Y-79299413D01*
X189095614Y-79084485D01*
X189141000Y-78856318D01*
X189141000Y-78623682D01*
X189095614Y-78395515D01*
X189006588Y-78180587D01*
X188877342Y-77987157D01*
X188712843Y-77822658D01*
X188519413Y-77693412D01*
X188304485Y-77604386D01*
X188076318Y-77559000D01*
X187843682Y-77559000D01*
X187615515Y-77604386D01*
X187400587Y-77693412D01*
X187207157Y-77822658D01*
X187042658Y-77987157D01*
X186913412Y-78180587D01*
X186824386Y-78395515D01*
X186779000Y-78623682D01*
X186601000Y-78623682D01*
X186555614Y-78395515D01*
X186466588Y-78180587D01*
X186337342Y-77987157D01*
X186172843Y-77822658D01*
X185979413Y-77693412D01*
X185764485Y-77604386D01*
X185536318Y-77559000D01*
X185303682Y-77559000D01*
X185075515Y-77604386D01*
X184860587Y-77693412D01*
X184667157Y-77822658D01*
X184502658Y-77987157D01*
X184373412Y-78180587D01*
X184284386Y-78395515D01*
X184239000Y-78623682D01*
X184061000Y-78623682D01*
X184015614Y-78395515D01*
X183926588Y-78180587D01*
X183797342Y-77987157D01*
X183632843Y-77822658D01*
X183439413Y-77693412D01*
X183224485Y-77604386D01*
X182996318Y-77559000D01*
X182763682Y-77559000D01*
X182535515Y-77604386D01*
X182320587Y-77693412D01*
X182127157Y-77822658D01*
X181962658Y-77987157D01*
X181833412Y-78180587D01*
X181744386Y-78395515D01*
X181699000Y-78623682D01*
X181521000Y-78623682D01*
X181475614Y-78395515D01*
X181386588Y-78180587D01*
X181257342Y-77987157D01*
X181092843Y-77822658D01*
X180899413Y-77693412D01*
X180684485Y-77604386D01*
X180456318Y-77559000D01*
X180223682Y-77559000D01*
X179995515Y-77604386D01*
X179780587Y-77693412D01*
X179587157Y-77822658D01*
X179422658Y-77987157D01*
X179293412Y-78180587D01*
X179204386Y-78395515D01*
X179159000Y-78623682D01*
X178981000Y-78623682D01*
X178935614Y-78395515D01*
X178846588Y-78180587D01*
X178717342Y-77987157D01*
X178552843Y-77822658D01*
X178359413Y-77693412D01*
X178144485Y-77604386D01*
X177916318Y-77559000D01*
X177683682Y-77559000D01*
X177455515Y-77604386D01*
X177240587Y-77693412D01*
X177047157Y-77822658D01*
X176882658Y-77987157D01*
X176753412Y-78180587D01*
X176664386Y-78395515D01*
X176619000Y-78623682D01*
X176441000Y-78623682D01*
X176395614Y-78395515D01*
X176306588Y-78180587D01*
X176177342Y-77987157D01*
X176012843Y-77822658D01*
X175819413Y-77693412D01*
X175604485Y-77604386D01*
X175376318Y-77559000D01*
X175143682Y-77559000D01*
X174915515Y-77604386D01*
X174700587Y-77693412D01*
X174507157Y-77822658D01*
X174342658Y-77987157D01*
X174213412Y-78180587D01*
X174124386Y-78395515D01*
X174079000Y-78623682D01*
X171361000Y-78623682D01*
X171315614Y-78395515D01*
X171226588Y-78180587D01*
X171097342Y-77987157D01*
X170932843Y-77822658D01*
X170739413Y-77693412D01*
X170524485Y-77604386D01*
X170296318Y-77559000D01*
X170063682Y-77559000D01*
X169835515Y-77604386D01*
X169620587Y-77693412D01*
X169427157Y-77822658D01*
X169262658Y-77987157D01*
X169133412Y-78180587D01*
X169044386Y-78395515D01*
X169001125Y-78612998D01*
X168910625Y-78612998D01*
X169031909Y-78390960D01*
X168937070Y-78126119D01*
X168792385Y-77884869D01*
X168603414Y-77676481D01*
X168377420Y-77508963D01*
X168123087Y-77388754D01*
X167989039Y-77348096D01*
X167767000Y-77470085D01*
X167767000Y-78613000D01*
X167787000Y-78613000D01*
X167787000Y-78867000D01*
X167767000Y-78867000D01*
X167767000Y-78887000D01*
X167513000Y-78887000D01*
X167513000Y-78867000D01*
X165227000Y-78867000D01*
X165227000Y-78887000D01*
X164973000Y-78887000D01*
X164973000Y-78867000D01*
X164953000Y-78867000D01*
X164953000Y-78613000D01*
X164973000Y-78613000D01*
X164973000Y-77470085D01*
X165227000Y-77470085D01*
X165227000Y-78613000D01*
X167513000Y-78613000D01*
X167513000Y-77470085D01*
X167290961Y-77348096D01*
X167156913Y-77388754D01*
X166902580Y-77508963D01*
X166676586Y-77676481D01*
X166487615Y-77884869D01*
X166370000Y-78080982D01*
X166252385Y-77884869D01*
X166063414Y-77676481D01*
X165837420Y-77508963D01*
X165583087Y-77388754D01*
X165449039Y-77348096D01*
X165227000Y-77470085D01*
X164973000Y-77470085D01*
X164750961Y-77348096D01*
X164616913Y-77388754D01*
X164362580Y-77508963D01*
X164136586Y-77676481D01*
X163947615Y-77884869D01*
X163802930Y-78126119D01*
X163708091Y-78390960D01*
X163829375Y-78612998D01*
X163738875Y-78612998D01*
X163695614Y-78395515D01*
X163606588Y-78180587D01*
X163477342Y-77987157D01*
X163312843Y-77822658D01*
X163119413Y-77693412D01*
X162904485Y-77604386D01*
X162676318Y-77559000D01*
X162443682Y-77559000D01*
X162215515Y-77604386D01*
X162000587Y-77693412D01*
X161807157Y-77822658D01*
X161642658Y-77987157D01*
X161513412Y-78180587D01*
X161424386Y-78395515D01*
X161379000Y-78623682D01*
X161201000Y-78623682D01*
X161155614Y-78395515D01*
X161066588Y-78180587D01*
X160937342Y-77987157D01*
X160772843Y-77822658D01*
X160579413Y-77693412D01*
X160364485Y-77604386D01*
X160136318Y-77559000D01*
X159903682Y-77559000D01*
X159675515Y-77604386D01*
X159460587Y-77693412D01*
X159267157Y-77822658D01*
X159102658Y-77987157D01*
X158973412Y-78180587D01*
X158884386Y-78395515D01*
X158839000Y-78623682D01*
X158661000Y-78623682D01*
X158615614Y-78395515D01*
X158526588Y-78180587D01*
X158397342Y-77987157D01*
X158232843Y-77822658D01*
X158039413Y-77693412D01*
X157824485Y-77604386D01*
X157596318Y-77559000D01*
X157363682Y-77559000D01*
X157135515Y-77604386D01*
X156920587Y-77693412D01*
X156727157Y-77822658D01*
X156562658Y-77987157D01*
X156433412Y-78180587D01*
X156344386Y-78395515D01*
X156299000Y-78623682D01*
X156121000Y-78623682D01*
X156075614Y-78395515D01*
X155986588Y-78180587D01*
X155857342Y-77987157D01*
X155692843Y-77822658D01*
X155499413Y-77693412D01*
X155284485Y-77604386D01*
X155056318Y-77559000D01*
X154823682Y-77559000D01*
X154595515Y-77604386D01*
X154380587Y-77693412D01*
X154187157Y-77822658D01*
X154022658Y-77987157D01*
X153893412Y-78180587D01*
X153804386Y-78395515D01*
X153759000Y-78623682D01*
X153582843Y-78623682D01*
X153582843Y-77940000D01*
X153575487Y-77865311D01*
X153553701Y-77793492D01*
X153518322Y-77727304D01*
X153470711Y-77669289D01*
X153412696Y-77621678D01*
X153346508Y-77586299D01*
X153274689Y-77564513D01*
X153200000Y-77557157D01*
X151600000Y-77557157D01*
X151525311Y-77564513D01*
X151453492Y-77586299D01*
X151387304Y-77621678D01*
X151329289Y-77669289D01*
X151281678Y-77727304D01*
X151246299Y-77793492D01*
X151224513Y-77865311D01*
X151217157Y-77940000D01*
X139424076Y-77940000D01*
X139417250Y-77929785D01*
X139240215Y-77752750D01*
X139032044Y-77613654D01*
X138800737Y-77517844D01*
X138555183Y-77469000D01*
X138304817Y-77469000D01*
X138059263Y-77517844D01*
X137827956Y-77613654D01*
X137619785Y-77752750D01*
X137442750Y-77929785D01*
X137303654Y-78137956D01*
X137207844Y-78369263D01*
X137159000Y-78614817D01*
X136652000Y-78614817D01*
X136652000Y-76606000D01*
X190094001Y-76606000D01*
X190094000Y-78720067D01*
G37*
X190094000Y-78720067D02*
X190092037Y-78740000D01*
X190094000Y-78759933D01*
X190094000Y-78759940D01*
X190099875Y-78819589D01*
X190123090Y-78896120D01*
X190160790Y-78966652D01*
X190211526Y-79028474D01*
X190227024Y-79041193D01*
X192634001Y-81448172D01*
X192634001Y-84963000D01*
X191061837Y-84963000D01*
X191102044Y-84946346D01*
X191310215Y-84807250D01*
X191487250Y-84630215D01*
X191626346Y-84422044D01*
X191722156Y-84190737D01*
X191771000Y-83945183D01*
X191771000Y-83694817D01*
X191722156Y-83449263D01*
X191626346Y-83217956D01*
X191487250Y-83009785D01*
X191310215Y-82832750D01*
X191102044Y-82693654D01*
X190870737Y-82597844D01*
X190625183Y-82549000D01*
X190374817Y-82549000D01*
X190129263Y-82597844D01*
X189897956Y-82693654D01*
X189689785Y-82832750D01*
X189512750Y-83009785D01*
X189373654Y-83217956D01*
X189277844Y-83449263D01*
X189229000Y-83694817D01*
X189229000Y-83945183D01*
X189277844Y-84190737D01*
X189373654Y-84422044D01*
X189512750Y-84630215D01*
X189689785Y-84807250D01*
X189897956Y-84946346D01*
X189938163Y-84963000D01*
X176666026Y-84963000D01*
X174439013Y-82735987D01*
X174342787Y-82657017D01*
X174233004Y-82598336D01*
X174113882Y-82562201D01*
X173990000Y-82550000D01*
X154940000Y-82550000D01*
X154816118Y-82562201D01*
X154696996Y-82598336D01*
X154587213Y-82657017D01*
X154490987Y-82735987D01*
X154412017Y-82832213D01*
X154353336Y-82941996D01*
X154317201Y-83061118D01*
X154305000Y-83185000D01*
X154305000Y-93524582D01*
X154276642Y-93482141D01*
X154167859Y-93373358D01*
X154039942Y-93287887D01*
X153897809Y-93229013D01*
X153746922Y-93199000D01*
X153593078Y-93199000D01*
X153442191Y-93229013D01*
X153300058Y-93287887D01*
X153172141Y-93373358D01*
X153063358Y-93482141D01*
X152977887Y-93610058D01*
X152919013Y-93752191D01*
X152889000Y-93903078D01*
X152889000Y-94010052D01*
X149502971Y-97396083D01*
X149482711Y-97412710D01*
X149466084Y-97432970D01*
X149466083Y-97432971D01*
X149416354Y-97493565D01*
X149367047Y-97585813D01*
X149336684Y-97685907D01*
X149326432Y-97790000D01*
X149329001Y-97816084D01*
X149329000Y-106653926D01*
X149326432Y-106680000D01*
X149329000Y-106706074D01*
X149329000Y-106706083D01*
X149336683Y-106784093D01*
X149367047Y-106884187D01*
X149416354Y-106976435D01*
X149482710Y-107057290D01*
X149502975Y-107073921D01*
X150349000Y-107919947D01*
X150349000Y-108026922D01*
X150379013Y-108177809D01*
X150437887Y-108319942D01*
X150523358Y-108447859D01*
X150599001Y-108523502D01*
X150599000Y-119099926D01*
X150596432Y-119126000D01*
X150599000Y-119152074D01*
X150599000Y-119152083D01*
X150606683Y-119230093D01*
X150637047Y-119330187D01*
X150686354Y-119422435D01*
X150752710Y-119503290D01*
X150772975Y-119519921D01*
X153651000Y-122397947D01*
X153651000Y-122504922D01*
X153681013Y-122655809D01*
X153739887Y-122797942D01*
X153825358Y-122925859D01*
X153934141Y-123034642D01*
X154062058Y-123120113D01*
X154204191Y-123178987D01*
X154355078Y-123209000D01*
X154508922Y-123209000D01*
X154659809Y-123178987D01*
X154801942Y-123120113D01*
X154929859Y-123034642D01*
X155038642Y-122925859D01*
X155124113Y-122797942D01*
X155182987Y-122655809D01*
X155213000Y-122504922D01*
X155213000Y-122351078D01*
X155182987Y-122200191D01*
X155124113Y-122058058D01*
X155038642Y-121930141D01*
X154929859Y-121821358D01*
X154801942Y-121735887D01*
X154659809Y-121677013D01*
X154508922Y-121647000D01*
X154401947Y-121647000D01*
X151661000Y-118906054D01*
X151661000Y-108841748D01*
X151707887Y-108954942D01*
X151793358Y-109082859D01*
X151869000Y-109158501D01*
X151869001Y-114908916D01*
X151866432Y-114935000D01*
X151876684Y-115039093D01*
X151907047Y-115139187D01*
X151956354Y-115231435D01*
X152006083Y-115292029D01*
X152022711Y-115312290D01*
X152042971Y-115328917D01*
X153524000Y-116809947D01*
X153524000Y-116916922D01*
X153554013Y-117067809D01*
X153612887Y-117209942D01*
X153698358Y-117337859D01*
X153807141Y-117446642D01*
X153935058Y-117532113D01*
X154077191Y-117590987D01*
X154228078Y-117621000D01*
X154381922Y-117621000D01*
X154532809Y-117590987D01*
X154674942Y-117532113D01*
X154802859Y-117446642D01*
X154911642Y-117337859D01*
X154997113Y-117209942D01*
X155055987Y-117067809D01*
X155086000Y-116916922D01*
X155086000Y-116763078D01*
X155055987Y-116612191D01*
X154997113Y-116470058D01*
X154911642Y-116342141D01*
X154802859Y-116233358D01*
X154674942Y-116147887D01*
X154532809Y-116089013D01*
X154381922Y-116059000D01*
X154274947Y-116059000D01*
X152931000Y-114715054D01*
X152931000Y-110111748D01*
X152977887Y-110224942D01*
X153063358Y-110352859D01*
X153172141Y-110461642D01*
X153300058Y-110547113D01*
X153442191Y-110605987D01*
X153593078Y-110636000D01*
X153746922Y-110636000D01*
X153774001Y-110630614D01*
X153774000Y-114361499D01*
X153698358Y-114437141D01*
X153612887Y-114565058D01*
X153554013Y-114707191D01*
X153524000Y-114858078D01*
X153524000Y-115011922D01*
X153554013Y-115162809D01*
X153612887Y-115304942D01*
X153698358Y-115432859D01*
X153807141Y-115541642D01*
X153935058Y-115627113D01*
X154077191Y-115685987D01*
X154228078Y-115716000D01*
X154381922Y-115716000D01*
X154532809Y-115685987D01*
X154674942Y-115627113D01*
X154802859Y-115541642D01*
X154911642Y-115432859D01*
X154997113Y-115304942D01*
X155055987Y-115162809D01*
X155086000Y-115011922D01*
X155086000Y-114858078D01*
X155055987Y-114707191D01*
X154997113Y-114565058D01*
X154911642Y-114437141D01*
X154836000Y-114361499D01*
X154836000Y-110709946D01*
X155062029Y-110483918D01*
X155082289Y-110467291D01*
X155098916Y-110447031D01*
X155148645Y-110386437D01*
X155197952Y-110294189D01*
X155218958Y-110224942D01*
X155228316Y-110194095D01*
X155235999Y-110116085D01*
X155235999Y-110116076D01*
X155238567Y-110090002D01*
X155235999Y-110063928D01*
X155235999Y-108376070D01*
X155238567Y-108349998D01*
X155235999Y-108323926D01*
X155235999Y-108323915D01*
X155228316Y-108245905D01*
X155197952Y-108145811D01*
X155166592Y-108087141D01*
X155148645Y-108053563D01*
X155098916Y-107992969D01*
X155082289Y-107972709D01*
X155062029Y-107956082D01*
X152296000Y-105190054D01*
X152296000Y-102454947D01*
X152793918Y-101957030D01*
X152793927Y-101957019D01*
X153004947Y-101746000D01*
X153111922Y-101746000D01*
X153262809Y-101715987D01*
X153404942Y-101657113D01*
X153532859Y-101571642D01*
X153641642Y-101462859D01*
X153727113Y-101334942D01*
X153785987Y-101192809D01*
X153816000Y-101041922D01*
X153816000Y-100888078D01*
X153785987Y-100737191D01*
X153727113Y-100595058D01*
X153641642Y-100467141D01*
X153532859Y-100358358D01*
X153404942Y-100272887D01*
X153262809Y-100214013D01*
X153111922Y-100184000D01*
X152958078Y-100184000D01*
X152807191Y-100214013D01*
X152665058Y-100272887D01*
X152537141Y-100358358D01*
X152428358Y-100467141D01*
X152342887Y-100595058D01*
X152284013Y-100737191D01*
X152254000Y-100888078D01*
X152254000Y-100995053D01*
X152042981Y-101206073D01*
X152042970Y-101206082D01*
X151661000Y-101588053D01*
X151661000Y-98009946D01*
X153639947Y-96031000D01*
X153746922Y-96031000D01*
X153897809Y-96000987D01*
X154039942Y-95942113D01*
X154167859Y-95856642D01*
X154276642Y-95747859D01*
X154305000Y-95705418D01*
X154305000Y-105092500D01*
X154317201Y-105216382D01*
X154353336Y-105335504D01*
X154412017Y-105445287D01*
X154490987Y-105541513D01*
X157480000Y-108530526D01*
X157480000Y-116840000D01*
X157492201Y-116963882D01*
X157528336Y-117083004D01*
X157587017Y-117192787D01*
X157665987Y-117289013D01*
X164015987Y-123639013D01*
X164112213Y-123717983D01*
X164221996Y-123776664D01*
X164243616Y-123783222D01*
X164389394Y-123929000D01*
X164049947Y-123929000D01*
X162318921Y-122197975D01*
X162302290Y-122177710D01*
X162221435Y-122111354D01*
X162129188Y-122062047D01*
X162029094Y-122031683D01*
X161951084Y-122024000D01*
X161951074Y-122024000D01*
X161925000Y-122021432D01*
X161898926Y-122024000D01*
X159006748Y-122024000D01*
X159119942Y-121977113D01*
X159247859Y-121891642D01*
X159356642Y-121782859D01*
X159442113Y-121654942D01*
X159500987Y-121512809D01*
X159531000Y-121361922D01*
X159531000Y-121208078D01*
X159500987Y-121057191D01*
X159442113Y-120915058D01*
X159356642Y-120787141D01*
X159247859Y-120678358D01*
X159119942Y-120592887D01*
X158977809Y-120534013D01*
X158826922Y-120504000D01*
X158719947Y-120504000D01*
X158011000Y-119795054D01*
X158011000Y-119318501D01*
X158086642Y-119242859D01*
X158172113Y-119114942D01*
X158230987Y-118972809D01*
X158261000Y-118821922D01*
X158261000Y-118668078D01*
X158230987Y-118517191D01*
X158172113Y-118375058D01*
X158086642Y-118247141D01*
X157977859Y-118138358D01*
X157849942Y-118052887D01*
X157707809Y-117994013D01*
X157556922Y-117964000D01*
X157403078Y-117964000D01*
X157252191Y-117994013D01*
X157110058Y-118052887D01*
X156982141Y-118138358D01*
X156873358Y-118247141D01*
X156787887Y-118375058D01*
X156729013Y-118517191D01*
X156699000Y-118668078D01*
X156699000Y-118821922D01*
X156729013Y-118972809D01*
X156787887Y-119114942D01*
X156873358Y-119242859D01*
X156949001Y-119318502D01*
X156949000Y-119988926D01*
X156946432Y-120015000D01*
X156949000Y-120041074D01*
X156949000Y-120041083D01*
X156956683Y-120119093D01*
X156987047Y-120219187D01*
X157036354Y-120311435D01*
X157102710Y-120392290D01*
X157122975Y-120408921D01*
X157969000Y-121254947D01*
X157969000Y-121361922D01*
X157999013Y-121512809D01*
X158057887Y-121654942D01*
X158143358Y-121782859D01*
X158252141Y-121891642D01*
X158380058Y-121977113D01*
X158493252Y-122024000D01*
X158334947Y-122024000D01*
X156487000Y-120176054D01*
X156487000Y-114873501D01*
X156562642Y-114797859D01*
X156648113Y-114669942D01*
X156706987Y-114527809D01*
X156737000Y-114376922D01*
X156737000Y-114223078D01*
X156706987Y-114072191D01*
X156648113Y-113930058D01*
X156562642Y-113802141D01*
X156453859Y-113693358D01*
X156325942Y-113607887D01*
X156183809Y-113549013D01*
X156032922Y-113519000D01*
X155879078Y-113519000D01*
X155728191Y-113549013D01*
X155586058Y-113607887D01*
X155458141Y-113693358D01*
X155349358Y-113802141D01*
X155263887Y-113930058D01*
X155205013Y-114072191D01*
X155175000Y-114223078D01*
X155175000Y-114376922D01*
X155205013Y-114527809D01*
X155263887Y-114669942D01*
X155349358Y-114797859D01*
X155425001Y-114873502D01*
X155425000Y-120369926D01*
X155422432Y-120396000D01*
X155425000Y-120422074D01*
X155425000Y-120422083D01*
X155432683Y-120500093D01*
X155463047Y-120600187D01*
X155512354Y-120692435D01*
X155578710Y-120773290D01*
X155598975Y-120789921D01*
X157721082Y-122912029D01*
X157737710Y-122932290D01*
X157757970Y-122948917D01*
X157818564Y-122998646D01*
X157885909Y-123034642D01*
X157910812Y-123047953D01*
X158010906Y-123078317D01*
X158088916Y-123086000D01*
X158088925Y-123086000D01*
X158114999Y-123088568D01*
X158141073Y-123086000D01*
X161705054Y-123086000D01*
X163436082Y-124817029D01*
X163452710Y-124837290D01*
X163472970Y-124853917D01*
X163533564Y-124903646D01*
X163610933Y-124945000D01*
X163625812Y-124952953D01*
X163725906Y-124983317D01*
X163803916Y-124991000D01*
X163803926Y-124991000D01*
X163830000Y-124993568D01*
X163856074Y-124991000D01*
X166785054Y-124991000D01*
X167627082Y-125833029D01*
X167643710Y-125853290D01*
X167663970Y-125869917D01*
X167724564Y-125919646D01*
X167816812Y-125968953D01*
X167916906Y-125999317D01*
X167994916Y-126007000D01*
X167994926Y-126007000D01*
X168021000Y-126009568D01*
X168047074Y-126007000D01*
X169540387Y-126007000D01*
X169427157Y-126082658D01*
X169262658Y-126247157D01*
X169133412Y-126440587D01*
X169044386Y-126655515D01*
X168999000Y-126883682D01*
X168999000Y-127116318D01*
X169044386Y-127344485D01*
X169133412Y-127559413D01*
X169262658Y-127752843D01*
X169427157Y-127917342D01*
X169620587Y-128046588D01*
X169835515Y-128135614D01*
X170063682Y-128181000D01*
X170296318Y-128181000D01*
X170524485Y-128135614D01*
X170739413Y-128046588D01*
X170932843Y-127917342D01*
X171097342Y-127752843D01*
X171226588Y-127559413D01*
X171315614Y-127344485D01*
X171361000Y-127116318D01*
X171361000Y-126883682D01*
X171315614Y-126655515D01*
X171226588Y-126440587D01*
X171097342Y-126247157D01*
X170932843Y-126082658D01*
X170819613Y-126007000D01*
X172080387Y-126007000D01*
X171967157Y-126082658D01*
X171802658Y-126247157D01*
X171673412Y-126440587D01*
X171584386Y-126655515D01*
X171539000Y-126883682D01*
X171539000Y-127116318D01*
X171584386Y-127344485D01*
X171673412Y-127559413D01*
X171802658Y-127752843D01*
X171967157Y-127917342D01*
X172160587Y-128046588D01*
X172375515Y-128135614D01*
X172603682Y-128181000D01*
X172836318Y-128181000D01*
X173064485Y-128135614D01*
X173279413Y-128046588D01*
X173472843Y-127917342D01*
X173637342Y-127752843D01*
X173766588Y-127559413D01*
X173855614Y-127344485D01*
X173901000Y-127116318D01*
X173901000Y-126883682D01*
X173855614Y-126655515D01*
X173766588Y-126440587D01*
X173637342Y-126247157D01*
X173472843Y-126082658D01*
X173359613Y-126007000D01*
X174620387Y-126007000D01*
X174507157Y-126082658D01*
X174342658Y-126247157D01*
X174213412Y-126440587D01*
X174124386Y-126655515D01*
X174079000Y-126883682D01*
X174079000Y-127116318D01*
X174124386Y-127344485D01*
X174213412Y-127559413D01*
X174342658Y-127752843D01*
X174507157Y-127917342D01*
X174700587Y-128046588D01*
X174915515Y-128135614D01*
X175143682Y-128181000D01*
X175376318Y-128181000D01*
X175604485Y-128135614D01*
X175819413Y-128046588D01*
X176012843Y-127917342D01*
X176177342Y-127752843D01*
X176306588Y-127559413D01*
X176395614Y-127344485D01*
X176441000Y-127116318D01*
X176441000Y-126883682D01*
X176395614Y-126655515D01*
X176306588Y-126440587D01*
X176177342Y-126247157D01*
X176012843Y-126082658D01*
X175899613Y-126007000D01*
X177160387Y-126007000D01*
X177047157Y-126082658D01*
X176882658Y-126247157D01*
X176753412Y-126440587D01*
X176664386Y-126655515D01*
X176619000Y-126883682D01*
X176619000Y-127116318D01*
X176664386Y-127344485D01*
X176753412Y-127559413D01*
X176882658Y-127752843D01*
X177047157Y-127917342D01*
X177240587Y-128046588D01*
X177455515Y-128135614D01*
X177683682Y-128181000D01*
X177916318Y-128181000D01*
X178144485Y-128135614D01*
X178359413Y-128046588D01*
X178552843Y-127917342D01*
X178717342Y-127752843D01*
X178846588Y-127559413D01*
X178935614Y-127344485D01*
X178981000Y-127116318D01*
X178981000Y-126883682D01*
X178935614Y-126655515D01*
X178846588Y-126440587D01*
X178717342Y-126247157D01*
X178552843Y-126082658D01*
X178439613Y-126007000D01*
X178596054Y-126007000D01*
X179216155Y-126627102D01*
X179204386Y-126655515D01*
X179159000Y-126883682D01*
X179159000Y-127116318D01*
X179204386Y-127344485D01*
X179293412Y-127559413D01*
X179422658Y-127752843D01*
X179587157Y-127917342D01*
X179780587Y-128046588D01*
X179995515Y-128135614D01*
X180223682Y-128181000D01*
X180456318Y-128181000D01*
X180684485Y-128135614D01*
X180899413Y-128046588D01*
X181092843Y-127917342D01*
X181257342Y-127752843D01*
X181386588Y-127559413D01*
X181475614Y-127344485D01*
X181521000Y-127116318D01*
X181521000Y-126883682D01*
X181475614Y-126655515D01*
X181386588Y-126440587D01*
X181257342Y-126247157D01*
X181092843Y-126082658D01*
X180899413Y-125953412D01*
X180684485Y-125864386D01*
X180456318Y-125819000D01*
X180223682Y-125819000D01*
X179995515Y-125864386D01*
X179967102Y-125876155D01*
X179209921Y-125118975D01*
X179193290Y-125098710D01*
X179112435Y-125032354D01*
X179035067Y-124991000D01*
X180120054Y-124991000D01*
X181756155Y-126627102D01*
X181744386Y-126655515D01*
X181699000Y-126883682D01*
X181699000Y-127116318D01*
X181744386Y-127344485D01*
X181833412Y-127559413D01*
X181962658Y-127752843D01*
X182127157Y-127917342D01*
X182320587Y-128046588D01*
X182535515Y-128135614D01*
X182763682Y-128181000D01*
X182996318Y-128181000D01*
X183224485Y-128135614D01*
X183439413Y-128046588D01*
X183632843Y-127917342D01*
X183797342Y-127752843D01*
X183926588Y-127559413D01*
X184015614Y-127344485D01*
X184061000Y-127116318D01*
X184061000Y-126883682D01*
X184239000Y-126883682D01*
X184239000Y-127116318D01*
X184284386Y-127344485D01*
X184373412Y-127559413D01*
X184502658Y-127752843D01*
X184667157Y-127917342D01*
X184860587Y-128046588D01*
X185075515Y-128135614D01*
X185303682Y-128181000D01*
X185536318Y-128181000D01*
X185764485Y-128135614D01*
X185979413Y-128046588D01*
X186172843Y-127917342D01*
X186337342Y-127752843D01*
X186466588Y-127559413D01*
X186555614Y-127344485D01*
X186601000Y-127116318D01*
X186601000Y-126883682D01*
X186779000Y-126883682D01*
X186779000Y-127116318D01*
X186824386Y-127344485D01*
X186913412Y-127559413D01*
X187042658Y-127752843D01*
X187207157Y-127917342D01*
X187400587Y-128046588D01*
X187615515Y-128135614D01*
X187843682Y-128181000D01*
X188076318Y-128181000D01*
X188304485Y-128135614D01*
X188519413Y-128046588D01*
X188712843Y-127917342D01*
X188877342Y-127752843D01*
X189006588Y-127559413D01*
X189095614Y-127344485D01*
X189141000Y-127116318D01*
X189141000Y-126883682D01*
X189095614Y-126655515D01*
X189006588Y-126440587D01*
X188877342Y-126247157D01*
X188712843Y-126082658D01*
X188519413Y-125953412D01*
X188304485Y-125864386D01*
X188076318Y-125819000D01*
X187843682Y-125819000D01*
X187615515Y-125864386D01*
X187400587Y-125953412D01*
X187207157Y-126082658D01*
X187042658Y-126247157D01*
X186913412Y-126440587D01*
X186824386Y-126655515D01*
X186779000Y-126883682D01*
X186601000Y-126883682D01*
X186555614Y-126655515D01*
X186466588Y-126440587D01*
X186337342Y-126247157D01*
X186172843Y-126082658D01*
X185979413Y-125953412D01*
X185764485Y-125864386D01*
X185536318Y-125819000D01*
X185303682Y-125819000D01*
X185075515Y-125864386D01*
X184860587Y-125953412D01*
X184667157Y-126082658D01*
X184502658Y-126247157D01*
X184373412Y-126440587D01*
X184284386Y-126655515D01*
X184239000Y-126883682D01*
X184061000Y-126883682D01*
X184015614Y-126655515D01*
X183926588Y-126440587D01*
X183797342Y-126247157D01*
X183632843Y-126082658D01*
X183439413Y-125953412D01*
X183224485Y-125864386D01*
X182996318Y-125819000D01*
X182763682Y-125819000D01*
X182535515Y-125864386D01*
X182507102Y-125876155D01*
X180733921Y-124102975D01*
X180717290Y-124082710D01*
X180636435Y-124016354D01*
X180544188Y-123967047D01*
X180467000Y-123943632D01*
X180467000Y-120777000D01*
X190094001Y-120777000D01*
X190094000Y-128101829D01*
X189061831Y-129134000D01*
X136652000Y-129134000D01*
X136652000Y-126874817D01*
X138429000Y-126874817D01*
X138429000Y-127125183D01*
X138477844Y-127370737D01*
X138573654Y-127602044D01*
X138712750Y-127810215D01*
X138889785Y-127987250D01*
X139097956Y-128126346D01*
X139329263Y-128222156D01*
X139574817Y-128271000D01*
X139825183Y-128271000D01*
X140070737Y-128222156D01*
X140302044Y-128126346D01*
X140510215Y-127987250D01*
X140687250Y-127810215D01*
X140826346Y-127602044D01*
X140922156Y-127370737D01*
X140971000Y-127125183D01*
X140971000Y-126883682D01*
X142079000Y-126883682D01*
X142079000Y-127116318D01*
X142124386Y-127344485D01*
X142213412Y-127559413D01*
X142342658Y-127752843D01*
X142507157Y-127917342D01*
X142700587Y-128046588D01*
X142915515Y-128135614D01*
X143143682Y-128181000D01*
X143376318Y-128181000D01*
X143604485Y-128135614D01*
X143819413Y-128046588D01*
X144012843Y-127917342D01*
X144177342Y-127752843D01*
X144306588Y-127559413D01*
X144395614Y-127344485D01*
X144441000Y-127116318D01*
X144441000Y-126883682D01*
X144619000Y-126883682D01*
X144619000Y-127116318D01*
X144664386Y-127344485D01*
X144753412Y-127559413D01*
X144882658Y-127752843D01*
X145047157Y-127917342D01*
X145240587Y-128046588D01*
X145455515Y-128135614D01*
X145683682Y-128181000D01*
X145916318Y-128181000D01*
X146144485Y-128135614D01*
X146359413Y-128046588D01*
X146552843Y-127917342D01*
X146717342Y-127752843D01*
X146846588Y-127559413D01*
X146935614Y-127344485D01*
X146981000Y-127116318D01*
X146981000Y-126883682D01*
X147159000Y-126883682D01*
X147159000Y-127116318D01*
X147204386Y-127344485D01*
X147293412Y-127559413D01*
X147422658Y-127752843D01*
X147587157Y-127917342D01*
X147780587Y-128046588D01*
X147995515Y-128135614D01*
X148223682Y-128181000D01*
X148456318Y-128181000D01*
X148684485Y-128135614D01*
X148899413Y-128046588D01*
X149092843Y-127917342D01*
X149257342Y-127752843D01*
X149386588Y-127559413D01*
X149475614Y-127344485D01*
X149518875Y-127127002D01*
X149609375Y-127127002D01*
X149488091Y-127349040D01*
X149582930Y-127613881D01*
X149727615Y-127855131D01*
X149916586Y-128063519D01*
X150142580Y-128231037D01*
X150396913Y-128351246D01*
X150530961Y-128391904D01*
X150753000Y-128269915D01*
X150753000Y-127127000D01*
X150733000Y-127127000D01*
X150733000Y-126873000D01*
X150753000Y-126873000D01*
X150753000Y-125730085D01*
X151007000Y-125730085D01*
X151007000Y-126873000D01*
X151027000Y-126873000D01*
X151027000Y-127127000D01*
X151007000Y-127127000D01*
X151007000Y-128269915D01*
X151229039Y-128391904D01*
X151363087Y-128351246D01*
X151617420Y-128231037D01*
X151843414Y-128063519D01*
X152032385Y-127855131D01*
X152177070Y-127613881D01*
X152271909Y-127349040D01*
X152150625Y-127127002D01*
X152241125Y-127127002D01*
X152284386Y-127344485D01*
X152373412Y-127559413D01*
X152502658Y-127752843D01*
X152667157Y-127917342D01*
X152860587Y-128046588D01*
X153075515Y-128135614D01*
X153303682Y-128181000D01*
X153536318Y-128181000D01*
X153764485Y-128135614D01*
X153979413Y-128046588D01*
X154172843Y-127917342D01*
X154337342Y-127752843D01*
X154466588Y-127559413D01*
X154555614Y-127344485D01*
X154601000Y-127116318D01*
X154601000Y-126883682D01*
X154779000Y-126883682D01*
X154779000Y-127116318D01*
X154824386Y-127344485D01*
X154913412Y-127559413D01*
X155042658Y-127752843D01*
X155207157Y-127917342D01*
X155400587Y-128046588D01*
X155615515Y-128135614D01*
X155843682Y-128181000D01*
X156076318Y-128181000D01*
X156304485Y-128135614D01*
X156519413Y-128046588D01*
X156712843Y-127917342D01*
X156877342Y-127752843D01*
X157006588Y-127559413D01*
X157095614Y-127344485D01*
X157141000Y-127116318D01*
X157141000Y-126883682D01*
X157319000Y-126883682D01*
X157319000Y-127116318D01*
X157364386Y-127344485D01*
X157453412Y-127559413D01*
X157582658Y-127752843D01*
X157747157Y-127917342D01*
X157940587Y-128046588D01*
X158155515Y-128135614D01*
X158383682Y-128181000D01*
X158616318Y-128181000D01*
X158844485Y-128135614D01*
X159059413Y-128046588D01*
X159252843Y-127917342D01*
X159417342Y-127752843D01*
X159546588Y-127559413D01*
X159635614Y-127344485D01*
X159681000Y-127116318D01*
X159681000Y-126883682D01*
X159859000Y-126883682D01*
X159859000Y-127116318D01*
X159904386Y-127344485D01*
X159993412Y-127559413D01*
X160122658Y-127752843D01*
X160287157Y-127917342D01*
X160480587Y-128046588D01*
X160695515Y-128135614D01*
X160923682Y-128181000D01*
X161156318Y-128181000D01*
X161384485Y-128135614D01*
X161599413Y-128046588D01*
X161792843Y-127917342D01*
X161957342Y-127752843D01*
X162086588Y-127559413D01*
X162175614Y-127344485D01*
X162221000Y-127116318D01*
X162221000Y-126883682D01*
X162399000Y-126883682D01*
X162399000Y-127116318D01*
X162444386Y-127344485D01*
X162533412Y-127559413D01*
X162662658Y-127752843D01*
X162827157Y-127917342D01*
X163020587Y-128046588D01*
X163235515Y-128135614D01*
X163463682Y-128181000D01*
X163696318Y-128181000D01*
X163924485Y-128135614D01*
X164139413Y-128046588D01*
X164332843Y-127917342D01*
X164497342Y-127752843D01*
X164626588Y-127559413D01*
X164715614Y-127344485D01*
X164761000Y-127116318D01*
X164761000Y-126883682D01*
X164939000Y-126883682D01*
X164939000Y-127116318D01*
X164984386Y-127344485D01*
X165073412Y-127559413D01*
X165202658Y-127752843D01*
X165367157Y-127917342D01*
X165560587Y-128046588D01*
X165775515Y-128135614D01*
X166003682Y-128181000D01*
X166236318Y-128181000D01*
X166464485Y-128135614D01*
X166679413Y-128046588D01*
X166872843Y-127917342D01*
X167037342Y-127752843D01*
X167166588Y-127559413D01*
X167255614Y-127344485D01*
X167301000Y-127116318D01*
X167301000Y-126883682D01*
X167255614Y-126655515D01*
X167166588Y-126440587D01*
X167037342Y-126247157D01*
X166872843Y-126082658D01*
X166679413Y-125953412D01*
X166464485Y-125864386D01*
X166236318Y-125819000D01*
X166003682Y-125819000D01*
X165775515Y-125864386D01*
X165560587Y-125953412D01*
X165367157Y-126082658D01*
X165202658Y-126247157D01*
X165073412Y-126440587D01*
X164984386Y-126655515D01*
X164939000Y-126883682D01*
X164761000Y-126883682D01*
X164715614Y-126655515D01*
X164626588Y-126440587D01*
X164497342Y-126247157D01*
X164332843Y-126082658D01*
X164139413Y-125953412D01*
X163924485Y-125864386D01*
X163696318Y-125819000D01*
X163463682Y-125819000D01*
X163235515Y-125864386D01*
X163020587Y-125953412D01*
X162827157Y-126082658D01*
X162662658Y-126247157D01*
X162533412Y-126440587D01*
X162444386Y-126655515D01*
X162399000Y-126883682D01*
X162221000Y-126883682D01*
X162175614Y-126655515D01*
X162086588Y-126440587D01*
X161957342Y-126247157D01*
X161792843Y-126082658D01*
X161599413Y-125953412D01*
X161384485Y-125864386D01*
X161156318Y-125819000D01*
X160923682Y-125819000D01*
X160695515Y-125864386D01*
X160480587Y-125953412D01*
X160287157Y-126082658D01*
X160122658Y-126247157D01*
X159993412Y-126440587D01*
X159904386Y-126655515D01*
X159859000Y-126883682D01*
X159681000Y-126883682D01*
X159635614Y-126655515D01*
X159546588Y-126440587D01*
X159417342Y-126247157D01*
X159252843Y-126082658D01*
X159059413Y-125953412D01*
X158844485Y-125864386D01*
X158616318Y-125819000D01*
X158383682Y-125819000D01*
X158155515Y-125864386D01*
X157940587Y-125953412D01*
X157747157Y-126082658D01*
X157582658Y-126247157D01*
X157453412Y-126440587D01*
X157364386Y-126655515D01*
X157319000Y-126883682D01*
X157141000Y-126883682D01*
X157095614Y-126655515D01*
X157006588Y-126440587D01*
X156877342Y-126247157D01*
X156712843Y-126082658D01*
X156519413Y-125953412D01*
X156304485Y-125864386D01*
X156076318Y-125819000D01*
X155843682Y-125819000D01*
X155615515Y-125864386D01*
X155400587Y-125953412D01*
X155207157Y-126082658D01*
X155042658Y-126247157D01*
X154913412Y-126440587D01*
X154824386Y-126655515D01*
X154779000Y-126883682D01*
X154601000Y-126883682D01*
X154555614Y-126655515D01*
X154466588Y-126440587D01*
X154337342Y-126247157D01*
X154172843Y-126082658D01*
X153979413Y-125953412D01*
X153764485Y-125864386D01*
X153536318Y-125819000D01*
X153303682Y-125819000D01*
X153075515Y-125864386D01*
X152860587Y-125953412D01*
X152667157Y-126082658D01*
X152502658Y-126247157D01*
X152373412Y-126440587D01*
X152284386Y-126655515D01*
X152241125Y-126872998D01*
X152150625Y-126872998D01*
X152271909Y-126650960D01*
X152177070Y-126386119D01*
X152032385Y-126144869D01*
X151843414Y-125936481D01*
X151617420Y-125768963D01*
X151363087Y-125648754D01*
X151229039Y-125608096D01*
X151007000Y-125730085D01*
X150753000Y-125730085D01*
X150530961Y-125608096D01*
X150396913Y-125648754D01*
X150142580Y-125768963D01*
X149916586Y-125936481D01*
X149727615Y-126144869D01*
X149582930Y-126386119D01*
X149488091Y-126650960D01*
X149609375Y-126872998D01*
X149518875Y-126872998D01*
X149475614Y-126655515D01*
X149386588Y-126440587D01*
X149257342Y-126247157D01*
X149092843Y-126082658D01*
X148899413Y-125953412D01*
X148684485Y-125864386D01*
X148456318Y-125819000D01*
X148223682Y-125819000D01*
X147995515Y-125864386D01*
X147780587Y-125953412D01*
X147587157Y-126082658D01*
X147422658Y-126247157D01*
X147293412Y-126440587D01*
X147204386Y-126655515D01*
X147159000Y-126883682D01*
X146981000Y-126883682D01*
X146935614Y-126655515D01*
X146846588Y-126440587D01*
X146717342Y-126247157D01*
X146552843Y-126082658D01*
X146359413Y-125953412D01*
X146144485Y-125864386D01*
X145916318Y-125819000D01*
X145683682Y-125819000D01*
X145455515Y-125864386D01*
X145240587Y-125953412D01*
X145047157Y-126082658D01*
X144882658Y-126247157D01*
X144753412Y-126440587D01*
X144664386Y-126655515D01*
X144619000Y-126883682D01*
X144441000Y-126883682D01*
X144395614Y-126655515D01*
X144306588Y-126440587D01*
X144177342Y-126247157D01*
X144012843Y-126082658D01*
X143819413Y-125953412D01*
X143604485Y-125864386D01*
X143376318Y-125819000D01*
X143143682Y-125819000D01*
X142915515Y-125864386D01*
X142700587Y-125953412D01*
X142507157Y-126082658D01*
X142342658Y-126247157D01*
X142213412Y-126440587D01*
X142124386Y-126655515D01*
X142079000Y-126883682D01*
X140971000Y-126883682D01*
X140971000Y-126874817D01*
X140922156Y-126629263D01*
X140826346Y-126397956D01*
X140687250Y-126189785D01*
X140510215Y-126012750D01*
X140302044Y-125873654D01*
X140070737Y-125777844D01*
X139825183Y-125729000D01*
X139574817Y-125729000D01*
X139329263Y-125777844D01*
X139097956Y-125873654D01*
X138889785Y-126012750D01*
X138712750Y-126189785D01*
X138573654Y-126397956D01*
X138477844Y-126629263D01*
X138429000Y-126874817D01*
X136652000Y-126874817D01*
X136652000Y-78614817D01*
X137159000Y-78614817D01*
X137159000Y-78865183D01*
X137207844Y-79110737D01*
X137303654Y-79342044D01*
X137442750Y-79550215D01*
X137619785Y-79727250D01*
X137827956Y-79866346D01*
X138059263Y-79962156D01*
X138304817Y-80011000D01*
X138555183Y-80011000D01*
X138800737Y-79962156D01*
X139032044Y-79866346D01*
X139240215Y-79727250D01*
X139417250Y-79550215D01*
X139556346Y-79342044D01*
X139652156Y-79110737D01*
X139701000Y-78865183D01*
X139701000Y-78614817D01*
X139652156Y-78369263D01*
X139556346Y-78137956D01*
X139424076Y-77940000D01*
X151217157Y-77940000D01*
X151217157Y-79540000D01*
X151224513Y-79614689D01*
X151246299Y-79686508D01*
X151281678Y-79752696D01*
X151329289Y-79810711D01*
X151387304Y-79858322D01*
X151453492Y-79893701D01*
X151525311Y-79915487D01*
X151600000Y-79922843D01*
X153200000Y-79922843D01*
X153274689Y-79915487D01*
X153346508Y-79893701D01*
X153412696Y-79858322D01*
X153470711Y-79810711D01*
X153518322Y-79752696D01*
X153553701Y-79686508D01*
X153575487Y-79614689D01*
X153582843Y-79540000D01*
X153582843Y-78623682D01*
X153759000Y-78623682D01*
X153759000Y-78856318D01*
X153804386Y-79084485D01*
X153893412Y-79299413D01*
X154022658Y-79492843D01*
X154187157Y-79657342D01*
X154380587Y-79786588D01*
X154595515Y-79875614D01*
X154823682Y-79921000D01*
X155056318Y-79921000D01*
X155284485Y-79875614D01*
X155499413Y-79786588D01*
X155692843Y-79657342D01*
X155857342Y-79492843D01*
X155986588Y-79299413D01*
X156075614Y-79084485D01*
X156121000Y-78856318D01*
X156121000Y-78623682D01*
X156299000Y-78623682D01*
X156299000Y-78856318D01*
X156344386Y-79084485D01*
X156433412Y-79299413D01*
X156562658Y-79492843D01*
X156727157Y-79657342D01*
X156920587Y-79786588D01*
X157135515Y-79875614D01*
X157363682Y-79921000D01*
X157596318Y-79921000D01*
X157824485Y-79875614D01*
X158039413Y-79786588D01*
X158232843Y-79657342D01*
X158397342Y-79492843D01*
X158526588Y-79299413D01*
X158615614Y-79084485D01*
X158661000Y-78856318D01*
X158661000Y-78623682D01*
X158839000Y-78623682D01*
X158839000Y-78856318D01*
X158884386Y-79084485D01*
X158973412Y-79299413D01*
X159102658Y-79492843D01*
X159267157Y-79657342D01*
X159460587Y-79786588D01*
X159675515Y-79875614D01*
X159903682Y-79921000D01*
X160136318Y-79921000D01*
X160364485Y-79875614D01*
X160579413Y-79786588D01*
X160772843Y-79657342D01*
X160937342Y-79492843D01*
X161066588Y-79299413D01*
X161155614Y-79084485D01*
X161201000Y-78856318D01*
X161201000Y-78623682D01*
X161379000Y-78623682D01*
X161379000Y-78856318D01*
X161424386Y-79084485D01*
X161429000Y-79095624D01*
X161429000Y-79954450D01*
X161423529Y-80010000D01*
X161429000Y-80065550D01*
X161429000Y-80065558D01*
X161445365Y-80231715D01*
X161510037Y-80444909D01*
X161549932Y-80519547D01*
X161615058Y-80641389D01*
X161720977Y-80770452D01*
X161720980Y-80770455D01*
X161756394Y-80813607D01*
X161799546Y-80849021D01*
X162990979Y-82040455D01*
X163026393Y-82083607D01*
X163198610Y-82224942D01*
X163395091Y-82329963D01*
X163608285Y-82394635D01*
X163774442Y-82411000D01*
X163774451Y-82411000D01*
X163829999Y-82416471D01*
X163885547Y-82411000D01*
X179125558Y-82411000D01*
X179291715Y-82394635D01*
X179504909Y-82329963D01*
X179701390Y-82224942D01*
X179873607Y-82083607D01*
X180014942Y-81911390D01*
X180119963Y-81714909D01*
X180184635Y-81501715D01*
X180206472Y-81280000D01*
X180184635Y-81058285D01*
X180119963Y-80845091D01*
X180014942Y-80648610D01*
X179873607Y-80476393D01*
X179701390Y-80335058D01*
X179504909Y-80230037D01*
X179291715Y-80165365D01*
X179125558Y-80149000D01*
X167767002Y-80149000D01*
X167767002Y-80009916D01*
X167989039Y-80131904D01*
X168123087Y-80091246D01*
X168377420Y-79971037D01*
X168603414Y-79803519D01*
X168792385Y-79595131D01*
X168937070Y-79353881D01*
X169031909Y-79089040D01*
X168910625Y-78867002D01*
X169001125Y-78867002D01*
X169044386Y-79084485D01*
X169133412Y-79299413D01*
X169262658Y-79492843D01*
X169427157Y-79657342D01*
X169620587Y-79786588D01*
X169835515Y-79875614D01*
X170063682Y-79921000D01*
X170296318Y-79921000D01*
X170524485Y-79875614D01*
X170739413Y-79786588D01*
X170932843Y-79657342D01*
X171097342Y-79492843D01*
X171226588Y-79299413D01*
X171315614Y-79084485D01*
X171361000Y-78856318D01*
X171361000Y-78623682D01*
X174079000Y-78623682D01*
X174079000Y-78856318D01*
X174124386Y-79084485D01*
X174213412Y-79299413D01*
X174342658Y-79492843D01*
X174507157Y-79657342D01*
X174700587Y-79786588D01*
X174915515Y-79875614D01*
X175143682Y-79921000D01*
X175376318Y-79921000D01*
X175604485Y-79875614D01*
X175819413Y-79786588D01*
X176012843Y-79657342D01*
X176177342Y-79492843D01*
X176306588Y-79299413D01*
X176395614Y-79084485D01*
X176441000Y-78856318D01*
X176441000Y-78623682D01*
X176619000Y-78623682D01*
X176619000Y-78856318D01*
X176664386Y-79084485D01*
X176753412Y-79299413D01*
X176882658Y-79492843D01*
X177047157Y-79657342D01*
X177240587Y-79786588D01*
X177455515Y-79875614D01*
X177683682Y-79921000D01*
X177916318Y-79921000D01*
X178144485Y-79875614D01*
X178359413Y-79786588D01*
X178552843Y-79657342D01*
X178717342Y-79492843D01*
X178846588Y-79299413D01*
X178935614Y-79084485D01*
X178981000Y-78856318D01*
X178981000Y-78623682D01*
X179159000Y-78623682D01*
X179159000Y-78856318D01*
X179204386Y-79084485D01*
X179293412Y-79299413D01*
X179422658Y-79492843D01*
X179587157Y-79657342D01*
X179780587Y-79786588D01*
X179995515Y-79875614D01*
X180223682Y-79921000D01*
X180456318Y-79921000D01*
X180684485Y-79875614D01*
X180899413Y-79786588D01*
X181092843Y-79657342D01*
X181257342Y-79492843D01*
X181386588Y-79299413D01*
X181475614Y-79084485D01*
X181521000Y-78856318D01*
X181521000Y-78623682D01*
X181699000Y-78623682D01*
X181699000Y-78856318D01*
X181744386Y-79084485D01*
X181833412Y-79299413D01*
X181962658Y-79492843D01*
X182127157Y-79657342D01*
X182320587Y-79786588D01*
X182535515Y-79875614D01*
X182763682Y-79921000D01*
X182996318Y-79921000D01*
X183224485Y-79875614D01*
X183439413Y-79786588D01*
X183632843Y-79657342D01*
X183797342Y-79492843D01*
X183926588Y-79299413D01*
X184015614Y-79084485D01*
X184061000Y-78856318D01*
X184061000Y-78623682D01*
X184239000Y-78623682D01*
X184239000Y-78856318D01*
X184284386Y-79084485D01*
X184373412Y-79299413D01*
X184502658Y-79492843D01*
X184667157Y-79657342D01*
X184860587Y-79786588D01*
X185075515Y-79875614D01*
X185303682Y-79921000D01*
X185536318Y-79921000D01*
X185764485Y-79875614D01*
X185979413Y-79786588D01*
X186172843Y-79657342D01*
X186337342Y-79492843D01*
X186466588Y-79299413D01*
X186555614Y-79084485D01*
X186601000Y-78856318D01*
X186601000Y-78623682D01*
X186779000Y-78623682D01*
X186779000Y-78856318D01*
X186824386Y-79084485D01*
X186913412Y-79299413D01*
X187042658Y-79492843D01*
X187207157Y-79657342D01*
X187400587Y-79786588D01*
X187615515Y-79875614D01*
X187843682Y-79921000D01*
X188076318Y-79921000D01*
X188304485Y-79875614D01*
X188519413Y-79786588D01*
X188712843Y-79657342D01*
X188877342Y-79492843D01*
X189006588Y-79299413D01*
X189095614Y-79084485D01*
X189141000Y-78856318D01*
X189141000Y-78623682D01*
X189095614Y-78395515D01*
X189006588Y-78180587D01*
X188877342Y-77987157D01*
X188712843Y-77822658D01*
X188519413Y-77693412D01*
X188304485Y-77604386D01*
X188076318Y-77559000D01*
X187843682Y-77559000D01*
X187615515Y-77604386D01*
X187400587Y-77693412D01*
X187207157Y-77822658D01*
X187042658Y-77987157D01*
X186913412Y-78180587D01*
X186824386Y-78395515D01*
X186779000Y-78623682D01*
X186601000Y-78623682D01*
X186555614Y-78395515D01*
X186466588Y-78180587D01*
X186337342Y-77987157D01*
X186172843Y-77822658D01*
X185979413Y-77693412D01*
X185764485Y-77604386D01*
X185536318Y-77559000D01*
X185303682Y-77559000D01*
X185075515Y-77604386D01*
X184860587Y-77693412D01*
X184667157Y-77822658D01*
X184502658Y-77987157D01*
X184373412Y-78180587D01*
X184284386Y-78395515D01*
X184239000Y-78623682D01*
X184061000Y-78623682D01*
X184015614Y-78395515D01*
X183926588Y-78180587D01*
X183797342Y-77987157D01*
X183632843Y-77822658D01*
X183439413Y-77693412D01*
X183224485Y-77604386D01*
X182996318Y-77559000D01*
X182763682Y-77559000D01*
X182535515Y-77604386D01*
X182320587Y-77693412D01*
X182127157Y-77822658D01*
X181962658Y-77987157D01*
X181833412Y-78180587D01*
X181744386Y-78395515D01*
X181699000Y-78623682D01*
X181521000Y-78623682D01*
X181475614Y-78395515D01*
X181386588Y-78180587D01*
X181257342Y-77987157D01*
X181092843Y-77822658D01*
X180899413Y-77693412D01*
X180684485Y-77604386D01*
X180456318Y-77559000D01*
X180223682Y-77559000D01*
X179995515Y-77604386D01*
X179780587Y-77693412D01*
X179587157Y-77822658D01*
X179422658Y-77987157D01*
X179293412Y-78180587D01*
X179204386Y-78395515D01*
X179159000Y-78623682D01*
X178981000Y-78623682D01*
X178935614Y-78395515D01*
X178846588Y-78180587D01*
X178717342Y-77987157D01*
X178552843Y-77822658D01*
X178359413Y-77693412D01*
X178144485Y-77604386D01*
X177916318Y-77559000D01*
X177683682Y-77559000D01*
X177455515Y-77604386D01*
X177240587Y-77693412D01*
X177047157Y-77822658D01*
X176882658Y-77987157D01*
X176753412Y-78180587D01*
X176664386Y-78395515D01*
X176619000Y-78623682D01*
X176441000Y-78623682D01*
X176395614Y-78395515D01*
X176306588Y-78180587D01*
X176177342Y-77987157D01*
X176012843Y-77822658D01*
X175819413Y-77693412D01*
X175604485Y-77604386D01*
X175376318Y-77559000D01*
X175143682Y-77559000D01*
X174915515Y-77604386D01*
X174700587Y-77693412D01*
X174507157Y-77822658D01*
X174342658Y-77987157D01*
X174213412Y-78180587D01*
X174124386Y-78395515D01*
X174079000Y-78623682D01*
X171361000Y-78623682D01*
X171315614Y-78395515D01*
X171226588Y-78180587D01*
X171097342Y-77987157D01*
X170932843Y-77822658D01*
X170739413Y-77693412D01*
X170524485Y-77604386D01*
X170296318Y-77559000D01*
X170063682Y-77559000D01*
X169835515Y-77604386D01*
X169620587Y-77693412D01*
X169427157Y-77822658D01*
X169262658Y-77987157D01*
X169133412Y-78180587D01*
X169044386Y-78395515D01*
X169001125Y-78612998D01*
X168910625Y-78612998D01*
X169031909Y-78390960D01*
X168937070Y-78126119D01*
X168792385Y-77884869D01*
X168603414Y-77676481D01*
X168377420Y-77508963D01*
X168123087Y-77388754D01*
X167989039Y-77348096D01*
X167767000Y-77470085D01*
X167767000Y-78613000D01*
X167787000Y-78613000D01*
X167787000Y-78867000D01*
X167767000Y-78867000D01*
X167767000Y-78887000D01*
X167513000Y-78887000D01*
X167513000Y-78867000D01*
X165227000Y-78867000D01*
X165227000Y-78887000D01*
X164973000Y-78887000D01*
X164973000Y-78867000D01*
X164953000Y-78867000D01*
X164953000Y-78613000D01*
X164973000Y-78613000D01*
X164973000Y-77470085D01*
X165227000Y-77470085D01*
X165227000Y-78613000D01*
X167513000Y-78613000D01*
X167513000Y-77470085D01*
X167290961Y-77348096D01*
X167156913Y-77388754D01*
X166902580Y-77508963D01*
X166676586Y-77676481D01*
X166487615Y-77884869D01*
X166370000Y-78080982D01*
X166252385Y-77884869D01*
X166063414Y-77676481D01*
X165837420Y-77508963D01*
X165583087Y-77388754D01*
X165449039Y-77348096D01*
X165227000Y-77470085D01*
X164973000Y-77470085D01*
X164750961Y-77348096D01*
X164616913Y-77388754D01*
X164362580Y-77508963D01*
X164136586Y-77676481D01*
X163947615Y-77884869D01*
X163802930Y-78126119D01*
X163708091Y-78390960D01*
X163829375Y-78612998D01*
X163738875Y-78612998D01*
X163695614Y-78395515D01*
X163606588Y-78180587D01*
X163477342Y-77987157D01*
X163312843Y-77822658D01*
X163119413Y-77693412D01*
X162904485Y-77604386D01*
X162676318Y-77559000D01*
X162443682Y-77559000D01*
X162215515Y-77604386D01*
X162000587Y-77693412D01*
X161807157Y-77822658D01*
X161642658Y-77987157D01*
X161513412Y-78180587D01*
X161424386Y-78395515D01*
X161379000Y-78623682D01*
X161201000Y-78623682D01*
X161155614Y-78395515D01*
X161066588Y-78180587D01*
X160937342Y-77987157D01*
X160772843Y-77822658D01*
X160579413Y-77693412D01*
X160364485Y-77604386D01*
X160136318Y-77559000D01*
X159903682Y-77559000D01*
X159675515Y-77604386D01*
X159460587Y-77693412D01*
X159267157Y-77822658D01*
X159102658Y-77987157D01*
X158973412Y-78180587D01*
X158884386Y-78395515D01*
X158839000Y-78623682D01*
X158661000Y-78623682D01*
X158615614Y-78395515D01*
X158526588Y-78180587D01*
X158397342Y-77987157D01*
X158232843Y-77822658D01*
X158039413Y-77693412D01*
X157824485Y-77604386D01*
X157596318Y-77559000D01*
X157363682Y-77559000D01*
X157135515Y-77604386D01*
X156920587Y-77693412D01*
X156727157Y-77822658D01*
X156562658Y-77987157D01*
X156433412Y-78180587D01*
X156344386Y-78395515D01*
X156299000Y-78623682D01*
X156121000Y-78623682D01*
X156075614Y-78395515D01*
X155986588Y-78180587D01*
X155857342Y-77987157D01*
X155692843Y-77822658D01*
X155499413Y-77693412D01*
X155284485Y-77604386D01*
X155056318Y-77559000D01*
X154823682Y-77559000D01*
X154595515Y-77604386D01*
X154380587Y-77693412D01*
X154187157Y-77822658D01*
X154022658Y-77987157D01*
X153893412Y-78180587D01*
X153804386Y-78395515D01*
X153759000Y-78623682D01*
X153582843Y-78623682D01*
X153582843Y-77940000D01*
X153575487Y-77865311D01*
X153553701Y-77793492D01*
X153518322Y-77727304D01*
X153470711Y-77669289D01*
X153412696Y-77621678D01*
X153346508Y-77586299D01*
X153274689Y-77564513D01*
X153200000Y-77557157D01*
X151600000Y-77557157D01*
X151525311Y-77564513D01*
X151453492Y-77586299D01*
X151387304Y-77621678D01*
X151329289Y-77669289D01*
X151281678Y-77727304D01*
X151246299Y-77793492D01*
X151224513Y-77865311D01*
X151217157Y-77940000D01*
X139424076Y-77940000D01*
X139417250Y-77929785D01*
X139240215Y-77752750D01*
X139032044Y-77613654D01*
X138800737Y-77517844D01*
X138555183Y-77469000D01*
X138304817Y-77469000D01*
X138059263Y-77517844D01*
X137827956Y-77613654D01*
X137619785Y-77752750D01*
X137442750Y-77929785D01*
X137303654Y-78137956D01*
X137207844Y-78369263D01*
X137159000Y-78614817D01*
X136652000Y-78614817D01*
X136652000Y-76606000D01*
X190094001Y-76606000D01*
X190094000Y-78720067D01*
M02*
