G04 #@! TF.GenerationSoftware,KiCad,Pcbnew,(5.1.5)-2*
G04 #@! TF.CreationDate,2020-02-10T11:52:49+03:00*
G04 #@! TF.ProjectId,dccshield,64636373-6869-4656-9c64-2e6b69636164,rev?*
G04 #@! TF.SameCoordinates,Original*
G04 #@! TF.FileFunction,Legend,Top*
G04 #@! TF.FilePolarity,Positive*
%FSLAX46Y46*%
G04 Gerber Fmt 4.6, Leading zero omitted, Abs format (unit mm)*
G04 Created by KiCad (PCBNEW (5.1.5)-2) date 2020-02-10 11:52:49*
%MOMM*%
%LPD*%
G04 APERTURE LIST*
%ADD10C,0.120000*%
%ADD11C,0.150000*%
%ADD12C,0.500000*%
%ADD13C,0.100000*%
G04 APERTURE END LIST*
D10*
X150495000Y-123190000D02*
X150495000Y-118110000D01*
X165735000Y-123190000D02*
X150495000Y-123190000D01*
X165735000Y-118110000D02*
X165735000Y-123190000D01*
X150495000Y-118110000D02*
X165735000Y-118110000D01*
D11*
X151353095Y-120277380D02*
X151353095Y-119277380D01*
X151591190Y-119277380D01*
X151734047Y-119325000D01*
X151829285Y-119420238D01*
X151876904Y-119515476D01*
X151924523Y-119705952D01*
X151924523Y-119848809D01*
X151876904Y-120039285D01*
X151829285Y-120134523D01*
X151734047Y-120229761D01*
X151591190Y-120277380D01*
X151353095Y-120277380D01*
X152924523Y-120182142D02*
X152876904Y-120229761D01*
X152734047Y-120277380D01*
X152638809Y-120277380D01*
X152495952Y-120229761D01*
X152400714Y-120134523D01*
X152353095Y-120039285D01*
X152305476Y-119848809D01*
X152305476Y-119705952D01*
X152353095Y-119515476D01*
X152400714Y-119420238D01*
X152495952Y-119325000D01*
X152638809Y-119277380D01*
X152734047Y-119277380D01*
X152876904Y-119325000D01*
X152924523Y-119372619D01*
X153924523Y-120182142D02*
X153876904Y-120229761D01*
X153734047Y-120277380D01*
X153638809Y-120277380D01*
X153495952Y-120229761D01*
X153400714Y-120134523D01*
X153353095Y-120039285D01*
X153305476Y-119848809D01*
X153305476Y-119705952D01*
X153353095Y-119515476D01*
X153400714Y-119420238D01*
X153495952Y-119325000D01*
X153638809Y-119277380D01*
X153734047Y-119277380D01*
X153876904Y-119325000D01*
X153924523Y-119372619D01*
X154353095Y-119896428D02*
X155115000Y-119896428D01*
X154734047Y-120277380D02*
X154734047Y-119515476D01*
X155591190Y-119896428D02*
X156353095Y-119896428D01*
X155972142Y-120277380D02*
X155972142Y-119515476D01*
X157543571Y-120229761D02*
X157686428Y-120277380D01*
X157924523Y-120277380D01*
X158019761Y-120229761D01*
X158067380Y-120182142D01*
X158115000Y-120086904D01*
X158115000Y-119991666D01*
X158067380Y-119896428D01*
X158019761Y-119848809D01*
X157924523Y-119801190D01*
X157734047Y-119753571D01*
X157638809Y-119705952D01*
X157591190Y-119658333D01*
X157543571Y-119563095D01*
X157543571Y-119467857D01*
X157591190Y-119372619D01*
X157638809Y-119325000D01*
X157734047Y-119277380D01*
X157972142Y-119277380D01*
X158115000Y-119325000D01*
X158543571Y-120277380D02*
X158543571Y-119277380D01*
X158972142Y-120277380D02*
X158972142Y-119753571D01*
X158924523Y-119658333D01*
X158829285Y-119610714D01*
X158686428Y-119610714D01*
X158591190Y-119658333D01*
X158543571Y-119705952D01*
X159448333Y-120277380D02*
X159448333Y-119610714D01*
X159448333Y-119277380D02*
X159400714Y-119325000D01*
X159448333Y-119372619D01*
X159495952Y-119325000D01*
X159448333Y-119277380D01*
X159448333Y-119372619D01*
X160305476Y-120229761D02*
X160210238Y-120277380D01*
X160019761Y-120277380D01*
X159924523Y-120229761D01*
X159876904Y-120134523D01*
X159876904Y-119753571D01*
X159924523Y-119658333D01*
X160019761Y-119610714D01*
X160210238Y-119610714D01*
X160305476Y-119658333D01*
X160353095Y-119753571D01*
X160353095Y-119848809D01*
X159876904Y-119944047D01*
X160924523Y-120277380D02*
X160829285Y-120229761D01*
X160781666Y-120134523D01*
X160781666Y-119277380D01*
X161734047Y-120277380D02*
X161734047Y-119277380D01*
X161734047Y-120229761D02*
X161638809Y-120277380D01*
X161448333Y-120277380D01*
X161353095Y-120229761D01*
X161305476Y-120182142D01*
X161257857Y-120086904D01*
X161257857Y-119801190D01*
X161305476Y-119705952D01*
X161353095Y-119658333D01*
X161448333Y-119610714D01*
X161638809Y-119610714D01*
X161734047Y-119658333D01*
X163495952Y-120277380D02*
X162924523Y-120277380D01*
X163210238Y-120277380D02*
X163210238Y-119277380D01*
X163115000Y-119420238D01*
X163019761Y-119515476D01*
X162924523Y-119563095D01*
X163924523Y-120182142D02*
X163972142Y-120229761D01*
X163924523Y-120277380D01*
X163876904Y-120229761D01*
X163924523Y-120182142D01*
X163924523Y-120277380D01*
X164591190Y-119277380D02*
X164686428Y-119277380D01*
X164781666Y-119325000D01*
X164829285Y-119372619D01*
X164876904Y-119467857D01*
X164924523Y-119658333D01*
X164924523Y-119896428D01*
X164876904Y-120086904D01*
X164829285Y-120182142D01*
X164781666Y-120229761D01*
X164686428Y-120277380D01*
X164591190Y-120277380D01*
X164495952Y-120229761D01*
X164448333Y-120182142D01*
X164400714Y-120086904D01*
X164353095Y-119896428D01*
X164353095Y-119658333D01*
X164400714Y-119467857D01*
X164448333Y-119372619D01*
X164495952Y-119325000D01*
X164591190Y-119277380D01*
X152900714Y-122308333D02*
X152853095Y-122260714D01*
X152757857Y-122117857D01*
X152710238Y-122022619D01*
X152662619Y-121879761D01*
X152615000Y-121641666D01*
X152615000Y-121451190D01*
X152662619Y-121213095D01*
X152710238Y-121070238D01*
X152757857Y-120975000D01*
X152853095Y-120832142D01*
X152900714Y-120784523D01*
X153710238Y-121879761D02*
X153615000Y-121927380D01*
X153424523Y-121927380D01*
X153329285Y-121879761D01*
X153281666Y-121832142D01*
X153234047Y-121736904D01*
X153234047Y-121451190D01*
X153281666Y-121355952D01*
X153329285Y-121308333D01*
X153424523Y-121260714D01*
X153615000Y-121260714D01*
X153710238Y-121308333D01*
X154043571Y-122308333D02*
X154091190Y-122260714D01*
X154186428Y-122117857D01*
X154234047Y-122022619D01*
X154281666Y-121879761D01*
X154329285Y-121641666D01*
X154329285Y-121451190D01*
X154281666Y-121213095D01*
X154234047Y-121070238D01*
X154186428Y-120975000D01*
X154091190Y-120832142D01*
X154043571Y-120784523D01*
X155519761Y-121022619D02*
X155567380Y-120975000D01*
X155662619Y-120927380D01*
X155900714Y-120927380D01*
X155995952Y-120975000D01*
X156043571Y-121022619D01*
X156091190Y-121117857D01*
X156091190Y-121213095D01*
X156043571Y-121355952D01*
X155472142Y-121927380D01*
X156091190Y-121927380D01*
X156710238Y-120927380D02*
X156805476Y-120927380D01*
X156900714Y-120975000D01*
X156948333Y-121022619D01*
X156995952Y-121117857D01*
X157043571Y-121308333D01*
X157043571Y-121546428D01*
X156995952Y-121736904D01*
X156948333Y-121832142D01*
X156900714Y-121879761D01*
X156805476Y-121927380D01*
X156710238Y-121927380D01*
X156615000Y-121879761D01*
X156567380Y-121832142D01*
X156519761Y-121736904D01*
X156472142Y-121546428D01*
X156472142Y-121308333D01*
X156519761Y-121117857D01*
X156567380Y-121022619D01*
X156615000Y-120975000D01*
X156710238Y-120927380D01*
X157424523Y-121022619D02*
X157472142Y-120975000D01*
X157567380Y-120927380D01*
X157805476Y-120927380D01*
X157900714Y-120975000D01*
X157948333Y-121022619D01*
X157995952Y-121117857D01*
X157995952Y-121213095D01*
X157948333Y-121355952D01*
X157376904Y-121927380D01*
X157995952Y-121927380D01*
X158615000Y-120927380D02*
X158710238Y-120927380D01*
X158805476Y-120975000D01*
X158853095Y-121022619D01*
X158900714Y-121117857D01*
X158948333Y-121308333D01*
X158948333Y-121546428D01*
X158900714Y-121736904D01*
X158853095Y-121832142D01*
X158805476Y-121879761D01*
X158710238Y-121927380D01*
X158615000Y-121927380D01*
X158519761Y-121879761D01*
X158472142Y-121832142D01*
X158424523Y-121736904D01*
X158376904Y-121546428D01*
X158376904Y-121308333D01*
X158424523Y-121117857D01*
X158472142Y-121022619D01*
X158519761Y-120975000D01*
X158615000Y-120927380D01*
X159995952Y-121260714D02*
X160376904Y-121260714D01*
X160138809Y-120927380D02*
X160138809Y-121784523D01*
X160186428Y-121879761D01*
X160281666Y-121927380D01*
X160376904Y-121927380D01*
X160710238Y-121260714D02*
X160710238Y-121927380D01*
X160710238Y-121355952D02*
X160757857Y-121308333D01*
X160853095Y-121260714D01*
X160995952Y-121260714D01*
X161091190Y-121308333D01*
X161138809Y-121403571D01*
X161138809Y-121927380D01*
X161472142Y-121260714D02*
X161853095Y-121260714D01*
X161615000Y-120927380D02*
X161615000Y-121784523D01*
X161662619Y-121879761D01*
X161757857Y-121927380D01*
X161853095Y-121927380D01*
X162138809Y-121022619D02*
X162186428Y-120975000D01*
X162281666Y-120927380D01*
X162519761Y-120927380D01*
X162615000Y-120975000D01*
X162662619Y-121022619D01*
X162710238Y-121117857D01*
X162710238Y-121213095D01*
X162662619Y-121355952D01*
X162091190Y-121927380D01*
X162710238Y-121927380D01*
X163043571Y-120927380D02*
X163662619Y-120927380D01*
X163329285Y-121308333D01*
X163472142Y-121308333D01*
X163567380Y-121355952D01*
X163615000Y-121403571D01*
X163662619Y-121498809D01*
X163662619Y-121736904D01*
X163615000Y-121832142D01*
X163567380Y-121879761D01*
X163472142Y-121927380D01*
X163186428Y-121927380D01*
X163091190Y-121879761D01*
X163043571Y-121832142D01*
D10*
X191770000Y-118110000D02*
X191770000Y-115570000D01*
X189865000Y-118110000D02*
X191770000Y-118110000D01*
X191770000Y-110490000D02*
X191770000Y-112395000D01*
X189865000Y-110490000D02*
X191770000Y-110490000D01*
D12*
X190611190Y-115204761D02*
X190611190Y-113204761D01*
X191373095Y-113204761D01*
X191563571Y-113300000D01*
X191658809Y-113395238D01*
X191754047Y-113585714D01*
X191754047Y-113871428D01*
X191658809Y-114061904D01*
X191563571Y-114157142D01*
X191373095Y-114252380D01*
X190611190Y-114252380D01*
D10*
X191770000Y-108585000D02*
X189865000Y-108585000D01*
X191770000Y-106045000D02*
X191770000Y-108585000D01*
X191770000Y-99695000D02*
X189865000Y-99695000D01*
X191770000Y-102235000D02*
X191770000Y-99695000D01*
D12*
X190468333Y-105044761D02*
X190468333Y-103044761D01*
X191135000Y-104473333D01*
X191801666Y-103044761D01*
X191801666Y-105044761D01*
X190373095Y-96662857D02*
X191896904Y-96662857D01*
X190373095Y-91582857D02*
X191896904Y-91582857D01*
X191135000Y-92344761D02*
X191135000Y-90820952D01*
D10*
X139065000Y-85725000D02*
X139065000Y-98425000D01*
X139065000Y-92075000D02*
X153035000Y-92075000D01*
X147955000Y-83185000D02*
X147955000Y-98425000D01*
X139065000Y-85725000D02*
X153035000Y-85725000D01*
X142875000Y-98425000D02*
X142875000Y-83185000D01*
X153035000Y-98425000D02*
X139065000Y-98425000D01*
X153035000Y-83185000D02*
X153035000Y-98425000D01*
X142875000Y-83185000D02*
X153035000Y-83185000D01*
X149860000Y-90805000D02*
X151130000Y-90805000D01*
X151130000Y-90805000D02*
X151130000Y-89535000D01*
X149860000Y-89535000D02*
X149860000Y-90805000D01*
D13*
G36*
X151130000Y-89535000D02*
G01*
X149860000Y-89535000D01*
X149860000Y-86995000D01*
X151130000Y-86995000D01*
X151130000Y-89535000D01*
G37*
X151130000Y-89535000D02*
X149860000Y-89535000D01*
X149860000Y-86995000D01*
X151130000Y-86995000D01*
X151130000Y-89535000D01*
X150328333Y-90015238D02*
X150328333Y-90396190D01*
X150352142Y-90396190D02*
X150352142Y-90015238D01*
X150375952Y-90015238D02*
X150375952Y-90396190D01*
X150399761Y-90396190D02*
X150399761Y-90015238D01*
X150423571Y-90015238D02*
X150423571Y-90396190D01*
X150447380Y-90396190D02*
X150447380Y-90015238D01*
X150471190Y-90015238D02*
X150471190Y-90396190D01*
X150495000Y-90396190D02*
X150495000Y-90015238D01*
X150518809Y-90015238D02*
X150518809Y-90396190D01*
X150542619Y-90396190D02*
X150542619Y-90015238D01*
X150566428Y-90015238D02*
X150566428Y-90396190D01*
X150590238Y-90396190D02*
X150590238Y-90015238D01*
X150614047Y-90015238D02*
X150614047Y-90396190D01*
X150637857Y-90396190D02*
X150637857Y-90015238D01*
X150661666Y-90015238D02*
X150661666Y-90396190D01*
X150304523Y-90015238D02*
X150685476Y-90015238D01*
X150685476Y-90396190D01*
X150304523Y-90396190D01*
X150304523Y-90015238D01*
G36*
X151130000Y-97155000D02*
G01*
X149860000Y-97155000D01*
X149860000Y-94615000D01*
X151130000Y-94615000D01*
X151130000Y-97155000D01*
G37*
X151130000Y-97155000D02*
X149860000Y-97155000D01*
X149860000Y-94615000D01*
X151130000Y-94615000D01*
X151130000Y-97155000D01*
D10*
X149860000Y-93345000D02*
X149860000Y-94615000D01*
D13*
X150328333Y-93825238D02*
X150328333Y-94206190D01*
X150352142Y-94206190D02*
X150352142Y-93825238D01*
X150375952Y-93825238D02*
X150375952Y-94206190D01*
X150399761Y-94206190D02*
X150399761Y-93825238D01*
X150423571Y-93825238D02*
X150423571Y-94206190D01*
X150447380Y-94206190D02*
X150447380Y-93825238D01*
X150471190Y-93825238D02*
X150471190Y-94206190D01*
X150495000Y-94206190D02*
X150495000Y-93825238D01*
X150518809Y-93825238D02*
X150518809Y-94206190D01*
X150542619Y-94206190D02*
X150542619Y-93825238D01*
X150566428Y-93825238D02*
X150566428Y-94206190D01*
X150590238Y-94206190D02*
X150590238Y-93825238D01*
X150614047Y-93825238D02*
X150614047Y-94206190D01*
X150637857Y-94206190D02*
X150637857Y-93825238D01*
X150661666Y-93825238D02*
X150661666Y-94206190D01*
X150304523Y-93825238D02*
X150685476Y-93825238D01*
X150685476Y-94206190D01*
X150304523Y-94206190D01*
X150304523Y-93825238D01*
D10*
X151130000Y-93345000D02*
X149860000Y-93345000D01*
X151130000Y-94615000D02*
X151130000Y-93345000D01*
D13*
X145248333Y-95730238D02*
X145248333Y-96111190D01*
X145272142Y-96111190D02*
X145272142Y-95730238D01*
X145295952Y-95730238D02*
X145295952Y-96111190D01*
X145319761Y-96111190D02*
X145319761Y-95730238D01*
X145343571Y-95730238D02*
X145343571Y-96111190D01*
X145367380Y-96111190D02*
X145367380Y-95730238D01*
X145391190Y-95730238D02*
X145391190Y-96111190D01*
X145415000Y-96111190D02*
X145415000Y-95730238D01*
X145438809Y-95730238D02*
X145438809Y-96111190D01*
X145462619Y-96111190D02*
X145462619Y-95730238D01*
X145486428Y-95730238D02*
X145486428Y-96111190D01*
X145510238Y-96111190D02*
X145510238Y-95730238D01*
X145534047Y-95730238D02*
X145534047Y-96111190D01*
X145557857Y-96111190D02*
X145557857Y-95730238D01*
X145581666Y-95730238D02*
X145581666Y-96111190D01*
X145224523Y-95730238D02*
X145605476Y-95730238D01*
X145605476Y-96111190D01*
X145224523Y-96111190D01*
X145224523Y-95730238D01*
X145248333Y-87475238D02*
X145248333Y-87856190D01*
X145272142Y-87856190D02*
X145272142Y-87475238D01*
X145295952Y-87475238D02*
X145295952Y-87856190D01*
X145319761Y-87856190D02*
X145319761Y-87475238D01*
X145343571Y-87475238D02*
X145343571Y-87856190D01*
X145367380Y-87856190D02*
X145367380Y-87475238D01*
X145391190Y-87475238D02*
X145391190Y-87856190D01*
X145415000Y-87856190D02*
X145415000Y-87475238D01*
X145438809Y-87475238D02*
X145438809Y-87856190D01*
X145462619Y-87856190D02*
X145462619Y-87475238D01*
X145486428Y-87475238D02*
X145486428Y-87856190D01*
X145510238Y-87856190D02*
X145510238Y-87475238D01*
X145534047Y-87475238D02*
X145534047Y-87856190D01*
X145557857Y-87856190D02*
X145557857Y-87475238D01*
X145581666Y-87475238D02*
X145581666Y-87856190D01*
X145224523Y-87475238D02*
X145605476Y-87475238D01*
X145605476Y-87856190D01*
X145224523Y-87856190D01*
X145224523Y-87475238D01*
G36*
X146050000Y-95250000D02*
G01*
X144780000Y-95250000D01*
X144780000Y-92710000D01*
X146050000Y-92710000D01*
X146050000Y-95250000D01*
G37*
X146050000Y-95250000D02*
X144780000Y-95250000D01*
X144780000Y-92710000D01*
X146050000Y-92710000D01*
X146050000Y-95250000D01*
D10*
X146050000Y-96520000D02*
X146050000Y-95250000D01*
X144780000Y-96520000D02*
X146050000Y-96520000D01*
X144780000Y-95250000D02*
X144780000Y-96520000D01*
X144780000Y-86995000D02*
X144780000Y-88265000D01*
X146050000Y-86995000D02*
X144780000Y-86995000D01*
X146050000Y-88265000D02*
X146050000Y-86995000D01*
D13*
G36*
X146050000Y-90805000D02*
G01*
X144780000Y-90805000D01*
X144780000Y-88265000D01*
X146050000Y-88265000D01*
X146050000Y-90805000D01*
G37*
X146050000Y-90805000D02*
X144780000Y-90805000D01*
X144780000Y-88265000D01*
X146050000Y-88265000D01*
X146050000Y-90805000D01*
D11*
X140136666Y-94067380D02*
X140136666Y-94781666D01*
X140089047Y-94924523D01*
X139993809Y-95019761D01*
X139850952Y-95067380D01*
X139755714Y-95067380D01*
X140612857Y-95067380D02*
X140612857Y-94067380D01*
X140993809Y-94067380D01*
X141089047Y-94115000D01*
X141136666Y-94162619D01*
X141184285Y-94257857D01*
X141184285Y-94400714D01*
X141136666Y-94495952D01*
X141089047Y-94543571D01*
X140993809Y-94591190D01*
X140612857Y-94591190D01*
X141565238Y-94162619D02*
X141612857Y-94115000D01*
X141708095Y-94067380D01*
X141946190Y-94067380D01*
X142041428Y-94115000D01*
X142089047Y-94162619D01*
X142136666Y-94257857D01*
X142136666Y-94353095D01*
X142089047Y-94495952D01*
X141517619Y-95067380D01*
X142136666Y-95067380D01*
X140136666Y-88352380D02*
X140136666Y-89066666D01*
X140089047Y-89209523D01*
X139993809Y-89304761D01*
X139850952Y-89352380D01*
X139755714Y-89352380D01*
X140612857Y-89352380D02*
X140612857Y-88352380D01*
X140993809Y-88352380D01*
X141089047Y-88400000D01*
X141136666Y-88447619D01*
X141184285Y-88542857D01*
X141184285Y-88685714D01*
X141136666Y-88780952D01*
X141089047Y-88828571D01*
X140993809Y-88876190D01*
X140612857Y-88876190D01*
X142136666Y-89352380D02*
X141565238Y-89352380D01*
X141850952Y-89352380D02*
X141850952Y-88352380D01*
X141755714Y-88495238D01*
X141660476Y-88590476D01*
X141565238Y-88638095D01*
X148780714Y-84907380D02*
X148780714Y-83907380D01*
X149114047Y-84621666D01*
X149447380Y-83907380D01*
X149447380Y-84907380D01*
X149923571Y-84383571D02*
X150256904Y-84383571D01*
X150399761Y-84907380D02*
X149923571Y-84907380D01*
X149923571Y-83907380D01*
X150399761Y-83907380D01*
X151352142Y-83955000D02*
X151256904Y-83907380D01*
X151114047Y-83907380D01*
X150971190Y-83955000D01*
X150875952Y-84050238D01*
X150828333Y-84145476D01*
X150780714Y-84335952D01*
X150780714Y-84478809D01*
X150828333Y-84669285D01*
X150875952Y-84764523D01*
X150971190Y-84859761D01*
X151114047Y-84907380D01*
X151209285Y-84907380D01*
X151352142Y-84859761D01*
X151399761Y-84812142D01*
X151399761Y-84478809D01*
X151209285Y-84478809D01*
X151780714Y-84621666D02*
X152256904Y-84621666D01*
X151685476Y-84907380D02*
X152018809Y-83907380D01*
X152352142Y-84907380D01*
X144081666Y-83907380D02*
X144081666Y-84716904D01*
X144129285Y-84812142D01*
X144176904Y-84859761D01*
X144272142Y-84907380D01*
X144462619Y-84907380D01*
X144557857Y-84859761D01*
X144605476Y-84812142D01*
X144653095Y-84716904D01*
X144653095Y-83907380D01*
X145129285Y-84907380D02*
X145129285Y-83907380D01*
X145700714Y-84907380D01*
X145700714Y-83907380D01*
X146367380Y-83907380D02*
X146557857Y-83907380D01*
X146653095Y-83955000D01*
X146748333Y-84050238D01*
X146795952Y-84240714D01*
X146795952Y-84574047D01*
X146748333Y-84764523D01*
X146653095Y-84859761D01*
X146557857Y-84907380D01*
X146367380Y-84907380D01*
X146272142Y-84859761D01*
X146176904Y-84764523D01*
X146129285Y-84574047D01*
X146129285Y-84240714D01*
X146176904Y-84050238D01*
X146272142Y-83955000D01*
X146367380Y-83907380D01*
D10*
X182845000Y-123435000D02*
X181645000Y-123435000D01*
X181645000Y-121675000D02*
X182845000Y-121675000D01*
X190630000Y-116590000D02*
X193170000Y-114050000D01*
X190630000Y-128020000D02*
X190630000Y-116590000D01*
X188980000Y-129670000D02*
X190630000Y-128020000D01*
X124330000Y-129670000D02*
X188980000Y-129670000D01*
X124330000Y-120140000D02*
X124330000Y-129670000D01*
X117980000Y-120140000D02*
X124330000Y-120140000D01*
X117980000Y-108460000D02*
X117980000Y-120140000D01*
X124330000Y-108460000D02*
X117980000Y-108460000D01*
X124330000Y-88390000D02*
X124330000Y-108460000D01*
X122430000Y-88390000D02*
X124330000Y-88390000D01*
X122430000Y-79250000D02*
X122430000Y-88390000D01*
X124330000Y-79250000D02*
X122430000Y-79250000D01*
X124330000Y-76070000D02*
X124330000Y-79250000D01*
X190630000Y-76070000D02*
X124330000Y-76070000D01*
X190630000Y-78740000D02*
X190630000Y-76070000D01*
X193170000Y-81280000D02*
X190630000Y-78740000D01*
X193170000Y-114050000D02*
X193170000Y-81280000D01*
X158625000Y-83695000D02*
X158625000Y-85875000D01*
X158625000Y-90295000D02*
X158625000Y-88115000D01*
X165225000Y-84455000D02*
X165225000Y-85875000D01*
X165225000Y-89535000D02*
X165225000Y-88115000D01*
X158625000Y-83695000D02*
X164465000Y-83695000D01*
X164465000Y-83695000D02*
X165225000Y-84455000D01*
X165225000Y-89535000D02*
X164465000Y-90295000D01*
X164465000Y-90295000D02*
X158625000Y-90295000D01*
X154340000Y-100085000D02*
X155540000Y-100085000D01*
X155540000Y-101845000D02*
X154340000Y-101845000D01*
X161535000Y-101635000D02*
X161535000Y-102835000D01*
X159775000Y-102835000D02*
X159775000Y-101635000D01*
X166790000Y-82050000D02*
X166790000Y-83050000D01*
X168490000Y-83050000D02*
X168490000Y-82050000D01*
X174205000Y-123690000D02*
X174205000Y-122690000D01*
X172505000Y-122690000D02*
X172505000Y-123690000D01*
X147486000Y-119896000D02*
X147486000Y-120896000D01*
X149186000Y-120896000D02*
X149186000Y-119896000D01*
X150710000Y-114800000D02*
X150710000Y-113800000D01*
X149010000Y-113800000D02*
X149010000Y-114800000D01*
X182745000Y-80430000D02*
X181745000Y-80430000D01*
X181745000Y-82130000D02*
X182745000Y-82130000D01*
X170570000Y-83150000D02*
X170570000Y-81950000D01*
X172330000Y-81950000D02*
X172330000Y-83150000D01*
X168665000Y-83150000D02*
X168665000Y-81950000D01*
X170425000Y-81950000D02*
X170425000Y-83150000D01*
D11*
X174455000Y-81245000D02*
X174455000Y-81295000D01*
X178605000Y-81245000D02*
X178605000Y-81390000D01*
X178605000Y-86395000D02*
X178605000Y-86250000D01*
X174455000Y-86395000D02*
X174455000Y-86250000D01*
X174455000Y-81245000D02*
X178605000Y-81245000D01*
X174455000Y-86395000D02*
X178605000Y-86395000D01*
X174455000Y-81295000D02*
X173055000Y-81295000D01*
D10*
X174710000Y-123250000D02*
X174710000Y-118050000D01*
X178350000Y-118050000D02*
X178350000Y-123250000D01*
X180730000Y-84420000D02*
X180730000Y-83220000D01*
X182490000Y-83220000D02*
X182490000Y-84420000D01*
X161535000Y-113700000D02*
X161535000Y-114900000D01*
X159775000Y-114900000D02*
X159775000Y-113700000D01*
X182635000Y-84420000D02*
X182635000Y-83220000D01*
X184395000Y-83220000D02*
X184395000Y-84420000D01*
X159630000Y-113700000D02*
X159630000Y-114900000D01*
X157870000Y-114900000D02*
X157870000Y-113700000D01*
X159630000Y-101635000D02*
X159630000Y-102835000D01*
X157870000Y-102835000D02*
X157870000Y-101635000D01*
X143755000Y-109890000D02*
X143755000Y-111090000D01*
X141995000Y-111090000D02*
X141995000Y-109890000D01*
X140300000Y-104385000D02*
X139100000Y-104385000D01*
X139100000Y-102625000D02*
X140300000Y-102625000D01*
X155540000Y-113910000D02*
X154340000Y-113910000D01*
X154340000Y-112150000D02*
X155540000Y-112150000D01*
X189230000Y-88900000D02*
X181610000Y-88900000D01*
X181610000Y-119380000D02*
X189230000Y-119380000D01*
X182880000Y-88900000D02*
X182880000Y-119380000D01*
X189230000Y-88900000D02*
X189230000Y-119380000D01*
X181610000Y-88900000D02*
X181610000Y-119380000D01*
D11*
X168105000Y-115535000D02*
X168105000Y-115585000D01*
X172255000Y-115535000D02*
X172255000Y-115680000D01*
X172255000Y-120685000D02*
X172255000Y-120540000D01*
X168105000Y-120685000D02*
X168105000Y-120540000D01*
X168105000Y-115535000D02*
X172255000Y-115535000D01*
X168105000Y-120685000D02*
X172255000Y-120685000D01*
X168105000Y-115585000D02*
X166705000Y-115585000D01*
X154475000Y-111765000D02*
X154475000Y-111740000D01*
X150325000Y-111765000D02*
X150325000Y-111650000D01*
X150325000Y-102865000D02*
X150325000Y-102980000D01*
X154475000Y-102865000D02*
X154475000Y-102980000D01*
X154475000Y-111765000D02*
X150325000Y-111765000D01*
X154475000Y-102865000D02*
X150325000Y-102865000D01*
X154475000Y-111740000D02*
X155850000Y-111740000D01*
D10*
X168730000Y-102750000D02*
X167230000Y-102750000D01*
X167230000Y-102750000D02*
X167230000Y-103440000D01*
X167230000Y-103440000D02*
X162105000Y-103440000D01*
X168730000Y-113150000D02*
X167230000Y-113150000D01*
X167230000Y-113150000D02*
X167230000Y-112460000D01*
X167230000Y-112460000D02*
X166130000Y-112460000D01*
X168730000Y-90050000D02*
X167230000Y-90050000D01*
X167230000Y-90050000D02*
X167230000Y-90740000D01*
X167230000Y-90740000D02*
X162105000Y-90740000D01*
X168730000Y-100450000D02*
X167230000Y-100450000D01*
X167230000Y-100450000D02*
X167230000Y-99760000D01*
X167230000Y-99760000D02*
X166130000Y-99760000D01*
X138370000Y-105350000D02*
X139700000Y-105350000D01*
X138370000Y-106680000D02*
X138370000Y-105350000D01*
X138370000Y-107950000D02*
X141030000Y-107950000D01*
X141030000Y-107950000D02*
X141030000Y-113090000D01*
X138370000Y-107950000D02*
X138370000Y-113090000D01*
X138370000Y-113090000D02*
X141030000Y-113090000D01*
X138370000Y-123250000D02*
X141030000Y-123250000D01*
X138370000Y-118110000D02*
X138370000Y-123250000D01*
X141030000Y-118110000D02*
X141030000Y-123250000D01*
X138370000Y-118110000D02*
X141030000Y-118110000D01*
X138370000Y-116840000D02*
X138370000Y-115510000D01*
X138370000Y-115510000D02*
X139700000Y-115510000D01*
D11*
X181411666Y-120578571D02*
X181078333Y-120578571D01*
X181078333Y-121102380D02*
X181078333Y-120102380D01*
X181554523Y-120102380D01*
X182268809Y-120578571D02*
X182411666Y-120626190D01*
X182459285Y-120673809D01*
X182506904Y-120769047D01*
X182506904Y-120911904D01*
X182459285Y-121007142D01*
X182411666Y-121054761D01*
X182316428Y-121102380D01*
X181935476Y-121102380D01*
X181935476Y-120102380D01*
X182268809Y-120102380D01*
X182364047Y-120150000D01*
X182411666Y-120197619D01*
X182459285Y-120292857D01*
X182459285Y-120388095D01*
X182411666Y-120483333D01*
X182364047Y-120530952D01*
X182268809Y-120578571D01*
X181935476Y-120578571D01*
X183459285Y-121102380D02*
X182887857Y-121102380D01*
X183173571Y-121102380D02*
X183173571Y-120102380D01*
X183078333Y-120245238D01*
X182983095Y-120340476D01*
X182887857Y-120388095D01*
X152955714Y-75096666D02*
X153431904Y-75096666D01*
X152860476Y-75382380D02*
X153193809Y-74382380D01*
X153527142Y-75382380D01*
X154384285Y-75382380D02*
X153812857Y-75382380D01*
X154098571Y-75382380D02*
X154098571Y-74382380D01*
X154003333Y-74525238D01*
X153908095Y-74620476D01*
X153812857Y-74668095D01*
X161758333Y-82792142D02*
X161710714Y-82839761D01*
X161567857Y-82887380D01*
X161472619Y-82887380D01*
X161329761Y-82839761D01*
X161234523Y-82744523D01*
X161186904Y-82649285D01*
X161139285Y-82458809D01*
X161139285Y-82315952D01*
X161186904Y-82125476D01*
X161234523Y-82030238D01*
X161329761Y-81935000D01*
X161472619Y-81887380D01*
X161567857Y-81887380D01*
X161710714Y-81935000D01*
X161758333Y-81982619D01*
X162615476Y-81887380D02*
X162425000Y-81887380D01*
X162329761Y-81935000D01*
X162282142Y-81982619D01*
X162186904Y-82125476D01*
X162139285Y-82315952D01*
X162139285Y-82696904D01*
X162186904Y-82792142D01*
X162234523Y-82839761D01*
X162329761Y-82887380D01*
X162520238Y-82887380D01*
X162615476Y-82839761D01*
X162663095Y-82792142D01*
X162710714Y-82696904D01*
X162710714Y-82458809D01*
X162663095Y-82363571D01*
X162615476Y-82315952D01*
X162520238Y-82268333D01*
X162329761Y-82268333D01*
X162234523Y-82315952D01*
X162186904Y-82363571D01*
X162139285Y-82458809D01*
X165824047Y-84056428D02*
X166585952Y-84056428D01*
X166205000Y-84437380D02*
X166205000Y-83675476D01*
X151122142Y-101417380D02*
X150788809Y-100941190D01*
X150550714Y-101417380D02*
X150550714Y-100417380D01*
X150931666Y-100417380D01*
X151026904Y-100465000D01*
X151074523Y-100512619D01*
X151122142Y-100607857D01*
X151122142Y-100750714D01*
X151074523Y-100845952D01*
X151026904Y-100893571D01*
X150931666Y-100941190D01*
X150550714Y-100941190D01*
X152074523Y-101417380D02*
X151503095Y-101417380D01*
X151788809Y-101417380D02*
X151788809Y-100417380D01*
X151693571Y-100560238D01*
X151598333Y-100655476D01*
X151503095Y-100703095D01*
X152931666Y-100750714D02*
X152931666Y-101417380D01*
X152693571Y-100369761D02*
X152455476Y-101084047D01*
X153074523Y-101084047D01*
X161107380Y-99702857D02*
X160631190Y-100036190D01*
X161107380Y-100274285D02*
X160107380Y-100274285D01*
X160107380Y-99893333D01*
X160155000Y-99798095D01*
X160202619Y-99750476D01*
X160297857Y-99702857D01*
X160440714Y-99702857D01*
X160535952Y-99750476D01*
X160583571Y-99798095D01*
X160631190Y-99893333D01*
X160631190Y-100274285D01*
X161107380Y-98750476D02*
X161107380Y-99321904D01*
X161107380Y-99036190D02*
X160107380Y-99036190D01*
X160250238Y-99131428D01*
X160345476Y-99226666D01*
X160393095Y-99321904D01*
X160107380Y-98417142D02*
X160107380Y-97798095D01*
X160488333Y-98131428D01*
X160488333Y-97988571D01*
X160535952Y-97893333D01*
X160583571Y-97845714D01*
X160678809Y-97798095D01*
X160916904Y-97798095D01*
X161012142Y-97845714D01*
X161059761Y-97893333D01*
X161107380Y-97988571D01*
X161107380Y-98274285D01*
X161059761Y-98369523D01*
X161012142Y-98417142D01*
X167997142Y-85891666D02*
X168044761Y-85939285D01*
X168092380Y-86082142D01*
X168092380Y-86177380D01*
X168044761Y-86320238D01*
X167949523Y-86415476D01*
X167854285Y-86463095D01*
X167663809Y-86510714D01*
X167520952Y-86510714D01*
X167330476Y-86463095D01*
X167235238Y-86415476D01*
X167140000Y-86320238D01*
X167092380Y-86177380D01*
X167092380Y-86082142D01*
X167140000Y-85939285D01*
X167187619Y-85891666D01*
X167092380Y-84986904D02*
X167092380Y-85463095D01*
X167568571Y-85510714D01*
X167520952Y-85463095D01*
X167473333Y-85367857D01*
X167473333Y-85129761D01*
X167520952Y-85034523D01*
X167568571Y-84986904D01*
X167663809Y-84939285D01*
X167901904Y-84939285D01*
X167997142Y-84986904D01*
X168044761Y-85034523D01*
X168092380Y-85129761D01*
X168092380Y-85367857D01*
X168044761Y-85463095D01*
X167997142Y-85510714D01*
X172061142Y-123356666D02*
X172108761Y-123404285D01*
X172156380Y-123547142D01*
X172156380Y-123642380D01*
X172108761Y-123785238D01*
X172013523Y-123880476D01*
X171918285Y-123928095D01*
X171727809Y-123975714D01*
X171584952Y-123975714D01*
X171394476Y-123928095D01*
X171299238Y-123880476D01*
X171204000Y-123785238D01*
X171156380Y-123642380D01*
X171156380Y-123547142D01*
X171204000Y-123404285D01*
X171251619Y-123356666D01*
X171489714Y-122499523D02*
X172156380Y-122499523D01*
X171108761Y-122737619D02*
X171823047Y-122975714D01*
X171823047Y-122356666D01*
X147042142Y-120562666D02*
X147089761Y-120610285D01*
X147137380Y-120753142D01*
X147137380Y-120848380D01*
X147089761Y-120991238D01*
X146994523Y-121086476D01*
X146899285Y-121134095D01*
X146708809Y-121181714D01*
X146565952Y-121181714D01*
X146375476Y-121134095D01*
X146280238Y-121086476D01*
X146185000Y-120991238D01*
X146137380Y-120848380D01*
X146137380Y-120753142D01*
X146185000Y-120610285D01*
X146232619Y-120562666D01*
X146137380Y-120229333D02*
X146137380Y-119610285D01*
X146518333Y-119943619D01*
X146518333Y-119800761D01*
X146565952Y-119705523D01*
X146613571Y-119657904D01*
X146708809Y-119610285D01*
X146946904Y-119610285D01*
X147042142Y-119657904D01*
X147089761Y-119705523D01*
X147137380Y-119800761D01*
X147137380Y-120086476D01*
X147089761Y-120181714D01*
X147042142Y-120229333D01*
X148312142Y-114466666D02*
X148359761Y-114514285D01*
X148407380Y-114657142D01*
X148407380Y-114752380D01*
X148359761Y-114895238D01*
X148264523Y-114990476D01*
X148169285Y-115038095D01*
X147978809Y-115085714D01*
X147835952Y-115085714D01*
X147645476Y-115038095D01*
X147550238Y-114990476D01*
X147455000Y-114895238D01*
X147407380Y-114752380D01*
X147407380Y-114657142D01*
X147455000Y-114514285D01*
X147502619Y-114466666D01*
X147502619Y-114085714D02*
X147455000Y-114038095D01*
X147407380Y-113942857D01*
X147407380Y-113704761D01*
X147455000Y-113609523D01*
X147502619Y-113561904D01*
X147597857Y-113514285D01*
X147693095Y-113514285D01*
X147835952Y-113561904D01*
X148407380Y-114133333D01*
X148407380Y-113514285D01*
X185253333Y-81637142D02*
X185205714Y-81684761D01*
X185062857Y-81732380D01*
X184967619Y-81732380D01*
X184824761Y-81684761D01*
X184729523Y-81589523D01*
X184681904Y-81494285D01*
X184634285Y-81303809D01*
X184634285Y-81160952D01*
X184681904Y-80970476D01*
X184729523Y-80875238D01*
X184824761Y-80780000D01*
X184967619Y-80732380D01*
X185062857Y-80732380D01*
X185205714Y-80780000D01*
X185253333Y-80827619D01*
X186205714Y-81732380D02*
X185634285Y-81732380D01*
X185920000Y-81732380D02*
X185920000Y-80732380D01*
X185824761Y-80875238D01*
X185729523Y-80970476D01*
X185634285Y-81018095D01*
X171902380Y-86367857D02*
X171426190Y-86701190D01*
X171902380Y-86939285D02*
X170902380Y-86939285D01*
X170902380Y-86558333D01*
X170950000Y-86463095D01*
X170997619Y-86415476D01*
X171092857Y-86367857D01*
X171235714Y-86367857D01*
X171330952Y-86415476D01*
X171378571Y-86463095D01*
X171426190Y-86558333D01*
X171426190Y-86939285D01*
X171902380Y-85415476D02*
X171902380Y-85986904D01*
X171902380Y-85701190D02*
X170902380Y-85701190D01*
X171045238Y-85796428D01*
X171140476Y-85891666D01*
X171188095Y-85986904D01*
X170902380Y-84796428D02*
X170902380Y-84701190D01*
X170950000Y-84605952D01*
X170997619Y-84558333D01*
X171092857Y-84510714D01*
X171283333Y-84463095D01*
X171521428Y-84463095D01*
X171711904Y-84510714D01*
X171807142Y-84558333D01*
X171854761Y-84605952D01*
X171902380Y-84701190D01*
X171902380Y-84796428D01*
X171854761Y-84891666D01*
X171807142Y-84939285D01*
X171711904Y-84986904D01*
X171521428Y-85034523D01*
X171283333Y-85034523D01*
X171092857Y-84986904D01*
X170997619Y-84939285D01*
X170950000Y-84891666D01*
X170902380Y-84796428D01*
X169997380Y-85891666D02*
X169521190Y-86225000D01*
X169997380Y-86463095D02*
X168997380Y-86463095D01*
X168997380Y-86082142D01*
X169045000Y-85986904D01*
X169092619Y-85939285D01*
X169187857Y-85891666D01*
X169330714Y-85891666D01*
X169425952Y-85939285D01*
X169473571Y-85986904D01*
X169521190Y-86082142D01*
X169521190Y-86463095D01*
X169997380Y-85415476D02*
X169997380Y-85225000D01*
X169949761Y-85129761D01*
X169902142Y-85082142D01*
X169759285Y-84986904D01*
X169568809Y-84939285D01*
X169187857Y-84939285D01*
X169092619Y-84986904D01*
X169045000Y-85034523D01*
X168997380Y-85129761D01*
X168997380Y-85320238D01*
X169045000Y-85415476D01*
X169092619Y-85463095D01*
X169187857Y-85510714D01*
X169425952Y-85510714D01*
X169521190Y-85463095D01*
X169568809Y-85415476D01*
X169616428Y-85320238D01*
X169616428Y-85129761D01*
X169568809Y-85034523D01*
X169521190Y-84986904D01*
X169425952Y-84939285D01*
X175768095Y-79772380D02*
X175768095Y-80581904D01*
X175815714Y-80677142D01*
X175863333Y-80724761D01*
X175958571Y-80772380D01*
X176149047Y-80772380D01*
X176244285Y-80724761D01*
X176291904Y-80677142D01*
X176339523Y-80581904D01*
X176339523Y-79772380D01*
X176720476Y-79772380D02*
X177339523Y-79772380D01*
X177006190Y-80153333D01*
X177149047Y-80153333D01*
X177244285Y-80200952D01*
X177291904Y-80248571D01*
X177339523Y-80343809D01*
X177339523Y-80581904D01*
X177291904Y-80677142D01*
X177244285Y-80724761D01*
X177149047Y-80772380D01*
X176863333Y-80772380D01*
X176768095Y-80724761D01*
X176720476Y-80677142D01*
X176212571Y-116276380D02*
X175879238Y-115800190D01*
X175641142Y-116276380D02*
X175641142Y-115276380D01*
X176022095Y-115276380D01*
X176117333Y-115324000D01*
X176164952Y-115371619D01*
X176212571Y-115466857D01*
X176212571Y-115609714D01*
X176164952Y-115704952D01*
X176117333Y-115752571D01*
X176022095Y-115800190D01*
X175641142Y-115800190D01*
X176593523Y-116228761D02*
X176688761Y-116276380D01*
X176879238Y-116276380D01*
X176974476Y-116228761D01*
X177022095Y-116133523D01*
X177022095Y-116085904D01*
X176974476Y-115990666D01*
X176879238Y-115943047D01*
X176736380Y-115943047D01*
X176641142Y-115895428D01*
X176593523Y-115800190D01*
X176593523Y-115752571D01*
X176641142Y-115657333D01*
X176736380Y-115609714D01*
X176879238Y-115609714D01*
X176974476Y-115657333D01*
X177974476Y-116276380D02*
X177403047Y-116276380D01*
X177688761Y-116276380D02*
X177688761Y-115276380D01*
X177593523Y-115419238D01*
X177498285Y-115514476D01*
X177403047Y-115562095D01*
X182062380Y-86526666D02*
X181586190Y-86860000D01*
X182062380Y-87098095D02*
X181062380Y-87098095D01*
X181062380Y-86717142D01*
X181110000Y-86621904D01*
X181157619Y-86574285D01*
X181252857Y-86526666D01*
X181395714Y-86526666D01*
X181490952Y-86574285D01*
X181538571Y-86621904D01*
X181586190Y-86717142D01*
X181586190Y-87098095D01*
X181490952Y-85955238D02*
X181443333Y-86050476D01*
X181395714Y-86098095D01*
X181300476Y-86145714D01*
X181252857Y-86145714D01*
X181157619Y-86098095D01*
X181110000Y-86050476D01*
X181062380Y-85955238D01*
X181062380Y-85764761D01*
X181110000Y-85669523D01*
X181157619Y-85621904D01*
X181252857Y-85574285D01*
X181300476Y-85574285D01*
X181395714Y-85621904D01*
X181443333Y-85669523D01*
X181490952Y-85764761D01*
X181490952Y-85955238D01*
X181538571Y-86050476D01*
X181586190Y-86098095D01*
X181681428Y-86145714D01*
X181871904Y-86145714D01*
X181967142Y-86098095D01*
X182014761Y-86050476D01*
X182062380Y-85955238D01*
X182062380Y-85764761D01*
X182014761Y-85669523D01*
X181967142Y-85621904D01*
X181871904Y-85574285D01*
X181681428Y-85574285D01*
X181586190Y-85621904D01*
X181538571Y-85669523D01*
X181490952Y-85764761D01*
X161107380Y-111926666D02*
X160631190Y-112260000D01*
X161107380Y-112498095D02*
X160107380Y-112498095D01*
X160107380Y-112117142D01*
X160155000Y-112021904D01*
X160202619Y-111974285D01*
X160297857Y-111926666D01*
X160440714Y-111926666D01*
X160535952Y-111974285D01*
X160583571Y-112021904D01*
X160631190Y-112117142D01*
X160631190Y-112498095D01*
X160107380Y-111593333D02*
X160107380Y-110926666D01*
X161107380Y-111355238D01*
X183967380Y-86526666D02*
X183491190Y-86860000D01*
X183967380Y-87098095D02*
X182967380Y-87098095D01*
X182967380Y-86717142D01*
X183015000Y-86621904D01*
X183062619Y-86574285D01*
X183157857Y-86526666D01*
X183300714Y-86526666D01*
X183395952Y-86574285D01*
X183443571Y-86621904D01*
X183491190Y-86717142D01*
X183491190Y-87098095D01*
X182967380Y-85669523D02*
X182967380Y-85860000D01*
X183015000Y-85955238D01*
X183062619Y-86002857D01*
X183205476Y-86098095D01*
X183395952Y-86145714D01*
X183776904Y-86145714D01*
X183872142Y-86098095D01*
X183919761Y-86050476D01*
X183967380Y-85955238D01*
X183967380Y-85764761D01*
X183919761Y-85669523D01*
X183872142Y-85621904D01*
X183776904Y-85574285D01*
X183538809Y-85574285D01*
X183443571Y-85621904D01*
X183395952Y-85669523D01*
X183348333Y-85764761D01*
X183348333Y-85955238D01*
X183395952Y-86050476D01*
X183443571Y-86098095D01*
X183538809Y-86145714D01*
X159202380Y-111926666D02*
X158726190Y-112260000D01*
X159202380Y-112498095D02*
X158202380Y-112498095D01*
X158202380Y-112117142D01*
X158250000Y-112021904D01*
X158297619Y-111974285D01*
X158392857Y-111926666D01*
X158535714Y-111926666D01*
X158630952Y-111974285D01*
X158678571Y-112021904D01*
X158726190Y-112117142D01*
X158726190Y-112498095D01*
X158202380Y-111021904D02*
X158202380Y-111498095D01*
X158678571Y-111545714D01*
X158630952Y-111498095D01*
X158583333Y-111402857D01*
X158583333Y-111164761D01*
X158630952Y-111069523D01*
X158678571Y-111021904D01*
X158773809Y-110974285D01*
X159011904Y-110974285D01*
X159107142Y-111021904D01*
X159154761Y-111069523D01*
X159202380Y-111164761D01*
X159202380Y-111402857D01*
X159154761Y-111498095D01*
X159107142Y-111545714D01*
X159202380Y-99861666D02*
X158726190Y-100195000D01*
X159202380Y-100433095D02*
X158202380Y-100433095D01*
X158202380Y-100052142D01*
X158250000Y-99956904D01*
X158297619Y-99909285D01*
X158392857Y-99861666D01*
X158535714Y-99861666D01*
X158630952Y-99909285D01*
X158678571Y-99956904D01*
X158726190Y-100052142D01*
X158726190Y-100433095D01*
X158535714Y-99004523D02*
X159202380Y-99004523D01*
X158154761Y-99242619D02*
X158869047Y-99480714D01*
X158869047Y-98861666D01*
X145867380Y-110656666D02*
X145391190Y-110990000D01*
X145867380Y-111228095D02*
X144867380Y-111228095D01*
X144867380Y-110847142D01*
X144915000Y-110751904D01*
X144962619Y-110704285D01*
X145057857Y-110656666D01*
X145200714Y-110656666D01*
X145295952Y-110704285D01*
X145343571Y-110751904D01*
X145391190Y-110847142D01*
X145391190Y-111228095D01*
X144867380Y-110323333D02*
X144867380Y-109704285D01*
X145248333Y-110037619D01*
X145248333Y-109894761D01*
X145295952Y-109799523D01*
X145343571Y-109751904D01*
X145438809Y-109704285D01*
X145676904Y-109704285D01*
X145772142Y-109751904D01*
X145819761Y-109799523D01*
X145867380Y-109894761D01*
X145867380Y-110180476D01*
X145819761Y-110275714D01*
X145772142Y-110323333D01*
X139533333Y-102052380D02*
X139200000Y-101576190D01*
X138961904Y-102052380D02*
X138961904Y-101052380D01*
X139342857Y-101052380D01*
X139438095Y-101100000D01*
X139485714Y-101147619D01*
X139533333Y-101242857D01*
X139533333Y-101385714D01*
X139485714Y-101480952D01*
X139438095Y-101528571D01*
X139342857Y-101576190D01*
X138961904Y-101576190D01*
X139914285Y-101147619D02*
X139961904Y-101100000D01*
X140057142Y-101052380D01*
X140295238Y-101052380D01*
X140390476Y-101100000D01*
X140438095Y-101147619D01*
X140485714Y-101242857D01*
X140485714Y-101338095D01*
X140438095Y-101480952D01*
X139866666Y-102052380D01*
X140485714Y-102052380D01*
X152233333Y-113482380D02*
X151900000Y-113006190D01*
X151661904Y-113482380D02*
X151661904Y-112482380D01*
X152042857Y-112482380D01*
X152138095Y-112530000D01*
X152185714Y-112577619D01*
X152233333Y-112672857D01*
X152233333Y-112815714D01*
X152185714Y-112910952D01*
X152138095Y-112958571D01*
X152042857Y-113006190D01*
X151661904Y-113006190D01*
X153185714Y-113482380D02*
X152614285Y-113482380D01*
X152900000Y-113482380D02*
X152900000Y-112482380D01*
X152804761Y-112625238D01*
X152709523Y-112720476D01*
X152614285Y-112768095D01*
X185086666Y-87082380D02*
X185086666Y-87796666D01*
X185039047Y-87939523D01*
X184943809Y-88034761D01*
X184800952Y-88082380D01*
X184705714Y-88082380D01*
X186086666Y-88082380D02*
X185515238Y-88082380D01*
X185800952Y-88082380D02*
X185800952Y-87082380D01*
X185705714Y-87225238D01*
X185610476Y-87320476D01*
X185515238Y-87368095D01*
X169418095Y-114062380D02*
X169418095Y-114871904D01*
X169465714Y-114967142D01*
X169513333Y-115014761D01*
X169608571Y-115062380D01*
X169799047Y-115062380D01*
X169894285Y-115014761D01*
X169941904Y-114967142D01*
X169989523Y-114871904D01*
X169989523Y-114062380D01*
X170418095Y-114157619D02*
X170465714Y-114110000D01*
X170560952Y-114062380D01*
X170799047Y-114062380D01*
X170894285Y-114110000D01*
X170941904Y-114157619D01*
X170989523Y-114252857D01*
X170989523Y-114348095D01*
X170941904Y-114490952D01*
X170370476Y-115062380D01*
X170989523Y-115062380D01*
X147407380Y-108076904D02*
X148216904Y-108076904D01*
X148312142Y-108029285D01*
X148359761Y-107981666D01*
X148407380Y-107886428D01*
X148407380Y-107695952D01*
X148359761Y-107600714D01*
X148312142Y-107553095D01*
X148216904Y-107505476D01*
X147407380Y-107505476D01*
X148407380Y-106505476D02*
X148407380Y-107076904D01*
X148407380Y-106791190D02*
X147407380Y-106791190D01*
X147550238Y-106886428D01*
X147645476Y-106981666D01*
X147693095Y-107076904D01*
X179609761Y-108497619D02*
X179514523Y-108450000D01*
X179419285Y-108354761D01*
X179276428Y-108211904D01*
X179181190Y-108164285D01*
X179085952Y-108164285D01*
X179133571Y-108402380D02*
X179038333Y-108354761D01*
X178943095Y-108259523D01*
X178895476Y-108069047D01*
X178895476Y-107735714D01*
X178943095Y-107545238D01*
X179038333Y-107450000D01*
X179133571Y-107402380D01*
X179324047Y-107402380D01*
X179419285Y-107450000D01*
X179514523Y-107545238D01*
X179562142Y-107735714D01*
X179562142Y-108069047D01*
X179514523Y-108259523D01*
X179419285Y-108354761D01*
X179324047Y-108402380D01*
X179133571Y-108402380D01*
X179943095Y-107497619D02*
X179990714Y-107450000D01*
X180085952Y-107402380D01*
X180324047Y-107402380D01*
X180419285Y-107450000D01*
X180466904Y-107497619D01*
X180514523Y-107592857D01*
X180514523Y-107688095D01*
X180466904Y-107830952D01*
X179895476Y-108402380D01*
X180514523Y-108402380D01*
X179609761Y-95797619D02*
X179514523Y-95750000D01*
X179419285Y-95654761D01*
X179276428Y-95511904D01*
X179181190Y-95464285D01*
X179085952Y-95464285D01*
X179133571Y-95702380D02*
X179038333Y-95654761D01*
X178943095Y-95559523D01*
X178895476Y-95369047D01*
X178895476Y-95035714D01*
X178943095Y-94845238D01*
X179038333Y-94750000D01*
X179133571Y-94702380D01*
X179324047Y-94702380D01*
X179419285Y-94750000D01*
X179514523Y-94845238D01*
X179562142Y-95035714D01*
X179562142Y-95369047D01*
X179514523Y-95559523D01*
X179419285Y-95654761D01*
X179324047Y-95702380D01*
X179133571Y-95702380D01*
X180514523Y-95702380D02*
X179943095Y-95702380D01*
X180228809Y-95702380D02*
X180228809Y-94702380D01*
X180133571Y-94845238D01*
X180038333Y-94940476D01*
X179943095Y-94988095D01*
X142041666Y-106132380D02*
X142041666Y-106846666D01*
X141994047Y-106989523D01*
X141898809Y-107084761D01*
X141755952Y-107132380D01*
X141660714Y-107132380D01*
X142517857Y-107132380D02*
X142517857Y-106132380D01*
X142898809Y-106132380D01*
X142994047Y-106180000D01*
X143041666Y-106227619D01*
X143089285Y-106322857D01*
X143089285Y-106465714D01*
X143041666Y-106560952D01*
X142994047Y-106608571D01*
X142898809Y-106656190D01*
X142517857Y-106656190D01*
X144041666Y-107132380D02*
X143470238Y-107132380D01*
X143755952Y-107132380D02*
X143755952Y-106132380D01*
X143660714Y-106275238D01*
X143565476Y-106370476D01*
X143470238Y-106418095D01*
X142041666Y-116292380D02*
X142041666Y-117006666D01*
X141994047Y-117149523D01*
X141898809Y-117244761D01*
X141755952Y-117292380D01*
X141660714Y-117292380D01*
X142517857Y-117292380D02*
X142517857Y-116292380D01*
X142898809Y-116292380D01*
X142994047Y-116340000D01*
X143041666Y-116387619D01*
X143089285Y-116482857D01*
X143089285Y-116625714D01*
X143041666Y-116720952D01*
X142994047Y-116768571D01*
X142898809Y-116816190D01*
X142517857Y-116816190D01*
X143470238Y-116387619D02*
X143517857Y-116340000D01*
X143613095Y-116292380D01*
X143851190Y-116292380D01*
X143946428Y-116340000D01*
X143994047Y-116387619D01*
X144041666Y-116482857D01*
X144041666Y-116578095D01*
X143994047Y-116720952D01*
X143422619Y-117292380D01*
X144041666Y-117292380D01*
M02*
