M48
; DRILL file {KiCad (5.1.5)-2} date 10/02/2020 11:52:52
; FORMAT={-:-/ absolute / metric / decimal}
; #@! TF.CreationDate,2020-02-10T11:52:52+03:00
; #@! TF.GenerationSoftware,Kicad,Pcbnew,(5.1.5)-2
; #@! TF.FileFunction,Plated,1,2,PTH
FMAT,2
METRIC
T1C0.400
T2C0.800
T3C1.000
T4C1.520
%
G90
G05
T1
X138.43Y-81.28
X138.43Y-88.9
X138.43Y-101.6
X138.43Y-114.3
X138.43Y-124.46
X140.97Y-77.47
X141.605Y-103.505
X142.875Y-106.68
X142.875Y-112.395
X143.51Y-95.25
X143.51Y-121.285
X146.05Y-125.095
X148.336Y-118.364
X148.59Y-83.82
X148.59Y-101.6
X149.86Y-116.332
X151.13Y-107.95
X151.13Y-109.855
X152.4Y-92.075
X152.4Y-98.425
X152.4Y-108.585
X152.4Y-121.285
X153.035Y-100.965
X153.035Y-118.745
X153.15Y-104.435
X153.67Y-93.98
X153.67Y-95.25
X153.67Y-109.855
X154.305Y-114.935
X154.305Y-116.84
X155.956Y-114.3
X156.845Y-111.125
X157.48Y-123.19
X158.75Y-119.126
X161.925Y-121.92
X162.56Y-90.17
X162.56Y-100.33
X162.56Y-102.87
X162.56Y-113.03
X163.195Y-85.725
X163.195Y-88.265
X163.83Y-90.17
X163.83Y-100.33
X163.83Y-102.87
X163.83Y-113.03
X164.465Y-85.725
X164.465Y-88.265
X165.1Y-90.17
X165.1Y-100.33
X165.1Y-102.87
X165.1Y-113.03
X165.735Y-85.725
X165.735Y-88.265
X166.37Y-90.17
X166.37Y-100.33
X166.37Y-102.87
X166.37Y-113.03
X167.005Y-85.725
X167.005Y-86.995
X167.005Y-88.265
X168.91Y-124.46
X169.545Y-114.935
X169.545Y-116.205
X169.545Y-120.015
X170.815Y-114.935
X170.815Y-116.205
X170.815Y-120.015
X172.085Y-121.285
X172.085Y-122.555
X173.355Y-121.285
X174.625Y-121.285
X176.53Y-83.82
X176.53Y-122.555
X177.8Y-122.555
X179.07Y-81.28
X179.07Y-122.555
X180.34Y-117.475
X185.42Y-122.555
X188.595Y-86.36
T2
X143.26Y-127.0
X145.8Y-127.0
X148.34Y-127.0
X150.88Y-127.0
X152.4Y-78.74
X153.42Y-127.0
X154.94Y-78.74
X155.96Y-127.0
X157.48Y-78.74
X158.5Y-127.0
X160.02Y-78.74
X161.04Y-127.0
X162.56Y-78.74
X163.58Y-127.0
X165.1Y-78.74
X166.12Y-127.0
X167.64Y-78.74
X170.18Y-78.74
X170.18Y-127.0
X172.72Y-127.0
X175.26Y-78.74
X175.26Y-127.0
X177.8Y-78.74
X177.8Y-127.0
X180.34Y-78.74
X180.34Y-127.0
X182.88Y-78.74
X182.88Y-127.0
X185.42Y-78.74
X185.42Y-127.0
X187.96Y-78.74
X187.96Y-127.0
T3
X139.7Y-116.84
X139.7Y-119.38
X139.7Y-121.92
X139.7Y-106.68
X139.7Y-109.22
X139.7Y-111.76
T4
X185.42Y-91.44
X185.42Y-96.52
X185.42Y-101.6
X185.42Y-106.68
X185.42Y-111.76
X185.42Y-116.84
T0
M30
