G04 #@! TF.GenerationSoftware,KiCad,Pcbnew,(5.1.5)-2*
G04 #@! TF.CreationDate,2020-01-30T15:58:27+03:00*
G04 #@! TF.ProjectId,dccshield,64636373-6869-4656-9c64-2e6b69636164,rev?*
G04 #@! TF.SameCoordinates,Original*
G04 #@! TF.FileFunction,Copper,L1,Top*
G04 #@! TF.FilePolarity,Positive*
%FSLAX46Y46*%
G04 Gerber Fmt 4.6, Leading zero omitted, Abs format (unit mm)*
G04 Created by KiCad (PCBNEW (5.1.5)-2) date 2020-01-30 15:58:27*
%MOMM*%
%LPD*%
G04 APERTURE LIST*
%ADD10R,1.500000X1.300000*%
%ADD11O,1.600000X1.600000*%
%ADD12R,1.600000X1.600000*%
%ADD13R,3.500000X1.600000*%
%ADD14R,0.700000X1.300000*%
%ADD15R,1.300000X0.700000*%
%ADD16R,1.250000X1.000000*%
%ADD17R,1.000000X1.250000*%
%ADD18R,1.550000X0.600000*%
%ADD19R,3.200000X1.000000*%
%ADD20C,3.000000*%
%ADD21R,3.000000X3.000000*%
%ADD22R,1.175000X1.175000*%
%ADD23R,1.500000X0.600000*%
%ADD24R,4.600000X0.800000*%
%ADD25R,9.400000X10.800000*%
%ADD26R,4.550000X5.250000*%
%ADD27C,0.800000*%
%ADD28C,0.300000*%
%ADD29C,0.500000*%
%ADD30C,1.000000*%
%ADD31C,2.000000*%
%ADD32C,4.000000*%
%ADD33C,1.500000*%
%ADD34C,0.254000*%
G04 APERTURE END LIST*
D10*
X180895000Y-122555000D03*
X183595000Y-122555000D03*
D11*
X185420000Y-127000000D03*
X187960000Y-127000000D03*
X148340000Y-127000000D03*
X187960000Y-78740000D03*
X150880000Y-127000000D03*
X185420000Y-78740000D03*
X153420000Y-127000000D03*
X182880000Y-78740000D03*
X155960000Y-127000000D03*
X180340000Y-78740000D03*
X158500000Y-127000000D03*
X177800000Y-78740000D03*
X161040000Y-127000000D03*
X175260000Y-78740000D03*
X163580000Y-127000000D03*
X170180000Y-78740000D03*
X166120000Y-127000000D03*
X167640000Y-78740000D03*
X170180000Y-127000000D03*
X165100000Y-78740000D03*
X172720000Y-127000000D03*
X162560000Y-78740000D03*
X175260000Y-127000000D03*
X160020000Y-78740000D03*
X177800000Y-127000000D03*
X157480000Y-78740000D03*
X180340000Y-127000000D03*
X154940000Y-78740000D03*
X182880000Y-127000000D03*
D12*
X152400000Y-78740000D03*
D11*
X145800000Y-127000000D03*
X143260000Y-127000000D03*
D13*
X164625000Y-86995000D03*
X159225000Y-86995000D03*
D14*
X155890000Y-100965000D03*
X153990000Y-100965000D03*
D15*
X160655000Y-103185000D03*
X160655000Y-101285000D03*
D16*
X167640000Y-83550000D03*
X167640000Y-81550000D03*
X173355000Y-122190000D03*
X173355000Y-124190000D03*
X148336000Y-121396000D03*
X148336000Y-119396000D03*
X149860000Y-113300000D03*
X149860000Y-115300000D03*
D17*
X181245000Y-81280000D03*
X183245000Y-81280000D03*
D15*
X155956000Y-124460000D03*
X155956000Y-122560000D03*
X166116000Y-122494000D03*
X166116000Y-124394000D03*
X171450000Y-81600000D03*
X171450000Y-83500000D03*
X169545000Y-81600000D03*
X169545000Y-83500000D03*
D18*
X173830000Y-81915000D03*
X173830000Y-83185000D03*
X173830000Y-84455000D03*
X173830000Y-85725000D03*
X179230000Y-85725000D03*
X179230000Y-84455000D03*
X179230000Y-83185000D03*
X179230000Y-81915000D03*
D19*
X176530000Y-117550000D03*
X176530000Y-123750000D03*
D15*
X181610000Y-82870000D03*
X181610000Y-84770000D03*
X160655000Y-115250000D03*
X160655000Y-113350000D03*
X183515000Y-82870000D03*
X183515000Y-84770000D03*
X158750000Y-115250000D03*
X158750000Y-113350000D03*
X158750000Y-103185000D03*
X158750000Y-101285000D03*
X163576000Y-122494000D03*
X163576000Y-124394000D03*
X161036000Y-124460000D03*
X161036000Y-122560000D03*
D14*
X153990000Y-113030000D03*
X155890000Y-113030000D03*
D20*
X185420000Y-96520000D03*
X185420000Y-101600000D03*
D21*
X185420000Y-91440000D03*
D20*
X185420000Y-106680000D03*
X185420000Y-111760000D03*
X185420000Y-116840000D03*
D18*
X167480000Y-116205000D03*
X167480000Y-117475000D03*
X167480000Y-118745000D03*
X167480000Y-120015000D03*
X172880000Y-120015000D03*
X172880000Y-118745000D03*
X172880000Y-117475000D03*
X172880000Y-116205000D03*
D22*
X170767500Y-118697500D03*
X170767500Y-117522500D03*
X169592500Y-118697500D03*
X169592500Y-117522500D03*
D23*
X155100000Y-111125000D03*
X155100000Y-109855000D03*
X155100000Y-108585000D03*
X155100000Y-107315000D03*
X155100000Y-106045000D03*
X155100000Y-104775000D03*
X155100000Y-103505000D03*
X149700000Y-103505000D03*
X149700000Y-104775000D03*
X149700000Y-106045000D03*
X149700000Y-107315000D03*
X149700000Y-108585000D03*
X149700000Y-109855000D03*
X149700000Y-111125000D03*
D24*
X164405000Y-104140000D03*
X164405000Y-105410000D03*
X164405000Y-106680000D03*
X164405000Y-107950000D03*
X164405000Y-109220000D03*
X164405000Y-110490000D03*
X164405000Y-111760000D03*
D25*
X173555000Y-107950000D03*
D26*
X175980000Y-110725000D03*
X171130000Y-105175000D03*
X175980000Y-105175000D03*
X171130000Y-110725000D03*
D24*
X164405000Y-91440000D03*
X164405000Y-92710000D03*
X164405000Y-93980000D03*
X164405000Y-95250000D03*
X164405000Y-96520000D03*
X164405000Y-97790000D03*
X164405000Y-99060000D03*
D25*
X173555000Y-95250000D03*
D26*
X175980000Y-98025000D03*
X171130000Y-92475000D03*
X175980000Y-92475000D03*
X171130000Y-98025000D03*
D27*
X168910000Y-124460000D03*
X153670000Y-109855000D03*
X153670000Y-95250000D03*
X154305000Y-114935000D03*
X153035000Y-100965000D03*
X169545000Y-116205000D03*
X170815000Y-116205000D03*
X170815000Y-120015000D03*
X169545000Y-120015000D03*
X176530000Y-122555000D03*
X177800000Y-122555000D03*
X162560000Y-102870000D03*
X163830000Y-102870000D03*
X165100000Y-102870000D03*
X166370000Y-102870000D03*
X166370000Y-90170000D03*
X162560000Y-90170000D03*
X163830000Y-90170000D03*
X165100000Y-90170000D03*
X169545000Y-114935000D03*
X170815000Y-114935000D03*
X176530000Y-83820000D03*
X148336000Y-118364000D03*
X149860000Y-116332000D03*
X148590000Y-83820000D03*
X148590000Y-101600000D03*
X140970000Y-77470000D03*
X138430000Y-81280000D03*
X138430000Y-88900000D03*
X138430000Y-101600000D03*
X138430000Y-114300000D03*
X138430000Y-124460000D03*
X146050000Y-124460000D03*
X153150010Y-104435162D03*
X179070000Y-122555000D03*
X185420000Y-122555000D03*
X156845000Y-111125000D03*
X162560000Y-100330000D03*
X163830000Y-100330000D03*
X165100000Y-100330000D03*
X166370000Y-100330000D03*
X166370000Y-113030000D03*
X162560000Y-113030000D03*
X163830000Y-113030000D03*
X165100000Y-113030000D03*
X172085000Y-121285000D03*
X173355000Y-121285000D03*
X174625000Y-121285000D03*
X172085000Y-122555000D03*
X163195000Y-85725000D03*
X164465000Y-85725000D03*
X165735000Y-85725000D03*
X167005000Y-85725000D03*
X167005000Y-86995000D03*
X167005000Y-88265000D03*
X165735000Y-88265000D03*
X164465000Y-88265000D03*
X163195000Y-88265000D03*
X179070000Y-81280000D03*
X155956000Y-114300000D03*
X154432000Y-122428000D03*
X151130000Y-107950000D03*
X153670000Y-93980000D03*
X158750000Y-121285000D03*
X157480000Y-118745000D03*
X188595000Y-86360000D03*
X180340000Y-117475000D03*
X152400000Y-108585000D03*
X154305000Y-116840000D03*
D28*
X155960000Y-124464000D02*
X155956000Y-124460000D01*
X155960000Y-127000000D02*
X155960000Y-124464000D01*
X166944000Y-122494000D02*
X168910000Y-124460000D01*
X166116000Y-122494000D02*
X166944000Y-122494000D01*
X164405000Y-106680000D02*
X158115000Y-106680000D01*
X158115000Y-106680000D02*
X156845000Y-107950000D01*
X156210000Y-109855000D02*
X155100000Y-109855000D01*
X156845000Y-109220000D02*
X156210000Y-109855000D01*
X156845000Y-107950000D02*
X156845000Y-109220000D01*
X155100000Y-109855000D02*
X153670000Y-109855000D01*
X154940000Y-93980000D02*
X153670000Y-95250000D01*
X164405000Y-93980000D02*
X154940000Y-93980000D01*
D29*
X158750000Y-101285000D02*
X158750000Y-98900000D01*
X161130000Y-96520000D02*
X164405000Y-96520000D01*
X158750000Y-98900000D02*
X161130000Y-96520000D01*
D28*
X156210000Y-104775000D02*
X155100000Y-104775000D01*
X164405000Y-105410000D02*
X156845000Y-105410000D01*
X156845000Y-105410000D02*
X156210000Y-104775000D01*
D29*
X158750000Y-111760000D02*
X158750000Y-112500000D01*
X158750000Y-112500000D02*
X158750000Y-113350000D01*
X164405000Y-109220000D02*
X161290000Y-109220000D01*
X161290000Y-109220000D02*
X158750000Y-111760000D01*
X161605000Y-110490000D02*
X164405000Y-110490000D01*
X160655000Y-111440000D02*
X161605000Y-110490000D01*
X160655000Y-113350000D02*
X160655000Y-111440000D01*
D28*
X160655000Y-114000000D02*
X160355000Y-114300000D01*
X160655000Y-113350000D02*
X160655000Y-114000000D01*
X160355000Y-114300000D02*
X157480000Y-114300000D01*
X154420001Y-115050001D02*
X154305000Y-114935000D01*
X157480000Y-114300000D02*
X156729999Y-115050001D01*
X156729999Y-115050001D02*
X154420001Y-115050001D01*
X153990000Y-100965000D02*
X153035000Y-100965000D01*
D29*
X169592500Y-116252500D02*
X169545000Y-116205000D01*
X169495000Y-81550000D02*
X169545000Y-81600000D01*
X167640000Y-81550000D02*
X169495000Y-81550000D01*
X174625000Y-85725000D02*
X176530000Y-83820000D01*
X173830000Y-85725000D02*
X174625000Y-85725000D01*
D30*
X148336000Y-119396000D02*
X148336000Y-118364000D01*
X149860000Y-115300000D02*
X149860000Y-116332000D01*
D29*
X155100000Y-103505000D02*
X153850000Y-103505000D01*
X153850000Y-103505000D02*
X153150010Y-104204990D01*
X153150010Y-104204990D02*
X153150010Y-104435162D01*
X179070000Y-122555000D02*
X180895000Y-122555000D01*
X183595000Y-122555000D02*
X185420000Y-122555000D01*
D30*
X164405000Y-95250000D02*
X173555000Y-95250000D01*
D31*
X173555000Y-95250000D02*
X175895000Y-95250000D01*
D32*
X182880000Y-101600000D02*
X185420000Y-101600000D01*
X175980000Y-98025000D02*
X179305000Y-98025000D01*
X179305000Y-98025000D02*
X182880000Y-101600000D01*
D30*
X164405000Y-107950000D02*
X173555000Y-107950000D01*
D31*
X174825000Y-106680000D02*
X173555000Y-107950000D01*
D32*
X179470000Y-110725000D02*
X175980000Y-110725000D01*
X185420000Y-106680000D02*
X183515000Y-106680000D01*
X183515000Y-106680000D02*
X179470000Y-110725000D01*
D33*
X185420000Y-111760000D02*
X181610000Y-115570000D01*
X177800000Y-115570000D02*
X175260000Y-115570000D01*
X181610000Y-115570000D02*
X177800000Y-115570000D01*
D29*
X174790000Y-115570000D02*
X175260000Y-115570000D01*
X174625000Y-115570000D02*
X175260000Y-115570000D01*
X172880000Y-116205000D02*
X173990000Y-116205000D01*
X173990000Y-116205000D02*
X174625000Y-115570000D01*
D33*
X182880000Y-119380000D02*
X175260000Y-119380000D01*
X185420000Y-116840000D02*
X182880000Y-119380000D01*
D29*
X174625000Y-119380000D02*
X175260000Y-119380000D01*
X172880000Y-118745000D02*
X173990000Y-118745000D01*
X173990000Y-118745000D02*
X174625000Y-119380000D01*
D33*
X148340000Y-127000000D02*
X148340000Y-122305000D01*
D30*
X181245000Y-81280000D02*
X179070000Y-81280000D01*
D28*
X179230000Y-81440000D02*
X179070000Y-81280000D01*
X179230000Y-81915000D02*
X179230000Y-81440000D01*
D29*
X167480000Y-120015000D02*
X163604998Y-120015000D01*
X163604998Y-120015000D02*
X151765000Y-120015000D01*
X151765000Y-120015000D02*
X149860000Y-121920000D01*
D30*
X149860000Y-113300000D02*
X145780000Y-113300000D01*
D29*
X149700000Y-113140000D02*
X149860000Y-113300000D01*
X149700000Y-111125000D02*
X149700000Y-113140000D01*
D28*
X153990000Y-111917500D02*
X153990000Y-113030000D01*
X155100000Y-111125000D02*
X154782500Y-111125000D01*
X154782500Y-111125000D02*
X153990000Y-111917500D01*
X155890000Y-113030000D02*
X155890000Y-114234000D01*
X155890000Y-114234000D02*
X155956000Y-114300000D01*
X160086000Y-122560000D02*
X155956000Y-122560000D01*
X161036000Y-122560000D02*
X160086000Y-122560000D01*
X154564000Y-122560000D02*
X154432000Y-122428000D01*
X155956000Y-122560000D02*
X154564000Y-122560000D01*
X152400000Y-106680000D02*
X151130000Y-107950000D01*
X155100000Y-106045000D02*
X153035000Y-106045000D01*
X153035000Y-106045000D02*
X152400000Y-106680000D01*
X154940000Y-92710000D02*
X153670000Y-93980000D01*
X164405000Y-92710000D02*
X154940000Y-92710000D01*
X163258500Y-121285000D02*
X158750000Y-121285000D01*
X163576000Y-122494000D02*
X163576000Y-121602500D01*
X163576000Y-121602500D02*
X163258500Y-121285000D01*
X155100000Y-108585000D02*
X153670000Y-108585000D01*
X166405000Y-118745000D02*
X167480000Y-118745000D01*
X151765000Y-116045004D02*
X154464996Y-118745000D01*
X154464996Y-118745000D02*
X166405000Y-118745000D01*
X153670000Y-108585000D02*
X151765000Y-110490000D01*
X151765000Y-110490000D02*
X151765000Y-116045004D01*
X166116000Y-124394000D02*
X163576000Y-124394000D01*
X166304000Y-124394000D02*
X166116000Y-124394000D01*
X173736000Y-128524000D02*
X169164000Y-128524000D01*
X175260000Y-127000000D02*
X173736000Y-128524000D01*
X169164000Y-128524000D02*
X168148000Y-127508000D01*
X168148000Y-127508000D02*
X168148000Y-126238000D01*
X168148000Y-126238000D02*
X166304000Y-124394000D01*
D29*
X181295000Y-84455000D02*
X181610000Y-84770000D01*
X179230000Y-84455000D02*
X181295000Y-84455000D01*
X183515000Y-84770000D02*
X181610000Y-84770000D01*
D30*
X176455000Y-117475000D02*
X176530000Y-117550000D01*
X172880000Y-117475000D02*
X176455000Y-117475000D01*
D29*
X181610000Y-85725000D02*
X179230000Y-85725000D01*
X188595000Y-86360000D02*
X187960000Y-85725000D01*
X187960000Y-85725000D02*
X181610000Y-85725000D01*
X176530000Y-117550000D02*
X180265000Y-117550000D01*
X180265000Y-117550000D02*
X180340000Y-117475000D01*
D28*
X155100000Y-107315000D02*
X153670000Y-107315000D01*
X153670000Y-107315000D02*
X152400000Y-108585000D01*
X167480000Y-117475000D02*
X154940000Y-117475000D01*
X154940000Y-117475000D02*
X154305000Y-116840000D01*
D29*
X181295000Y-83185000D02*
X181610000Y-82870000D01*
X179230000Y-83185000D02*
X181295000Y-83185000D01*
X177955000Y-83185000D02*
X179230000Y-83185000D01*
X177800000Y-83030000D02*
X177955000Y-83185000D01*
X177800000Y-78740000D02*
X177800000Y-83030000D01*
X171765000Y-81915000D02*
X171450000Y-81600000D01*
X173830000Y-81915000D02*
X171765000Y-81915000D01*
X175105000Y-81915000D02*
X173830000Y-81915000D01*
X175260000Y-81760000D02*
X175105000Y-81915000D01*
X175260000Y-78740000D02*
X175260000Y-81760000D01*
X171765000Y-83185000D02*
X171450000Y-83500000D01*
X173830000Y-83185000D02*
X171765000Y-83185000D01*
X169545000Y-83500000D02*
X171450000Y-83500000D01*
X172555000Y-84455000D02*
X173830000Y-84455000D01*
X168670000Y-84455000D02*
X172555000Y-84455000D01*
X167765000Y-83550000D02*
X168670000Y-84455000D01*
X167640000Y-83550000D02*
X167765000Y-83550000D01*
X161605000Y-97790000D02*
X164405000Y-97790000D01*
X160655000Y-98740000D02*
X161605000Y-97790000D01*
X160655000Y-101285000D02*
X160655000Y-98740000D01*
D28*
X160355000Y-102235000D02*
X158110000Y-102235000D01*
X160655000Y-101285000D02*
X160655000Y-101935000D01*
X160655000Y-101935000D02*
X160355000Y-102235000D01*
X156840000Y-100965000D02*
X155890000Y-100965000D01*
X158110000Y-102235000D02*
X156840000Y-100965000D01*
X152400000Y-95250000D02*
X155890000Y-98740000D01*
X152400000Y-93980000D02*
X152400000Y-95250000D01*
X153670000Y-92710000D02*
X152400000Y-93980000D01*
X167640000Y-83550000D02*
X166735000Y-84455000D01*
X155575000Y-84455000D02*
X153670000Y-86360000D01*
X155890000Y-98740000D02*
X155890000Y-100965000D01*
X166735000Y-84455000D02*
X155575000Y-84455000D01*
X153670000Y-86360000D02*
X153670000Y-92710000D01*
X161040000Y-124464000D02*
X161036000Y-124460000D01*
X161040000Y-127000000D02*
X161040000Y-124464000D01*
D34*
G36*
X173968470Y-119975049D02*
G01*
X173996183Y-120008817D01*
X174029951Y-120036530D01*
X174029953Y-120036532D01*
X174048723Y-120051936D01*
X174102843Y-120153188D01*
X174275919Y-120364081D01*
X174486812Y-120537157D01*
X174727419Y-120665764D01*
X174988493Y-120744960D01*
X175133000Y-120759193D01*
X175133000Y-122611928D01*
X174930000Y-122611928D01*
X174805518Y-122624188D01*
X174685820Y-122660498D01*
X174575506Y-122719463D01*
X174478815Y-122798815D01*
X174399463Y-122895506D01*
X174340498Y-123005820D01*
X174323153Y-123063000D01*
X174092420Y-123063000D01*
X173980000Y-123051928D01*
X172730000Y-123051928D01*
X172617580Y-123063000D01*
X172212000Y-123063000D01*
X172212000Y-119683072D01*
X173655000Y-119683072D01*
X173674566Y-119681145D01*
X173968470Y-119975049D01*
G37*
X173968470Y-119975049D02*
X173996183Y-120008817D01*
X174029951Y-120036530D01*
X174029953Y-120036532D01*
X174048723Y-120051936D01*
X174102843Y-120153188D01*
X174275919Y-120364081D01*
X174486812Y-120537157D01*
X174727419Y-120665764D01*
X174988493Y-120744960D01*
X175133000Y-120759193D01*
X175133000Y-122611928D01*
X174930000Y-122611928D01*
X174805518Y-122624188D01*
X174685820Y-122660498D01*
X174575506Y-122719463D01*
X174478815Y-122798815D01*
X174399463Y-122895506D01*
X174340498Y-123005820D01*
X174323153Y-123063000D01*
X174092420Y-123063000D01*
X173980000Y-123051928D01*
X172730000Y-123051928D01*
X172617580Y-123063000D01*
X172212000Y-123063000D01*
X172212000Y-119683072D01*
X173655000Y-119683072D01*
X173674566Y-119681145D01*
X173968470Y-119975049D01*
G36*
X166878000Y-104398906D02*
G01*
X166829482Y-104384188D01*
X166705000Y-104371928D01*
X162105000Y-104371928D01*
X161980518Y-104384188D01*
X161860820Y-104420498D01*
X161750506Y-104479463D01*
X161653815Y-104558815D01*
X161599499Y-104625000D01*
X157607000Y-104625000D01*
X157607000Y-103935233D01*
X157648815Y-103986185D01*
X157745506Y-104065537D01*
X157855820Y-104124502D01*
X157975518Y-104160812D01*
X158100000Y-104173072D01*
X158464250Y-104170000D01*
X158623000Y-104011250D01*
X158623000Y-103312000D01*
X158877000Y-103312000D01*
X158877000Y-104011250D01*
X159035750Y-104170000D01*
X159400000Y-104173072D01*
X159524482Y-104160812D01*
X159644180Y-104124502D01*
X159702500Y-104093329D01*
X159760820Y-104124502D01*
X159880518Y-104160812D01*
X160005000Y-104173072D01*
X160369250Y-104170000D01*
X160528000Y-104011250D01*
X160528000Y-103312000D01*
X160782000Y-103312000D01*
X160782000Y-104011250D01*
X160940750Y-104170000D01*
X161305000Y-104173072D01*
X161429482Y-104160812D01*
X161549180Y-104124502D01*
X161659494Y-104065537D01*
X161756185Y-103986185D01*
X161835537Y-103889494D01*
X161894502Y-103779180D01*
X161930812Y-103659482D01*
X161943072Y-103535000D01*
X161940000Y-103470750D01*
X161781250Y-103312000D01*
X160782000Y-103312000D01*
X160528000Y-103312000D01*
X158877000Y-103312000D01*
X158623000Y-103312000D01*
X158603000Y-103312000D01*
X158603000Y-103058000D01*
X158623000Y-103058000D01*
X158623000Y-103038000D01*
X158877000Y-103038000D01*
X158877000Y-103058000D01*
X160528000Y-103058000D01*
X160528000Y-103038000D01*
X160782000Y-103038000D01*
X160782000Y-103058000D01*
X161781250Y-103058000D01*
X161940000Y-102899250D01*
X161943072Y-102835000D01*
X161930812Y-102710518D01*
X161894502Y-102590820D01*
X161835537Y-102480506D01*
X161756185Y-102383815D01*
X161729603Y-102362000D01*
X166878000Y-102362000D01*
X166878000Y-104398906D01*
G37*
X166878000Y-104398906D02*
X166829482Y-104384188D01*
X166705000Y-104371928D01*
X162105000Y-104371928D01*
X161980518Y-104384188D01*
X161860820Y-104420498D01*
X161750506Y-104479463D01*
X161653815Y-104558815D01*
X161599499Y-104625000D01*
X157607000Y-104625000D01*
X157607000Y-103935233D01*
X157648815Y-103986185D01*
X157745506Y-104065537D01*
X157855820Y-104124502D01*
X157975518Y-104160812D01*
X158100000Y-104173072D01*
X158464250Y-104170000D01*
X158623000Y-104011250D01*
X158623000Y-103312000D01*
X158877000Y-103312000D01*
X158877000Y-104011250D01*
X159035750Y-104170000D01*
X159400000Y-104173072D01*
X159524482Y-104160812D01*
X159644180Y-104124502D01*
X159702500Y-104093329D01*
X159760820Y-104124502D01*
X159880518Y-104160812D01*
X160005000Y-104173072D01*
X160369250Y-104170000D01*
X160528000Y-104011250D01*
X160528000Y-103312000D01*
X160782000Y-103312000D01*
X160782000Y-104011250D01*
X160940750Y-104170000D01*
X161305000Y-104173072D01*
X161429482Y-104160812D01*
X161549180Y-104124502D01*
X161659494Y-104065537D01*
X161756185Y-103986185D01*
X161835537Y-103889494D01*
X161894502Y-103779180D01*
X161930812Y-103659482D01*
X161943072Y-103535000D01*
X161940000Y-103470750D01*
X161781250Y-103312000D01*
X160782000Y-103312000D01*
X160528000Y-103312000D01*
X158877000Y-103312000D01*
X158623000Y-103312000D01*
X158603000Y-103312000D01*
X158603000Y-103058000D01*
X158623000Y-103058000D01*
X158623000Y-103038000D01*
X158877000Y-103038000D01*
X158877000Y-103058000D01*
X160528000Y-103058000D01*
X160528000Y-103038000D01*
X160782000Y-103038000D01*
X160782000Y-103058000D01*
X161781250Y-103058000D01*
X161940000Y-102899250D01*
X161943072Y-102835000D01*
X161930812Y-102710518D01*
X161894502Y-102590820D01*
X161835537Y-102480506D01*
X161756185Y-102383815D01*
X161729603Y-102362000D01*
X166878000Y-102362000D01*
X166878000Y-104398906D01*
G36*
X161798000Y-89535000D02*
G01*
X161800440Y-89559776D01*
X161807667Y-89583601D01*
X161819403Y-89605557D01*
X161835197Y-89624803D01*
X161854443Y-89640597D01*
X161876399Y-89652333D01*
X161900224Y-89659560D01*
X161925000Y-89662000D01*
X166840800Y-89662000D01*
X166840800Y-91687621D01*
X166829482Y-91684188D01*
X166705000Y-91671928D01*
X162105000Y-91671928D01*
X161980518Y-91684188D01*
X161860820Y-91720498D01*
X161750506Y-91779463D01*
X161653815Y-91858815D01*
X161599499Y-91925000D01*
X156337000Y-91925000D01*
X156337000Y-85240000D01*
X161798000Y-85240000D01*
X161798000Y-89535000D01*
G37*
X161798000Y-89535000D02*
X161800440Y-89559776D01*
X161807667Y-89583601D01*
X161819403Y-89605557D01*
X161835197Y-89624803D01*
X161854443Y-89640597D01*
X161876399Y-89652333D01*
X161900224Y-89659560D01*
X161925000Y-89662000D01*
X166840800Y-89662000D01*
X166840800Y-91687621D01*
X166829482Y-91684188D01*
X166705000Y-91671928D01*
X162105000Y-91671928D01*
X161980518Y-91684188D01*
X161860820Y-91720498D01*
X161750506Y-91779463D01*
X161653815Y-91858815D01*
X161599499Y-91925000D01*
X156337000Y-91925000D01*
X156337000Y-85240000D01*
X161798000Y-85240000D01*
X161798000Y-89535000D01*
G36*
X166878000Y-113538000D02*
G01*
X162052000Y-113538000D01*
X162052000Y-111522852D01*
X162105000Y-111528072D01*
X166705000Y-111528072D01*
X166829482Y-111515812D01*
X166878000Y-111501094D01*
X166878000Y-113538000D01*
G37*
X166878000Y-113538000D02*
X162052000Y-113538000D01*
X162052000Y-111522852D01*
X162105000Y-111528072D01*
X166705000Y-111528072D01*
X166829482Y-111515812D01*
X166878000Y-111501094D01*
X166878000Y-113538000D01*
G36*
X166878000Y-100838000D02*
G01*
X162052000Y-100838000D01*
X162052000Y-98822852D01*
X162105000Y-98828072D01*
X166705000Y-98828072D01*
X166829482Y-98815812D01*
X166878000Y-98801094D01*
X166878000Y-100838000D01*
G37*
X166878000Y-100838000D02*
X162052000Y-100838000D01*
X162052000Y-98822852D01*
X162105000Y-98828072D01*
X166705000Y-98828072D01*
X166829482Y-98815812D01*
X166878000Y-98801094D01*
X166878000Y-100838000D01*
G36*
X171323000Y-120583289D02*
G01*
X171281063Y-120625226D01*
X171167795Y-120794744D01*
X171089774Y-120983102D01*
X171050000Y-121183061D01*
X171050000Y-121386939D01*
X171089774Y-121586898D01*
X171167795Y-121775256D01*
X171264510Y-121920000D01*
X171167795Y-122064744D01*
X171089774Y-122253102D01*
X171050000Y-122453061D01*
X171050000Y-122656939D01*
X171089774Y-122856898D01*
X171167795Y-123045256D01*
X171179651Y-123063000D01*
X169037000Y-123063000D01*
X169037000Y-116840000D01*
X169034560Y-116815224D01*
X169027333Y-116791399D01*
X169015597Y-116769443D01*
X168999803Y-116750197D01*
X168980557Y-116734403D01*
X168958601Y-116722667D01*
X168934776Y-116715440D01*
X168910000Y-116713000D01*
X168693007Y-116713000D01*
X168609494Y-116644463D01*
X168499180Y-116585498D01*
X168379482Y-116549188D01*
X168255000Y-116536928D01*
X166705000Y-116536928D01*
X166580518Y-116549188D01*
X166460820Y-116585498D01*
X166350506Y-116644463D01*
X166295019Y-116690000D01*
X157607000Y-116690000D01*
X157607000Y-116000233D01*
X157648815Y-116051185D01*
X157745506Y-116130537D01*
X157855820Y-116189502D01*
X157975518Y-116225812D01*
X158100000Y-116238072D01*
X158464250Y-116235000D01*
X158623000Y-116076250D01*
X158623000Y-115377000D01*
X158877000Y-115377000D01*
X158877000Y-116076250D01*
X159035750Y-116235000D01*
X159400000Y-116238072D01*
X159524482Y-116225812D01*
X159644180Y-116189502D01*
X159702500Y-116158329D01*
X159760820Y-116189502D01*
X159880518Y-116225812D01*
X160005000Y-116238072D01*
X160369250Y-116235000D01*
X160528000Y-116076250D01*
X160528000Y-115377000D01*
X160782000Y-115377000D01*
X160782000Y-116076250D01*
X160940750Y-116235000D01*
X161305000Y-116238072D01*
X161429482Y-116225812D01*
X161549180Y-116189502D01*
X161659494Y-116130537D01*
X161756185Y-116051185D01*
X161835537Y-115954494D01*
X161894502Y-115844180D01*
X161930812Y-115724482D01*
X161943072Y-115600000D01*
X161940000Y-115535750D01*
X161781250Y-115377000D01*
X160782000Y-115377000D01*
X160528000Y-115377000D01*
X158877000Y-115377000D01*
X158623000Y-115377000D01*
X158603000Y-115377000D01*
X158603000Y-115123000D01*
X158623000Y-115123000D01*
X158623000Y-115103000D01*
X158877000Y-115103000D01*
X158877000Y-115123000D01*
X160528000Y-115123000D01*
X160528000Y-115103000D01*
X160782000Y-115103000D01*
X160782000Y-115123000D01*
X161781250Y-115123000D01*
X161940000Y-114964250D01*
X161943072Y-114900000D01*
X161930812Y-114775518D01*
X161894502Y-114655820D01*
X161835537Y-114545506D01*
X161756185Y-114448815D01*
X161729603Y-114427000D01*
X171323000Y-114427000D01*
X171323000Y-120583289D01*
G37*
X171323000Y-120583289D02*
X171281063Y-120625226D01*
X171167795Y-120794744D01*
X171089774Y-120983102D01*
X171050000Y-121183061D01*
X171050000Y-121386939D01*
X171089774Y-121586898D01*
X171167795Y-121775256D01*
X171264510Y-121920000D01*
X171167795Y-122064744D01*
X171089774Y-122253102D01*
X171050000Y-122453061D01*
X171050000Y-122656939D01*
X171089774Y-122856898D01*
X171167795Y-123045256D01*
X171179651Y-123063000D01*
X169037000Y-123063000D01*
X169037000Y-116840000D01*
X169034560Y-116815224D01*
X169027333Y-116791399D01*
X169015597Y-116769443D01*
X168999803Y-116750197D01*
X168980557Y-116734403D01*
X168958601Y-116722667D01*
X168934776Y-116715440D01*
X168910000Y-116713000D01*
X168693007Y-116713000D01*
X168609494Y-116644463D01*
X168499180Y-116585498D01*
X168379482Y-116549188D01*
X168255000Y-116536928D01*
X166705000Y-116536928D01*
X166580518Y-116549188D01*
X166460820Y-116585498D01*
X166350506Y-116644463D01*
X166295019Y-116690000D01*
X157607000Y-116690000D01*
X157607000Y-116000233D01*
X157648815Y-116051185D01*
X157745506Y-116130537D01*
X157855820Y-116189502D01*
X157975518Y-116225812D01*
X158100000Y-116238072D01*
X158464250Y-116235000D01*
X158623000Y-116076250D01*
X158623000Y-115377000D01*
X158877000Y-115377000D01*
X158877000Y-116076250D01*
X159035750Y-116235000D01*
X159400000Y-116238072D01*
X159524482Y-116225812D01*
X159644180Y-116189502D01*
X159702500Y-116158329D01*
X159760820Y-116189502D01*
X159880518Y-116225812D01*
X160005000Y-116238072D01*
X160369250Y-116235000D01*
X160528000Y-116076250D01*
X160528000Y-115377000D01*
X160782000Y-115377000D01*
X160782000Y-116076250D01*
X160940750Y-116235000D01*
X161305000Y-116238072D01*
X161429482Y-116225812D01*
X161549180Y-116189502D01*
X161659494Y-116130537D01*
X161756185Y-116051185D01*
X161835537Y-115954494D01*
X161894502Y-115844180D01*
X161930812Y-115724482D01*
X161943072Y-115600000D01*
X161940000Y-115535750D01*
X161781250Y-115377000D01*
X160782000Y-115377000D01*
X160528000Y-115377000D01*
X158877000Y-115377000D01*
X158623000Y-115377000D01*
X158603000Y-115377000D01*
X158603000Y-115123000D01*
X158623000Y-115123000D01*
X158623000Y-115103000D01*
X158877000Y-115103000D01*
X158877000Y-115123000D01*
X160528000Y-115123000D01*
X160528000Y-115103000D01*
X160782000Y-115103000D01*
X160782000Y-115123000D01*
X161781250Y-115123000D01*
X161940000Y-114964250D01*
X161943072Y-114900000D01*
X161930812Y-114775518D01*
X161894502Y-114655820D01*
X161835537Y-114545506D01*
X161756185Y-114448815D01*
X161729603Y-114427000D01*
X171323000Y-114427000D01*
X171323000Y-120583289D01*
G36*
X178308000Y-124968000D02*
G01*
X172212000Y-124968000D01*
X172212000Y-123825000D01*
X175260000Y-123825000D01*
X175383882Y-123812799D01*
X175503004Y-123776664D01*
X175612787Y-123717983D01*
X175709013Y-123639013D01*
X175787983Y-123542787D01*
X175846664Y-123433004D01*
X175882799Y-123313882D01*
X175895000Y-123190000D01*
X175895000Y-122047000D01*
X178308000Y-122047000D01*
X178308000Y-124968000D01*
G37*
X178308000Y-124968000D02*
X172212000Y-124968000D01*
X172212000Y-123825000D01*
X175260000Y-123825000D01*
X175383882Y-123812799D01*
X175503004Y-123776664D01*
X175612787Y-123717983D01*
X175709013Y-123639013D01*
X175787983Y-123542787D01*
X175846664Y-123433004D01*
X175882799Y-123313882D01*
X175895000Y-123190000D01*
X175895000Y-122047000D01*
X178308000Y-122047000D01*
X178308000Y-124968000D01*
G36*
X163703000Y-78407629D02*
G01*
X163665000Y-78598665D01*
X163665000Y-78881335D01*
X163703000Y-79072371D01*
X163703000Y-82423000D01*
X146685000Y-82423000D01*
X146660224Y-82425440D01*
X146636399Y-82432667D01*
X146614443Y-82444403D01*
X146595197Y-82460197D01*
X146579403Y-82479443D01*
X146567667Y-82501399D01*
X146560440Y-82525224D01*
X146558000Y-82550000D01*
X146558000Y-120650000D01*
X146560440Y-120674776D01*
X146567667Y-120698601D01*
X146579403Y-120720557D01*
X146595197Y-120739803D01*
X146614443Y-120755597D01*
X146636399Y-120767333D01*
X146660224Y-120774560D01*
X146685000Y-120777000D01*
X147084648Y-120777000D01*
X147072928Y-120896000D01*
X147076000Y-121110250D01*
X147234750Y-121269000D01*
X148209000Y-121269000D01*
X148209000Y-121249000D01*
X148463000Y-121249000D01*
X148463000Y-121269000D01*
X149437250Y-121269000D01*
X149596000Y-121110250D01*
X149599072Y-120896000D01*
X149587352Y-120777000D01*
X151003000Y-120777000D01*
X151003000Y-123063000D01*
X142367000Y-123063000D01*
X142367000Y-121896000D01*
X147072928Y-121896000D01*
X147085188Y-122020482D01*
X147121498Y-122140180D01*
X147180463Y-122250494D01*
X147259815Y-122347185D01*
X147356506Y-122426537D01*
X147466820Y-122485502D01*
X147586518Y-122521812D01*
X147711000Y-122534072D01*
X148050250Y-122531000D01*
X148209000Y-122372250D01*
X148209000Y-121523000D01*
X148463000Y-121523000D01*
X148463000Y-122372250D01*
X148621750Y-122531000D01*
X148961000Y-122534072D01*
X149085482Y-122521812D01*
X149205180Y-122485502D01*
X149315494Y-122426537D01*
X149412185Y-122347185D01*
X149491537Y-122250494D01*
X149550502Y-122140180D01*
X149586812Y-122020482D01*
X149599072Y-121896000D01*
X149596000Y-121681750D01*
X149437250Y-121523000D01*
X148463000Y-121523000D01*
X148209000Y-121523000D01*
X147234750Y-121523000D01*
X147076000Y-121681750D01*
X147072928Y-121896000D01*
X142367000Y-121896000D01*
X142367000Y-80137000D01*
X151380538Y-80137000D01*
X151475518Y-80165812D01*
X151600000Y-80178072D01*
X153200000Y-80178072D01*
X153324482Y-80165812D01*
X153419462Y-80137000D01*
X154607629Y-80137000D01*
X154798665Y-80175000D01*
X155081335Y-80175000D01*
X155272371Y-80137000D01*
X157147629Y-80137000D01*
X157338665Y-80175000D01*
X157621335Y-80175000D01*
X157812371Y-80137000D01*
X159687629Y-80137000D01*
X159878665Y-80175000D01*
X160161335Y-80175000D01*
X160352371Y-80137000D01*
X161290000Y-80137000D01*
X161314776Y-80134560D01*
X161338601Y-80127333D01*
X161360557Y-80115597D01*
X161379803Y-80099803D01*
X161395597Y-80080557D01*
X161407333Y-80058601D01*
X161414560Y-80034776D01*
X161417000Y-80010000D01*
X161417000Y-79072371D01*
X161455000Y-78881335D01*
X161455000Y-78598665D01*
X161417000Y-78407629D01*
X161417000Y-77597000D01*
X163703000Y-77597000D01*
X163703000Y-78407629D01*
G37*
X163703000Y-78407629D02*
X163665000Y-78598665D01*
X163665000Y-78881335D01*
X163703000Y-79072371D01*
X163703000Y-82423000D01*
X146685000Y-82423000D01*
X146660224Y-82425440D01*
X146636399Y-82432667D01*
X146614443Y-82444403D01*
X146595197Y-82460197D01*
X146579403Y-82479443D01*
X146567667Y-82501399D01*
X146560440Y-82525224D01*
X146558000Y-82550000D01*
X146558000Y-120650000D01*
X146560440Y-120674776D01*
X146567667Y-120698601D01*
X146579403Y-120720557D01*
X146595197Y-120739803D01*
X146614443Y-120755597D01*
X146636399Y-120767333D01*
X146660224Y-120774560D01*
X146685000Y-120777000D01*
X147084648Y-120777000D01*
X147072928Y-120896000D01*
X147076000Y-121110250D01*
X147234750Y-121269000D01*
X148209000Y-121269000D01*
X148209000Y-121249000D01*
X148463000Y-121249000D01*
X148463000Y-121269000D01*
X149437250Y-121269000D01*
X149596000Y-121110250D01*
X149599072Y-120896000D01*
X149587352Y-120777000D01*
X151003000Y-120777000D01*
X151003000Y-123063000D01*
X142367000Y-123063000D01*
X142367000Y-121896000D01*
X147072928Y-121896000D01*
X147085188Y-122020482D01*
X147121498Y-122140180D01*
X147180463Y-122250494D01*
X147259815Y-122347185D01*
X147356506Y-122426537D01*
X147466820Y-122485502D01*
X147586518Y-122521812D01*
X147711000Y-122534072D01*
X148050250Y-122531000D01*
X148209000Y-122372250D01*
X148209000Y-121523000D01*
X148463000Y-121523000D01*
X148463000Y-122372250D01*
X148621750Y-122531000D01*
X148961000Y-122534072D01*
X149085482Y-122521812D01*
X149205180Y-122485502D01*
X149315494Y-122426537D01*
X149412185Y-122347185D01*
X149491537Y-122250494D01*
X149550502Y-122140180D01*
X149586812Y-122020482D01*
X149599072Y-121896000D01*
X149596000Y-121681750D01*
X149437250Y-121523000D01*
X148463000Y-121523000D01*
X148209000Y-121523000D01*
X147234750Y-121523000D01*
X147076000Y-121681750D01*
X147072928Y-121896000D01*
X142367000Y-121896000D01*
X142367000Y-80137000D01*
X151380538Y-80137000D01*
X151475518Y-80165812D01*
X151600000Y-80178072D01*
X153200000Y-80178072D01*
X153324482Y-80165812D01*
X153419462Y-80137000D01*
X154607629Y-80137000D01*
X154798665Y-80175000D01*
X155081335Y-80175000D01*
X155272371Y-80137000D01*
X157147629Y-80137000D01*
X157338665Y-80175000D01*
X157621335Y-80175000D01*
X157812371Y-80137000D01*
X159687629Y-80137000D01*
X159878665Y-80175000D01*
X160161335Y-80175000D01*
X160352371Y-80137000D01*
X161290000Y-80137000D01*
X161314776Y-80134560D01*
X161338601Y-80127333D01*
X161360557Y-80115597D01*
X161379803Y-80099803D01*
X161395597Y-80080557D01*
X161407333Y-80058601D01*
X161414560Y-80034776D01*
X161417000Y-80010000D01*
X161417000Y-79072371D01*
X161455000Y-78881335D01*
X161455000Y-78598665D01*
X161417000Y-78407629D01*
X161417000Y-77597000D01*
X163703000Y-77597000D01*
X163703000Y-78407629D01*
G36*
X167513000Y-86360000D02*
G01*
X167515440Y-86384776D01*
X167522667Y-86408601D01*
X167534403Y-86430557D01*
X167550197Y-86449803D01*
X167569443Y-86465597D01*
X167591399Y-86477333D01*
X167615224Y-86484560D01*
X167640000Y-86487000D01*
X172616993Y-86487000D01*
X172700506Y-86555537D01*
X172810820Y-86614502D01*
X172930518Y-86650812D01*
X173055000Y-86663072D01*
X174605000Y-86663072D01*
X174729482Y-86650812D01*
X174849180Y-86614502D01*
X174959494Y-86555537D01*
X174979893Y-86538796D01*
X175076798Y-86487000D01*
X178016993Y-86487000D01*
X178100506Y-86555537D01*
X178210820Y-86614502D01*
X178330518Y-86650812D01*
X178455000Y-86663072D01*
X180005000Y-86663072D01*
X180129482Y-86650812D01*
X180249180Y-86614502D01*
X180257603Y-86610000D01*
X186760394Y-86610000D01*
X188468000Y-88317606D01*
X188468000Y-93853000D01*
X179197000Y-93853000D01*
X179197000Y-88900000D01*
X179194560Y-88875224D01*
X179187333Y-88851399D01*
X179175597Y-88829443D01*
X179159803Y-88810197D01*
X179140557Y-88794403D01*
X179118601Y-88782667D01*
X179094776Y-88775440D01*
X179070000Y-88773000D01*
X162687000Y-88773000D01*
X162687000Y-85377763D01*
X167513000Y-85377763D01*
X167513000Y-86360000D01*
G37*
X167513000Y-86360000D02*
X167515440Y-86384776D01*
X167522667Y-86408601D01*
X167534403Y-86430557D01*
X167550197Y-86449803D01*
X167569443Y-86465597D01*
X167591399Y-86477333D01*
X167615224Y-86484560D01*
X167640000Y-86487000D01*
X172616993Y-86487000D01*
X172700506Y-86555537D01*
X172810820Y-86614502D01*
X172930518Y-86650812D01*
X173055000Y-86663072D01*
X174605000Y-86663072D01*
X174729482Y-86650812D01*
X174849180Y-86614502D01*
X174959494Y-86555537D01*
X174979893Y-86538796D01*
X175076798Y-86487000D01*
X178016993Y-86487000D01*
X178100506Y-86555537D01*
X178210820Y-86614502D01*
X178330518Y-86650812D01*
X178455000Y-86663072D01*
X180005000Y-86663072D01*
X180129482Y-86650812D01*
X180249180Y-86614502D01*
X180257603Y-86610000D01*
X186760394Y-86610000D01*
X188468000Y-88317606D01*
X188468000Y-93853000D01*
X179197000Y-93853000D01*
X179197000Y-88900000D01*
X179194560Y-88875224D01*
X179187333Y-88851399D01*
X179175597Y-88829443D01*
X179159803Y-88810197D01*
X179140557Y-88794403D01*
X179118601Y-88782667D01*
X179094776Y-88775440D01*
X179070000Y-88773000D01*
X162687000Y-88773000D01*
X162687000Y-85377763D01*
X167513000Y-85377763D01*
X167513000Y-86360000D01*
G36*
X190094000Y-78720067D02*
G01*
X190092037Y-78740000D01*
X190094000Y-78759933D01*
X190094000Y-78759940D01*
X190099875Y-78819589D01*
X190123090Y-78896120D01*
X190160790Y-78966652D01*
X190211526Y-79028474D01*
X190227024Y-79041193D01*
X192634001Y-81448172D01*
X192634001Y-84328000D01*
X191665300Y-84328000D01*
X191722156Y-84190737D01*
X191771000Y-83945183D01*
X191771000Y-83694817D01*
X191722156Y-83449263D01*
X191626346Y-83217956D01*
X191487250Y-83009785D01*
X191310215Y-82832750D01*
X191102044Y-82693654D01*
X190870737Y-82597844D01*
X190625183Y-82549000D01*
X190374817Y-82549000D01*
X190129263Y-82597844D01*
X189897956Y-82693654D01*
X189689785Y-82832750D01*
X189512750Y-83009785D01*
X189373654Y-83217956D01*
X189277844Y-83449263D01*
X189229000Y-83694817D01*
X189229000Y-83945183D01*
X189277844Y-84190737D01*
X189334700Y-84328000D01*
X184535236Y-84328000D01*
X184518701Y-84273492D01*
X184483322Y-84207304D01*
X184435711Y-84149289D01*
X184377696Y-84101678D01*
X184311508Y-84066299D01*
X184239689Y-84044513D01*
X184165000Y-84037157D01*
X182865000Y-84037157D01*
X182790311Y-84044513D01*
X182718492Y-84066299D01*
X182652304Y-84101678D01*
X182606826Y-84139000D01*
X182518174Y-84139000D01*
X182472696Y-84101678D01*
X182406508Y-84066299D01*
X182334689Y-84044513D01*
X182260000Y-84037157D01*
X181769525Y-84037157D01*
X181763105Y-84030737D01*
X181743343Y-84006657D01*
X181647261Y-83927804D01*
X181537642Y-83869211D01*
X181418698Y-83833130D01*
X181325998Y-83824000D01*
X181325990Y-83824000D01*
X181295000Y-83820948D01*
X181264010Y-83824000D01*
X180193978Y-83824000D01*
X180186494Y-83820000D01*
X180193978Y-83816000D01*
X181264010Y-83816000D01*
X181295000Y-83819052D01*
X181325990Y-83816000D01*
X181325998Y-83816000D01*
X181418698Y-83806870D01*
X181537642Y-83770789D01*
X181647261Y-83712196D01*
X181743343Y-83633343D01*
X181763105Y-83609263D01*
X181769525Y-83602843D01*
X182260000Y-83602843D01*
X182334689Y-83595487D01*
X182348302Y-83591357D01*
X182413815Y-83671185D01*
X182510506Y-83750537D01*
X182620820Y-83809502D01*
X182740518Y-83845812D01*
X182865000Y-83858072D01*
X183229250Y-83855000D01*
X183388000Y-83696250D01*
X183388000Y-82997000D01*
X183642000Y-82997000D01*
X183642000Y-83696250D01*
X183800750Y-83855000D01*
X184165000Y-83858072D01*
X184289482Y-83845812D01*
X184409180Y-83809502D01*
X184519494Y-83750537D01*
X184616185Y-83671185D01*
X184695537Y-83574494D01*
X184754502Y-83464180D01*
X184790812Y-83344482D01*
X184803072Y-83220000D01*
X184800000Y-83155750D01*
X184641250Y-82997000D01*
X183642000Y-82997000D01*
X183388000Y-82997000D01*
X183368000Y-82997000D01*
X183368000Y-82743000D01*
X183388000Y-82743000D01*
X183388000Y-82723000D01*
X183642000Y-82723000D01*
X183642000Y-82743000D01*
X184641250Y-82743000D01*
X184800000Y-82584250D01*
X184803072Y-82520000D01*
X184790812Y-82395518D01*
X184754502Y-82275820D01*
X184695537Y-82165506D01*
X184616185Y-82068815D01*
X184519494Y-81989463D01*
X184409180Y-81930498D01*
X184381391Y-81922068D01*
X184383072Y-81905000D01*
X184380000Y-81565750D01*
X184221250Y-81407000D01*
X183372000Y-81407000D01*
X183372000Y-81427000D01*
X183118000Y-81427000D01*
X183118000Y-81407000D01*
X183098000Y-81407000D01*
X183098000Y-81153000D01*
X183118000Y-81153000D01*
X183118000Y-80178750D01*
X183372000Y-80178750D01*
X183372000Y-81153000D01*
X184221250Y-81153000D01*
X184380000Y-80994250D01*
X184383072Y-80655000D01*
X184370812Y-80530518D01*
X184334502Y-80410820D01*
X184275537Y-80300506D01*
X184196185Y-80203815D01*
X184099494Y-80124463D01*
X183989180Y-80065498D01*
X183869482Y-80029188D01*
X183745000Y-80016928D01*
X183530750Y-80020000D01*
X183372000Y-80178750D01*
X183118000Y-80178750D01*
X182959250Y-80020000D01*
X182745000Y-80016928D01*
X182620518Y-80029188D01*
X182500820Y-80065498D01*
X182390506Y-80124463D01*
X182293815Y-80203815D01*
X182214463Y-80300506D01*
X182155498Y-80410820D01*
X182119188Y-80530518D01*
X182115804Y-80564874D01*
X182098701Y-80508492D01*
X182063322Y-80442304D01*
X182015711Y-80384289D01*
X181957696Y-80336678D01*
X181891508Y-80301299D01*
X181819689Y-80279513D01*
X181745000Y-80272157D01*
X180745000Y-80272157D01*
X180670311Y-80279513D01*
X180598492Y-80301299D01*
X180532304Y-80336678D01*
X180474289Y-80384289D01*
X180462216Y-80399000D01*
X179026727Y-80399000D01*
X178897294Y-80411748D01*
X178731225Y-80462125D01*
X178578175Y-80543932D01*
X178444025Y-80654025D01*
X178431000Y-80669896D01*
X178431000Y-79738755D01*
X178552843Y-79657342D01*
X178717342Y-79492843D01*
X178846588Y-79299413D01*
X178935614Y-79084485D01*
X178981000Y-78856318D01*
X178981000Y-78623682D01*
X179159000Y-78623682D01*
X179159000Y-78856318D01*
X179204386Y-79084485D01*
X179293412Y-79299413D01*
X179422658Y-79492843D01*
X179587157Y-79657342D01*
X179780587Y-79786588D01*
X179995515Y-79875614D01*
X180223682Y-79921000D01*
X180456318Y-79921000D01*
X180684485Y-79875614D01*
X180899413Y-79786588D01*
X181092843Y-79657342D01*
X181257342Y-79492843D01*
X181386588Y-79299413D01*
X181475614Y-79084485D01*
X181521000Y-78856318D01*
X181521000Y-78623682D01*
X181699000Y-78623682D01*
X181699000Y-78856318D01*
X181744386Y-79084485D01*
X181833412Y-79299413D01*
X181962658Y-79492843D01*
X182127157Y-79657342D01*
X182320587Y-79786588D01*
X182535515Y-79875614D01*
X182763682Y-79921000D01*
X182996318Y-79921000D01*
X183224485Y-79875614D01*
X183439413Y-79786588D01*
X183632843Y-79657342D01*
X183797342Y-79492843D01*
X183926588Y-79299413D01*
X184015614Y-79084485D01*
X184061000Y-78856318D01*
X184061000Y-78623682D01*
X184239000Y-78623682D01*
X184239000Y-78856318D01*
X184284386Y-79084485D01*
X184373412Y-79299413D01*
X184502658Y-79492843D01*
X184667157Y-79657342D01*
X184860587Y-79786588D01*
X185075515Y-79875614D01*
X185303682Y-79921000D01*
X185536318Y-79921000D01*
X185764485Y-79875614D01*
X185979413Y-79786588D01*
X186172843Y-79657342D01*
X186337342Y-79492843D01*
X186466588Y-79299413D01*
X186555614Y-79084485D01*
X186601000Y-78856318D01*
X186601000Y-78623682D01*
X186779000Y-78623682D01*
X186779000Y-78856318D01*
X186824386Y-79084485D01*
X186913412Y-79299413D01*
X187042658Y-79492843D01*
X187207157Y-79657342D01*
X187400587Y-79786588D01*
X187615515Y-79875614D01*
X187843682Y-79921000D01*
X188076318Y-79921000D01*
X188304485Y-79875614D01*
X188519413Y-79786588D01*
X188712843Y-79657342D01*
X188877342Y-79492843D01*
X189006588Y-79299413D01*
X189095614Y-79084485D01*
X189141000Y-78856318D01*
X189141000Y-78623682D01*
X189095614Y-78395515D01*
X189006588Y-78180587D01*
X188877342Y-77987157D01*
X188712843Y-77822658D01*
X188519413Y-77693412D01*
X188304485Y-77604386D01*
X188076318Y-77559000D01*
X187843682Y-77559000D01*
X187615515Y-77604386D01*
X187400587Y-77693412D01*
X187207157Y-77822658D01*
X187042658Y-77987157D01*
X186913412Y-78180587D01*
X186824386Y-78395515D01*
X186779000Y-78623682D01*
X186601000Y-78623682D01*
X186555614Y-78395515D01*
X186466588Y-78180587D01*
X186337342Y-77987157D01*
X186172843Y-77822658D01*
X185979413Y-77693412D01*
X185764485Y-77604386D01*
X185536318Y-77559000D01*
X185303682Y-77559000D01*
X185075515Y-77604386D01*
X184860587Y-77693412D01*
X184667157Y-77822658D01*
X184502658Y-77987157D01*
X184373412Y-78180587D01*
X184284386Y-78395515D01*
X184239000Y-78623682D01*
X184061000Y-78623682D01*
X184015614Y-78395515D01*
X183926588Y-78180587D01*
X183797342Y-77987157D01*
X183632843Y-77822658D01*
X183439413Y-77693412D01*
X183224485Y-77604386D01*
X182996318Y-77559000D01*
X182763682Y-77559000D01*
X182535515Y-77604386D01*
X182320587Y-77693412D01*
X182127157Y-77822658D01*
X181962658Y-77987157D01*
X181833412Y-78180587D01*
X181744386Y-78395515D01*
X181699000Y-78623682D01*
X181521000Y-78623682D01*
X181475614Y-78395515D01*
X181386588Y-78180587D01*
X181257342Y-77987157D01*
X181092843Y-77822658D01*
X180899413Y-77693412D01*
X180684485Y-77604386D01*
X180456318Y-77559000D01*
X180223682Y-77559000D01*
X179995515Y-77604386D01*
X179780587Y-77693412D01*
X179587157Y-77822658D01*
X179422658Y-77987157D01*
X179293412Y-78180587D01*
X179204386Y-78395515D01*
X179159000Y-78623682D01*
X178981000Y-78623682D01*
X178935614Y-78395515D01*
X178846588Y-78180587D01*
X178717342Y-77987157D01*
X178552843Y-77822658D01*
X178359413Y-77693412D01*
X178144485Y-77604386D01*
X177916318Y-77559000D01*
X177683682Y-77559000D01*
X177455515Y-77604386D01*
X177240587Y-77693412D01*
X177047157Y-77822658D01*
X176882658Y-77987157D01*
X176753412Y-78180587D01*
X176664386Y-78395515D01*
X176619000Y-78623682D01*
X176619000Y-78856318D01*
X176664386Y-79084485D01*
X176753412Y-79299413D01*
X176882658Y-79492843D01*
X177047157Y-79657342D01*
X177169000Y-79738755D01*
X177169001Y-82999000D01*
X177165948Y-83030000D01*
X177178130Y-83153697D01*
X177214211Y-83272641D01*
X177272804Y-83382260D01*
X177331897Y-83454265D01*
X177331900Y-83454268D01*
X177351658Y-83478343D01*
X177375733Y-83498101D01*
X177486895Y-83609263D01*
X177506657Y-83633343D01*
X177602739Y-83712196D01*
X177712358Y-83770789D01*
X177831302Y-83806870D01*
X177924002Y-83816000D01*
X177924011Y-83816000D01*
X177954999Y-83819052D01*
X177985987Y-83816000D01*
X178266022Y-83816000D01*
X178273506Y-83820000D01*
X178242304Y-83836678D01*
X178184289Y-83884289D01*
X178136678Y-83942304D01*
X178101299Y-84008492D01*
X178079513Y-84080311D01*
X178072157Y-84155000D01*
X178072157Y-84328000D01*
X174987843Y-84328000D01*
X174987843Y-84155000D01*
X174980487Y-84080311D01*
X174958701Y-84008492D01*
X174923322Y-83942304D01*
X174875711Y-83884289D01*
X174817696Y-83836678D01*
X174786494Y-83820000D01*
X174817696Y-83803322D01*
X174875711Y-83755711D01*
X174923322Y-83697696D01*
X174958701Y-83631508D01*
X174980487Y-83559689D01*
X174987843Y-83485000D01*
X174987843Y-82885000D01*
X174980487Y-82810311D01*
X174958701Y-82738492D01*
X174923322Y-82672304D01*
X174875711Y-82614289D01*
X174817696Y-82566678D01*
X174786494Y-82550000D01*
X174793978Y-82546000D01*
X175074010Y-82546000D01*
X175105000Y-82549052D01*
X175135990Y-82546000D01*
X175135998Y-82546000D01*
X175228698Y-82536870D01*
X175347642Y-82500789D01*
X175457261Y-82442196D01*
X175553343Y-82363343D01*
X175573105Y-82339263D01*
X175684263Y-82228105D01*
X175708343Y-82208343D01*
X175787196Y-82112261D01*
X175845789Y-82002642D01*
X175881870Y-81883698D01*
X175891000Y-81790998D01*
X175891000Y-81790989D01*
X175894052Y-81760001D01*
X175891000Y-81729013D01*
X175891000Y-79738755D01*
X176012843Y-79657342D01*
X176177342Y-79492843D01*
X176306588Y-79299413D01*
X176395614Y-79084485D01*
X176441000Y-78856318D01*
X176441000Y-78623682D01*
X176395614Y-78395515D01*
X176306588Y-78180587D01*
X176177342Y-77987157D01*
X176012843Y-77822658D01*
X175819413Y-77693412D01*
X175604485Y-77604386D01*
X175376318Y-77559000D01*
X175143682Y-77559000D01*
X174915515Y-77604386D01*
X174700587Y-77693412D01*
X174507157Y-77822658D01*
X174342658Y-77987157D01*
X174213412Y-78180587D01*
X174124386Y-78395515D01*
X174079000Y-78623682D01*
X174079000Y-78856318D01*
X174124386Y-79084485D01*
X174213412Y-79299413D01*
X174342658Y-79492843D01*
X174507157Y-79657342D01*
X174629000Y-79738755D01*
X174629001Y-81234521D01*
X174605000Y-81232157D01*
X173055000Y-81232157D01*
X172980311Y-81239513D01*
X172908492Y-81261299D01*
X172866022Y-81284000D01*
X172482843Y-81284000D01*
X172482843Y-81250000D01*
X172475487Y-81175311D01*
X172453701Y-81103492D01*
X172418322Y-81037304D01*
X172370711Y-80979289D01*
X172312696Y-80931678D01*
X172246508Y-80896299D01*
X172174689Y-80874513D01*
X172100000Y-80867157D01*
X170800000Y-80867157D01*
X170725311Y-80874513D01*
X170711698Y-80878643D01*
X170646185Y-80798815D01*
X170549494Y-80719463D01*
X170439180Y-80660498D01*
X170319482Y-80624188D01*
X170195000Y-80611928D01*
X169830750Y-80615000D01*
X169672000Y-80773750D01*
X169672000Y-81473000D01*
X169692000Y-81473000D01*
X169692000Y-81727000D01*
X169672000Y-81727000D01*
X169672000Y-82426250D01*
X169830750Y-82585000D01*
X170195000Y-82588072D01*
X170319482Y-82575812D01*
X170439180Y-82539502D01*
X170549494Y-82480537D01*
X170646185Y-82401185D01*
X170711698Y-82321357D01*
X170725311Y-82325487D01*
X170800000Y-82332843D01*
X171290475Y-82332843D01*
X171296895Y-82339263D01*
X171316657Y-82363343D01*
X171412739Y-82442196D01*
X171522358Y-82500789D01*
X171641302Y-82536870D01*
X171734002Y-82546000D01*
X171734011Y-82546000D01*
X171764999Y-82549052D01*
X171795987Y-82546000D01*
X172866022Y-82546000D01*
X172873506Y-82550000D01*
X172866022Y-82554000D01*
X171795987Y-82554000D01*
X171764999Y-82550948D01*
X171734011Y-82554000D01*
X171734002Y-82554000D01*
X171641302Y-82563130D01*
X171522358Y-82599211D01*
X171412739Y-82657804D01*
X171316657Y-82736657D01*
X171296897Y-82760735D01*
X171290475Y-82767157D01*
X170800000Y-82767157D01*
X170725311Y-82774513D01*
X170653492Y-82796299D01*
X170587304Y-82831678D01*
X170541826Y-82869000D01*
X170453174Y-82869000D01*
X170407696Y-82831678D01*
X170341508Y-82796299D01*
X170269689Y-82774513D01*
X170195000Y-82767157D01*
X168895000Y-82767157D01*
X168820311Y-82774513D01*
X168748492Y-82796299D01*
X168682304Y-82831678D01*
X168624289Y-82879289D01*
X168613071Y-82892959D01*
X168583322Y-82837304D01*
X168535711Y-82779289D01*
X168477696Y-82731678D01*
X168411508Y-82696299D01*
X168355126Y-82679196D01*
X168389482Y-82675812D01*
X168509180Y-82639502D01*
X168619494Y-82580537D01*
X168664455Y-82543638D01*
X168770518Y-82575812D01*
X168895000Y-82588072D01*
X169259250Y-82585000D01*
X169418000Y-82426250D01*
X169418000Y-81727000D01*
X168791250Y-81727000D01*
X168741250Y-81677000D01*
X167767000Y-81677000D01*
X167767000Y-81697000D01*
X167513000Y-81697000D01*
X167513000Y-81677000D01*
X166538750Y-81677000D01*
X166380000Y-81835750D01*
X166376928Y-82050000D01*
X166389188Y-82174482D01*
X166425498Y-82294180D01*
X166484463Y-82404494D01*
X166563815Y-82501185D01*
X166660506Y-82580537D01*
X166770820Y-82639502D01*
X166890518Y-82675812D01*
X166924874Y-82679196D01*
X166868492Y-82696299D01*
X166802304Y-82731678D01*
X166744289Y-82779289D01*
X166696678Y-82837304D01*
X166661299Y-82903492D01*
X166639513Y-82975311D01*
X166632157Y-83050000D01*
X166632157Y-83806897D01*
X166515054Y-83924000D01*
X164592000Y-83924000D01*
X164592000Y-83820000D01*
X164589560Y-83795224D01*
X164582333Y-83771399D01*
X164570597Y-83749443D01*
X164554803Y-83730197D01*
X164535557Y-83714403D01*
X164513601Y-83702667D01*
X164489776Y-83695440D01*
X164465000Y-83693000D01*
X155575000Y-83693000D01*
X155550224Y-83695440D01*
X155526399Y-83702667D01*
X155504443Y-83714403D01*
X155485197Y-83730197D01*
X153580197Y-85635197D01*
X153564403Y-85654443D01*
X153552667Y-85676399D01*
X153545440Y-85700224D01*
X153543000Y-85725000D01*
X153543000Y-85736054D01*
X153312975Y-85966079D01*
X153292710Y-85982710D01*
X153226354Y-86063565D01*
X153177047Y-86155813D01*
X153146683Y-86255907D01*
X153139000Y-86333917D01*
X153139000Y-86333926D01*
X153136432Y-86360000D01*
X153139000Y-86386074D01*
X153139001Y-92490052D01*
X152042975Y-93586079D01*
X152022710Y-93602710D01*
X151956354Y-93683565D01*
X151907047Y-93775813D01*
X151876683Y-93875907D01*
X151869000Y-93953917D01*
X151869000Y-93953926D01*
X151866432Y-93980000D01*
X151869000Y-94006074D01*
X151869001Y-95223916D01*
X151866432Y-95250000D01*
X151876684Y-95354093D01*
X151907047Y-95454187D01*
X151956354Y-95546435D01*
X152006083Y-95607029D01*
X152022711Y-95627290D01*
X152042971Y-95643917D01*
X153543000Y-97143946D01*
X153543000Y-99946281D01*
X153493492Y-99961299D01*
X153427304Y-99996678D01*
X153369289Y-100044289D01*
X153321678Y-100102304D01*
X153286299Y-100168492D01*
X153271410Y-100217576D01*
X153262809Y-100214013D01*
X153111922Y-100184000D01*
X152958078Y-100184000D01*
X152807191Y-100214013D01*
X152665058Y-100272887D01*
X152537141Y-100358358D01*
X152428358Y-100467141D01*
X152342887Y-100595058D01*
X152284013Y-100737191D01*
X152254000Y-100888078D01*
X152254000Y-101041922D01*
X152284013Y-101192809D01*
X152342887Y-101334942D01*
X152428358Y-101462859D01*
X152537141Y-101571642D01*
X152665058Y-101657113D01*
X152807191Y-101715987D01*
X152958078Y-101746000D01*
X153111922Y-101746000D01*
X153262809Y-101715987D01*
X153271410Y-101712424D01*
X153286299Y-101761508D01*
X153321678Y-101827696D01*
X153369289Y-101885711D01*
X153427304Y-101933322D01*
X153493492Y-101968701D01*
X153565311Y-101990487D01*
X153640000Y-101997843D01*
X154340000Y-101997843D01*
X154414689Y-101990487D01*
X154486508Y-101968701D01*
X154552696Y-101933322D01*
X154610711Y-101885711D01*
X154658322Y-101827696D01*
X154693701Y-101761508D01*
X154704169Y-101727000D01*
X155175831Y-101727000D01*
X155186299Y-101761508D01*
X155221678Y-101827696D01*
X155269289Y-101885711D01*
X155327304Y-101933322D01*
X155393492Y-101968701D01*
X155465311Y-101990487D01*
X155540000Y-101997843D01*
X156083000Y-101997843D01*
X156083000Y-102612107D01*
X155974482Y-102579188D01*
X155850000Y-102566928D01*
X155385750Y-102570000D01*
X155227000Y-102728750D01*
X155227000Y-103378000D01*
X155247000Y-103378000D01*
X155247000Y-103632000D01*
X155227000Y-103632000D01*
X155227000Y-103652000D01*
X154973000Y-103652000D01*
X154973000Y-103632000D01*
X153873750Y-103632000D01*
X153715000Y-103790750D01*
X153711928Y-103805000D01*
X153724188Y-103929482D01*
X153760498Y-104049180D01*
X153819463Y-104159494D01*
X153898815Y-104256185D01*
X153994430Y-104334654D01*
X153974513Y-104400311D01*
X153967157Y-104475000D01*
X153967157Y-105075000D01*
X153974513Y-105149689D01*
X153996299Y-105221508D01*
X154031678Y-105287696D01*
X154079289Y-105345711D01*
X154137304Y-105393322D01*
X154168506Y-105410000D01*
X154137304Y-105426678D01*
X154079289Y-105474289D01*
X154046699Y-105514000D01*
X153061074Y-105514000D01*
X153035000Y-105511432D01*
X153008926Y-105514000D01*
X153008916Y-105514000D01*
X152930906Y-105521683D01*
X152830812Y-105552047D01*
X152738564Y-105601354D01*
X152677970Y-105651082D01*
X152677964Y-105651088D01*
X152657710Y-105667710D01*
X152641087Y-105687965D01*
X152042975Y-106286079D01*
X152042970Y-106286083D01*
X151160054Y-107169000D01*
X151053078Y-107169000D01*
X150902191Y-107199013D01*
X150832843Y-107227738D01*
X150832843Y-107015000D01*
X150825487Y-106940311D01*
X150803701Y-106868492D01*
X150768322Y-106802304D01*
X150720711Y-106744289D01*
X150662696Y-106696678D01*
X150631494Y-106680000D01*
X150662696Y-106663322D01*
X150720711Y-106615711D01*
X150768322Y-106557696D01*
X150803701Y-106491508D01*
X150825487Y-106419689D01*
X150832843Y-106345000D01*
X150832843Y-105745000D01*
X150825487Y-105670311D01*
X150803701Y-105598492D01*
X150768322Y-105532304D01*
X150720711Y-105474289D01*
X150662696Y-105426678D01*
X150631494Y-105410000D01*
X150662696Y-105393322D01*
X150720711Y-105345711D01*
X150768322Y-105287696D01*
X150803701Y-105221508D01*
X150825487Y-105149689D01*
X150832843Y-105075000D01*
X150832843Y-104475000D01*
X150825487Y-104400311D01*
X150803701Y-104328492D01*
X150768322Y-104262304D01*
X150720711Y-104204289D01*
X150662696Y-104156678D01*
X150631494Y-104140000D01*
X150662696Y-104123322D01*
X150720711Y-104075711D01*
X150768322Y-104017696D01*
X150803701Y-103951508D01*
X150825487Y-103879689D01*
X150832843Y-103805000D01*
X150832843Y-103205000D01*
X153711928Y-103205000D01*
X153715000Y-103219250D01*
X153873750Y-103378000D01*
X154973000Y-103378000D01*
X154973000Y-102728750D01*
X154814250Y-102570000D01*
X154350000Y-102566928D01*
X154225518Y-102579188D01*
X154105820Y-102615498D01*
X153995506Y-102674463D01*
X153898815Y-102753815D01*
X153819463Y-102850506D01*
X153760498Y-102960820D01*
X153724188Y-103080518D01*
X153711928Y-103205000D01*
X150832843Y-103205000D01*
X150825487Y-103130311D01*
X150803701Y-103058492D01*
X150768322Y-102992304D01*
X150720711Y-102934289D01*
X150662696Y-102886678D01*
X150596508Y-102851299D01*
X150524689Y-102829513D01*
X150450000Y-102822157D01*
X148950000Y-102822157D01*
X148875311Y-102829513D01*
X148803492Y-102851299D01*
X148737304Y-102886678D01*
X148679289Y-102934289D01*
X148631678Y-102992304D01*
X148596299Y-103058492D01*
X148574513Y-103130311D01*
X148567157Y-103205000D01*
X148567157Y-103805000D01*
X148574513Y-103879689D01*
X148596299Y-103951508D01*
X148631678Y-104017696D01*
X148679289Y-104075711D01*
X148737304Y-104123322D01*
X148768506Y-104140000D01*
X148737304Y-104156678D01*
X148679289Y-104204289D01*
X148631678Y-104262304D01*
X148596299Y-104328492D01*
X148574513Y-104400311D01*
X148567157Y-104475000D01*
X148567157Y-105075000D01*
X148574513Y-105149689D01*
X148596299Y-105221508D01*
X148631678Y-105287696D01*
X148679289Y-105345711D01*
X148737304Y-105393322D01*
X148768506Y-105410000D01*
X148737304Y-105426678D01*
X148679289Y-105474289D01*
X148631678Y-105532304D01*
X148596299Y-105598492D01*
X148574513Y-105670311D01*
X148567157Y-105745000D01*
X148567157Y-106345000D01*
X148574513Y-106419689D01*
X148596299Y-106491508D01*
X148631678Y-106557696D01*
X148679289Y-106615711D01*
X148737304Y-106663322D01*
X148768506Y-106680000D01*
X148737304Y-106696678D01*
X148679289Y-106744289D01*
X148631678Y-106802304D01*
X148596299Y-106868492D01*
X148574513Y-106940311D01*
X148567157Y-107015000D01*
X148567157Y-107615000D01*
X148574513Y-107689689D01*
X148596299Y-107761508D01*
X148631678Y-107827696D01*
X148679289Y-107885711D01*
X148737304Y-107933322D01*
X148768506Y-107950000D01*
X148737304Y-107966678D01*
X148679289Y-108014289D01*
X148631678Y-108072304D01*
X148596299Y-108138492D01*
X148574513Y-108210311D01*
X148567157Y-108285000D01*
X148567157Y-108885000D01*
X148574513Y-108959689D01*
X148596299Y-109031508D01*
X148631678Y-109097696D01*
X148679289Y-109155711D01*
X148737304Y-109203322D01*
X148768506Y-109220000D01*
X148737304Y-109236678D01*
X148679289Y-109284289D01*
X148631678Y-109342304D01*
X148596299Y-109408492D01*
X148574513Y-109480311D01*
X148567157Y-109555000D01*
X148567157Y-110155000D01*
X148574513Y-110229689D01*
X148596299Y-110301508D01*
X148631678Y-110367696D01*
X148679289Y-110425711D01*
X148737304Y-110473322D01*
X148768506Y-110490000D01*
X148737304Y-110506678D01*
X148679289Y-110554289D01*
X148631678Y-110612304D01*
X148596299Y-110678492D01*
X148574513Y-110750311D01*
X148567157Y-110825000D01*
X148567157Y-111425000D01*
X148574513Y-111499689D01*
X148596299Y-111571508D01*
X148631678Y-111637696D01*
X148679289Y-111695711D01*
X148737304Y-111743322D01*
X148803492Y-111778701D01*
X148875311Y-111800487D01*
X148950000Y-111807843D01*
X149069000Y-111807843D01*
X149069001Y-112419000D01*
X147320000Y-112419000D01*
X147320000Y-83185000D01*
X163830000Y-83185000D01*
X163953882Y-83172799D01*
X164073004Y-83136664D01*
X164182787Y-83077983D01*
X164279013Y-82999013D01*
X164357983Y-82902787D01*
X164416664Y-82793004D01*
X164452799Y-82673882D01*
X164465000Y-82550000D01*
X164465000Y-81050000D01*
X166376928Y-81050000D01*
X166380000Y-81264250D01*
X166538750Y-81423000D01*
X167513000Y-81423000D01*
X167513000Y-80573750D01*
X167767000Y-80573750D01*
X167767000Y-81423000D01*
X168368750Y-81423000D01*
X168418750Y-81473000D01*
X169418000Y-81473000D01*
X169418000Y-80773750D01*
X169259250Y-80615000D01*
X168895000Y-80611928D01*
X168770518Y-80624188D01*
X168743687Y-80632327D01*
X168716185Y-80598815D01*
X168619494Y-80519463D01*
X168509180Y-80460498D01*
X168389482Y-80424188D01*
X168265000Y-80411928D01*
X167925750Y-80415000D01*
X167767000Y-80573750D01*
X167513000Y-80573750D01*
X167354250Y-80415000D01*
X167015000Y-80411928D01*
X166890518Y-80424188D01*
X166770820Y-80460498D01*
X166660506Y-80519463D01*
X166563815Y-80598815D01*
X166484463Y-80695506D01*
X166425498Y-80805820D01*
X166389188Y-80925518D01*
X166376928Y-81050000D01*
X164465000Y-81050000D01*
X164465000Y-80019445D01*
X164616913Y-80091246D01*
X164750961Y-80131904D01*
X164973000Y-80009915D01*
X164973000Y-78867000D01*
X165227000Y-78867000D01*
X165227000Y-80009915D01*
X165449039Y-80131904D01*
X165583087Y-80091246D01*
X165837420Y-79971037D01*
X166063414Y-79803519D01*
X166252385Y-79595131D01*
X166370000Y-79399018D01*
X166487615Y-79595131D01*
X166676586Y-79803519D01*
X166902580Y-79971037D01*
X167156913Y-80091246D01*
X167290961Y-80131904D01*
X167513000Y-80009915D01*
X167513000Y-78867000D01*
X165227000Y-78867000D01*
X164973000Y-78867000D01*
X164953000Y-78867000D01*
X164953000Y-78613000D01*
X164973000Y-78613000D01*
X164973000Y-77470085D01*
X165227000Y-77470085D01*
X165227000Y-78613000D01*
X167513000Y-78613000D01*
X167513000Y-77470085D01*
X167767000Y-77470085D01*
X167767000Y-78613000D01*
X167787000Y-78613000D01*
X167787000Y-78867000D01*
X167767000Y-78867000D01*
X167767000Y-80009915D01*
X167989039Y-80131904D01*
X168123087Y-80091246D01*
X168377420Y-79971037D01*
X168603414Y-79803519D01*
X168792385Y-79595131D01*
X168937070Y-79353881D01*
X169031909Y-79089040D01*
X168910625Y-78867002D01*
X169001125Y-78867002D01*
X169044386Y-79084485D01*
X169133412Y-79299413D01*
X169262658Y-79492843D01*
X169427157Y-79657342D01*
X169620587Y-79786588D01*
X169835515Y-79875614D01*
X170063682Y-79921000D01*
X170296318Y-79921000D01*
X170524485Y-79875614D01*
X170739413Y-79786588D01*
X170932843Y-79657342D01*
X171097342Y-79492843D01*
X171226588Y-79299413D01*
X171315614Y-79084485D01*
X171361000Y-78856318D01*
X171361000Y-78623682D01*
X171315614Y-78395515D01*
X171226588Y-78180587D01*
X171097342Y-77987157D01*
X170932843Y-77822658D01*
X170739413Y-77693412D01*
X170524485Y-77604386D01*
X170296318Y-77559000D01*
X170063682Y-77559000D01*
X169835515Y-77604386D01*
X169620587Y-77693412D01*
X169427157Y-77822658D01*
X169262658Y-77987157D01*
X169133412Y-78180587D01*
X169044386Y-78395515D01*
X169001125Y-78612998D01*
X168910625Y-78612998D01*
X169031909Y-78390960D01*
X168937070Y-78126119D01*
X168792385Y-77884869D01*
X168603414Y-77676481D01*
X168377420Y-77508963D01*
X168123087Y-77388754D01*
X167989039Y-77348096D01*
X167767000Y-77470085D01*
X167513000Y-77470085D01*
X167290961Y-77348096D01*
X167156913Y-77388754D01*
X166902580Y-77508963D01*
X166676586Y-77676481D01*
X166487615Y-77884869D01*
X166370000Y-78080982D01*
X166252385Y-77884869D01*
X166063414Y-77676481D01*
X165837420Y-77508963D01*
X165583087Y-77388754D01*
X165449039Y-77348096D01*
X165227000Y-77470085D01*
X164973000Y-77470085D01*
X164750961Y-77348096D01*
X164616913Y-77388754D01*
X164464111Y-77460975D01*
X164452799Y-77346118D01*
X164416664Y-77226996D01*
X164357983Y-77117213D01*
X164279013Y-77020987D01*
X164182787Y-76942017D01*
X164073004Y-76883336D01*
X163953882Y-76847201D01*
X163830000Y-76835000D01*
X161290000Y-76835000D01*
X161166118Y-76847201D01*
X161046996Y-76883336D01*
X160937213Y-76942017D01*
X160840987Y-77020987D01*
X160762017Y-77117213D01*
X160703336Y-77226996D01*
X160667201Y-77346118D01*
X160655000Y-77470000D01*
X160655000Y-77743918D01*
X160579413Y-77693412D01*
X160364485Y-77604386D01*
X160136318Y-77559000D01*
X159903682Y-77559000D01*
X159675515Y-77604386D01*
X159460587Y-77693412D01*
X159267157Y-77822658D01*
X159102658Y-77987157D01*
X158973412Y-78180587D01*
X158884386Y-78395515D01*
X158839000Y-78623682D01*
X158839000Y-78856318D01*
X158884386Y-79084485D01*
X158973412Y-79299413D01*
X159023918Y-79375000D01*
X158476082Y-79375000D01*
X158526588Y-79299413D01*
X158615614Y-79084485D01*
X158661000Y-78856318D01*
X158661000Y-78623682D01*
X158615614Y-78395515D01*
X158526588Y-78180587D01*
X158397342Y-77987157D01*
X158232843Y-77822658D01*
X158039413Y-77693412D01*
X157824485Y-77604386D01*
X157596318Y-77559000D01*
X157363682Y-77559000D01*
X157135515Y-77604386D01*
X156920587Y-77693412D01*
X156727157Y-77822658D01*
X156562658Y-77987157D01*
X156433412Y-78180587D01*
X156344386Y-78395515D01*
X156299000Y-78623682D01*
X156299000Y-78856318D01*
X156344386Y-79084485D01*
X156433412Y-79299413D01*
X156483918Y-79375000D01*
X155936082Y-79375000D01*
X155986588Y-79299413D01*
X156075614Y-79084485D01*
X156121000Y-78856318D01*
X156121000Y-78623682D01*
X156075614Y-78395515D01*
X155986588Y-78180587D01*
X155857342Y-77987157D01*
X155692843Y-77822658D01*
X155499413Y-77693412D01*
X155284485Y-77604386D01*
X155056318Y-77559000D01*
X154823682Y-77559000D01*
X154595515Y-77604386D01*
X154380587Y-77693412D01*
X154187157Y-77822658D01*
X154022658Y-77987157D01*
X153893412Y-78180587D01*
X153804386Y-78395515D01*
X153759000Y-78623682D01*
X153759000Y-78856318D01*
X153804386Y-79084485D01*
X153893412Y-79299413D01*
X153943918Y-79375000D01*
X153582843Y-79375000D01*
X153582843Y-77940000D01*
X153575487Y-77865311D01*
X153553701Y-77793492D01*
X153518322Y-77727304D01*
X153470711Y-77669289D01*
X153412696Y-77621678D01*
X153346508Y-77586299D01*
X153274689Y-77564513D01*
X153200000Y-77557157D01*
X151600000Y-77557157D01*
X151525311Y-77564513D01*
X151453492Y-77586299D01*
X151387304Y-77621678D01*
X151329289Y-77669289D01*
X151281678Y-77727304D01*
X151246299Y-77793492D01*
X151224513Y-77865311D01*
X151217157Y-77940000D01*
X151217157Y-79375000D01*
X142240000Y-79375000D01*
X142116118Y-79387201D01*
X141996996Y-79423336D01*
X141887213Y-79482017D01*
X141790987Y-79560987D01*
X141712017Y-79657213D01*
X141653336Y-79766996D01*
X141617201Y-79886118D01*
X141605000Y-80010000D01*
X141605000Y-123190000D01*
X141617201Y-123313882D01*
X141653336Y-123433004D01*
X141712017Y-123542787D01*
X141790987Y-123639013D01*
X141887213Y-123717983D01*
X141996996Y-123776664D01*
X142116118Y-123812799D01*
X142240000Y-123825000D01*
X147209001Y-123825000D01*
X147209000Y-126644376D01*
X147204386Y-126655515D01*
X147159000Y-126883682D01*
X147159000Y-127116318D01*
X147204386Y-127344485D01*
X147293412Y-127559413D01*
X147422658Y-127752843D01*
X147587157Y-127917342D01*
X147780587Y-128046588D01*
X147995515Y-128135614D01*
X148223682Y-128181000D01*
X148456318Y-128181000D01*
X148684485Y-128135614D01*
X148899413Y-128046588D01*
X149092843Y-127917342D01*
X149257342Y-127752843D01*
X149386588Y-127559413D01*
X149475614Y-127344485D01*
X149518875Y-127127002D01*
X149609375Y-127127002D01*
X149488091Y-127349040D01*
X149582930Y-127613881D01*
X149727615Y-127855131D01*
X149916586Y-128063519D01*
X150142580Y-128231037D01*
X150396913Y-128351246D01*
X150530961Y-128391904D01*
X150753000Y-128269915D01*
X150753000Y-127127000D01*
X150733000Y-127127000D01*
X150733000Y-126873000D01*
X150753000Y-126873000D01*
X150753000Y-125730085D01*
X151007000Y-125730085D01*
X151007000Y-126873000D01*
X151027000Y-126873000D01*
X151027000Y-127127000D01*
X151007000Y-127127000D01*
X151007000Y-128269915D01*
X151229039Y-128391904D01*
X151363087Y-128351246D01*
X151617420Y-128231037D01*
X151843414Y-128063519D01*
X152032385Y-127855131D01*
X152177070Y-127613881D01*
X152271909Y-127349040D01*
X152150625Y-127127002D01*
X152241125Y-127127002D01*
X152284386Y-127344485D01*
X152373412Y-127559413D01*
X152502658Y-127752843D01*
X152667157Y-127917342D01*
X152860587Y-128046588D01*
X153075515Y-128135614D01*
X153303682Y-128181000D01*
X153536318Y-128181000D01*
X153764485Y-128135614D01*
X153979413Y-128046588D01*
X154172843Y-127917342D01*
X154337342Y-127752843D01*
X154466588Y-127559413D01*
X154555614Y-127344485D01*
X154601000Y-127116318D01*
X154601000Y-126883682D01*
X154555614Y-126655515D01*
X154466588Y-126440587D01*
X154337342Y-126247157D01*
X154172843Y-126082658D01*
X153979413Y-125953412D01*
X153764485Y-125864386D01*
X153536318Y-125819000D01*
X153303682Y-125819000D01*
X153075515Y-125864386D01*
X152860587Y-125953412D01*
X152667157Y-126082658D01*
X152502658Y-126247157D01*
X152373412Y-126440587D01*
X152284386Y-126655515D01*
X152241125Y-126872998D01*
X152150625Y-126872998D01*
X152271909Y-126650960D01*
X152177070Y-126386119D01*
X152032385Y-126144869D01*
X151843414Y-125936481D01*
X151617420Y-125768963D01*
X151363087Y-125648754D01*
X151229039Y-125608096D01*
X151007000Y-125730085D01*
X150753000Y-125730085D01*
X150530961Y-125608096D01*
X150396913Y-125648754D01*
X150142580Y-125768963D01*
X149916586Y-125936481D01*
X149727615Y-126144869D01*
X149582930Y-126386119D01*
X149488091Y-126650960D01*
X149609375Y-126872998D01*
X149518875Y-126872998D01*
X149475614Y-126655515D01*
X149471000Y-126644376D01*
X149471000Y-123825000D01*
X151130000Y-123825000D01*
X151253882Y-123812799D01*
X151373004Y-123776664D01*
X151482787Y-123717983D01*
X151579013Y-123639013D01*
X151657983Y-123542787D01*
X151716664Y-123433004D01*
X151752799Y-123313882D01*
X151765000Y-123190000D01*
X151765000Y-120907369D01*
X152026369Y-120646000D01*
X156083000Y-120646000D01*
X156083000Y-121827157D01*
X155306000Y-121827157D01*
X155231311Y-121834513D01*
X155159492Y-121856299D01*
X155093304Y-121891678D01*
X155041402Y-121934272D01*
X155038642Y-121930141D01*
X154929859Y-121821358D01*
X154801942Y-121735887D01*
X154659809Y-121677013D01*
X154508922Y-121647000D01*
X154355078Y-121647000D01*
X154204191Y-121677013D01*
X154062058Y-121735887D01*
X153934141Y-121821358D01*
X153825358Y-121930141D01*
X153739887Y-122058058D01*
X153681013Y-122200191D01*
X153651000Y-122351078D01*
X153651000Y-122504922D01*
X153681013Y-122655809D01*
X153739887Y-122797942D01*
X153825358Y-122925859D01*
X153934141Y-123034642D01*
X154062058Y-123120113D01*
X154204191Y-123178987D01*
X154355078Y-123209000D01*
X154508922Y-123209000D01*
X154659809Y-123178987D01*
X154801942Y-123120113D01*
X154845513Y-123091000D01*
X154970736Y-123091000D01*
X154987678Y-123122696D01*
X155035289Y-123180711D01*
X155093304Y-123228322D01*
X155159492Y-123263701D01*
X155231311Y-123285487D01*
X155306000Y-123292843D01*
X156083000Y-123292843D01*
X156083000Y-123727157D01*
X155306000Y-123727157D01*
X155231311Y-123734513D01*
X155159492Y-123756299D01*
X155093304Y-123791678D01*
X155035289Y-123839289D01*
X154987678Y-123897304D01*
X154952299Y-123963492D01*
X154930513Y-124035311D01*
X154923157Y-124110000D01*
X154923157Y-124810000D01*
X154930513Y-124884689D01*
X154952299Y-124956508D01*
X154987678Y-125022696D01*
X155035289Y-125080711D01*
X155093304Y-125128322D01*
X155159492Y-125163701D01*
X155231311Y-125185487D01*
X155306000Y-125192843D01*
X155429001Y-125192843D01*
X155429000Y-125941643D01*
X155400587Y-125953412D01*
X155207157Y-126082658D01*
X155042658Y-126247157D01*
X154913412Y-126440587D01*
X154824386Y-126655515D01*
X154779000Y-126883682D01*
X154779000Y-127116318D01*
X154824386Y-127344485D01*
X154913412Y-127559413D01*
X155042658Y-127752843D01*
X155207157Y-127917342D01*
X155400587Y-128046588D01*
X155615515Y-128135614D01*
X155843682Y-128181000D01*
X156076318Y-128181000D01*
X156304485Y-128135614D01*
X156519413Y-128046588D01*
X156712843Y-127917342D01*
X156877342Y-127752843D01*
X157006588Y-127559413D01*
X157095614Y-127344485D01*
X157141000Y-127116318D01*
X157141000Y-126883682D01*
X157319000Y-126883682D01*
X157319000Y-127116318D01*
X157364386Y-127344485D01*
X157453412Y-127559413D01*
X157582658Y-127752843D01*
X157747157Y-127917342D01*
X157940587Y-128046588D01*
X158155515Y-128135614D01*
X158383682Y-128181000D01*
X158616318Y-128181000D01*
X158844485Y-128135614D01*
X159059413Y-128046588D01*
X159252843Y-127917342D01*
X159417342Y-127752843D01*
X159546588Y-127559413D01*
X159635614Y-127344485D01*
X159681000Y-127116318D01*
X159681000Y-126883682D01*
X159635614Y-126655515D01*
X159546588Y-126440587D01*
X159417342Y-126247157D01*
X159252843Y-126082658D01*
X159059413Y-125953412D01*
X158844485Y-125864386D01*
X158616318Y-125819000D01*
X158383682Y-125819000D01*
X158155515Y-125864386D01*
X157940587Y-125953412D01*
X157747157Y-126082658D01*
X157582658Y-126247157D01*
X157453412Y-126440587D01*
X157364386Y-126655515D01*
X157319000Y-126883682D01*
X157141000Y-126883682D01*
X157095614Y-126655515D01*
X157006588Y-126440587D01*
X156877342Y-126247157D01*
X156712843Y-126082658D01*
X156519413Y-125953412D01*
X156491000Y-125941643D01*
X156491000Y-125192843D01*
X156606000Y-125192843D01*
X156680689Y-125185487D01*
X156752508Y-125163701D01*
X156818696Y-125128322D01*
X156876711Y-125080711D01*
X156924322Y-125022696D01*
X156959701Y-124956508D01*
X156981487Y-124884689D01*
X156988843Y-124810000D01*
X156988843Y-124587000D01*
X160003157Y-124587000D01*
X160003157Y-124810000D01*
X160010513Y-124884689D01*
X160032299Y-124956508D01*
X160067678Y-125022696D01*
X160115289Y-125080711D01*
X160173304Y-125128322D01*
X160239492Y-125163701D01*
X160311311Y-125185487D01*
X160386000Y-125192843D01*
X160509001Y-125192843D01*
X160509000Y-125941643D01*
X160480587Y-125953412D01*
X160287157Y-126082658D01*
X160122658Y-126247157D01*
X159993412Y-126440587D01*
X159904386Y-126655515D01*
X159859000Y-126883682D01*
X159859000Y-127116318D01*
X159904386Y-127344485D01*
X159993412Y-127559413D01*
X160122658Y-127752843D01*
X160287157Y-127917342D01*
X160480587Y-128046588D01*
X160695515Y-128135614D01*
X160923682Y-128181000D01*
X161156318Y-128181000D01*
X161384485Y-128135614D01*
X161599413Y-128046588D01*
X161792843Y-127917342D01*
X161957342Y-127752843D01*
X162086588Y-127559413D01*
X162175614Y-127344485D01*
X162221000Y-127116318D01*
X162221000Y-126883682D01*
X162399000Y-126883682D01*
X162399000Y-127116318D01*
X162444386Y-127344485D01*
X162533412Y-127559413D01*
X162662658Y-127752843D01*
X162827157Y-127917342D01*
X163020587Y-128046588D01*
X163235515Y-128135614D01*
X163463682Y-128181000D01*
X163696318Y-128181000D01*
X163924485Y-128135614D01*
X164139413Y-128046588D01*
X164332843Y-127917342D01*
X164497342Y-127752843D01*
X164626588Y-127559413D01*
X164715614Y-127344485D01*
X164761000Y-127116318D01*
X164761000Y-126883682D01*
X164939000Y-126883682D01*
X164939000Y-127116318D01*
X164984386Y-127344485D01*
X165073412Y-127559413D01*
X165202658Y-127752843D01*
X165367157Y-127917342D01*
X165560587Y-128046588D01*
X165775515Y-128135614D01*
X166003682Y-128181000D01*
X166236318Y-128181000D01*
X166464485Y-128135614D01*
X166679413Y-128046588D01*
X166872843Y-127917342D01*
X167037342Y-127752843D01*
X167166588Y-127559413D01*
X167255614Y-127344485D01*
X167301000Y-127116318D01*
X167301000Y-126883682D01*
X167255614Y-126655515D01*
X167166588Y-126440587D01*
X167037342Y-126247157D01*
X166872843Y-126082658D01*
X166679413Y-125953412D01*
X166464485Y-125864386D01*
X166236318Y-125819000D01*
X166003682Y-125819000D01*
X165775515Y-125864386D01*
X165560587Y-125953412D01*
X165367157Y-126082658D01*
X165202658Y-126247157D01*
X165073412Y-126440587D01*
X164984386Y-126655515D01*
X164939000Y-126883682D01*
X164761000Y-126883682D01*
X164715614Y-126655515D01*
X164626588Y-126440587D01*
X164497342Y-126247157D01*
X164332843Y-126082658D01*
X164139413Y-125953412D01*
X163924485Y-125864386D01*
X163696318Y-125819000D01*
X163463682Y-125819000D01*
X163235515Y-125864386D01*
X163020587Y-125953412D01*
X162827157Y-126082658D01*
X162662658Y-126247157D01*
X162533412Y-126440587D01*
X162444386Y-126655515D01*
X162399000Y-126883682D01*
X162221000Y-126883682D01*
X162175614Y-126655515D01*
X162086588Y-126440587D01*
X161957342Y-126247157D01*
X161792843Y-126082658D01*
X161599413Y-125953412D01*
X161571000Y-125941643D01*
X161571000Y-125192843D01*
X161686000Y-125192843D01*
X161760689Y-125185487D01*
X161832508Y-125163701D01*
X161898696Y-125128322D01*
X161956711Y-125080711D01*
X162004322Y-125022696D01*
X162039701Y-124956508D01*
X162061487Y-124884689D01*
X162068843Y-124810000D01*
X162068843Y-124587000D01*
X162543157Y-124587000D01*
X162543157Y-124744000D01*
X162550513Y-124818689D01*
X162572299Y-124890508D01*
X162607678Y-124956696D01*
X162655289Y-125014711D01*
X162713304Y-125062322D01*
X162779492Y-125097701D01*
X162851311Y-125119487D01*
X162926000Y-125126843D01*
X164226000Y-125126843D01*
X164300689Y-125119487D01*
X164372508Y-125097701D01*
X164438696Y-125062322D01*
X164496711Y-125014711D01*
X164544322Y-124956696D01*
X164561264Y-124925000D01*
X165130736Y-124925000D01*
X165147678Y-124956696D01*
X165195289Y-125014711D01*
X165253304Y-125062322D01*
X165319492Y-125097701D01*
X165391311Y-125119487D01*
X165466000Y-125126843D01*
X166285897Y-125126843D01*
X167617001Y-126457949D01*
X167617000Y-127481926D01*
X167614432Y-127508000D01*
X167617000Y-127534074D01*
X167617000Y-127534083D01*
X167624683Y-127612093D01*
X167655047Y-127712187D01*
X167704354Y-127804435D01*
X167770710Y-127885290D01*
X167790975Y-127901921D01*
X168770083Y-128881030D01*
X168786710Y-128901290D01*
X168806970Y-128917917D01*
X168867564Y-128967646D01*
X168959812Y-129016953D01*
X169059906Y-129047317D01*
X169137916Y-129055000D01*
X169137926Y-129055000D01*
X169164000Y-129057568D01*
X169190074Y-129055000D01*
X173709926Y-129055000D01*
X173736000Y-129057568D01*
X173762074Y-129055000D01*
X173762084Y-129055000D01*
X173840094Y-129047317D01*
X173940188Y-129016953D01*
X174032435Y-128967646D01*
X174113290Y-128901290D01*
X174129921Y-128881025D01*
X174887102Y-128123845D01*
X174915515Y-128135614D01*
X175143682Y-128181000D01*
X175376318Y-128181000D01*
X175604485Y-128135614D01*
X175819413Y-128046588D01*
X176012843Y-127917342D01*
X176177342Y-127752843D01*
X176306588Y-127559413D01*
X176395614Y-127344485D01*
X176441000Y-127116318D01*
X176441000Y-126883682D01*
X176395614Y-126655515D01*
X176306588Y-126440587D01*
X176177342Y-126247157D01*
X176012843Y-126082658D01*
X175819413Y-125953412D01*
X175604485Y-125864386D01*
X175567354Y-125857000D01*
X177492646Y-125857000D01*
X177455515Y-125864386D01*
X177240587Y-125953412D01*
X177047157Y-126082658D01*
X176882658Y-126247157D01*
X176753412Y-126440587D01*
X176664386Y-126655515D01*
X176619000Y-126883682D01*
X176619000Y-127116318D01*
X176664386Y-127344485D01*
X176753412Y-127559413D01*
X176882658Y-127752843D01*
X177047157Y-127917342D01*
X177240587Y-128046588D01*
X177455515Y-128135614D01*
X177683682Y-128181000D01*
X177916318Y-128181000D01*
X178144485Y-128135614D01*
X178359413Y-128046588D01*
X178552843Y-127917342D01*
X178717342Y-127752843D01*
X178846588Y-127559413D01*
X178935614Y-127344485D01*
X178981000Y-127116318D01*
X178981000Y-126883682D01*
X178935614Y-126655515D01*
X178846588Y-126440587D01*
X178717342Y-126247157D01*
X178552843Y-126082658D01*
X178359413Y-125953412D01*
X178144485Y-125864386D01*
X178107354Y-125857000D01*
X180032646Y-125857000D01*
X179995515Y-125864386D01*
X179780587Y-125953412D01*
X179587157Y-126082658D01*
X179422658Y-126247157D01*
X179293412Y-126440587D01*
X179204386Y-126655515D01*
X179159000Y-126883682D01*
X179159000Y-127116318D01*
X179204386Y-127344485D01*
X179293412Y-127559413D01*
X179422658Y-127752843D01*
X179587157Y-127917342D01*
X179780587Y-128046588D01*
X179995515Y-128135614D01*
X180223682Y-128181000D01*
X180456318Y-128181000D01*
X180684485Y-128135614D01*
X180899413Y-128046588D01*
X181092843Y-127917342D01*
X181257342Y-127752843D01*
X181386588Y-127559413D01*
X181475614Y-127344485D01*
X181521000Y-127116318D01*
X181521000Y-126883682D01*
X181475614Y-126655515D01*
X181386588Y-126440587D01*
X181257342Y-126247157D01*
X181092843Y-126082658D01*
X180899413Y-125953412D01*
X180684485Y-125864386D01*
X180647354Y-125857000D01*
X182572646Y-125857000D01*
X182535515Y-125864386D01*
X182320587Y-125953412D01*
X182127157Y-126082658D01*
X181962658Y-126247157D01*
X181833412Y-126440587D01*
X181744386Y-126655515D01*
X181699000Y-126883682D01*
X181699000Y-127116318D01*
X181744386Y-127344485D01*
X181833412Y-127559413D01*
X181962658Y-127752843D01*
X182127157Y-127917342D01*
X182320587Y-128046588D01*
X182535515Y-128135614D01*
X182763682Y-128181000D01*
X182996318Y-128181000D01*
X183224485Y-128135614D01*
X183439413Y-128046588D01*
X183632843Y-127917342D01*
X183797342Y-127752843D01*
X183926588Y-127559413D01*
X184015614Y-127344485D01*
X184061000Y-127116318D01*
X184061000Y-126883682D01*
X184239000Y-126883682D01*
X184239000Y-127116318D01*
X184284386Y-127344485D01*
X184373412Y-127559413D01*
X184502658Y-127752843D01*
X184667157Y-127917342D01*
X184860587Y-128046588D01*
X185075515Y-128135614D01*
X185303682Y-128181000D01*
X185536318Y-128181000D01*
X185764485Y-128135614D01*
X185979413Y-128046588D01*
X186172843Y-127917342D01*
X186337342Y-127752843D01*
X186466588Y-127559413D01*
X186555614Y-127344485D01*
X186601000Y-127116318D01*
X186601000Y-126883682D01*
X186779000Y-126883682D01*
X186779000Y-127116318D01*
X186824386Y-127344485D01*
X186913412Y-127559413D01*
X187042658Y-127752843D01*
X187207157Y-127917342D01*
X187400587Y-128046588D01*
X187615515Y-128135614D01*
X187843682Y-128181000D01*
X188076318Y-128181000D01*
X188304485Y-128135614D01*
X188519413Y-128046588D01*
X188712843Y-127917342D01*
X188877342Y-127752843D01*
X189006588Y-127559413D01*
X189095614Y-127344485D01*
X189141000Y-127116318D01*
X189141000Y-126883682D01*
X189095614Y-126655515D01*
X189006588Y-126440587D01*
X188877342Y-126247157D01*
X188712843Y-126082658D01*
X188519413Y-125953412D01*
X188304485Y-125864386D01*
X188076318Y-125819000D01*
X187843682Y-125819000D01*
X187615515Y-125864386D01*
X187400587Y-125953412D01*
X187207157Y-126082658D01*
X187042658Y-126247157D01*
X186913412Y-126440587D01*
X186824386Y-126655515D01*
X186779000Y-126883682D01*
X186601000Y-126883682D01*
X186555614Y-126655515D01*
X186466588Y-126440587D01*
X186337342Y-126247157D01*
X186172843Y-126082658D01*
X185979413Y-125953412D01*
X185764485Y-125864386D01*
X185536318Y-125819000D01*
X185303682Y-125819000D01*
X185075515Y-125864386D01*
X184860587Y-125953412D01*
X184667157Y-126082658D01*
X184502658Y-126247157D01*
X184373412Y-126440587D01*
X184284386Y-126655515D01*
X184239000Y-126883682D01*
X184061000Y-126883682D01*
X184015614Y-126655515D01*
X183926588Y-126440587D01*
X183797342Y-126247157D01*
X183632843Y-126082658D01*
X183439413Y-125953412D01*
X183224485Y-125864386D01*
X183187354Y-125857000D01*
X184785000Y-125857000D01*
X184809776Y-125854560D01*
X184833601Y-125847333D01*
X184855557Y-125835597D01*
X184874803Y-125819803D01*
X184890597Y-125800557D01*
X184902333Y-125778601D01*
X184909560Y-125754776D01*
X184912000Y-125730000D01*
X184912000Y-123491278D01*
X184934502Y-123449180D01*
X184970812Y-123329482D01*
X184983072Y-123205000D01*
X184980000Y-122840750D01*
X184912000Y-122772750D01*
X184912000Y-122337250D01*
X184980000Y-122269250D01*
X184983072Y-121905000D01*
X184970812Y-121780518D01*
X184934502Y-121660820D01*
X184912000Y-121618722D01*
X184912000Y-120777000D01*
X190094001Y-120777000D01*
X190094000Y-128101829D01*
X189061831Y-129134000D01*
X136652000Y-129134000D01*
X136652000Y-126874817D01*
X138429000Y-126874817D01*
X138429000Y-127125183D01*
X138477844Y-127370737D01*
X138573654Y-127602044D01*
X138712750Y-127810215D01*
X138889785Y-127987250D01*
X139097956Y-128126346D01*
X139329263Y-128222156D01*
X139574817Y-128271000D01*
X139825183Y-128271000D01*
X140070737Y-128222156D01*
X140302044Y-128126346D01*
X140510215Y-127987250D01*
X140687250Y-127810215D01*
X140826346Y-127602044D01*
X140922156Y-127370737D01*
X140971000Y-127125183D01*
X140971000Y-126883682D01*
X142079000Y-126883682D01*
X142079000Y-127116318D01*
X142124386Y-127344485D01*
X142213412Y-127559413D01*
X142342658Y-127752843D01*
X142507157Y-127917342D01*
X142700587Y-128046588D01*
X142915515Y-128135614D01*
X143143682Y-128181000D01*
X143376318Y-128181000D01*
X143604485Y-128135614D01*
X143819413Y-128046588D01*
X144012843Y-127917342D01*
X144177342Y-127752843D01*
X144306588Y-127559413D01*
X144395614Y-127344485D01*
X144441000Y-127116318D01*
X144441000Y-126883682D01*
X144619000Y-126883682D01*
X144619000Y-127116318D01*
X144664386Y-127344485D01*
X144753412Y-127559413D01*
X144882658Y-127752843D01*
X145047157Y-127917342D01*
X145240587Y-128046588D01*
X145455515Y-128135614D01*
X145683682Y-128181000D01*
X145916318Y-128181000D01*
X146144485Y-128135614D01*
X146359413Y-128046588D01*
X146552843Y-127917342D01*
X146717342Y-127752843D01*
X146846588Y-127559413D01*
X146935614Y-127344485D01*
X146981000Y-127116318D01*
X146981000Y-126883682D01*
X146935614Y-126655515D01*
X146846588Y-126440587D01*
X146717342Y-126247157D01*
X146552843Y-126082658D01*
X146359413Y-125953412D01*
X146144485Y-125864386D01*
X145916318Y-125819000D01*
X145683682Y-125819000D01*
X145455515Y-125864386D01*
X145240587Y-125953412D01*
X145047157Y-126082658D01*
X144882658Y-126247157D01*
X144753412Y-126440587D01*
X144664386Y-126655515D01*
X144619000Y-126883682D01*
X144441000Y-126883682D01*
X144395614Y-126655515D01*
X144306588Y-126440587D01*
X144177342Y-126247157D01*
X144012843Y-126082658D01*
X143819413Y-125953412D01*
X143604485Y-125864386D01*
X143376318Y-125819000D01*
X143143682Y-125819000D01*
X142915515Y-125864386D01*
X142700587Y-125953412D01*
X142507157Y-126082658D01*
X142342658Y-126247157D01*
X142213412Y-126440587D01*
X142124386Y-126655515D01*
X142079000Y-126883682D01*
X140971000Y-126883682D01*
X140971000Y-126874817D01*
X140922156Y-126629263D01*
X140826346Y-126397956D01*
X140687250Y-126189785D01*
X140510215Y-126012750D01*
X140302044Y-125873654D01*
X140070737Y-125777844D01*
X139825183Y-125729000D01*
X139574817Y-125729000D01*
X139329263Y-125777844D01*
X139097956Y-125873654D01*
X138889785Y-126012750D01*
X138712750Y-126189785D01*
X138573654Y-126397956D01*
X138477844Y-126629263D01*
X138429000Y-126874817D01*
X136652000Y-126874817D01*
X136652000Y-78614817D01*
X137159000Y-78614817D01*
X137159000Y-78865183D01*
X137207844Y-79110737D01*
X137303654Y-79342044D01*
X137442750Y-79550215D01*
X137619785Y-79727250D01*
X137827956Y-79866346D01*
X138059263Y-79962156D01*
X138304817Y-80011000D01*
X138555183Y-80011000D01*
X138800737Y-79962156D01*
X139032044Y-79866346D01*
X139240215Y-79727250D01*
X139417250Y-79550215D01*
X139556346Y-79342044D01*
X139652156Y-79110737D01*
X139701000Y-78865183D01*
X139701000Y-78614817D01*
X139652156Y-78369263D01*
X139556346Y-78137956D01*
X139417250Y-77929785D01*
X139240215Y-77752750D01*
X139032044Y-77613654D01*
X138800737Y-77517844D01*
X138555183Y-77469000D01*
X138304817Y-77469000D01*
X138059263Y-77517844D01*
X137827956Y-77613654D01*
X137619785Y-77752750D01*
X137442750Y-77929785D01*
X137303654Y-78137956D01*
X137207844Y-78369263D01*
X137159000Y-78614817D01*
X136652000Y-78614817D01*
X136652000Y-76606000D01*
X190094001Y-76606000D01*
X190094000Y-78720067D01*
G37*
X190094000Y-78720067D02*
X190092037Y-78740000D01*
X190094000Y-78759933D01*
X190094000Y-78759940D01*
X190099875Y-78819589D01*
X190123090Y-78896120D01*
X190160790Y-78966652D01*
X190211526Y-79028474D01*
X190227024Y-79041193D01*
X192634001Y-81448172D01*
X192634001Y-84328000D01*
X191665300Y-84328000D01*
X191722156Y-84190737D01*
X191771000Y-83945183D01*
X191771000Y-83694817D01*
X191722156Y-83449263D01*
X191626346Y-83217956D01*
X191487250Y-83009785D01*
X191310215Y-82832750D01*
X191102044Y-82693654D01*
X190870737Y-82597844D01*
X190625183Y-82549000D01*
X190374817Y-82549000D01*
X190129263Y-82597844D01*
X189897956Y-82693654D01*
X189689785Y-82832750D01*
X189512750Y-83009785D01*
X189373654Y-83217956D01*
X189277844Y-83449263D01*
X189229000Y-83694817D01*
X189229000Y-83945183D01*
X189277844Y-84190737D01*
X189334700Y-84328000D01*
X184535236Y-84328000D01*
X184518701Y-84273492D01*
X184483322Y-84207304D01*
X184435711Y-84149289D01*
X184377696Y-84101678D01*
X184311508Y-84066299D01*
X184239689Y-84044513D01*
X184165000Y-84037157D01*
X182865000Y-84037157D01*
X182790311Y-84044513D01*
X182718492Y-84066299D01*
X182652304Y-84101678D01*
X182606826Y-84139000D01*
X182518174Y-84139000D01*
X182472696Y-84101678D01*
X182406508Y-84066299D01*
X182334689Y-84044513D01*
X182260000Y-84037157D01*
X181769525Y-84037157D01*
X181763105Y-84030737D01*
X181743343Y-84006657D01*
X181647261Y-83927804D01*
X181537642Y-83869211D01*
X181418698Y-83833130D01*
X181325998Y-83824000D01*
X181325990Y-83824000D01*
X181295000Y-83820948D01*
X181264010Y-83824000D01*
X180193978Y-83824000D01*
X180186494Y-83820000D01*
X180193978Y-83816000D01*
X181264010Y-83816000D01*
X181295000Y-83819052D01*
X181325990Y-83816000D01*
X181325998Y-83816000D01*
X181418698Y-83806870D01*
X181537642Y-83770789D01*
X181647261Y-83712196D01*
X181743343Y-83633343D01*
X181763105Y-83609263D01*
X181769525Y-83602843D01*
X182260000Y-83602843D01*
X182334689Y-83595487D01*
X182348302Y-83591357D01*
X182413815Y-83671185D01*
X182510506Y-83750537D01*
X182620820Y-83809502D01*
X182740518Y-83845812D01*
X182865000Y-83858072D01*
X183229250Y-83855000D01*
X183388000Y-83696250D01*
X183388000Y-82997000D01*
X183642000Y-82997000D01*
X183642000Y-83696250D01*
X183800750Y-83855000D01*
X184165000Y-83858072D01*
X184289482Y-83845812D01*
X184409180Y-83809502D01*
X184519494Y-83750537D01*
X184616185Y-83671185D01*
X184695537Y-83574494D01*
X184754502Y-83464180D01*
X184790812Y-83344482D01*
X184803072Y-83220000D01*
X184800000Y-83155750D01*
X184641250Y-82997000D01*
X183642000Y-82997000D01*
X183388000Y-82997000D01*
X183368000Y-82997000D01*
X183368000Y-82743000D01*
X183388000Y-82743000D01*
X183388000Y-82723000D01*
X183642000Y-82723000D01*
X183642000Y-82743000D01*
X184641250Y-82743000D01*
X184800000Y-82584250D01*
X184803072Y-82520000D01*
X184790812Y-82395518D01*
X184754502Y-82275820D01*
X184695537Y-82165506D01*
X184616185Y-82068815D01*
X184519494Y-81989463D01*
X184409180Y-81930498D01*
X184381391Y-81922068D01*
X184383072Y-81905000D01*
X184380000Y-81565750D01*
X184221250Y-81407000D01*
X183372000Y-81407000D01*
X183372000Y-81427000D01*
X183118000Y-81427000D01*
X183118000Y-81407000D01*
X183098000Y-81407000D01*
X183098000Y-81153000D01*
X183118000Y-81153000D01*
X183118000Y-80178750D01*
X183372000Y-80178750D01*
X183372000Y-81153000D01*
X184221250Y-81153000D01*
X184380000Y-80994250D01*
X184383072Y-80655000D01*
X184370812Y-80530518D01*
X184334502Y-80410820D01*
X184275537Y-80300506D01*
X184196185Y-80203815D01*
X184099494Y-80124463D01*
X183989180Y-80065498D01*
X183869482Y-80029188D01*
X183745000Y-80016928D01*
X183530750Y-80020000D01*
X183372000Y-80178750D01*
X183118000Y-80178750D01*
X182959250Y-80020000D01*
X182745000Y-80016928D01*
X182620518Y-80029188D01*
X182500820Y-80065498D01*
X182390506Y-80124463D01*
X182293815Y-80203815D01*
X182214463Y-80300506D01*
X182155498Y-80410820D01*
X182119188Y-80530518D01*
X182115804Y-80564874D01*
X182098701Y-80508492D01*
X182063322Y-80442304D01*
X182015711Y-80384289D01*
X181957696Y-80336678D01*
X181891508Y-80301299D01*
X181819689Y-80279513D01*
X181745000Y-80272157D01*
X180745000Y-80272157D01*
X180670311Y-80279513D01*
X180598492Y-80301299D01*
X180532304Y-80336678D01*
X180474289Y-80384289D01*
X180462216Y-80399000D01*
X179026727Y-80399000D01*
X178897294Y-80411748D01*
X178731225Y-80462125D01*
X178578175Y-80543932D01*
X178444025Y-80654025D01*
X178431000Y-80669896D01*
X178431000Y-79738755D01*
X178552843Y-79657342D01*
X178717342Y-79492843D01*
X178846588Y-79299413D01*
X178935614Y-79084485D01*
X178981000Y-78856318D01*
X178981000Y-78623682D01*
X179159000Y-78623682D01*
X179159000Y-78856318D01*
X179204386Y-79084485D01*
X179293412Y-79299413D01*
X179422658Y-79492843D01*
X179587157Y-79657342D01*
X179780587Y-79786588D01*
X179995515Y-79875614D01*
X180223682Y-79921000D01*
X180456318Y-79921000D01*
X180684485Y-79875614D01*
X180899413Y-79786588D01*
X181092843Y-79657342D01*
X181257342Y-79492843D01*
X181386588Y-79299413D01*
X181475614Y-79084485D01*
X181521000Y-78856318D01*
X181521000Y-78623682D01*
X181699000Y-78623682D01*
X181699000Y-78856318D01*
X181744386Y-79084485D01*
X181833412Y-79299413D01*
X181962658Y-79492843D01*
X182127157Y-79657342D01*
X182320587Y-79786588D01*
X182535515Y-79875614D01*
X182763682Y-79921000D01*
X182996318Y-79921000D01*
X183224485Y-79875614D01*
X183439413Y-79786588D01*
X183632843Y-79657342D01*
X183797342Y-79492843D01*
X183926588Y-79299413D01*
X184015614Y-79084485D01*
X184061000Y-78856318D01*
X184061000Y-78623682D01*
X184239000Y-78623682D01*
X184239000Y-78856318D01*
X184284386Y-79084485D01*
X184373412Y-79299413D01*
X184502658Y-79492843D01*
X184667157Y-79657342D01*
X184860587Y-79786588D01*
X185075515Y-79875614D01*
X185303682Y-79921000D01*
X185536318Y-79921000D01*
X185764485Y-79875614D01*
X185979413Y-79786588D01*
X186172843Y-79657342D01*
X186337342Y-79492843D01*
X186466588Y-79299413D01*
X186555614Y-79084485D01*
X186601000Y-78856318D01*
X186601000Y-78623682D01*
X186779000Y-78623682D01*
X186779000Y-78856318D01*
X186824386Y-79084485D01*
X186913412Y-79299413D01*
X187042658Y-79492843D01*
X187207157Y-79657342D01*
X187400587Y-79786588D01*
X187615515Y-79875614D01*
X187843682Y-79921000D01*
X188076318Y-79921000D01*
X188304485Y-79875614D01*
X188519413Y-79786588D01*
X188712843Y-79657342D01*
X188877342Y-79492843D01*
X189006588Y-79299413D01*
X189095614Y-79084485D01*
X189141000Y-78856318D01*
X189141000Y-78623682D01*
X189095614Y-78395515D01*
X189006588Y-78180587D01*
X188877342Y-77987157D01*
X188712843Y-77822658D01*
X188519413Y-77693412D01*
X188304485Y-77604386D01*
X188076318Y-77559000D01*
X187843682Y-77559000D01*
X187615515Y-77604386D01*
X187400587Y-77693412D01*
X187207157Y-77822658D01*
X187042658Y-77987157D01*
X186913412Y-78180587D01*
X186824386Y-78395515D01*
X186779000Y-78623682D01*
X186601000Y-78623682D01*
X186555614Y-78395515D01*
X186466588Y-78180587D01*
X186337342Y-77987157D01*
X186172843Y-77822658D01*
X185979413Y-77693412D01*
X185764485Y-77604386D01*
X185536318Y-77559000D01*
X185303682Y-77559000D01*
X185075515Y-77604386D01*
X184860587Y-77693412D01*
X184667157Y-77822658D01*
X184502658Y-77987157D01*
X184373412Y-78180587D01*
X184284386Y-78395515D01*
X184239000Y-78623682D01*
X184061000Y-78623682D01*
X184015614Y-78395515D01*
X183926588Y-78180587D01*
X183797342Y-77987157D01*
X183632843Y-77822658D01*
X183439413Y-77693412D01*
X183224485Y-77604386D01*
X182996318Y-77559000D01*
X182763682Y-77559000D01*
X182535515Y-77604386D01*
X182320587Y-77693412D01*
X182127157Y-77822658D01*
X181962658Y-77987157D01*
X181833412Y-78180587D01*
X181744386Y-78395515D01*
X181699000Y-78623682D01*
X181521000Y-78623682D01*
X181475614Y-78395515D01*
X181386588Y-78180587D01*
X181257342Y-77987157D01*
X181092843Y-77822658D01*
X180899413Y-77693412D01*
X180684485Y-77604386D01*
X180456318Y-77559000D01*
X180223682Y-77559000D01*
X179995515Y-77604386D01*
X179780587Y-77693412D01*
X179587157Y-77822658D01*
X179422658Y-77987157D01*
X179293412Y-78180587D01*
X179204386Y-78395515D01*
X179159000Y-78623682D01*
X178981000Y-78623682D01*
X178935614Y-78395515D01*
X178846588Y-78180587D01*
X178717342Y-77987157D01*
X178552843Y-77822658D01*
X178359413Y-77693412D01*
X178144485Y-77604386D01*
X177916318Y-77559000D01*
X177683682Y-77559000D01*
X177455515Y-77604386D01*
X177240587Y-77693412D01*
X177047157Y-77822658D01*
X176882658Y-77987157D01*
X176753412Y-78180587D01*
X176664386Y-78395515D01*
X176619000Y-78623682D01*
X176619000Y-78856318D01*
X176664386Y-79084485D01*
X176753412Y-79299413D01*
X176882658Y-79492843D01*
X177047157Y-79657342D01*
X177169000Y-79738755D01*
X177169001Y-82999000D01*
X177165948Y-83030000D01*
X177178130Y-83153697D01*
X177214211Y-83272641D01*
X177272804Y-83382260D01*
X177331897Y-83454265D01*
X177331900Y-83454268D01*
X177351658Y-83478343D01*
X177375733Y-83498101D01*
X177486895Y-83609263D01*
X177506657Y-83633343D01*
X177602739Y-83712196D01*
X177712358Y-83770789D01*
X177831302Y-83806870D01*
X177924002Y-83816000D01*
X177924011Y-83816000D01*
X177954999Y-83819052D01*
X177985987Y-83816000D01*
X178266022Y-83816000D01*
X178273506Y-83820000D01*
X178242304Y-83836678D01*
X178184289Y-83884289D01*
X178136678Y-83942304D01*
X178101299Y-84008492D01*
X178079513Y-84080311D01*
X178072157Y-84155000D01*
X178072157Y-84328000D01*
X174987843Y-84328000D01*
X174987843Y-84155000D01*
X174980487Y-84080311D01*
X174958701Y-84008492D01*
X174923322Y-83942304D01*
X174875711Y-83884289D01*
X174817696Y-83836678D01*
X174786494Y-83820000D01*
X174817696Y-83803322D01*
X174875711Y-83755711D01*
X174923322Y-83697696D01*
X174958701Y-83631508D01*
X174980487Y-83559689D01*
X174987843Y-83485000D01*
X174987843Y-82885000D01*
X174980487Y-82810311D01*
X174958701Y-82738492D01*
X174923322Y-82672304D01*
X174875711Y-82614289D01*
X174817696Y-82566678D01*
X174786494Y-82550000D01*
X174793978Y-82546000D01*
X175074010Y-82546000D01*
X175105000Y-82549052D01*
X175135990Y-82546000D01*
X175135998Y-82546000D01*
X175228698Y-82536870D01*
X175347642Y-82500789D01*
X175457261Y-82442196D01*
X175553343Y-82363343D01*
X175573105Y-82339263D01*
X175684263Y-82228105D01*
X175708343Y-82208343D01*
X175787196Y-82112261D01*
X175845789Y-82002642D01*
X175881870Y-81883698D01*
X175891000Y-81790998D01*
X175891000Y-81790989D01*
X175894052Y-81760001D01*
X175891000Y-81729013D01*
X175891000Y-79738755D01*
X176012843Y-79657342D01*
X176177342Y-79492843D01*
X176306588Y-79299413D01*
X176395614Y-79084485D01*
X176441000Y-78856318D01*
X176441000Y-78623682D01*
X176395614Y-78395515D01*
X176306588Y-78180587D01*
X176177342Y-77987157D01*
X176012843Y-77822658D01*
X175819413Y-77693412D01*
X175604485Y-77604386D01*
X175376318Y-77559000D01*
X175143682Y-77559000D01*
X174915515Y-77604386D01*
X174700587Y-77693412D01*
X174507157Y-77822658D01*
X174342658Y-77987157D01*
X174213412Y-78180587D01*
X174124386Y-78395515D01*
X174079000Y-78623682D01*
X174079000Y-78856318D01*
X174124386Y-79084485D01*
X174213412Y-79299413D01*
X174342658Y-79492843D01*
X174507157Y-79657342D01*
X174629000Y-79738755D01*
X174629001Y-81234521D01*
X174605000Y-81232157D01*
X173055000Y-81232157D01*
X172980311Y-81239513D01*
X172908492Y-81261299D01*
X172866022Y-81284000D01*
X172482843Y-81284000D01*
X172482843Y-81250000D01*
X172475487Y-81175311D01*
X172453701Y-81103492D01*
X172418322Y-81037304D01*
X172370711Y-80979289D01*
X172312696Y-80931678D01*
X172246508Y-80896299D01*
X172174689Y-80874513D01*
X172100000Y-80867157D01*
X170800000Y-80867157D01*
X170725311Y-80874513D01*
X170711698Y-80878643D01*
X170646185Y-80798815D01*
X170549494Y-80719463D01*
X170439180Y-80660498D01*
X170319482Y-80624188D01*
X170195000Y-80611928D01*
X169830750Y-80615000D01*
X169672000Y-80773750D01*
X169672000Y-81473000D01*
X169692000Y-81473000D01*
X169692000Y-81727000D01*
X169672000Y-81727000D01*
X169672000Y-82426250D01*
X169830750Y-82585000D01*
X170195000Y-82588072D01*
X170319482Y-82575812D01*
X170439180Y-82539502D01*
X170549494Y-82480537D01*
X170646185Y-82401185D01*
X170711698Y-82321357D01*
X170725311Y-82325487D01*
X170800000Y-82332843D01*
X171290475Y-82332843D01*
X171296895Y-82339263D01*
X171316657Y-82363343D01*
X171412739Y-82442196D01*
X171522358Y-82500789D01*
X171641302Y-82536870D01*
X171734002Y-82546000D01*
X171734011Y-82546000D01*
X171764999Y-82549052D01*
X171795987Y-82546000D01*
X172866022Y-82546000D01*
X172873506Y-82550000D01*
X172866022Y-82554000D01*
X171795987Y-82554000D01*
X171764999Y-82550948D01*
X171734011Y-82554000D01*
X171734002Y-82554000D01*
X171641302Y-82563130D01*
X171522358Y-82599211D01*
X171412739Y-82657804D01*
X171316657Y-82736657D01*
X171296897Y-82760735D01*
X171290475Y-82767157D01*
X170800000Y-82767157D01*
X170725311Y-82774513D01*
X170653492Y-82796299D01*
X170587304Y-82831678D01*
X170541826Y-82869000D01*
X170453174Y-82869000D01*
X170407696Y-82831678D01*
X170341508Y-82796299D01*
X170269689Y-82774513D01*
X170195000Y-82767157D01*
X168895000Y-82767157D01*
X168820311Y-82774513D01*
X168748492Y-82796299D01*
X168682304Y-82831678D01*
X168624289Y-82879289D01*
X168613071Y-82892959D01*
X168583322Y-82837304D01*
X168535711Y-82779289D01*
X168477696Y-82731678D01*
X168411508Y-82696299D01*
X168355126Y-82679196D01*
X168389482Y-82675812D01*
X168509180Y-82639502D01*
X168619494Y-82580537D01*
X168664455Y-82543638D01*
X168770518Y-82575812D01*
X168895000Y-82588072D01*
X169259250Y-82585000D01*
X169418000Y-82426250D01*
X169418000Y-81727000D01*
X168791250Y-81727000D01*
X168741250Y-81677000D01*
X167767000Y-81677000D01*
X167767000Y-81697000D01*
X167513000Y-81697000D01*
X167513000Y-81677000D01*
X166538750Y-81677000D01*
X166380000Y-81835750D01*
X166376928Y-82050000D01*
X166389188Y-82174482D01*
X166425498Y-82294180D01*
X166484463Y-82404494D01*
X166563815Y-82501185D01*
X166660506Y-82580537D01*
X166770820Y-82639502D01*
X166890518Y-82675812D01*
X166924874Y-82679196D01*
X166868492Y-82696299D01*
X166802304Y-82731678D01*
X166744289Y-82779289D01*
X166696678Y-82837304D01*
X166661299Y-82903492D01*
X166639513Y-82975311D01*
X166632157Y-83050000D01*
X166632157Y-83806897D01*
X166515054Y-83924000D01*
X164592000Y-83924000D01*
X164592000Y-83820000D01*
X164589560Y-83795224D01*
X164582333Y-83771399D01*
X164570597Y-83749443D01*
X164554803Y-83730197D01*
X164535557Y-83714403D01*
X164513601Y-83702667D01*
X164489776Y-83695440D01*
X164465000Y-83693000D01*
X155575000Y-83693000D01*
X155550224Y-83695440D01*
X155526399Y-83702667D01*
X155504443Y-83714403D01*
X155485197Y-83730197D01*
X153580197Y-85635197D01*
X153564403Y-85654443D01*
X153552667Y-85676399D01*
X153545440Y-85700224D01*
X153543000Y-85725000D01*
X153543000Y-85736054D01*
X153312975Y-85966079D01*
X153292710Y-85982710D01*
X153226354Y-86063565D01*
X153177047Y-86155813D01*
X153146683Y-86255907D01*
X153139000Y-86333917D01*
X153139000Y-86333926D01*
X153136432Y-86360000D01*
X153139000Y-86386074D01*
X153139001Y-92490052D01*
X152042975Y-93586079D01*
X152022710Y-93602710D01*
X151956354Y-93683565D01*
X151907047Y-93775813D01*
X151876683Y-93875907D01*
X151869000Y-93953917D01*
X151869000Y-93953926D01*
X151866432Y-93980000D01*
X151869000Y-94006074D01*
X151869001Y-95223916D01*
X151866432Y-95250000D01*
X151876684Y-95354093D01*
X151907047Y-95454187D01*
X151956354Y-95546435D01*
X152006083Y-95607029D01*
X152022711Y-95627290D01*
X152042971Y-95643917D01*
X153543000Y-97143946D01*
X153543000Y-99946281D01*
X153493492Y-99961299D01*
X153427304Y-99996678D01*
X153369289Y-100044289D01*
X153321678Y-100102304D01*
X153286299Y-100168492D01*
X153271410Y-100217576D01*
X153262809Y-100214013D01*
X153111922Y-100184000D01*
X152958078Y-100184000D01*
X152807191Y-100214013D01*
X152665058Y-100272887D01*
X152537141Y-100358358D01*
X152428358Y-100467141D01*
X152342887Y-100595058D01*
X152284013Y-100737191D01*
X152254000Y-100888078D01*
X152254000Y-101041922D01*
X152284013Y-101192809D01*
X152342887Y-101334942D01*
X152428358Y-101462859D01*
X152537141Y-101571642D01*
X152665058Y-101657113D01*
X152807191Y-101715987D01*
X152958078Y-101746000D01*
X153111922Y-101746000D01*
X153262809Y-101715987D01*
X153271410Y-101712424D01*
X153286299Y-101761508D01*
X153321678Y-101827696D01*
X153369289Y-101885711D01*
X153427304Y-101933322D01*
X153493492Y-101968701D01*
X153565311Y-101990487D01*
X153640000Y-101997843D01*
X154340000Y-101997843D01*
X154414689Y-101990487D01*
X154486508Y-101968701D01*
X154552696Y-101933322D01*
X154610711Y-101885711D01*
X154658322Y-101827696D01*
X154693701Y-101761508D01*
X154704169Y-101727000D01*
X155175831Y-101727000D01*
X155186299Y-101761508D01*
X155221678Y-101827696D01*
X155269289Y-101885711D01*
X155327304Y-101933322D01*
X155393492Y-101968701D01*
X155465311Y-101990487D01*
X155540000Y-101997843D01*
X156083000Y-101997843D01*
X156083000Y-102612107D01*
X155974482Y-102579188D01*
X155850000Y-102566928D01*
X155385750Y-102570000D01*
X155227000Y-102728750D01*
X155227000Y-103378000D01*
X155247000Y-103378000D01*
X155247000Y-103632000D01*
X155227000Y-103632000D01*
X155227000Y-103652000D01*
X154973000Y-103652000D01*
X154973000Y-103632000D01*
X153873750Y-103632000D01*
X153715000Y-103790750D01*
X153711928Y-103805000D01*
X153724188Y-103929482D01*
X153760498Y-104049180D01*
X153819463Y-104159494D01*
X153898815Y-104256185D01*
X153994430Y-104334654D01*
X153974513Y-104400311D01*
X153967157Y-104475000D01*
X153967157Y-105075000D01*
X153974513Y-105149689D01*
X153996299Y-105221508D01*
X154031678Y-105287696D01*
X154079289Y-105345711D01*
X154137304Y-105393322D01*
X154168506Y-105410000D01*
X154137304Y-105426678D01*
X154079289Y-105474289D01*
X154046699Y-105514000D01*
X153061074Y-105514000D01*
X153035000Y-105511432D01*
X153008926Y-105514000D01*
X153008916Y-105514000D01*
X152930906Y-105521683D01*
X152830812Y-105552047D01*
X152738564Y-105601354D01*
X152677970Y-105651082D01*
X152677964Y-105651088D01*
X152657710Y-105667710D01*
X152641087Y-105687965D01*
X152042975Y-106286079D01*
X152042970Y-106286083D01*
X151160054Y-107169000D01*
X151053078Y-107169000D01*
X150902191Y-107199013D01*
X150832843Y-107227738D01*
X150832843Y-107015000D01*
X150825487Y-106940311D01*
X150803701Y-106868492D01*
X150768322Y-106802304D01*
X150720711Y-106744289D01*
X150662696Y-106696678D01*
X150631494Y-106680000D01*
X150662696Y-106663322D01*
X150720711Y-106615711D01*
X150768322Y-106557696D01*
X150803701Y-106491508D01*
X150825487Y-106419689D01*
X150832843Y-106345000D01*
X150832843Y-105745000D01*
X150825487Y-105670311D01*
X150803701Y-105598492D01*
X150768322Y-105532304D01*
X150720711Y-105474289D01*
X150662696Y-105426678D01*
X150631494Y-105410000D01*
X150662696Y-105393322D01*
X150720711Y-105345711D01*
X150768322Y-105287696D01*
X150803701Y-105221508D01*
X150825487Y-105149689D01*
X150832843Y-105075000D01*
X150832843Y-104475000D01*
X150825487Y-104400311D01*
X150803701Y-104328492D01*
X150768322Y-104262304D01*
X150720711Y-104204289D01*
X150662696Y-104156678D01*
X150631494Y-104140000D01*
X150662696Y-104123322D01*
X150720711Y-104075711D01*
X150768322Y-104017696D01*
X150803701Y-103951508D01*
X150825487Y-103879689D01*
X150832843Y-103805000D01*
X150832843Y-103205000D01*
X153711928Y-103205000D01*
X153715000Y-103219250D01*
X153873750Y-103378000D01*
X154973000Y-103378000D01*
X154973000Y-102728750D01*
X154814250Y-102570000D01*
X154350000Y-102566928D01*
X154225518Y-102579188D01*
X154105820Y-102615498D01*
X153995506Y-102674463D01*
X153898815Y-102753815D01*
X153819463Y-102850506D01*
X153760498Y-102960820D01*
X153724188Y-103080518D01*
X153711928Y-103205000D01*
X150832843Y-103205000D01*
X150825487Y-103130311D01*
X150803701Y-103058492D01*
X150768322Y-102992304D01*
X150720711Y-102934289D01*
X150662696Y-102886678D01*
X150596508Y-102851299D01*
X150524689Y-102829513D01*
X150450000Y-102822157D01*
X148950000Y-102822157D01*
X148875311Y-102829513D01*
X148803492Y-102851299D01*
X148737304Y-102886678D01*
X148679289Y-102934289D01*
X148631678Y-102992304D01*
X148596299Y-103058492D01*
X148574513Y-103130311D01*
X148567157Y-103205000D01*
X148567157Y-103805000D01*
X148574513Y-103879689D01*
X148596299Y-103951508D01*
X148631678Y-104017696D01*
X148679289Y-104075711D01*
X148737304Y-104123322D01*
X148768506Y-104140000D01*
X148737304Y-104156678D01*
X148679289Y-104204289D01*
X148631678Y-104262304D01*
X148596299Y-104328492D01*
X148574513Y-104400311D01*
X148567157Y-104475000D01*
X148567157Y-105075000D01*
X148574513Y-105149689D01*
X148596299Y-105221508D01*
X148631678Y-105287696D01*
X148679289Y-105345711D01*
X148737304Y-105393322D01*
X148768506Y-105410000D01*
X148737304Y-105426678D01*
X148679289Y-105474289D01*
X148631678Y-105532304D01*
X148596299Y-105598492D01*
X148574513Y-105670311D01*
X148567157Y-105745000D01*
X148567157Y-106345000D01*
X148574513Y-106419689D01*
X148596299Y-106491508D01*
X148631678Y-106557696D01*
X148679289Y-106615711D01*
X148737304Y-106663322D01*
X148768506Y-106680000D01*
X148737304Y-106696678D01*
X148679289Y-106744289D01*
X148631678Y-106802304D01*
X148596299Y-106868492D01*
X148574513Y-106940311D01*
X148567157Y-107015000D01*
X148567157Y-107615000D01*
X148574513Y-107689689D01*
X148596299Y-107761508D01*
X148631678Y-107827696D01*
X148679289Y-107885711D01*
X148737304Y-107933322D01*
X148768506Y-107950000D01*
X148737304Y-107966678D01*
X148679289Y-108014289D01*
X148631678Y-108072304D01*
X148596299Y-108138492D01*
X148574513Y-108210311D01*
X148567157Y-108285000D01*
X148567157Y-108885000D01*
X148574513Y-108959689D01*
X148596299Y-109031508D01*
X148631678Y-109097696D01*
X148679289Y-109155711D01*
X148737304Y-109203322D01*
X148768506Y-109220000D01*
X148737304Y-109236678D01*
X148679289Y-109284289D01*
X148631678Y-109342304D01*
X148596299Y-109408492D01*
X148574513Y-109480311D01*
X148567157Y-109555000D01*
X148567157Y-110155000D01*
X148574513Y-110229689D01*
X148596299Y-110301508D01*
X148631678Y-110367696D01*
X148679289Y-110425711D01*
X148737304Y-110473322D01*
X148768506Y-110490000D01*
X148737304Y-110506678D01*
X148679289Y-110554289D01*
X148631678Y-110612304D01*
X148596299Y-110678492D01*
X148574513Y-110750311D01*
X148567157Y-110825000D01*
X148567157Y-111425000D01*
X148574513Y-111499689D01*
X148596299Y-111571508D01*
X148631678Y-111637696D01*
X148679289Y-111695711D01*
X148737304Y-111743322D01*
X148803492Y-111778701D01*
X148875311Y-111800487D01*
X148950000Y-111807843D01*
X149069000Y-111807843D01*
X149069001Y-112419000D01*
X147320000Y-112419000D01*
X147320000Y-83185000D01*
X163830000Y-83185000D01*
X163953882Y-83172799D01*
X164073004Y-83136664D01*
X164182787Y-83077983D01*
X164279013Y-82999013D01*
X164357983Y-82902787D01*
X164416664Y-82793004D01*
X164452799Y-82673882D01*
X164465000Y-82550000D01*
X164465000Y-81050000D01*
X166376928Y-81050000D01*
X166380000Y-81264250D01*
X166538750Y-81423000D01*
X167513000Y-81423000D01*
X167513000Y-80573750D01*
X167767000Y-80573750D01*
X167767000Y-81423000D01*
X168368750Y-81423000D01*
X168418750Y-81473000D01*
X169418000Y-81473000D01*
X169418000Y-80773750D01*
X169259250Y-80615000D01*
X168895000Y-80611928D01*
X168770518Y-80624188D01*
X168743687Y-80632327D01*
X168716185Y-80598815D01*
X168619494Y-80519463D01*
X168509180Y-80460498D01*
X168389482Y-80424188D01*
X168265000Y-80411928D01*
X167925750Y-80415000D01*
X167767000Y-80573750D01*
X167513000Y-80573750D01*
X167354250Y-80415000D01*
X167015000Y-80411928D01*
X166890518Y-80424188D01*
X166770820Y-80460498D01*
X166660506Y-80519463D01*
X166563815Y-80598815D01*
X166484463Y-80695506D01*
X166425498Y-80805820D01*
X166389188Y-80925518D01*
X166376928Y-81050000D01*
X164465000Y-81050000D01*
X164465000Y-80019445D01*
X164616913Y-80091246D01*
X164750961Y-80131904D01*
X164973000Y-80009915D01*
X164973000Y-78867000D01*
X165227000Y-78867000D01*
X165227000Y-80009915D01*
X165449039Y-80131904D01*
X165583087Y-80091246D01*
X165837420Y-79971037D01*
X166063414Y-79803519D01*
X166252385Y-79595131D01*
X166370000Y-79399018D01*
X166487615Y-79595131D01*
X166676586Y-79803519D01*
X166902580Y-79971037D01*
X167156913Y-80091246D01*
X167290961Y-80131904D01*
X167513000Y-80009915D01*
X167513000Y-78867000D01*
X165227000Y-78867000D01*
X164973000Y-78867000D01*
X164953000Y-78867000D01*
X164953000Y-78613000D01*
X164973000Y-78613000D01*
X164973000Y-77470085D01*
X165227000Y-77470085D01*
X165227000Y-78613000D01*
X167513000Y-78613000D01*
X167513000Y-77470085D01*
X167767000Y-77470085D01*
X167767000Y-78613000D01*
X167787000Y-78613000D01*
X167787000Y-78867000D01*
X167767000Y-78867000D01*
X167767000Y-80009915D01*
X167989039Y-80131904D01*
X168123087Y-80091246D01*
X168377420Y-79971037D01*
X168603414Y-79803519D01*
X168792385Y-79595131D01*
X168937070Y-79353881D01*
X169031909Y-79089040D01*
X168910625Y-78867002D01*
X169001125Y-78867002D01*
X169044386Y-79084485D01*
X169133412Y-79299413D01*
X169262658Y-79492843D01*
X169427157Y-79657342D01*
X169620587Y-79786588D01*
X169835515Y-79875614D01*
X170063682Y-79921000D01*
X170296318Y-79921000D01*
X170524485Y-79875614D01*
X170739413Y-79786588D01*
X170932843Y-79657342D01*
X171097342Y-79492843D01*
X171226588Y-79299413D01*
X171315614Y-79084485D01*
X171361000Y-78856318D01*
X171361000Y-78623682D01*
X171315614Y-78395515D01*
X171226588Y-78180587D01*
X171097342Y-77987157D01*
X170932843Y-77822658D01*
X170739413Y-77693412D01*
X170524485Y-77604386D01*
X170296318Y-77559000D01*
X170063682Y-77559000D01*
X169835515Y-77604386D01*
X169620587Y-77693412D01*
X169427157Y-77822658D01*
X169262658Y-77987157D01*
X169133412Y-78180587D01*
X169044386Y-78395515D01*
X169001125Y-78612998D01*
X168910625Y-78612998D01*
X169031909Y-78390960D01*
X168937070Y-78126119D01*
X168792385Y-77884869D01*
X168603414Y-77676481D01*
X168377420Y-77508963D01*
X168123087Y-77388754D01*
X167989039Y-77348096D01*
X167767000Y-77470085D01*
X167513000Y-77470085D01*
X167290961Y-77348096D01*
X167156913Y-77388754D01*
X166902580Y-77508963D01*
X166676586Y-77676481D01*
X166487615Y-77884869D01*
X166370000Y-78080982D01*
X166252385Y-77884869D01*
X166063414Y-77676481D01*
X165837420Y-77508963D01*
X165583087Y-77388754D01*
X165449039Y-77348096D01*
X165227000Y-77470085D01*
X164973000Y-77470085D01*
X164750961Y-77348096D01*
X164616913Y-77388754D01*
X164464111Y-77460975D01*
X164452799Y-77346118D01*
X164416664Y-77226996D01*
X164357983Y-77117213D01*
X164279013Y-77020987D01*
X164182787Y-76942017D01*
X164073004Y-76883336D01*
X163953882Y-76847201D01*
X163830000Y-76835000D01*
X161290000Y-76835000D01*
X161166118Y-76847201D01*
X161046996Y-76883336D01*
X160937213Y-76942017D01*
X160840987Y-77020987D01*
X160762017Y-77117213D01*
X160703336Y-77226996D01*
X160667201Y-77346118D01*
X160655000Y-77470000D01*
X160655000Y-77743918D01*
X160579413Y-77693412D01*
X160364485Y-77604386D01*
X160136318Y-77559000D01*
X159903682Y-77559000D01*
X159675515Y-77604386D01*
X159460587Y-77693412D01*
X159267157Y-77822658D01*
X159102658Y-77987157D01*
X158973412Y-78180587D01*
X158884386Y-78395515D01*
X158839000Y-78623682D01*
X158839000Y-78856318D01*
X158884386Y-79084485D01*
X158973412Y-79299413D01*
X159023918Y-79375000D01*
X158476082Y-79375000D01*
X158526588Y-79299413D01*
X158615614Y-79084485D01*
X158661000Y-78856318D01*
X158661000Y-78623682D01*
X158615614Y-78395515D01*
X158526588Y-78180587D01*
X158397342Y-77987157D01*
X158232843Y-77822658D01*
X158039413Y-77693412D01*
X157824485Y-77604386D01*
X157596318Y-77559000D01*
X157363682Y-77559000D01*
X157135515Y-77604386D01*
X156920587Y-77693412D01*
X156727157Y-77822658D01*
X156562658Y-77987157D01*
X156433412Y-78180587D01*
X156344386Y-78395515D01*
X156299000Y-78623682D01*
X156299000Y-78856318D01*
X156344386Y-79084485D01*
X156433412Y-79299413D01*
X156483918Y-79375000D01*
X155936082Y-79375000D01*
X155986588Y-79299413D01*
X156075614Y-79084485D01*
X156121000Y-78856318D01*
X156121000Y-78623682D01*
X156075614Y-78395515D01*
X155986588Y-78180587D01*
X155857342Y-77987157D01*
X155692843Y-77822658D01*
X155499413Y-77693412D01*
X155284485Y-77604386D01*
X155056318Y-77559000D01*
X154823682Y-77559000D01*
X154595515Y-77604386D01*
X154380587Y-77693412D01*
X154187157Y-77822658D01*
X154022658Y-77987157D01*
X153893412Y-78180587D01*
X153804386Y-78395515D01*
X153759000Y-78623682D01*
X153759000Y-78856318D01*
X153804386Y-79084485D01*
X153893412Y-79299413D01*
X153943918Y-79375000D01*
X153582843Y-79375000D01*
X153582843Y-77940000D01*
X153575487Y-77865311D01*
X153553701Y-77793492D01*
X153518322Y-77727304D01*
X153470711Y-77669289D01*
X153412696Y-77621678D01*
X153346508Y-77586299D01*
X153274689Y-77564513D01*
X153200000Y-77557157D01*
X151600000Y-77557157D01*
X151525311Y-77564513D01*
X151453492Y-77586299D01*
X151387304Y-77621678D01*
X151329289Y-77669289D01*
X151281678Y-77727304D01*
X151246299Y-77793492D01*
X151224513Y-77865311D01*
X151217157Y-77940000D01*
X151217157Y-79375000D01*
X142240000Y-79375000D01*
X142116118Y-79387201D01*
X141996996Y-79423336D01*
X141887213Y-79482017D01*
X141790987Y-79560987D01*
X141712017Y-79657213D01*
X141653336Y-79766996D01*
X141617201Y-79886118D01*
X141605000Y-80010000D01*
X141605000Y-123190000D01*
X141617201Y-123313882D01*
X141653336Y-123433004D01*
X141712017Y-123542787D01*
X141790987Y-123639013D01*
X141887213Y-123717983D01*
X141996996Y-123776664D01*
X142116118Y-123812799D01*
X142240000Y-123825000D01*
X147209001Y-123825000D01*
X147209000Y-126644376D01*
X147204386Y-126655515D01*
X147159000Y-126883682D01*
X147159000Y-127116318D01*
X147204386Y-127344485D01*
X147293412Y-127559413D01*
X147422658Y-127752843D01*
X147587157Y-127917342D01*
X147780587Y-128046588D01*
X147995515Y-128135614D01*
X148223682Y-128181000D01*
X148456318Y-128181000D01*
X148684485Y-128135614D01*
X148899413Y-128046588D01*
X149092843Y-127917342D01*
X149257342Y-127752843D01*
X149386588Y-127559413D01*
X149475614Y-127344485D01*
X149518875Y-127127002D01*
X149609375Y-127127002D01*
X149488091Y-127349040D01*
X149582930Y-127613881D01*
X149727615Y-127855131D01*
X149916586Y-128063519D01*
X150142580Y-128231037D01*
X150396913Y-128351246D01*
X150530961Y-128391904D01*
X150753000Y-128269915D01*
X150753000Y-127127000D01*
X150733000Y-127127000D01*
X150733000Y-126873000D01*
X150753000Y-126873000D01*
X150753000Y-125730085D01*
X151007000Y-125730085D01*
X151007000Y-126873000D01*
X151027000Y-126873000D01*
X151027000Y-127127000D01*
X151007000Y-127127000D01*
X151007000Y-128269915D01*
X151229039Y-128391904D01*
X151363087Y-128351246D01*
X151617420Y-128231037D01*
X151843414Y-128063519D01*
X152032385Y-127855131D01*
X152177070Y-127613881D01*
X152271909Y-127349040D01*
X152150625Y-127127002D01*
X152241125Y-127127002D01*
X152284386Y-127344485D01*
X152373412Y-127559413D01*
X152502658Y-127752843D01*
X152667157Y-127917342D01*
X152860587Y-128046588D01*
X153075515Y-128135614D01*
X153303682Y-128181000D01*
X153536318Y-128181000D01*
X153764485Y-128135614D01*
X153979413Y-128046588D01*
X154172843Y-127917342D01*
X154337342Y-127752843D01*
X154466588Y-127559413D01*
X154555614Y-127344485D01*
X154601000Y-127116318D01*
X154601000Y-126883682D01*
X154555614Y-126655515D01*
X154466588Y-126440587D01*
X154337342Y-126247157D01*
X154172843Y-126082658D01*
X153979413Y-125953412D01*
X153764485Y-125864386D01*
X153536318Y-125819000D01*
X153303682Y-125819000D01*
X153075515Y-125864386D01*
X152860587Y-125953412D01*
X152667157Y-126082658D01*
X152502658Y-126247157D01*
X152373412Y-126440587D01*
X152284386Y-126655515D01*
X152241125Y-126872998D01*
X152150625Y-126872998D01*
X152271909Y-126650960D01*
X152177070Y-126386119D01*
X152032385Y-126144869D01*
X151843414Y-125936481D01*
X151617420Y-125768963D01*
X151363087Y-125648754D01*
X151229039Y-125608096D01*
X151007000Y-125730085D01*
X150753000Y-125730085D01*
X150530961Y-125608096D01*
X150396913Y-125648754D01*
X150142580Y-125768963D01*
X149916586Y-125936481D01*
X149727615Y-126144869D01*
X149582930Y-126386119D01*
X149488091Y-126650960D01*
X149609375Y-126872998D01*
X149518875Y-126872998D01*
X149475614Y-126655515D01*
X149471000Y-126644376D01*
X149471000Y-123825000D01*
X151130000Y-123825000D01*
X151253882Y-123812799D01*
X151373004Y-123776664D01*
X151482787Y-123717983D01*
X151579013Y-123639013D01*
X151657983Y-123542787D01*
X151716664Y-123433004D01*
X151752799Y-123313882D01*
X151765000Y-123190000D01*
X151765000Y-120907369D01*
X152026369Y-120646000D01*
X156083000Y-120646000D01*
X156083000Y-121827157D01*
X155306000Y-121827157D01*
X155231311Y-121834513D01*
X155159492Y-121856299D01*
X155093304Y-121891678D01*
X155041402Y-121934272D01*
X155038642Y-121930141D01*
X154929859Y-121821358D01*
X154801942Y-121735887D01*
X154659809Y-121677013D01*
X154508922Y-121647000D01*
X154355078Y-121647000D01*
X154204191Y-121677013D01*
X154062058Y-121735887D01*
X153934141Y-121821358D01*
X153825358Y-121930141D01*
X153739887Y-122058058D01*
X153681013Y-122200191D01*
X153651000Y-122351078D01*
X153651000Y-122504922D01*
X153681013Y-122655809D01*
X153739887Y-122797942D01*
X153825358Y-122925859D01*
X153934141Y-123034642D01*
X154062058Y-123120113D01*
X154204191Y-123178987D01*
X154355078Y-123209000D01*
X154508922Y-123209000D01*
X154659809Y-123178987D01*
X154801942Y-123120113D01*
X154845513Y-123091000D01*
X154970736Y-123091000D01*
X154987678Y-123122696D01*
X155035289Y-123180711D01*
X155093304Y-123228322D01*
X155159492Y-123263701D01*
X155231311Y-123285487D01*
X155306000Y-123292843D01*
X156083000Y-123292843D01*
X156083000Y-123727157D01*
X155306000Y-123727157D01*
X155231311Y-123734513D01*
X155159492Y-123756299D01*
X155093304Y-123791678D01*
X155035289Y-123839289D01*
X154987678Y-123897304D01*
X154952299Y-123963492D01*
X154930513Y-124035311D01*
X154923157Y-124110000D01*
X154923157Y-124810000D01*
X154930513Y-124884689D01*
X154952299Y-124956508D01*
X154987678Y-125022696D01*
X155035289Y-125080711D01*
X155093304Y-125128322D01*
X155159492Y-125163701D01*
X155231311Y-125185487D01*
X155306000Y-125192843D01*
X155429001Y-125192843D01*
X155429000Y-125941643D01*
X155400587Y-125953412D01*
X155207157Y-126082658D01*
X155042658Y-126247157D01*
X154913412Y-126440587D01*
X154824386Y-126655515D01*
X154779000Y-126883682D01*
X154779000Y-127116318D01*
X154824386Y-127344485D01*
X154913412Y-127559413D01*
X155042658Y-127752843D01*
X155207157Y-127917342D01*
X155400587Y-128046588D01*
X155615515Y-128135614D01*
X155843682Y-128181000D01*
X156076318Y-128181000D01*
X156304485Y-128135614D01*
X156519413Y-128046588D01*
X156712843Y-127917342D01*
X156877342Y-127752843D01*
X157006588Y-127559413D01*
X157095614Y-127344485D01*
X157141000Y-127116318D01*
X157141000Y-126883682D01*
X157319000Y-126883682D01*
X157319000Y-127116318D01*
X157364386Y-127344485D01*
X157453412Y-127559413D01*
X157582658Y-127752843D01*
X157747157Y-127917342D01*
X157940587Y-128046588D01*
X158155515Y-128135614D01*
X158383682Y-128181000D01*
X158616318Y-128181000D01*
X158844485Y-128135614D01*
X159059413Y-128046588D01*
X159252843Y-127917342D01*
X159417342Y-127752843D01*
X159546588Y-127559413D01*
X159635614Y-127344485D01*
X159681000Y-127116318D01*
X159681000Y-126883682D01*
X159635614Y-126655515D01*
X159546588Y-126440587D01*
X159417342Y-126247157D01*
X159252843Y-126082658D01*
X159059413Y-125953412D01*
X158844485Y-125864386D01*
X158616318Y-125819000D01*
X158383682Y-125819000D01*
X158155515Y-125864386D01*
X157940587Y-125953412D01*
X157747157Y-126082658D01*
X157582658Y-126247157D01*
X157453412Y-126440587D01*
X157364386Y-126655515D01*
X157319000Y-126883682D01*
X157141000Y-126883682D01*
X157095614Y-126655515D01*
X157006588Y-126440587D01*
X156877342Y-126247157D01*
X156712843Y-126082658D01*
X156519413Y-125953412D01*
X156491000Y-125941643D01*
X156491000Y-125192843D01*
X156606000Y-125192843D01*
X156680689Y-125185487D01*
X156752508Y-125163701D01*
X156818696Y-125128322D01*
X156876711Y-125080711D01*
X156924322Y-125022696D01*
X156959701Y-124956508D01*
X156981487Y-124884689D01*
X156988843Y-124810000D01*
X156988843Y-124587000D01*
X160003157Y-124587000D01*
X160003157Y-124810000D01*
X160010513Y-124884689D01*
X160032299Y-124956508D01*
X160067678Y-125022696D01*
X160115289Y-125080711D01*
X160173304Y-125128322D01*
X160239492Y-125163701D01*
X160311311Y-125185487D01*
X160386000Y-125192843D01*
X160509001Y-125192843D01*
X160509000Y-125941643D01*
X160480587Y-125953412D01*
X160287157Y-126082658D01*
X160122658Y-126247157D01*
X159993412Y-126440587D01*
X159904386Y-126655515D01*
X159859000Y-126883682D01*
X159859000Y-127116318D01*
X159904386Y-127344485D01*
X159993412Y-127559413D01*
X160122658Y-127752843D01*
X160287157Y-127917342D01*
X160480587Y-128046588D01*
X160695515Y-128135614D01*
X160923682Y-128181000D01*
X161156318Y-128181000D01*
X161384485Y-128135614D01*
X161599413Y-128046588D01*
X161792843Y-127917342D01*
X161957342Y-127752843D01*
X162086588Y-127559413D01*
X162175614Y-127344485D01*
X162221000Y-127116318D01*
X162221000Y-126883682D01*
X162399000Y-126883682D01*
X162399000Y-127116318D01*
X162444386Y-127344485D01*
X162533412Y-127559413D01*
X162662658Y-127752843D01*
X162827157Y-127917342D01*
X163020587Y-128046588D01*
X163235515Y-128135614D01*
X163463682Y-128181000D01*
X163696318Y-128181000D01*
X163924485Y-128135614D01*
X164139413Y-128046588D01*
X164332843Y-127917342D01*
X164497342Y-127752843D01*
X164626588Y-127559413D01*
X164715614Y-127344485D01*
X164761000Y-127116318D01*
X164761000Y-126883682D01*
X164939000Y-126883682D01*
X164939000Y-127116318D01*
X164984386Y-127344485D01*
X165073412Y-127559413D01*
X165202658Y-127752843D01*
X165367157Y-127917342D01*
X165560587Y-128046588D01*
X165775515Y-128135614D01*
X166003682Y-128181000D01*
X166236318Y-128181000D01*
X166464485Y-128135614D01*
X166679413Y-128046588D01*
X166872843Y-127917342D01*
X167037342Y-127752843D01*
X167166588Y-127559413D01*
X167255614Y-127344485D01*
X167301000Y-127116318D01*
X167301000Y-126883682D01*
X167255614Y-126655515D01*
X167166588Y-126440587D01*
X167037342Y-126247157D01*
X166872843Y-126082658D01*
X166679413Y-125953412D01*
X166464485Y-125864386D01*
X166236318Y-125819000D01*
X166003682Y-125819000D01*
X165775515Y-125864386D01*
X165560587Y-125953412D01*
X165367157Y-126082658D01*
X165202658Y-126247157D01*
X165073412Y-126440587D01*
X164984386Y-126655515D01*
X164939000Y-126883682D01*
X164761000Y-126883682D01*
X164715614Y-126655515D01*
X164626588Y-126440587D01*
X164497342Y-126247157D01*
X164332843Y-126082658D01*
X164139413Y-125953412D01*
X163924485Y-125864386D01*
X163696318Y-125819000D01*
X163463682Y-125819000D01*
X163235515Y-125864386D01*
X163020587Y-125953412D01*
X162827157Y-126082658D01*
X162662658Y-126247157D01*
X162533412Y-126440587D01*
X162444386Y-126655515D01*
X162399000Y-126883682D01*
X162221000Y-126883682D01*
X162175614Y-126655515D01*
X162086588Y-126440587D01*
X161957342Y-126247157D01*
X161792843Y-126082658D01*
X161599413Y-125953412D01*
X161571000Y-125941643D01*
X161571000Y-125192843D01*
X161686000Y-125192843D01*
X161760689Y-125185487D01*
X161832508Y-125163701D01*
X161898696Y-125128322D01*
X161956711Y-125080711D01*
X162004322Y-125022696D01*
X162039701Y-124956508D01*
X162061487Y-124884689D01*
X162068843Y-124810000D01*
X162068843Y-124587000D01*
X162543157Y-124587000D01*
X162543157Y-124744000D01*
X162550513Y-124818689D01*
X162572299Y-124890508D01*
X162607678Y-124956696D01*
X162655289Y-125014711D01*
X162713304Y-125062322D01*
X162779492Y-125097701D01*
X162851311Y-125119487D01*
X162926000Y-125126843D01*
X164226000Y-125126843D01*
X164300689Y-125119487D01*
X164372508Y-125097701D01*
X164438696Y-125062322D01*
X164496711Y-125014711D01*
X164544322Y-124956696D01*
X164561264Y-124925000D01*
X165130736Y-124925000D01*
X165147678Y-124956696D01*
X165195289Y-125014711D01*
X165253304Y-125062322D01*
X165319492Y-125097701D01*
X165391311Y-125119487D01*
X165466000Y-125126843D01*
X166285897Y-125126843D01*
X167617001Y-126457949D01*
X167617000Y-127481926D01*
X167614432Y-127508000D01*
X167617000Y-127534074D01*
X167617000Y-127534083D01*
X167624683Y-127612093D01*
X167655047Y-127712187D01*
X167704354Y-127804435D01*
X167770710Y-127885290D01*
X167790975Y-127901921D01*
X168770083Y-128881030D01*
X168786710Y-128901290D01*
X168806970Y-128917917D01*
X168867564Y-128967646D01*
X168959812Y-129016953D01*
X169059906Y-129047317D01*
X169137916Y-129055000D01*
X169137926Y-129055000D01*
X169164000Y-129057568D01*
X169190074Y-129055000D01*
X173709926Y-129055000D01*
X173736000Y-129057568D01*
X173762074Y-129055000D01*
X173762084Y-129055000D01*
X173840094Y-129047317D01*
X173940188Y-129016953D01*
X174032435Y-128967646D01*
X174113290Y-128901290D01*
X174129921Y-128881025D01*
X174887102Y-128123845D01*
X174915515Y-128135614D01*
X175143682Y-128181000D01*
X175376318Y-128181000D01*
X175604485Y-128135614D01*
X175819413Y-128046588D01*
X176012843Y-127917342D01*
X176177342Y-127752843D01*
X176306588Y-127559413D01*
X176395614Y-127344485D01*
X176441000Y-127116318D01*
X176441000Y-126883682D01*
X176395614Y-126655515D01*
X176306588Y-126440587D01*
X176177342Y-126247157D01*
X176012843Y-126082658D01*
X175819413Y-125953412D01*
X175604485Y-125864386D01*
X175567354Y-125857000D01*
X177492646Y-125857000D01*
X177455515Y-125864386D01*
X177240587Y-125953412D01*
X177047157Y-126082658D01*
X176882658Y-126247157D01*
X176753412Y-126440587D01*
X176664386Y-126655515D01*
X176619000Y-126883682D01*
X176619000Y-127116318D01*
X176664386Y-127344485D01*
X176753412Y-127559413D01*
X176882658Y-127752843D01*
X177047157Y-127917342D01*
X177240587Y-128046588D01*
X177455515Y-128135614D01*
X177683682Y-128181000D01*
X177916318Y-128181000D01*
X178144485Y-128135614D01*
X178359413Y-128046588D01*
X178552843Y-127917342D01*
X178717342Y-127752843D01*
X178846588Y-127559413D01*
X178935614Y-127344485D01*
X178981000Y-127116318D01*
X178981000Y-126883682D01*
X178935614Y-126655515D01*
X178846588Y-126440587D01*
X178717342Y-126247157D01*
X178552843Y-126082658D01*
X178359413Y-125953412D01*
X178144485Y-125864386D01*
X178107354Y-125857000D01*
X180032646Y-125857000D01*
X179995515Y-125864386D01*
X179780587Y-125953412D01*
X179587157Y-126082658D01*
X179422658Y-126247157D01*
X179293412Y-126440587D01*
X179204386Y-126655515D01*
X179159000Y-126883682D01*
X179159000Y-127116318D01*
X179204386Y-127344485D01*
X179293412Y-127559413D01*
X179422658Y-127752843D01*
X179587157Y-127917342D01*
X179780587Y-128046588D01*
X179995515Y-128135614D01*
X180223682Y-128181000D01*
X180456318Y-128181000D01*
X180684485Y-128135614D01*
X180899413Y-128046588D01*
X181092843Y-127917342D01*
X181257342Y-127752843D01*
X181386588Y-127559413D01*
X181475614Y-127344485D01*
X181521000Y-127116318D01*
X181521000Y-126883682D01*
X181475614Y-126655515D01*
X181386588Y-126440587D01*
X181257342Y-126247157D01*
X181092843Y-126082658D01*
X180899413Y-125953412D01*
X180684485Y-125864386D01*
X180647354Y-125857000D01*
X182572646Y-125857000D01*
X182535515Y-125864386D01*
X182320587Y-125953412D01*
X182127157Y-126082658D01*
X181962658Y-126247157D01*
X181833412Y-126440587D01*
X181744386Y-126655515D01*
X181699000Y-126883682D01*
X181699000Y-127116318D01*
X181744386Y-127344485D01*
X181833412Y-127559413D01*
X181962658Y-127752843D01*
X182127157Y-127917342D01*
X182320587Y-128046588D01*
X182535515Y-128135614D01*
X182763682Y-128181000D01*
X182996318Y-128181000D01*
X183224485Y-128135614D01*
X183439413Y-128046588D01*
X183632843Y-127917342D01*
X183797342Y-127752843D01*
X183926588Y-127559413D01*
X184015614Y-127344485D01*
X184061000Y-127116318D01*
X184061000Y-126883682D01*
X184239000Y-126883682D01*
X184239000Y-127116318D01*
X184284386Y-127344485D01*
X184373412Y-127559413D01*
X184502658Y-127752843D01*
X184667157Y-127917342D01*
X184860587Y-128046588D01*
X185075515Y-128135614D01*
X185303682Y-128181000D01*
X185536318Y-128181000D01*
X185764485Y-128135614D01*
X185979413Y-128046588D01*
X186172843Y-127917342D01*
X186337342Y-127752843D01*
X186466588Y-127559413D01*
X186555614Y-127344485D01*
X186601000Y-127116318D01*
X186601000Y-126883682D01*
X186779000Y-126883682D01*
X186779000Y-127116318D01*
X186824386Y-127344485D01*
X186913412Y-127559413D01*
X187042658Y-127752843D01*
X187207157Y-127917342D01*
X187400587Y-128046588D01*
X187615515Y-128135614D01*
X187843682Y-128181000D01*
X188076318Y-128181000D01*
X188304485Y-128135614D01*
X188519413Y-128046588D01*
X188712843Y-127917342D01*
X188877342Y-127752843D01*
X189006588Y-127559413D01*
X189095614Y-127344485D01*
X189141000Y-127116318D01*
X189141000Y-126883682D01*
X189095614Y-126655515D01*
X189006588Y-126440587D01*
X188877342Y-126247157D01*
X188712843Y-126082658D01*
X188519413Y-125953412D01*
X188304485Y-125864386D01*
X188076318Y-125819000D01*
X187843682Y-125819000D01*
X187615515Y-125864386D01*
X187400587Y-125953412D01*
X187207157Y-126082658D01*
X187042658Y-126247157D01*
X186913412Y-126440587D01*
X186824386Y-126655515D01*
X186779000Y-126883682D01*
X186601000Y-126883682D01*
X186555614Y-126655515D01*
X186466588Y-126440587D01*
X186337342Y-126247157D01*
X186172843Y-126082658D01*
X185979413Y-125953412D01*
X185764485Y-125864386D01*
X185536318Y-125819000D01*
X185303682Y-125819000D01*
X185075515Y-125864386D01*
X184860587Y-125953412D01*
X184667157Y-126082658D01*
X184502658Y-126247157D01*
X184373412Y-126440587D01*
X184284386Y-126655515D01*
X184239000Y-126883682D01*
X184061000Y-126883682D01*
X184015614Y-126655515D01*
X183926588Y-126440587D01*
X183797342Y-126247157D01*
X183632843Y-126082658D01*
X183439413Y-125953412D01*
X183224485Y-125864386D01*
X183187354Y-125857000D01*
X184785000Y-125857000D01*
X184809776Y-125854560D01*
X184833601Y-125847333D01*
X184855557Y-125835597D01*
X184874803Y-125819803D01*
X184890597Y-125800557D01*
X184902333Y-125778601D01*
X184909560Y-125754776D01*
X184912000Y-125730000D01*
X184912000Y-123491278D01*
X184934502Y-123449180D01*
X184970812Y-123329482D01*
X184983072Y-123205000D01*
X184980000Y-122840750D01*
X184912000Y-122772750D01*
X184912000Y-122337250D01*
X184980000Y-122269250D01*
X184983072Y-121905000D01*
X184970812Y-121780518D01*
X184934502Y-121660820D01*
X184912000Y-121618722D01*
X184912000Y-120777000D01*
X190094001Y-120777000D01*
X190094000Y-128101829D01*
X189061831Y-129134000D01*
X136652000Y-129134000D01*
X136652000Y-126874817D01*
X138429000Y-126874817D01*
X138429000Y-127125183D01*
X138477844Y-127370737D01*
X138573654Y-127602044D01*
X138712750Y-127810215D01*
X138889785Y-127987250D01*
X139097956Y-128126346D01*
X139329263Y-128222156D01*
X139574817Y-128271000D01*
X139825183Y-128271000D01*
X140070737Y-128222156D01*
X140302044Y-128126346D01*
X140510215Y-127987250D01*
X140687250Y-127810215D01*
X140826346Y-127602044D01*
X140922156Y-127370737D01*
X140971000Y-127125183D01*
X140971000Y-126883682D01*
X142079000Y-126883682D01*
X142079000Y-127116318D01*
X142124386Y-127344485D01*
X142213412Y-127559413D01*
X142342658Y-127752843D01*
X142507157Y-127917342D01*
X142700587Y-128046588D01*
X142915515Y-128135614D01*
X143143682Y-128181000D01*
X143376318Y-128181000D01*
X143604485Y-128135614D01*
X143819413Y-128046588D01*
X144012843Y-127917342D01*
X144177342Y-127752843D01*
X144306588Y-127559413D01*
X144395614Y-127344485D01*
X144441000Y-127116318D01*
X144441000Y-126883682D01*
X144619000Y-126883682D01*
X144619000Y-127116318D01*
X144664386Y-127344485D01*
X144753412Y-127559413D01*
X144882658Y-127752843D01*
X145047157Y-127917342D01*
X145240587Y-128046588D01*
X145455515Y-128135614D01*
X145683682Y-128181000D01*
X145916318Y-128181000D01*
X146144485Y-128135614D01*
X146359413Y-128046588D01*
X146552843Y-127917342D01*
X146717342Y-127752843D01*
X146846588Y-127559413D01*
X146935614Y-127344485D01*
X146981000Y-127116318D01*
X146981000Y-126883682D01*
X146935614Y-126655515D01*
X146846588Y-126440587D01*
X146717342Y-126247157D01*
X146552843Y-126082658D01*
X146359413Y-125953412D01*
X146144485Y-125864386D01*
X145916318Y-125819000D01*
X145683682Y-125819000D01*
X145455515Y-125864386D01*
X145240587Y-125953412D01*
X145047157Y-126082658D01*
X144882658Y-126247157D01*
X144753412Y-126440587D01*
X144664386Y-126655515D01*
X144619000Y-126883682D01*
X144441000Y-126883682D01*
X144395614Y-126655515D01*
X144306588Y-126440587D01*
X144177342Y-126247157D01*
X144012843Y-126082658D01*
X143819413Y-125953412D01*
X143604485Y-125864386D01*
X143376318Y-125819000D01*
X143143682Y-125819000D01*
X142915515Y-125864386D01*
X142700587Y-125953412D01*
X142507157Y-126082658D01*
X142342658Y-126247157D01*
X142213412Y-126440587D01*
X142124386Y-126655515D01*
X142079000Y-126883682D01*
X140971000Y-126883682D01*
X140971000Y-126874817D01*
X140922156Y-126629263D01*
X140826346Y-126397956D01*
X140687250Y-126189785D01*
X140510215Y-126012750D01*
X140302044Y-125873654D01*
X140070737Y-125777844D01*
X139825183Y-125729000D01*
X139574817Y-125729000D01*
X139329263Y-125777844D01*
X139097956Y-125873654D01*
X138889785Y-126012750D01*
X138712750Y-126189785D01*
X138573654Y-126397956D01*
X138477844Y-126629263D01*
X138429000Y-126874817D01*
X136652000Y-126874817D01*
X136652000Y-78614817D01*
X137159000Y-78614817D01*
X137159000Y-78865183D01*
X137207844Y-79110737D01*
X137303654Y-79342044D01*
X137442750Y-79550215D01*
X137619785Y-79727250D01*
X137827956Y-79866346D01*
X138059263Y-79962156D01*
X138304817Y-80011000D01*
X138555183Y-80011000D01*
X138800737Y-79962156D01*
X139032044Y-79866346D01*
X139240215Y-79727250D01*
X139417250Y-79550215D01*
X139556346Y-79342044D01*
X139652156Y-79110737D01*
X139701000Y-78865183D01*
X139701000Y-78614817D01*
X139652156Y-78369263D01*
X139556346Y-78137956D01*
X139417250Y-77929785D01*
X139240215Y-77752750D01*
X139032044Y-77613654D01*
X138800737Y-77517844D01*
X138555183Y-77469000D01*
X138304817Y-77469000D01*
X138059263Y-77517844D01*
X137827956Y-77613654D01*
X137619785Y-77752750D01*
X137442750Y-77929785D01*
X137303654Y-78137956D01*
X137207844Y-78369263D01*
X137159000Y-78614817D01*
X136652000Y-78614817D01*
X136652000Y-76606000D01*
X190094001Y-76606000D01*
X190094000Y-78720067D01*
G36*
X151619000Y-108661922D02*
G01*
X151649013Y-108812809D01*
X151707887Y-108954942D01*
X151793358Y-109082859D01*
X151902141Y-109191642D01*
X152030058Y-109277113D01*
X152169275Y-109334779D01*
X151407975Y-110096079D01*
X151387710Y-110112710D01*
X151321354Y-110193565D01*
X151272047Y-110285813D01*
X151241683Y-110385907D01*
X151234000Y-110463917D01*
X151234000Y-110463926D01*
X151231432Y-110490000D01*
X151234000Y-110516074D01*
X151234001Y-116018920D01*
X151231432Y-116045004D01*
X151241684Y-116149097D01*
X151272047Y-116249191D01*
X151321354Y-116341439D01*
X151371083Y-116402033D01*
X151387711Y-116422294D01*
X151407971Y-116438921D01*
X154071079Y-119102030D01*
X154087706Y-119122290D01*
X154107966Y-119138917D01*
X154168560Y-119188646D01*
X154177348Y-119193343D01*
X154260808Y-119237953D01*
X154360902Y-119268317D01*
X154438912Y-119276000D01*
X154438922Y-119276000D01*
X154464996Y-119278568D01*
X154491070Y-119276000D01*
X156083000Y-119276000D01*
X156083000Y-119384000D01*
X151795990Y-119384000D01*
X151765000Y-119380948D01*
X151734009Y-119384000D01*
X151734002Y-119384000D01*
X151641302Y-119393130D01*
X151522358Y-119429211D01*
X151412739Y-119487804D01*
X151362323Y-119529180D01*
X151316657Y-119566657D01*
X151296899Y-119590732D01*
X150872631Y-120015000D01*
X149587352Y-120015000D01*
X149599072Y-119896000D01*
X149596000Y-119681750D01*
X149437250Y-119523000D01*
X148463000Y-119523000D01*
X148463000Y-119543000D01*
X148209000Y-119543000D01*
X148209000Y-119523000D01*
X148189000Y-119523000D01*
X148189000Y-119269000D01*
X148209000Y-119269000D01*
X148209000Y-118419750D01*
X148463000Y-118419750D01*
X148463000Y-119269000D01*
X149437250Y-119269000D01*
X149596000Y-119110250D01*
X149599072Y-118896000D01*
X149586812Y-118771518D01*
X149550502Y-118651820D01*
X149491537Y-118541506D01*
X149412185Y-118444815D01*
X149315494Y-118365463D01*
X149205180Y-118306498D01*
X149085482Y-118270188D01*
X148961000Y-118257928D01*
X148621750Y-118261000D01*
X148463000Y-118419750D01*
X148209000Y-118419750D01*
X148050250Y-118261000D01*
X147711000Y-118257928D01*
X147586518Y-118270188D01*
X147466820Y-118306498D01*
X147356506Y-118365463D01*
X147320000Y-118395423D01*
X147320000Y-115800000D01*
X148596928Y-115800000D01*
X148609188Y-115924482D01*
X148645498Y-116044180D01*
X148704463Y-116154494D01*
X148783815Y-116251185D01*
X148880506Y-116330537D01*
X148990820Y-116389502D01*
X149110518Y-116425812D01*
X149235000Y-116438072D01*
X149574250Y-116435000D01*
X149733000Y-116276250D01*
X149733000Y-115427000D01*
X149987000Y-115427000D01*
X149987000Y-116276250D01*
X150145750Y-116435000D01*
X150485000Y-116438072D01*
X150609482Y-116425812D01*
X150729180Y-116389502D01*
X150839494Y-116330537D01*
X150936185Y-116251185D01*
X151015537Y-116154494D01*
X151074502Y-116044180D01*
X151110812Y-115924482D01*
X151123072Y-115800000D01*
X151120000Y-115585750D01*
X150961250Y-115427000D01*
X149987000Y-115427000D01*
X149733000Y-115427000D01*
X148758750Y-115427000D01*
X148600000Y-115585750D01*
X148596928Y-115800000D01*
X147320000Y-115800000D01*
X147320000Y-114181000D01*
X149088062Y-114181000D01*
X148990820Y-114210498D01*
X148880506Y-114269463D01*
X148783815Y-114348815D01*
X148704463Y-114445506D01*
X148645498Y-114555820D01*
X148609188Y-114675518D01*
X148596928Y-114800000D01*
X148600000Y-115014250D01*
X148758750Y-115173000D01*
X149733000Y-115173000D01*
X149733000Y-115153000D01*
X149987000Y-115153000D01*
X149987000Y-115173000D01*
X150961250Y-115173000D01*
X151120000Y-115014250D01*
X151123072Y-114800000D01*
X151110812Y-114675518D01*
X151074502Y-114555820D01*
X151015537Y-114445506D01*
X150936185Y-114348815D01*
X150839494Y-114269463D01*
X150729180Y-114210498D01*
X150609482Y-114174188D01*
X150575126Y-114170804D01*
X150631508Y-114153701D01*
X150697696Y-114118322D01*
X150755711Y-114070711D01*
X150803322Y-114012696D01*
X150838701Y-113946508D01*
X150860487Y-113874689D01*
X150867843Y-113800000D01*
X150867843Y-112800000D01*
X150860487Y-112725311D01*
X150838701Y-112653492D01*
X150803322Y-112587304D01*
X150755711Y-112529289D01*
X150697696Y-112481678D01*
X150631508Y-112446299D01*
X150559689Y-112424513D01*
X150485000Y-112417157D01*
X150331000Y-112417157D01*
X150331000Y-111807843D01*
X150450000Y-111807843D01*
X150524689Y-111800487D01*
X150596508Y-111778701D01*
X150662696Y-111743322D01*
X150720711Y-111695711D01*
X150768322Y-111637696D01*
X150803701Y-111571508D01*
X150825487Y-111499689D01*
X150832843Y-111425000D01*
X150832843Y-110825000D01*
X150825487Y-110750311D01*
X150803701Y-110678492D01*
X150768322Y-110612304D01*
X150720711Y-110554289D01*
X150662696Y-110506678D01*
X150631494Y-110490000D01*
X150662696Y-110473322D01*
X150720711Y-110425711D01*
X150768322Y-110367696D01*
X150803701Y-110301508D01*
X150825487Y-110229689D01*
X150832843Y-110155000D01*
X150832843Y-109555000D01*
X150825487Y-109480311D01*
X150803701Y-109408492D01*
X150768322Y-109342304D01*
X150720711Y-109284289D01*
X150662696Y-109236678D01*
X150631494Y-109220000D01*
X150662696Y-109203322D01*
X150720711Y-109155711D01*
X150768322Y-109097696D01*
X150803701Y-109031508D01*
X150825487Y-108959689D01*
X150832843Y-108885000D01*
X150832843Y-108672262D01*
X150902191Y-108700987D01*
X151053078Y-108731000D01*
X151206922Y-108731000D01*
X151357809Y-108700987D01*
X151499942Y-108642113D01*
X151619000Y-108562561D01*
X151619000Y-108661922D01*
G37*
X151619000Y-108661922D02*
X151649013Y-108812809D01*
X151707887Y-108954942D01*
X151793358Y-109082859D01*
X151902141Y-109191642D01*
X152030058Y-109277113D01*
X152169275Y-109334779D01*
X151407975Y-110096079D01*
X151387710Y-110112710D01*
X151321354Y-110193565D01*
X151272047Y-110285813D01*
X151241683Y-110385907D01*
X151234000Y-110463917D01*
X151234000Y-110463926D01*
X151231432Y-110490000D01*
X151234000Y-110516074D01*
X151234001Y-116018920D01*
X151231432Y-116045004D01*
X151241684Y-116149097D01*
X151272047Y-116249191D01*
X151321354Y-116341439D01*
X151371083Y-116402033D01*
X151387711Y-116422294D01*
X151407971Y-116438921D01*
X154071079Y-119102030D01*
X154087706Y-119122290D01*
X154107966Y-119138917D01*
X154168560Y-119188646D01*
X154177348Y-119193343D01*
X154260808Y-119237953D01*
X154360902Y-119268317D01*
X154438912Y-119276000D01*
X154438922Y-119276000D01*
X154464996Y-119278568D01*
X154491070Y-119276000D01*
X156083000Y-119276000D01*
X156083000Y-119384000D01*
X151795990Y-119384000D01*
X151765000Y-119380948D01*
X151734009Y-119384000D01*
X151734002Y-119384000D01*
X151641302Y-119393130D01*
X151522358Y-119429211D01*
X151412739Y-119487804D01*
X151362323Y-119529180D01*
X151316657Y-119566657D01*
X151296899Y-119590732D01*
X150872631Y-120015000D01*
X149587352Y-120015000D01*
X149599072Y-119896000D01*
X149596000Y-119681750D01*
X149437250Y-119523000D01*
X148463000Y-119523000D01*
X148463000Y-119543000D01*
X148209000Y-119543000D01*
X148209000Y-119523000D01*
X148189000Y-119523000D01*
X148189000Y-119269000D01*
X148209000Y-119269000D01*
X148209000Y-118419750D01*
X148463000Y-118419750D01*
X148463000Y-119269000D01*
X149437250Y-119269000D01*
X149596000Y-119110250D01*
X149599072Y-118896000D01*
X149586812Y-118771518D01*
X149550502Y-118651820D01*
X149491537Y-118541506D01*
X149412185Y-118444815D01*
X149315494Y-118365463D01*
X149205180Y-118306498D01*
X149085482Y-118270188D01*
X148961000Y-118257928D01*
X148621750Y-118261000D01*
X148463000Y-118419750D01*
X148209000Y-118419750D01*
X148050250Y-118261000D01*
X147711000Y-118257928D01*
X147586518Y-118270188D01*
X147466820Y-118306498D01*
X147356506Y-118365463D01*
X147320000Y-118395423D01*
X147320000Y-115800000D01*
X148596928Y-115800000D01*
X148609188Y-115924482D01*
X148645498Y-116044180D01*
X148704463Y-116154494D01*
X148783815Y-116251185D01*
X148880506Y-116330537D01*
X148990820Y-116389502D01*
X149110518Y-116425812D01*
X149235000Y-116438072D01*
X149574250Y-116435000D01*
X149733000Y-116276250D01*
X149733000Y-115427000D01*
X149987000Y-115427000D01*
X149987000Y-116276250D01*
X150145750Y-116435000D01*
X150485000Y-116438072D01*
X150609482Y-116425812D01*
X150729180Y-116389502D01*
X150839494Y-116330537D01*
X150936185Y-116251185D01*
X151015537Y-116154494D01*
X151074502Y-116044180D01*
X151110812Y-115924482D01*
X151123072Y-115800000D01*
X151120000Y-115585750D01*
X150961250Y-115427000D01*
X149987000Y-115427000D01*
X149733000Y-115427000D01*
X148758750Y-115427000D01*
X148600000Y-115585750D01*
X148596928Y-115800000D01*
X147320000Y-115800000D01*
X147320000Y-114181000D01*
X149088062Y-114181000D01*
X148990820Y-114210498D01*
X148880506Y-114269463D01*
X148783815Y-114348815D01*
X148704463Y-114445506D01*
X148645498Y-114555820D01*
X148609188Y-114675518D01*
X148596928Y-114800000D01*
X148600000Y-115014250D01*
X148758750Y-115173000D01*
X149733000Y-115173000D01*
X149733000Y-115153000D01*
X149987000Y-115153000D01*
X149987000Y-115173000D01*
X150961250Y-115173000D01*
X151120000Y-115014250D01*
X151123072Y-114800000D01*
X151110812Y-114675518D01*
X151074502Y-114555820D01*
X151015537Y-114445506D01*
X150936185Y-114348815D01*
X150839494Y-114269463D01*
X150729180Y-114210498D01*
X150609482Y-114174188D01*
X150575126Y-114170804D01*
X150631508Y-114153701D01*
X150697696Y-114118322D01*
X150755711Y-114070711D01*
X150803322Y-114012696D01*
X150838701Y-113946508D01*
X150860487Y-113874689D01*
X150867843Y-113800000D01*
X150867843Y-112800000D01*
X150860487Y-112725311D01*
X150838701Y-112653492D01*
X150803322Y-112587304D01*
X150755711Y-112529289D01*
X150697696Y-112481678D01*
X150631508Y-112446299D01*
X150559689Y-112424513D01*
X150485000Y-112417157D01*
X150331000Y-112417157D01*
X150331000Y-111807843D01*
X150450000Y-111807843D01*
X150524689Y-111800487D01*
X150596508Y-111778701D01*
X150662696Y-111743322D01*
X150720711Y-111695711D01*
X150768322Y-111637696D01*
X150803701Y-111571508D01*
X150825487Y-111499689D01*
X150832843Y-111425000D01*
X150832843Y-110825000D01*
X150825487Y-110750311D01*
X150803701Y-110678492D01*
X150768322Y-110612304D01*
X150720711Y-110554289D01*
X150662696Y-110506678D01*
X150631494Y-110490000D01*
X150662696Y-110473322D01*
X150720711Y-110425711D01*
X150768322Y-110367696D01*
X150803701Y-110301508D01*
X150825487Y-110229689D01*
X150832843Y-110155000D01*
X150832843Y-109555000D01*
X150825487Y-109480311D01*
X150803701Y-109408492D01*
X150768322Y-109342304D01*
X150720711Y-109284289D01*
X150662696Y-109236678D01*
X150631494Y-109220000D01*
X150662696Y-109203322D01*
X150720711Y-109155711D01*
X150768322Y-109097696D01*
X150803701Y-109031508D01*
X150825487Y-108959689D01*
X150832843Y-108885000D01*
X150832843Y-108672262D01*
X150902191Y-108700987D01*
X151053078Y-108731000D01*
X151206922Y-108731000D01*
X151357809Y-108700987D01*
X151499942Y-108642113D01*
X151619000Y-108562561D01*
X151619000Y-108661922D01*
G36*
X161163000Y-108599132D02*
G01*
X161047358Y-108634211D01*
X160937739Y-108692804D01*
X160841657Y-108771657D01*
X160821895Y-108795737D01*
X158325737Y-111291895D01*
X158301657Y-111311657D01*
X158222804Y-111407740D01*
X158164211Y-111517359D01*
X158128130Y-111636303D01*
X158119000Y-111729003D01*
X158119000Y-111729010D01*
X158115948Y-111760000D01*
X158119000Y-111790990D01*
X158119000Y-112617157D01*
X158100000Y-112617157D01*
X158025311Y-112624513D01*
X157953492Y-112646299D01*
X157887304Y-112681678D01*
X157829289Y-112729289D01*
X157781678Y-112787304D01*
X157746299Y-112853492D01*
X157724513Y-112925311D01*
X157717157Y-113000000D01*
X157717157Y-113700000D01*
X157723953Y-113769000D01*
X157506074Y-113769000D01*
X157480000Y-113766432D01*
X157453926Y-113769000D01*
X157453916Y-113769000D01*
X157375906Y-113776683D01*
X157275812Y-113807047D01*
X157183564Y-113856354D01*
X157122970Y-113906082D01*
X157122964Y-113906088D01*
X157102710Y-113922710D01*
X157086087Y-113942965D01*
X156856053Y-114173000D01*
X156727039Y-114173000D01*
X156706987Y-114072191D01*
X156648113Y-113930058D01*
X156587133Y-113838795D01*
X156593701Y-113826508D01*
X156615487Y-113754689D01*
X156622843Y-113680000D01*
X156622843Y-112380000D01*
X156615487Y-112305311D01*
X156593701Y-112233492D01*
X156558322Y-112167304D01*
X156510711Y-112109289D01*
X156452696Y-112061678D01*
X156386508Y-112026299D01*
X156314689Y-112004513D01*
X156240000Y-111997157D01*
X155540000Y-111997157D01*
X155465311Y-112004513D01*
X155393492Y-112026299D01*
X155327304Y-112061678D01*
X155269289Y-112109289D01*
X155221678Y-112167304D01*
X155186299Y-112233492D01*
X155164513Y-112305311D01*
X155157157Y-112380000D01*
X155157157Y-113680000D01*
X155164513Y-113754689D01*
X155186299Y-113826508D01*
X155221678Y-113892696D01*
X155260014Y-113939409D01*
X155205013Y-114072191D01*
X155175000Y-114223078D01*
X155175000Y-114376922D01*
X155203261Y-114519001D01*
X154966339Y-114519001D01*
X154911642Y-114437141D01*
X154802859Y-114328358D01*
X154674942Y-114242887D01*
X154532809Y-114184013D01*
X154381922Y-114154000D01*
X154228078Y-114154000D01*
X154077191Y-114184013D01*
X153935058Y-114242887D01*
X153807141Y-114328358D01*
X153698358Y-114437141D01*
X153612887Y-114565058D01*
X153554013Y-114707191D01*
X153524000Y-114858078D01*
X153524000Y-115011922D01*
X153554013Y-115162809D01*
X153612887Y-115304942D01*
X153698358Y-115432859D01*
X153807141Y-115541642D01*
X153935058Y-115627113D01*
X154077191Y-115685987D01*
X154228078Y-115716000D01*
X154381922Y-115716000D01*
X154532809Y-115685987D01*
X154674942Y-115627113D01*
X154743954Y-115581001D01*
X156083000Y-115581001D01*
X156083000Y-116944000D01*
X155159947Y-116944000D01*
X155086000Y-116870053D01*
X155086000Y-116763078D01*
X155055987Y-116612191D01*
X154997113Y-116470058D01*
X154911642Y-116342141D01*
X154802859Y-116233358D01*
X154674942Y-116147887D01*
X154532809Y-116089013D01*
X154381922Y-116059000D01*
X154228078Y-116059000D01*
X154077191Y-116089013D01*
X153935058Y-116147887D01*
X153807141Y-116233358D01*
X153698358Y-116342141D01*
X153612887Y-116470058D01*
X153554013Y-116612191D01*
X153524000Y-116763078D01*
X153524000Y-116916922D01*
X153554013Y-117067809D01*
X153564805Y-117093862D01*
X152296000Y-115825058D01*
X152296000Y-110709946D01*
X152920221Y-110085725D01*
X152977887Y-110224942D01*
X153063358Y-110352859D01*
X153172141Y-110461642D01*
X153300058Y-110547113D01*
X153442191Y-110605987D01*
X153593078Y-110636000D01*
X153746922Y-110636000D01*
X153897809Y-110605987D01*
X154039942Y-110547113D01*
X154144568Y-110477205D01*
X154168506Y-110490000D01*
X154137304Y-110506678D01*
X154079289Y-110554289D01*
X154031678Y-110612304D01*
X153996299Y-110678492D01*
X153974513Y-110750311D01*
X153967157Y-110825000D01*
X153967157Y-111189397D01*
X153632975Y-111523579D01*
X153612710Y-111540210D01*
X153546354Y-111621065D01*
X153497047Y-111713313D01*
X153466683Y-111813407D01*
X153459000Y-111891417D01*
X153459000Y-111891426D01*
X153456432Y-111917500D01*
X153459000Y-111943574D01*
X153459000Y-112044736D01*
X153427304Y-112061678D01*
X153369289Y-112109289D01*
X153321678Y-112167304D01*
X153286299Y-112233492D01*
X153264513Y-112305311D01*
X153257157Y-112380000D01*
X153257157Y-113680000D01*
X153264513Y-113754689D01*
X153286299Y-113826508D01*
X153321678Y-113892696D01*
X153369289Y-113950711D01*
X153427304Y-113998322D01*
X153493492Y-114033701D01*
X153565311Y-114055487D01*
X153640000Y-114062843D01*
X154340000Y-114062843D01*
X154414689Y-114055487D01*
X154486508Y-114033701D01*
X154552696Y-113998322D01*
X154610711Y-113950711D01*
X154658322Y-113892696D01*
X154693701Y-113826508D01*
X154715487Y-113754689D01*
X154722843Y-113680000D01*
X154722843Y-112380000D01*
X154715487Y-112305311D01*
X154693701Y-112233492D01*
X154658322Y-112167304D01*
X154610711Y-112109289D01*
X154576903Y-112081544D01*
X154850604Y-111807843D01*
X155850000Y-111807843D01*
X155924689Y-111800487D01*
X155996508Y-111778701D01*
X156062696Y-111743322D01*
X156120711Y-111695711D01*
X156168322Y-111637696D01*
X156203701Y-111571508D01*
X156225487Y-111499689D01*
X156232843Y-111425000D01*
X156232843Y-110825000D01*
X156225487Y-110750311D01*
X156203701Y-110678492D01*
X156168322Y-110612304D01*
X156120711Y-110554289D01*
X156062696Y-110506678D01*
X156031494Y-110490000D01*
X156062696Y-110473322D01*
X156120711Y-110425711D01*
X156153301Y-110386000D01*
X156183926Y-110386000D01*
X156210000Y-110388568D01*
X156236074Y-110386000D01*
X156236084Y-110386000D01*
X156314094Y-110378317D01*
X156414188Y-110347953D01*
X156506435Y-110298646D01*
X156587290Y-110232290D01*
X156603921Y-110212025D01*
X157202035Y-109613913D01*
X157222290Y-109597290D01*
X157238912Y-109577036D01*
X157238918Y-109577030D01*
X157288646Y-109516436D01*
X157337953Y-109424188D01*
X157346568Y-109395788D01*
X157368317Y-109324094D01*
X157376000Y-109246084D01*
X157376000Y-109246074D01*
X157378568Y-109220000D01*
X157376000Y-109193926D01*
X157376000Y-108169946D01*
X158334947Y-107211000D01*
X161163000Y-107211000D01*
X161163000Y-108599132D01*
G37*
X161163000Y-108599132D02*
X161047358Y-108634211D01*
X160937739Y-108692804D01*
X160841657Y-108771657D01*
X160821895Y-108795737D01*
X158325737Y-111291895D01*
X158301657Y-111311657D01*
X158222804Y-111407740D01*
X158164211Y-111517359D01*
X158128130Y-111636303D01*
X158119000Y-111729003D01*
X158119000Y-111729010D01*
X158115948Y-111760000D01*
X158119000Y-111790990D01*
X158119000Y-112617157D01*
X158100000Y-112617157D01*
X158025311Y-112624513D01*
X157953492Y-112646299D01*
X157887304Y-112681678D01*
X157829289Y-112729289D01*
X157781678Y-112787304D01*
X157746299Y-112853492D01*
X157724513Y-112925311D01*
X157717157Y-113000000D01*
X157717157Y-113700000D01*
X157723953Y-113769000D01*
X157506074Y-113769000D01*
X157480000Y-113766432D01*
X157453926Y-113769000D01*
X157453916Y-113769000D01*
X157375906Y-113776683D01*
X157275812Y-113807047D01*
X157183564Y-113856354D01*
X157122970Y-113906082D01*
X157122964Y-113906088D01*
X157102710Y-113922710D01*
X157086087Y-113942965D01*
X156856053Y-114173000D01*
X156727039Y-114173000D01*
X156706987Y-114072191D01*
X156648113Y-113930058D01*
X156587133Y-113838795D01*
X156593701Y-113826508D01*
X156615487Y-113754689D01*
X156622843Y-113680000D01*
X156622843Y-112380000D01*
X156615487Y-112305311D01*
X156593701Y-112233492D01*
X156558322Y-112167304D01*
X156510711Y-112109289D01*
X156452696Y-112061678D01*
X156386508Y-112026299D01*
X156314689Y-112004513D01*
X156240000Y-111997157D01*
X155540000Y-111997157D01*
X155465311Y-112004513D01*
X155393492Y-112026299D01*
X155327304Y-112061678D01*
X155269289Y-112109289D01*
X155221678Y-112167304D01*
X155186299Y-112233492D01*
X155164513Y-112305311D01*
X155157157Y-112380000D01*
X155157157Y-113680000D01*
X155164513Y-113754689D01*
X155186299Y-113826508D01*
X155221678Y-113892696D01*
X155260014Y-113939409D01*
X155205013Y-114072191D01*
X155175000Y-114223078D01*
X155175000Y-114376922D01*
X155203261Y-114519001D01*
X154966339Y-114519001D01*
X154911642Y-114437141D01*
X154802859Y-114328358D01*
X154674942Y-114242887D01*
X154532809Y-114184013D01*
X154381922Y-114154000D01*
X154228078Y-114154000D01*
X154077191Y-114184013D01*
X153935058Y-114242887D01*
X153807141Y-114328358D01*
X153698358Y-114437141D01*
X153612887Y-114565058D01*
X153554013Y-114707191D01*
X153524000Y-114858078D01*
X153524000Y-115011922D01*
X153554013Y-115162809D01*
X153612887Y-115304942D01*
X153698358Y-115432859D01*
X153807141Y-115541642D01*
X153935058Y-115627113D01*
X154077191Y-115685987D01*
X154228078Y-115716000D01*
X154381922Y-115716000D01*
X154532809Y-115685987D01*
X154674942Y-115627113D01*
X154743954Y-115581001D01*
X156083000Y-115581001D01*
X156083000Y-116944000D01*
X155159947Y-116944000D01*
X155086000Y-116870053D01*
X155086000Y-116763078D01*
X155055987Y-116612191D01*
X154997113Y-116470058D01*
X154911642Y-116342141D01*
X154802859Y-116233358D01*
X154674942Y-116147887D01*
X154532809Y-116089013D01*
X154381922Y-116059000D01*
X154228078Y-116059000D01*
X154077191Y-116089013D01*
X153935058Y-116147887D01*
X153807141Y-116233358D01*
X153698358Y-116342141D01*
X153612887Y-116470058D01*
X153554013Y-116612191D01*
X153524000Y-116763078D01*
X153524000Y-116916922D01*
X153554013Y-117067809D01*
X153564805Y-117093862D01*
X152296000Y-115825058D01*
X152296000Y-110709946D01*
X152920221Y-110085725D01*
X152977887Y-110224942D01*
X153063358Y-110352859D01*
X153172141Y-110461642D01*
X153300058Y-110547113D01*
X153442191Y-110605987D01*
X153593078Y-110636000D01*
X153746922Y-110636000D01*
X153897809Y-110605987D01*
X154039942Y-110547113D01*
X154144568Y-110477205D01*
X154168506Y-110490000D01*
X154137304Y-110506678D01*
X154079289Y-110554289D01*
X154031678Y-110612304D01*
X153996299Y-110678492D01*
X153974513Y-110750311D01*
X153967157Y-110825000D01*
X153967157Y-111189397D01*
X153632975Y-111523579D01*
X153612710Y-111540210D01*
X153546354Y-111621065D01*
X153497047Y-111713313D01*
X153466683Y-111813407D01*
X153459000Y-111891417D01*
X153459000Y-111891426D01*
X153456432Y-111917500D01*
X153459000Y-111943574D01*
X153459000Y-112044736D01*
X153427304Y-112061678D01*
X153369289Y-112109289D01*
X153321678Y-112167304D01*
X153286299Y-112233492D01*
X153264513Y-112305311D01*
X153257157Y-112380000D01*
X153257157Y-113680000D01*
X153264513Y-113754689D01*
X153286299Y-113826508D01*
X153321678Y-113892696D01*
X153369289Y-113950711D01*
X153427304Y-113998322D01*
X153493492Y-114033701D01*
X153565311Y-114055487D01*
X153640000Y-114062843D01*
X154340000Y-114062843D01*
X154414689Y-114055487D01*
X154486508Y-114033701D01*
X154552696Y-113998322D01*
X154610711Y-113950711D01*
X154658322Y-113892696D01*
X154693701Y-113826508D01*
X154715487Y-113754689D01*
X154722843Y-113680000D01*
X154722843Y-112380000D01*
X154715487Y-112305311D01*
X154693701Y-112233492D01*
X154658322Y-112167304D01*
X154610711Y-112109289D01*
X154576903Y-112081544D01*
X154850604Y-111807843D01*
X155850000Y-111807843D01*
X155924689Y-111800487D01*
X155996508Y-111778701D01*
X156062696Y-111743322D01*
X156120711Y-111695711D01*
X156168322Y-111637696D01*
X156203701Y-111571508D01*
X156225487Y-111499689D01*
X156232843Y-111425000D01*
X156232843Y-110825000D01*
X156225487Y-110750311D01*
X156203701Y-110678492D01*
X156168322Y-110612304D01*
X156120711Y-110554289D01*
X156062696Y-110506678D01*
X156031494Y-110490000D01*
X156062696Y-110473322D01*
X156120711Y-110425711D01*
X156153301Y-110386000D01*
X156183926Y-110386000D01*
X156210000Y-110388568D01*
X156236074Y-110386000D01*
X156236084Y-110386000D01*
X156314094Y-110378317D01*
X156414188Y-110347953D01*
X156506435Y-110298646D01*
X156587290Y-110232290D01*
X156603921Y-110212025D01*
X157202035Y-109613913D01*
X157222290Y-109597290D01*
X157238912Y-109577036D01*
X157238918Y-109577030D01*
X157288646Y-109516436D01*
X157337953Y-109424188D01*
X157346568Y-109395788D01*
X157368317Y-109324094D01*
X157376000Y-109246084D01*
X157376000Y-109246074D01*
X157378568Y-109220000D01*
X157376000Y-109193926D01*
X157376000Y-108169946D01*
X158334947Y-107211000D01*
X161163000Y-107211000D01*
X161163000Y-108599132D01*
M02*
