G04 #@! TF.GenerationSoftware,KiCad,Pcbnew,(5.1.5)-2*
G04 #@! TF.CreationDate,2020-02-10T11:52:49+03:00*
G04 #@! TF.ProjectId,dccshield,64636373-6869-4656-9c64-2e6b69636164,rev?*
G04 #@! TF.SameCoordinates,Original*
G04 #@! TF.FileFunction,Soldermask,Top*
G04 #@! TF.FilePolarity,Negative*
%FSLAX46Y46*%
G04 Gerber Fmt 4.6, Leading zero omitted, Abs format (unit mm)*
G04 Created by KiCad (PCBNEW (5.1.5)-2) date 2020-02-10 11:52:49*
%MOMM*%
%LPD*%
G04 APERTURE LIST*
%ADD10C,0.100000*%
G04 APERTURE END LIST*
D10*
G36*
X139883580Y-126077081D02*
G01*
X139974480Y-126095162D01*
X140088647Y-126142452D01*
X140145732Y-126166097D01*
X140299850Y-126269075D01*
X140430925Y-126400150D01*
X140533903Y-126554268D01*
X140551563Y-126596903D01*
X140604838Y-126725520D01*
X140641000Y-126907320D01*
X140641000Y-127092680D01*
X140604838Y-127274480D01*
X140557548Y-127388647D01*
X140533903Y-127445732D01*
X140430925Y-127599850D01*
X140299850Y-127730925D01*
X140145732Y-127833903D01*
X140088647Y-127857548D01*
X139974480Y-127904838D01*
X139883580Y-127922919D01*
X139792682Y-127941000D01*
X139607318Y-127941000D01*
X139516420Y-127922919D01*
X139425520Y-127904838D01*
X139311353Y-127857548D01*
X139254268Y-127833903D01*
X139100150Y-127730925D01*
X138969075Y-127599850D01*
X138866097Y-127445732D01*
X138842452Y-127388647D01*
X138795162Y-127274480D01*
X138759000Y-127092680D01*
X138759000Y-126907320D01*
X138795162Y-126725520D01*
X138848437Y-126596903D01*
X138866097Y-126554268D01*
X138969075Y-126400150D01*
X139100150Y-126269075D01*
X139254268Y-126166097D01*
X139311353Y-126142452D01*
X139425520Y-126095162D01*
X139516420Y-126077081D01*
X139607318Y-126059000D01*
X139792682Y-126059000D01*
X139883580Y-126077081D01*
G37*
G36*
X175508228Y-126181703D02*
G01*
X175663100Y-126245853D01*
X175802481Y-126338985D01*
X175921015Y-126457519D01*
X176014147Y-126596900D01*
X176078297Y-126751772D01*
X176111000Y-126916184D01*
X176111000Y-127083816D01*
X176078297Y-127248228D01*
X176014147Y-127403100D01*
X175921015Y-127542481D01*
X175802481Y-127661015D01*
X175663100Y-127754147D01*
X175508228Y-127818297D01*
X175343816Y-127851000D01*
X175176184Y-127851000D01*
X175011772Y-127818297D01*
X174856900Y-127754147D01*
X174717519Y-127661015D01*
X174598985Y-127542481D01*
X174505853Y-127403100D01*
X174441703Y-127248228D01*
X174409000Y-127083816D01*
X174409000Y-126916184D01*
X174441703Y-126751772D01*
X174505853Y-126596900D01*
X174598985Y-126457519D01*
X174717519Y-126338985D01*
X174856900Y-126245853D01*
X175011772Y-126181703D01*
X175176184Y-126149000D01*
X175343816Y-126149000D01*
X175508228Y-126181703D01*
G37*
G36*
X151128228Y-126181703D02*
G01*
X151283100Y-126245853D01*
X151422481Y-126338985D01*
X151541015Y-126457519D01*
X151634147Y-126596900D01*
X151698297Y-126751772D01*
X151731000Y-126916184D01*
X151731000Y-127083816D01*
X151698297Y-127248228D01*
X151634147Y-127403100D01*
X151541015Y-127542481D01*
X151422481Y-127661015D01*
X151283100Y-127754147D01*
X151128228Y-127818297D01*
X150963816Y-127851000D01*
X150796184Y-127851000D01*
X150631772Y-127818297D01*
X150476900Y-127754147D01*
X150337519Y-127661015D01*
X150218985Y-127542481D01*
X150125853Y-127403100D01*
X150061703Y-127248228D01*
X150029000Y-127083816D01*
X150029000Y-126916184D01*
X150061703Y-126751772D01*
X150125853Y-126596900D01*
X150218985Y-126457519D01*
X150337519Y-126338985D01*
X150476900Y-126245853D01*
X150631772Y-126181703D01*
X150796184Y-126149000D01*
X150963816Y-126149000D01*
X151128228Y-126181703D01*
G37*
G36*
X153668228Y-126181703D02*
G01*
X153823100Y-126245853D01*
X153962481Y-126338985D01*
X154081015Y-126457519D01*
X154174147Y-126596900D01*
X154238297Y-126751772D01*
X154271000Y-126916184D01*
X154271000Y-127083816D01*
X154238297Y-127248228D01*
X154174147Y-127403100D01*
X154081015Y-127542481D01*
X153962481Y-127661015D01*
X153823100Y-127754147D01*
X153668228Y-127818297D01*
X153503816Y-127851000D01*
X153336184Y-127851000D01*
X153171772Y-127818297D01*
X153016900Y-127754147D01*
X152877519Y-127661015D01*
X152758985Y-127542481D01*
X152665853Y-127403100D01*
X152601703Y-127248228D01*
X152569000Y-127083816D01*
X152569000Y-126916184D01*
X152601703Y-126751772D01*
X152665853Y-126596900D01*
X152758985Y-126457519D01*
X152877519Y-126338985D01*
X153016900Y-126245853D01*
X153171772Y-126181703D01*
X153336184Y-126149000D01*
X153503816Y-126149000D01*
X153668228Y-126181703D01*
G37*
G36*
X156208228Y-126181703D02*
G01*
X156363100Y-126245853D01*
X156502481Y-126338985D01*
X156621015Y-126457519D01*
X156714147Y-126596900D01*
X156778297Y-126751772D01*
X156811000Y-126916184D01*
X156811000Y-127083816D01*
X156778297Y-127248228D01*
X156714147Y-127403100D01*
X156621015Y-127542481D01*
X156502481Y-127661015D01*
X156363100Y-127754147D01*
X156208228Y-127818297D01*
X156043816Y-127851000D01*
X155876184Y-127851000D01*
X155711772Y-127818297D01*
X155556900Y-127754147D01*
X155417519Y-127661015D01*
X155298985Y-127542481D01*
X155205853Y-127403100D01*
X155141703Y-127248228D01*
X155109000Y-127083816D01*
X155109000Y-126916184D01*
X155141703Y-126751772D01*
X155205853Y-126596900D01*
X155298985Y-126457519D01*
X155417519Y-126338985D01*
X155556900Y-126245853D01*
X155711772Y-126181703D01*
X155876184Y-126149000D01*
X156043816Y-126149000D01*
X156208228Y-126181703D01*
G37*
G36*
X158748228Y-126181703D02*
G01*
X158903100Y-126245853D01*
X159042481Y-126338985D01*
X159161015Y-126457519D01*
X159254147Y-126596900D01*
X159318297Y-126751772D01*
X159351000Y-126916184D01*
X159351000Y-127083816D01*
X159318297Y-127248228D01*
X159254147Y-127403100D01*
X159161015Y-127542481D01*
X159042481Y-127661015D01*
X158903100Y-127754147D01*
X158748228Y-127818297D01*
X158583816Y-127851000D01*
X158416184Y-127851000D01*
X158251772Y-127818297D01*
X158096900Y-127754147D01*
X157957519Y-127661015D01*
X157838985Y-127542481D01*
X157745853Y-127403100D01*
X157681703Y-127248228D01*
X157649000Y-127083816D01*
X157649000Y-126916184D01*
X157681703Y-126751772D01*
X157745853Y-126596900D01*
X157838985Y-126457519D01*
X157957519Y-126338985D01*
X158096900Y-126245853D01*
X158251772Y-126181703D01*
X158416184Y-126149000D01*
X158583816Y-126149000D01*
X158748228Y-126181703D01*
G37*
G36*
X161288228Y-126181703D02*
G01*
X161443100Y-126245853D01*
X161582481Y-126338985D01*
X161701015Y-126457519D01*
X161794147Y-126596900D01*
X161858297Y-126751772D01*
X161891000Y-126916184D01*
X161891000Y-127083816D01*
X161858297Y-127248228D01*
X161794147Y-127403100D01*
X161701015Y-127542481D01*
X161582481Y-127661015D01*
X161443100Y-127754147D01*
X161288228Y-127818297D01*
X161123816Y-127851000D01*
X160956184Y-127851000D01*
X160791772Y-127818297D01*
X160636900Y-127754147D01*
X160497519Y-127661015D01*
X160378985Y-127542481D01*
X160285853Y-127403100D01*
X160221703Y-127248228D01*
X160189000Y-127083816D01*
X160189000Y-126916184D01*
X160221703Y-126751772D01*
X160285853Y-126596900D01*
X160378985Y-126457519D01*
X160497519Y-126338985D01*
X160636900Y-126245853D01*
X160791772Y-126181703D01*
X160956184Y-126149000D01*
X161123816Y-126149000D01*
X161288228Y-126181703D01*
G37*
G36*
X163828228Y-126181703D02*
G01*
X163983100Y-126245853D01*
X164122481Y-126338985D01*
X164241015Y-126457519D01*
X164334147Y-126596900D01*
X164398297Y-126751772D01*
X164431000Y-126916184D01*
X164431000Y-127083816D01*
X164398297Y-127248228D01*
X164334147Y-127403100D01*
X164241015Y-127542481D01*
X164122481Y-127661015D01*
X163983100Y-127754147D01*
X163828228Y-127818297D01*
X163663816Y-127851000D01*
X163496184Y-127851000D01*
X163331772Y-127818297D01*
X163176900Y-127754147D01*
X163037519Y-127661015D01*
X162918985Y-127542481D01*
X162825853Y-127403100D01*
X162761703Y-127248228D01*
X162729000Y-127083816D01*
X162729000Y-126916184D01*
X162761703Y-126751772D01*
X162825853Y-126596900D01*
X162918985Y-126457519D01*
X163037519Y-126338985D01*
X163176900Y-126245853D01*
X163331772Y-126181703D01*
X163496184Y-126149000D01*
X163663816Y-126149000D01*
X163828228Y-126181703D01*
G37*
G36*
X166368228Y-126181703D02*
G01*
X166523100Y-126245853D01*
X166662481Y-126338985D01*
X166781015Y-126457519D01*
X166874147Y-126596900D01*
X166938297Y-126751772D01*
X166971000Y-126916184D01*
X166971000Y-127083816D01*
X166938297Y-127248228D01*
X166874147Y-127403100D01*
X166781015Y-127542481D01*
X166662481Y-127661015D01*
X166523100Y-127754147D01*
X166368228Y-127818297D01*
X166203816Y-127851000D01*
X166036184Y-127851000D01*
X165871772Y-127818297D01*
X165716900Y-127754147D01*
X165577519Y-127661015D01*
X165458985Y-127542481D01*
X165365853Y-127403100D01*
X165301703Y-127248228D01*
X165269000Y-127083816D01*
X165269000Y-126916184D01*
X165301703Y-126751772D01*
X165365853Y-126596900D01*
X165458985Y-126457519D01*
X165577519Y-126338985D01*
X165716900Y-126245853D01*
X165871772Y-126181703D01*
X166036184Y-126149000D01*
X166203816Y-126149000D01*
X166368228Y-126181703D01*
G37*
G36*
X170428228Y-126181703D02*
G01*
X170583100Y-126245853D01*
X170722481Y-126338985D01*
X170841015Y-126457519D01*
X170934147Y-126596900D01*
X170998297Y-126751772D01*
X171031000Y-126916184D01*
X171031000Y-127083816D01*
X170998297Y-127248228D01*
X170934147Y-127403100D01*
X170841015Y-127542481D01*
X170722481Y-127661015D01*
X170583100Y-127754147D01*
X170428228Y-127818297D01*
X170263816Y-127851000D01*
X170096184Y-127851000D01*
X169931772Y-127818297D01*
X169776900Y-127754147D01*
X169637519Y-127661015D01*
X169518985Y-127542481D01*
X169425853Y-127403100D01*
X169361703Y-127248228D01*
X169329000Y-127083816D01*
X169329000Y-126916184D01*
X169361703Y-126751772D01*
X169425853Y-126596900D01*
X169518985Y-126457519D01*
X169637519Y-126338985D01*
X169776900Y-126245853D01*
X169931772Y-126181703D01*
X170096184Y-126149000D01*
X170263816Y-126149000D01*
X170428228Y-126181703D01*
G37*
G36*
X148588228Y-126181703D02*
G01*
X148743100Y-126245853D01*
X148882481Y-126338985D01*
X149001015Y-126457519D01*
X149094147Y-126596900D01*
X149158297Y-126751772D01*
X149191000Y-126916184D01*
X149191000Y-127083816D01*
X149158297Y-127248228D01*
X149094147Y-127403100D01*
X149001015Y-127542481D01*
X148882481Y-127661015D01*
X148743100Y-127754147D01*
X148588228Y-127818297D01*
X148423816Y-127851000D01*
X148256184Y-127851000D01*
X148091772Y-127818297D01*
X147936900Y-127754147D01*
X147797519Y-127661015D01*
X147678985Y-127542481D01*
X147585853Y-127403100D01*
X147521703Y-127248228D01*
X147489000Y-127083816D01*
X147489000Y-126916184D01*
X147521703Y-126751772D01*
X147585853Y-126596900D01*
X147678985Y-126457519D01*
X147797519Y-126338985D01*
X147936900Y-126245853D01*
X148091772Y-126181703D01*
X148256184Y-126149000D01*
X148423816Y-126149000D01*
X148588228Y-126181703D01*
G37*
G36*
X172968228Y-126181703D02*
G01*
X173123100Y-126245853D01*
X173262481Y-126338985D01*
X173381015Y-126457519D01*
X173474147Y-126596900D01*
X173538297Y-126751772D01*
X173571000Y-126916184D01*
X173571000Y-127083816D01*
X173538297Y-127248228D01*
X173474147Y-127403100D01*
X173381015Y-127542481D01*
X173262481Y-127661015D01*
X173123100Y-127754147D01*
X172968228Y-127818297D01*
X172803816Y-127851000D01*
X172636184Y-127851000D01*
X172471772Y-127818297D01*
X172316900Y-127754147D01*
X172177519Y-127661015D01*
X172058985Y-127542481D01*
X171965853Y-127403100D01*
X171901703Y-127248228D01*
X171869000Y-127083816D01*
X171869000Y-126916184D01*
X171901703Y-126751772D01*
X171965853Y-126596900D01*
X172058985Y-126457519D01*
X172177519Y-126338985D01*
X172316900Y-126245853D01*
X172471772Y-126181703D01*
X172636184Y-126149000D01*
X172803816Y-126149000D01*
X172968228Y-126181703D01*
G37*
G36*
X185668228Y-126181703D02*
G01*
X185823100Y-126245853D01*
X185962481Y-126338985D01*
X186081015Y-126457519D01*
X186174147Y-126596900D01*
X186238297Y-126751772D01*
X186271000Y-126916184D01*
X186271000Y-127083816D01*
X186238297Y-127248228D01*
X186174147Y-127403100D01*
X186081015Y-127542481D01*
X185962481Y-127661015D01*
X185823100Y-127754147D01*
X185668228Y-127818297D01*
X185503816Y-127851000D01*
X185336184Y-127851000D01*
X185171772Y-127818297D01*
X185016900Y-127754147D01*
X184877519Y-127661015D01*
X184758985Y-127542481D01*
X184665853Y-127403100D01*
X184601703Y-127248228D01*
X184569000Y-127083816D01*
X184569000Y-126916184D01*
X184601703Y-126751772D01*
X184665853Y-126596900D01*
X184758985Y-126457519D01*
X184877519Y-126338985D01*
X185016900Y-126245853D01*
X185171772Y-126181703D01*
X185336184Y-126149000D01*
X185503816Y-126149000D01*
X185668228Y-126181703D01*
G37*
G36*
X188208228Y-126181703D02*
G01*
X188363100Y-126245853D01*
X188502481Y-126338985D01*
X188621015Y-126457519D01*
X188714147Y-126596900D01*
X188778297Y-126751772D01*
X188811000Y-126916184D01*
X188811000Y-127083816D01*
X188778297Y-127248228D01*
X188714147Y-127403100D01*
X188621015Y-127542481D01*
X188502481Y-127661015D01*
X188363100Y-127754147D01*
X188208228Y-127818297D01*
X188043816Y-127851000D01*
X187876184Y-127851000D01*
X187711772Y-127818297D01*
X187556900Y-127754147D01*
X187417519Y-127661015D01*
X187298985Y-127542481D01*
X187205853Y-127403100D01*
X187141703Y-127248228D01*
X187109000Y-127083816D01*
X187109000Y-126916184D01*
X187141703Y-126751772D01*
X187205853Y-126596900D01*
X187298985Y-126457519D01*
X187417519Y-126338985D01*
X187556900Y-126245853D01*
X187711772Y-126181703D01*
X187876184Y-126149000D01*
X188043816Y-126149000D01*
X188208228Y-126181703D01*
G37*
G36*
X143508228Y-126181703D02*
G01*
X143663100Y-126245853D01*
X143802481Y-126338985D01*
X143921015Y-126457519D01*
X144014147Y-126596900D01*
X144078297Y-126751772D01*
X144111000Y-126916184D01*
X144111000Y-127083816D01*
X144078297Y-127248228D01*
X144014147Y-127403100D01*
X143921015Y-127542481D01*
X143802481Y-127661015D01*
X143663100Y-127754147D01*
X143508228Y-127818297D01*
X143343816Y-127851000D01*
X143176184Y-127851000D01*
X143011772Y-127818297D01*
X142856900Y-127754147D01*
X142717519Y-127661015D01*
X142598985Y-127542481D01*
X142505853Y-127403100D01*
X142441703Y-127248228D01*
X142409000Y-127083816D01*
X142409000Y-126916184D01*
X142441703Y-126751772D01*
X142505853Y-126596900D01*
X142598985Y-126457519D01*
X142717519Y-126338985D01*
X142856900Y-126245853D01*
X143011772Y-126181703D01*
X143176184Y-126149000D01*
X143343816Y-126149000D01*
X143508228Y-126181703D01*
G37*
G36*
X183128228Y-126181703D02*
G01*
X183283100Y-126245853D01*
X183422481Y-126338985D01*
X183541015Y-126457519D01*
X183634147Y-126596900D01*
X183698297Y-126751772D01*
X183731000Y-126916184D01*
X183731000Y-127083816D01*
X183698297Y-127248228D01*
X183634147Y-127403100D01*
X183541015Y-127542481D01*
X183422481Y-127661015D01*
X183283100Y-127754147D01*
X183128228Y-127818297D01*
X182963816Y-127851000D01*
X182796184Y-127851000D01*
X182631772Y-127818297D01*
X182476900Y-127754147D01*
X182337519Y-127661015D01*
X182218985Y-127542481D01*
X182125853Y-127403100D01*
X182061703Y-127248228D01*
X182029000Y-127083816D01*
X182029000Y-126916184D01*
X182061703Y-126751772D01*
X182125853Y-126596900D01*
X182218985Y-126457519D01*
X182337519Y-126338985D01*
X182476900Y-126245853D01*
X182631772Y-126181703D01*
X182796184Y-126149000D01*
X182963816Y-126149000D01*
X183128228Y-126181703D01*
G37*
G36*
X180588228Y-126181703D02*
G01*
X180743100Y-126245853D01*
X180882481Y-126338985D01*
X181001015Y-126457519D01*
X181094147Y-126596900D01*
X181158297Y-126751772D01*
X181191000Y-126916184D01*
X181191000Y-127083816D01*
X181158297Y-127248228D01*
X181094147Y-127403100D01*
X181001015Y-127542481D01*
X180882481Y-127661015D01*
X180743100Y-127754147D01*
X180588228Y-127818297D01*
X180423816Y-127851000D01*
X180256184Y-127851000D01*
X180091772Y-127818297D01*
X179936900Y-127754147D01*
X179797519Y-127661015D01*
X179678985Y-127542481D01*
X179585853Y-127403100D01*
X179521703Y-127248228D01*
X179489000Y-127083816D01*
X179489000Y-126916184D01*
X179521703Y-126751772D01*
X179585853Y-126596900D01*
X179678985Y-126457519D01*
X179797519Y-126338985D01*
X179936900Y-126245853D01*
X180091772Y-126181703D01*
X180256184Y-126149000D01*
X180423816Y-126149000D01*
X180588228Y-126181703D01*
G37*
G36*
X178048228Y-126181703D02*
G01*
X178203100Y-126245853D01*
X178342481Y-126338985D01*
X178461015Y-126457519D01*
X178554147Y-126596900D01*
X178618297Y-126751772D01*
X178651000Y-126916184D01*
X178651000Y-127083816D01*
X178618297Y-127248228D01*
X178554147Y-127403100D01*
X178461015Y-127542481D01*
X178342481Y-127661015D01*
X178203100Y-127754147D01*
X178048228Y-127818297D01*
X177883816Y-127851000D01*
X177716184Y-127851000D01*
X177551772Y-127818297D01*
X177396900Y-127754147D01*
X177257519Y-127661015D01*
X177138985Y-127542481D01*
X177045853Y-127403100D01*
X176981703Y-127248228D01*
X176949000Y-127083816D01*
X176949000Y-126916184D01*
X176981703Y-126751772D01*
X177045853Y-126596900D01*
X177138985Y-126457519D01*
X177257519Y-126338985D01*
X177396900Y-126245853D01*
X177551772Y-126181703D01*
X177716184Y-126149000D01*
X177883816Y-126149000D01*
X178048228Y-126181703D01*
G37*
G36*
X146048228Y-126181703D02*
G01*
X146203100Y-126245853D01*
X146342481Y-126338985D01*
X146461015Y-126457519D01*
X146554147Y-126596900D01*
X146618297Y-126751772D01*
X146651000Y-126916184D01*
X146651000Y-127083816D01*
X146618297Y-127248228D01*
X146554147Y-127403100D01*
X146461015Y-127542481D01*
X146342481Y-127661015D01*
X146203100Y-127754147D01*
X146048228Y-127818297D01*
X145883816Y-127851000D01*
X145716184Y-127851000D01*
X145551772Y-127818297D01*
X145396900Y-127754147D01*
X145257519Y-127661015D01*
X145138985Y-127542481D01*
X145045853Y-127403100D01*
X144981703Y-127248228D01*
X144949000Y-127083816D01*
X144949000Y-126916184D01*
X144981703Y-126751772D01*
X145045853Y-126596900D01*
X145138985Y-126457519D01*
X145257519Y-126338985D01*
X145396900Y-126245853D01*
X145551772Y-126181703D01*
X145716184Y-126149000D01*
X145883816Y-126149000D01*
X146048228Y-126181703D01*
G37*
G36*
X174031000Y-124741000D02*
G01*
X172679000Y-124741000D01*
X172679000Y-123639000D01*
X174031000Y-123639000D01*
X174031000Y-124741000D01*
G37*
G36*
X178181000Y-124301000D02*
G01*
X174879000Y-124301000D01*
X174879000Y-123199000D01*
X178181000Y-123199000D01*
X178181000Y-124301000D01*
G37*
G36*
X184396000Y-123256000D02*
G01*
X182794000Y-123256000D01*
X182794000Y-121854000D01*
X184396000Y-121854000D01*
X184396000Y-123256000D01*
G37*
G36*
X181696000Y-123256000D02*
G01*
X180094000Y-123256000D01*
X180094000Y-121854000D01*
X181696000Y-121854000D01*
X181696000Y-123256000D01*
G37*
G36*
X139813512Y-121023927D02*
G01*
X139962812Y-121053624D01*
X140126784Y-121121544D01*
X140274354Y-121220147D01*
X140399853Y-121345646D01*
X140498456Y-121493216D01*
X140566376Y-121657188D01*
X140601000Y-121831259D01*
X140601000Y-122008741D01*
X140566376Y-122182812D01*
X140498456Y-122346784D01*
X140399853Y-122494354D01*
X140274354Y-122619853D01*
X140126784Y-122718456D01*
X139962812Y-122786376D01*
X139813512Y-122816073D01*
X139788742Y-122821000D01*
X139611258Y-122821000D01*
X139586488Y-122816073D01*
X139437188Y-122786376D01*
X139273216Y-122718456D01*
X139125646Y-122619853D01*
X139000147Y-122494354D01*
X138901544Y-122346784D01*
X138833624Y-122182812D01*
X138799000Y-122008741D01*
X138799000Y-121831259D01*
X138833624Y-121657188D01*
X138901544Y-121493216D01*
X139000147Y-121345646D01*
X139125646Y-121220147D01*
X139273216Y-121121544D01*
X139437188Y-121053624D01*
X139586488Y-121023927D01*
X139611258Y-121019000D01*
X139788742Y-121019000D01*
X139813512Y-121023927D01*
G37*
G36*
X174031000Y-122741000D02*
G01*
X172679000Y-122741000D01*
X172679000Y-121639000D01*
X174031000Y-121639000D01*
X174031000Y-122741000D01*
G37*
G36*
X149012000Y-121947000D02*
G01*
X147660000Y-121947000D01*
X147660000Y-120845000D01*
X149012000Y-120845000D01*
X149012000Y-121947000D01*
G37*
G36*
X173706000Y-120366000D02*
G01*
X172054000Y-120366000D01*
X172054000Y-119664000D01*
X173706000Y-119664000D01*
X173706000Y-120366000D01*
G37*
G36*
X168306000Y-120366000D02*
G01*
X166654000Y-120366000D01*
X166654000Y-119664000D01*
X168306000Y-119664000D01*
X168306000Y-120366000D01*
G37*
G36*
X139813512Y-118483927D02*
G01*
X139962812Y-118513624D01*
X140126784Y-118581544D01*
X140274354Y-118680147D01*
X140399853Y-118805646D01*
X140498456Y-118953216D01*
X140566376Y-119117188D01*
X140601000Y-119291259D01*
X140601000Y-119468741D01*
X140566376Y-119642812D01*
X140498456Y-119806784D01*
X140399853Y-119954354D01*
X140274354Y-120079853D01*
X140126784Y-120178456D01*
X139962812Y-120246376D01*
X139813512Y-120276073D01*
X139788742Y-120281000D01*
X139611258Y-120281000D01*
X139586488Y-120276073D01*
X139437188Y-120246376D01*
X139273216Y-120178456D01*
X139125646Y-120079853D01*
X139000147Y-119954354D01*
X138901544Y-119806784D01*
X138833624Y-119642812D01*
X138799000Y-119468741D01*
X138799000Y-119291259D01*
X138833624Y-119117188D01*
X138901544Y-118953216D01*
X139000147Y-118805646D01*
X139125646Y-118680147D01*
X139273216Y-118581544D01*
X139437188Y-118513624D01*
X139586488Y-118483927D01*
X139611258Y-118479000D01*
X139788742Y-118479000D01*
X139813512Y-118483927D01*
G37*
G36*
X149012000Y-119947000D02*
G01*
X147660000Y-119947000D01*
X147660000Y-118845000D01*
X149012000Y-118845000D01*
X149012000Y-119947000D01*
G37*
G36*
X171406000Y-119336000D02*
G01*
X168954000Y-119336000D01*
X168954000Y-116884000D01*
X171406000Y-116884000D01*
X171406000Y-119336000D01*
G37*
G36*
X168306000Y-119096000D02*
G01*
X166654000Y-119096000D01*
X166654000Y-118394000D01*
X168306000Y-118394000D01*
X168306000Y-119096000D01*
G37*
G36*
X173706000Y-119096000D02*
G01*
X172054000Y-119096000D01*
X172054000Y-118394000D01*
X173706000Y-118394000D01*
X173706000Y-119096000D01*
G37*
G36*
X185722585Y-115318802D02*
G01*
X185872410Y-115348604D01*
X186154674Y-115465521D01*
X186408705Y-115635259D01*
X186624741Y-115851295D01*
X186794479Y-116105326D01*
X186911396Y-116387590D01*
X186971000Y-116687240D01*
X186971000Y-116992760D01*
X186911396Y-117292410D01*
X186794479Y-117574674D01*
X186624741Y-117828705D01*
X186408705Y-118044741D01*
X186154674Y-118214479D01*
X185872410Y-118331396D01*
X185722585Y-118361198D01*
X185572761Y-118391000D01*
X185267239Y-118391000D01*
X185117415Y-118361198D01*
X184967590Y-118331396D01*
X184685326Y-118214479D01*
X184431295Y-118044741D01*
X184215259Y-117828705D01*
X184045521Y-117574674D01*
X183928604Y-117292410D01*
X183869000Y-116992760D01*
X183869000Y-116687240D01*
X183928604Y-116387590D01*
X184045521Y-116105326D01*
X184215259Y-115851295D01*
X184431295Y-115635259D01*
X184685326Y-115465521D01*
X184967590Y-115348604D01*
X185117415Y-115318802D01*
X185267239Y-115289000D01*
X185572761Y-115289000D01*
X185722585Y-115318802D01*
G37*
G36*
X178181000Y-118101000D02*
G01*
X174879000Y-118101000D01*
X174879000Y-116999000D01*
X178181000Y-116999000D01*
X178181000Y-118101000D01*
G37*
G36*
X168306000Y-117826000D02*
G01*
X166654000Y-117826000D01*
X166654000Y-117124000D01*
X168306000Y-117124000D01*
X168306000Y-117826000D01*
G37*
G36*
X173706000Y-117826000D02*
G01*
X172054000Y-117826000D01*
X172054000Y-117124000D01*
X173706000Y-117124000D01*
X173706000Y-117826000D01*
G37*
G36*
X140601000Y-117741000D02*
G01*
X138799000Y-117741000D01*
X138799000Y-115939000D01*
X140601000Y-115939000D01*
X140601000Y-117741000D01*
G37*
G36*
X168306000Y-116556000D02*
G01*
X166654000Y-116556000D01*
X166654000Y-115854000D01*
X168306000Y-115854000D01*
X168306000Y-116556000D01*
G37*
G36*
X173706000Y-116556000D02*
G01*
X172054000Y-116556000D01*
X172054000Y-115854000D01*
X173706000Y-115854000D01*
X173706000Y-116556000D01*
G37*
G36*
X150536000Y-115851000D02*
G01*
X149184000Y-115851000D01*
X149184000Y-114749000D01*
X150536000Y-114749000D01*
X150536000Y-115851000D01*
G37*
G36*
X161356000Y-115651000D02*
G01*
X159954000Y-115651000D01*
X159954000Y-114849000D01*
X161356000Y-114849000D01*
X161356000Y-115651000D01*
G37*
G36*
X159451000Y-115651000D02*
G01*
X158049000Y-115651000D01*
X158049000Y-114849000D01*
X159451000Y-114849000D01*
X159451000Y-115651000D01*
G37*
G36*
X150536000Y-113851000D02*
G01*
X149184000Y-113851000D01*
X149184000Y-112749000D01*
X150536000Y-112749000D01*
X150536000Y-113851000D01*
G37*
G36*
X159451000Y-113751000D02*
G01*
X158049000Y-113751000D01*
X158049000Y-112949000D01*
X159451000Y-112949000D01*
X159451000Y-113751000D01*
G37*
G36*
X161356000Y-113751000D02*
G01*
X159954000Y-113751000D01*
X159954000Y-112949000D01*
X161356000Y-112949000D01*
X161356000Y-113751000D01*
G37*
G36*
X156291000Y-113731000D02*
G01*
X155489000Y-113731000D01*
X155489000Y-112329000D01*
X156291000Y-112329000D01*
X156291000Y-113731000D01*
G37*
G36*
X154391000Y-113731000D02*
G01*
X153589000Y-113731000D01*
X153589000Y-112329000D01*
X154391000Y-112329000D01*
X154391000Y-113731000D01*
G37*
G36*
X178306000Y-113401000D02*
G01*
X168804000Y-113401000D01*
X168804000Y-102499000D01*
X178306000Y-102499000D01*
X178306000Y-113401000D01*
G37*
G36*
X185722585Y-110238802D02*
G01*
X185872410Y-110268604D01*
X186154674Y-110385521D01*
X186408705Y-110555259D01*
X186624741Y-110771295D01*
X186794479Y-111025326D01*
X186911396Y-111307590D01*
X186971000Y-111607240D01*
X186971000Y-111912760D01*
X186911396Y-112212410D01*
X186794479Y-112494674D01*
X186624741Y-112748705D01*
X186408705Y-112964741D01*
X186154674Y-113134479D01*
X185872410Y-113251396D01*
X185722585Y-113281198D01*
X185572761Y-113311000D01*
X185267239Y-113311000D01*
X185117415Y-113281198D01*
X184967590Y-113251396D01*
X184685326Y-113134479D01*
X184431295Y-112964741D01*
X184215259Y-112748705D01*
X184045521Y-112494674D01*
X183928604Y-112212410D01*
X183869000Y-111912760D01*
X183869000Y-111607240D01*
X183928604Y-111307590D01*
X184045521Y-111025326D01*
X184215259Y-110771295D01*
X184431295Y-110555259D01*
X184685326Y-110385521D01*
X184967590Y-110268604D01*
X185117415Y-110238802D01*
X185267239Y-110209000D01*
X185572761Y-110209000D01*
X185722585Y-110238802D01*
G37*
G36*
X190683580Y-110837081D02*
G01*
X190774480Y-110855162D01*
X190867337Y-110893625D01*
X190945732Y-110926097D01*
X191099850Y-111029075D01*
X191230925Y-111160150D01*
X191333903Y-111314268D01*
X191333903Y-111314269D01*
X191404838Y-111485520D01*
X191404838Y-111485522D01*
X191441000Y-111667318D01*
X191441000Y-111852682D01*
X191429049Y-111912761D01*
X191404838Y-112034480D01*
X191357548Y-112148647D01*
X191333903Y-112205732D01*
X191230925Y-112359850D01*
X191099850Y-112490925D01*
X190945732Y-112593903D01*
X190888647Y-112617548D01*
X190774480Y-112664838D01*
X190683580Y-112682919D01*
X190592682Y-112701000D01*
X190407318Y-112701000D01*
X190316420Y-112682919D01*
X190225520Y-112664838D01*
X190111353Y-112617548D01*
X190054268Y-112593903D01*
X189900150Y-112490925D01*
X189769075Y-112359850D01*
X189666097Y-112205732D01*
X189642452Y-112148647D01*
X189595162Y-112034480D01*
X189570951Y-111912761D01*
X189559000Y-111852682D01*
X189559000Y-111667318D01*
X189595162Y-111485522D01*
X189595162Y-111485520D01*
X189666097Y-111314269D01*
X189666097Y-111314268D01*
X189769075Y-111160150D01*
X189900150Y-111029075D01*
X190054268Y-110926097D01*
X190132663Y-110893625D01*
X190225520Y-110855162D01*
X190316420Y-110837081D01*
X190407318Y-110819000D01*
X190592682Y-110819000D01*
X190683580Y-110837081D01*
G37*
G36*
X139813512Y-110863927D02*
G01*
X139962812Y-110893624D01*
X140126784Y-110961544D01*
X140274354Y-111060147D01*
X140399853Y-111185646D01*
X140498456Y-111333216D01*
X140566376Y-111497188D01*
X140601000Y-111671259D01*
X140601000Y-111848741D01*
X140566376Y-112022812D01*
X140498456Y-112186784D01*
X140399853Y-112334354D01*
X140274354Y-112459853D01*
X140126784Y-112558456D01*
X139962812Y-112626376D01*
X139813512Y-112656073D01*
X139788742Y-112661000D01*
X139611258Y-112661000D01*
X139586488Y-112656073D01*
X139437188Y-112626376D01*
X139273216Y-112558456D01*
X139125646Y-112459853D01*
X139000147Y-112334354D01*
X138901544Y-112186784D01*
X138833624Y-112022812D01*
X138799000Y-111848741D01*
X138799000Y-111671259D01*
X138833624Y-111497188D01*
X138901544Y-111333216D01*
X139000147Y-111185646D01*
X139125646Y-111060147D01*
X139273216Y-110961544D01*
X139437188Y-110893624D01*
X139586488Y-110863927D01*
X139611258Y-110859000D01*
X139788742Y-110859000D01*
X139813512Y-110863927D01*
G37*
G36*
X166756000Y-112211000D02*
G01*
X162054000Y-112211000D01*
X162054000Y-111309000D01*
X166756000Y-111309000D01*
X166756000Y-112211000D01*
G37*
G36*
X143576000Y-111841000D02*
G01*
X142174000Y-111841000D01*
X142174000Y-111039000D01*
X143576000Y-111039000D01*
X143576000Y-111841000D01*
G37*
G36*
X150501000Y-111476000D02*
G01*
X148899000Y-111476000D01*
X148899000Y-110774000D01*
X150501000Y-110774000D01*
X150501000Y-111476000D01*
G37*
G36*
X155901000Y-111476000D02*
G01*
X154299000Y-111476000D01*
X154299000Y-110774000D01*
X155901000Y-110774000D01*
X155901000Y-111476000D01*
G37*
G36*
X166756000Y-110941000D02*
G01*
X162054000Y-110941000D01*
X162054000Y-110039000D01*
X166756000Y-110039000D01*
X166756000Y-110941000D01*
G37*
G36*
X155901000Y-110206000D02*
G01*
X154299000Y-110206000D01*
X154299000Y-109504000D01*
X155901000Y-109504000D01*
X155901000Y-110206000D01*
G37*
G36*
X150501000Y-110206000D02*
G01*
X148899000Y-110206000D01*
X148899000Y-109504000D01*
X150501000Y-109504000D01*
X150501000Y-110206000D01*
G37*
G36*
X139813512Y-108323927D02*
G01*
X139962812Y-108353624D01*
X140126784Y-108421544D01*
X140274354Y-108520147D01*
X140399853Y-108645646D01*
X140498456Y-108793216D01*
X140566376Y-108957188D01*
X140601000Y-109131259D01*
X140601000Y-109308741D01*
X140566376Y-109482812D01*
X140498456Y-109646784D01*
X140399853Y-109794354D01*
X140274354Y-109919853D01*
X140126784Y-110018456D01*
X139962812Y-110086376D01*
X139813512Y-110116073D01*
X139788742Y-110121000D01*
X139611258Y-110121000D01*
X139586488Y-110116073D01*
X139437188Y-110086376D01*
X139273216Y-110018456D01*
X139125646Y-109919853D01*
X139000147Y-109794354D01*
X138901544Y-109646784D01*
X138833624Y-109482812D01*
X138799000Y-109308741D01*
X138799000Y-109131259D01*
X138833624Y-108957188D01*
X138901544Y-108793216D01*
X139000147Y-108645646D01*
X139125646Y-108520147D01*
X139273216Y-108421544D01*
X139437188Y-108353624D01*
X139586488Y-108323927D01*
X139611258Y-108319000D01*
X139788742Y-108319000D01*
X139813512Y-108323927D01*
G37*
G36*
X143576000Y-109941000D02*
G01*
X142174000Y-109941000D01*
X142174000Y-109139000D01*
X143576000Y-109139000D01*
X143576000Y-109941000D01*
G37*
G36*
X166756000Y-109671000D02*
G01*
X162054000Y-109671000D01*
X162054000Y-108769000D01*
X166756000Y-108769000D01*
X166756000Y-109671000D01*
G37*
G36*
X155901000Y-108936000D02*
G01*
X154299000Y-108936000D01*
X154299000Y-108234000D01*
X155901000Y-108234000D01*
X155901000Y-108936000D01*
G37*
G36*
X150501000Y-108936000D02*
G01*
X148899000Y-108936000D01*
X148899000Y-108234000D01*
X150501000Y-108234000D01*
X150501000Y-108936000D01*
G37*
G36*
X166756000Y-108401000D02*
G01*
X162054000Y-108401000D01*
X162054000Y-107499000D01*
X166756000Y-107499000D01*
X166756000Y-108401000D01*
G37*
G36*
X185722585Y-105158802D02*
G01*
X185872410Y-105188604D01*
X186154674Y-105305521D01*
X186408705Y-105475259D01*
X186624741Y-105691295D01*
X186794479Y-105945326D01*
X186911396Y-106227590D01*
X186971000Y-106527240D01*
X186971000Y-106832760D01*
X186911396Y-107132410D01*
X186794479Y-107414674D01*
X186624741Y-107668705D01*
X186408705Y-107884741D01*
X186154674Y-108054479D01*
X185872410Y-108171396D01*
X185722585Y-108201198D01*
X185572761Y-108231000D01*
X185267239Y-108231000D01*
X185117415Y-108201198D01*
X184967590Y-108171396D01*
X184685326Y-108054479D01*
X184431295Y-107884741D01*
X184215259Y-107668705D01*
X184045521Y-107414674D01*
X183928604Y-107132410D01*
X183869000Y-106832760D01*
X183869000Y-106527240D01*
X183928604Y-106227590D01*
X184045521Y-105945326D01*
X184215259Y-105691295D01*
X184431295Y-105475259D01*
X184685326Y-105305521D01*
X184967590Y-105188604D01*
X185117415Y-105158802D01*
X185267239Y-105129000D01*
X185572761Y-105129000D01*
X185722585Y-105158802D01*
G37*
G36*
X155901000Y-107666000D02*
G01*
X154299000Y-107666000D01*
X154299000Y-106964000D01*
X155901000Y-106964000D01*
X155901000Y-107666000D01*
G37*
G36*
X150501000Y-107666000D02*
G01*
X148899000Y-107666000D01*
X148899000Y-106964000D01*
X150501000Y-106964000D01*
X150501000Y-107666000D01*
G37*
G36*
X140601000Y-107581000D02*
G01*
X138799000Y-107581000D01*
X138799000Y-105779000D01*
X140601000Y-105779000D01*
X140601000Y-107581000D01*
G37*
G36*
X166756000Y-107131000D02*
G01*
X162054000Y-107131000D01*
X162054000Y-106229000D01*
X166756000Y-106229000D01*
X166756000Y-107131000D01*
G37*
G36*
X150501000Y-106396000D02*
G01*
X148899000Y-106396000D01*
X148899000Y-105694000D01*
X150501000Y-105694000D01*
X150501000Y-106396000D01*
G37*
G36*
X155901000Y-106396000D02*
G01*
X154299000Y-106396000D01*
X154299000Y-105694000D01*
X155901000Y-105694000D01*
X155901000Y-106396000D01*
G37*
G36*
X166756000Y-105861000D02*
G01*
X162054000Y-105861000D01*
X162054000Y-104959000D01*
X166756000Y-104959000D01*
X166756000Y-105861000D01*
G37*
G36*
X155901000Y-105126000D02*
G01*
X154299000Y-105126000D01*
X154299000Y-104424000D01*
X155901000Y-104424000D01*
X155901000Y-105126000D01*
G37*
G36*
X150501000Y-105126000D02*
G01*
X148899000Y-105126000D01*
X148899000Y-104424000D01*
X150501000Y-104424000D01*
X150501000Y-105126000D01*
G37*
G36*
X166756000Y-104591000D02*
G01*
X162054000Y-104591000D01*
X162054000Y-103689000D01*
X166756000Y-103689000D01*
X166756000Y-104591000D01*
G37*
G36*
X139151000Y-104206000D02*
G01*
X138349000Y-104206000D01*
X138349000Y-102804000D01*
X139151000Y-102804000D01*
X139151000Y-104206000D01*
G37*
G36*
X141051000Y-104206000D02*
G01*
X140249000Y-104206000D01*
X140249000Y-102804000D01*
X141051000Y-102804000D01*
X141051000Y-104206000D01*
G37*
G36*
X150501000Y-103856000D02*
G01*
X148899000Y-103856000D01*
X148899000Y-103154000D01*
X150501000Y-103154000D01*
X150501000Y-103856000D01*
G37*
G36*
X155901000Y-103856000D02*
G01*
X154299000Y-103856000D01*
X154299000Y-103154000D01*
X155901000Y-103154000D01*
X155901000Y-103856000D01*
G37*
G36*
X161356000Y-103586000D02*
G01*
X159954000Y-103586000D01*
X159954000Y-102784000D01*
X161356000Y-102784000D01*
X161356000Y-103586000D01*
G37*
G36*
X159451000Y-103586000D02*
G01*
X158049000Y-103586000D01*
X158049000Y-102784000D01*
X159451000Y-102784000D01*
X159451000Y-103586000D01*
G37*
G36*
X185722585Y-100078802D02*
G01*
X185872410Y-100108604D01*
X186154674Y-100225521D01*
X186408705Y-100395259D01*
X186624741Y-100611295D01*
X186794479Y-100865326D01*
X186911396Y-101147590D01*
X186971000Y-101447240D01*
X186971000Y-101752760D01*
X186911396Y-102052410D01*
X186794479Y-102334674D01*
X186624741Y-102588705D01*
X186408705Y-102804741D01*
X186154674Y-102974479D01*
X185872410Y-103091396D01*
X185722585Y-103121198D01*
X185572761Y-103151000D01*
X185267239Y-103151000D01*
X185117415Y-103121198D01*
X184967590Y-103091396D01*
X184685326Y-102974479D01*
X184431295Y-102804741D01*
X184215259Y-102588705D01*
X184045521Y-102334674D01*
X183928604Y-102052410D01*
X183869000Y-101752760D01*
X183869000Y-101447240D01*
X183928604Y-101147590D01*
X184045521Y-100865326D01*
X184215259Y-100611295D01*
X184431295Y-100395259D01*
X184685326Y-100225521D01*
X184967590Y-100108604D01*
X185117415Y-100078802D01*
X185267239Y-100049000D01*
X185572761Y-100049000D01*
X185722585Y-100078802D01*
G37*
G36*
X161356000Y-101686000D02*
G01*
X159954000Y-101686000D01*
X159954000Y-100884000D01*
X161356000Y-100884000D01*
X161356000Y-101686000D01*
G37*
G36*
X159451000Y-101686000D02*
G01*
X158049000Y-101686000D01*
X158049000Y-100884000D01*
X159451000Y-100884000D01*
X159451000Y-101686000D01*
G37*
G36*
X154391000Y-101666000D02*
G01*
X153589000Y-101666000D01*
X153589000Y-100264000D01*
X154391000Y-100264000D01*
X154391000Y-101666000D01*
G37*
G36*
X156291000Y-101666000D02*
G01*
X155489000Y-101666000D01*
X155489000Y-100264000D01*
X156291000Y-100264000D01*
X156291000Y-101666000D01*
G37*
G36*
X178306000Y-100701000D02*
G01*
X168804000Y-100701000D01*
X168804000Y-89799000D01*
X178306000Y-89799000D01*
X178306000Y-100701000D01*
G37*
G36*
X166756000Y-99511000D02*
G01*
X162054000Y-99511000D01*
X162054000Y-98609000D01*
X166756000Y-98609000D01*
X166756000Y-99511000D01*
G37*
G36*
X166756000Y-98241000D02*
G01*
X162054000Y-98241000D01*
X162054000Y-97339000D01*
X166756000Y-97339000D01*
X166756000Y-98241000D01*
G37*
G36*
X185722585Y-94998802D02*
G01*
X185872410Y-95028604D01*
X186154674Y-95145521D01*
X186408705Y-95315259D01*
X186624741Y-95531295D01*
X186794479Y-95785326D01*
X186911396Y-96067590D01*
X186971000Y-96367240D01*
X186971000Y-96672760D01*
X186911396Y-96972410D01*
X186794479Y-97254674D01*
X186624741Y-97508705D01*
X186408705Y-97724741D01*
X186154674Y-97894479D01*
X185872410Y-98011396D01*
X185722585Y-98041198D01*
X185572761Y-98071000D01*
X185267239Y-98071000D01*
X185117415Y-98041198D01*
X184967590Y-98011396D01*
X184685326Y-97894479D01*
X184431295Y-97724741D01*
X184215259Y-97508705D01*
X184045521Y-97254674D01*
X183928604Y-96972410D01*
X183869000Y-96672760D01*
X183869000Y-96367240D01*
X183928604Y-96067590D01*
X184045521Y-95785326D01*
X184215259Y-95531295D01*
X184431295Y-95315259D01*
X184685326Y-95145521D01*
X184967590Y-95028604D01*
X185117415Y-94998802D01*
X185267239Y-94969000D01*
X185572761Y-94969000D01*
X185722585Y-94998802D01*
G37*
G36*
X166756000Y-96971000D02*
G01*
X162054000Y-96971000D01*
X162054000Y-96069000D01*
X166756000Y-96069000D01*
X166756000Y-96971000D01*
G37*
G36*
X166756000Y-95701000D02*
G01*
X162054000Y-95701000D01*
X162054000Y-94799000D01*
X166756000Y-94799000D01*
X166756000Y-95701000D01*
G37*
G36*
X166756000Y-94431000D02*
G01*
X162054000Y-94431000D01*
X162054000Y-93529000D01*
X166756000Y-93529000D01*
X166756000Y-94431000D01*
G37*
G36*
X166756000Y-93161000D02*
G01*
X162054000Y-93161000D01*
X162054000Y-92259000D01*
X166756000Y-92259000D01*
X166756000Y-93161000D01*
G37*
G36*
X186971000Y-92991000D02*
G01*
X183869000Y-92991000D01*
X183869000Y-89889000D01*
X186971000Y-89889000D01*
X186971000Y-92991000D01*
G37*
G36*
X166756000Y-91891000D02*
G01*
X162054000Y-91891000D01*
X162054000Y-90989000D01*
X166756000Y-90989000D01*
X166756000Y-91891000D01*
G37*
G36*
X161026000Y-87846000D02*
G01*
X157424000Y-87846000D01*
X157424000Y-86144000D01*
X161026000Y-86144000D01*
X161026000Y-87846000D01*
G37*
G36*
X166426000Y-87846000D02*
G01*
X162824000Y-87846000D01*
X162824000Y-86144000D01*
X166426000Y-86144000D01*
X166426000Y-87846000D01*
G37*
G36*
X174656000Y-86076000D02*
G01*
X173004000Y-86076000D01*
X173004000Y-85374000D01*
X174656000Y-85374000D01*
X174656000Y-86076000D01*
G37*
G36*
X180056000Y-86076000D02*
G01*
X178404000Y-86076000D01*
X178404000Y-85374000D01*
X180056000Y-85374000D01*
X180056000Y-86076000D01*
G37*
G36*
X182311000Y-85171000D02*
G01*
X180909000Y-85171000D01*
X180909000Y-84369000D01*
X182311000Y-84369000D01*
X182311000Y-85171000D01*
G37*
G36*
X184216000Y-85171000D02*
G01*
X182814000Y-85171000D01*
X182814000Y-84369000D01*
X184216000Y-84369000D01*
X184216000Y-85171000D01*
G37*
G36*
X174656000Y-84806000D02*
G01*
X173004000Y-84806000D01*
X173004000Y-84104000D01*
X174656000Y-84104000D01*
X174656000Y-84806000D01*
G37*
G36*
X180056000Y-84806000D02*
G01*
X178404000Y-84806000D01*
X178404000Y-84104000D01*
X180056000Y-84104000D01*
X180056000Y-84806000D01*
G37*
G36*
X190683580Y-82897081D02*
G01*
X190774480Y-82915162D01*
X190888647Y-82962452D01*
X190945732Y-82986097D01*
X191099850Y-83089075D01*
X191230925Y-83220150D01*
X191333903Y-83374268D01*
X191333903Y-83374269D01*
X191404838Y-83545520D01*
X191441000Y-83727320D01*
X191441000Y-83912680D01*
X191404838Y-84094480D01*
X191357548Y-84208647D01*
X191333903Y-84265732D01*
X191230925Y-84419850D01*
X191099850Y-84550925D01*
X190945732Y-84653903D01*
X190888647Y-84677548D01*
X190774480Y-84724838D01*
X190683580Y-84742919D01*
X190592682Y-84761000D01*
X190407318Y-84761000D01*
X190316420Y-84742919D01*
X190225520Y-84724838D01*
X190111353Y-84677548D01*
X190054268Y-84653903D01*
X189900150Y-84550925D01*
X189769075Y-84419850D01*
X189666097Y-84265732D01*
X189642452Y-84208647D01*
X189595162Y-84094480D01*
X189559000Y-83912680D01*
X189559000Y-83727320D01*
X189595162Y-83545520D01*
X189666097Y-83374269D01*
X189666097Y-83374268D01*
X189769075Y-83220150D01*
X189900150Y-83089075D01*
X190054268Y-82986097D01*
X190111353Y-82962452D01*
X190225520Y-82915162D01*
X190316420Y-82897081D01*
X190407318Y-82879000D01*
X190592682Y-82879000D01*
X190683580Y-82897081D01*
G37*
G36*
X168316000Y-84101000D02*
G01*
X166964000Y-84101000D01*
X166964000Y-82999000D01*
X168316000Y-82999000D01*
X168316000Y-84101000D01*
G37*
G36*
X170246000Y-83901000D02*
G01*
X168844000Y-83901000D01*
X168844000Y-83099000D01*
X170246000Y-83099000D01*
X170246000Y-83901000D01*
G37*
G36*
X172151000Y-83901000D02*
G01*
X170749000Y-83901000D01*
X170749000Y-83099000D01*
X172151000Y-83099000D01*
X172151000Y-83901000D01*
G37*
G36*
X180056000Y-83536000D02*
G01*
X178404000Y-83536000D01*
X178404000Y-82834000D01*
X180056000Y-82834000D01*
X180056000Y-83536000D01*
G37*
G36*
X174656000Y-83536000D02*
G01*
X173004000Y-83536000D01*
X173004000Y-82834000D01*
X174656000Y-82834000D01*
X174656000Y-83536000D01*
G37*
G36*
X184216000Y-83271000D02*
G01*
X182814000Y-83271000D01*
X182814000Y-82469000D01*
X184216000Y-82469000D01*
X184216000Y-83271000D01*
G37*
G36*
X182311000Y-83271000D02*
G01*
X180909000Y-83271000D01*
X180909000Y-82469000D01*
X182311000Y-82469000D01*
X182311000Y-83271000D01*
G37*
G36*
X180056000Y-82266000D02*
G01*
X178404000Y-82266000D01*
X178404000Y-81564000D01*
X180056000Y-81564000D01*
X180056000Y-82266000D01*
G37*
G36*
X174656000Y-82266000D02*
G01*
X173004000Y-82266000D01*
X173004000Y-81564000D01*
X174656000Y-81564000D01*
X174656000Y-82266000D01*
G37*
G36*
X168316000Y-82101000D02*
G01*
X166964000Y-82101000D01*
X166964000Y-80999000D01*
X168316000Y-80999000D01*
X168316000Y-82101000D01*
G37*
G36*
X172151000Y-82001000D02*
G01*
X170749000Y-82001000D01*
X170749000Y-81199000D01*
X172151000Y-81199000D01*
X172151000Y-82001000D01*
G37*
G36*
X170246000Y-82001000D02*
G01*
X168844000Y-82001000D01*
X168844000Y-81199000D01*
X170246000Y-81199000D01*
X170246000Y-82001000D01*
G37*
G36*
X181796000Y-81956000D02*
G01*
X180694000Y-81956000D01*
X180694000Y-80604000D01*
X181796000Y-80604000D01*
X181796000Y-81956000D01*
G37*
G36*
X183796000Y-81956000D02*
G01*
X182694000Y-81956000D01*
X182694000Y-80604000D01*
X183796000Y-80604000D01*
X183796000Y-81956000D01*
G37*
G36*
X138613580Y-77817081D02*
G01*
X138704480Y-77835162D01*
X138818647Y-77882452D01*
X138875732Y-77906097D01*
X139029850Y-78009075D01*
X139160925Y-78140150D01*
X139263903Y-78294268D01*
X139281563Y-78336903D01*
X139334838Y-78465520D01*
X139371000Y-78647320D01*
X139371000Y-78832680D01*
X139334838Y-79014480D01*
X139287548Y-79128647D01*
X139263903Y-79185732D01*
X139160925Y-79339850D01*
X139029850Y-79470925D01*
X138875732Y-79573903D01*
X138818647Y-79597548D01*
X138704480Y-79644838D01*
X138613580Y-79662919D01*
X138522682Y-79681000D01*
X138337318Y-79681000D01*
X138246420Y-79662919D01*
X138155520Y-79644838D01*
X138041353Y-79597548D01*
X137984268Y-79573903D01*
X137830150Y-79470925D01*
X137699075Y-79339850D01*
X137596097Y-79185732D01*
X137572452Y-79128647D01*
X137525162Y-79014480D01*
X137489000Y-78832680D01*
X137489000Y-78647320D01*
X137525162Y-78465520D01*
X137578437Y-78336903D01*
X137596097Y-78294268D01*
X137699075Y-78140150D01*
X137830150Y-78009075D01*
X137984268Y-77906097D01*
X138041353Y-77882452D01*
X138155520Y-77835162D01*
X138246420Y-77817081D01*
X138337318Y-77799000D01*
X138522682Y-77799000D01*
X138613580Y-77817081D01*
G37*
G36*
X157728228Y-77921703D02*
G01*
X157883100Y-77985853D01*
X158022481Y-78078985D01*
X158141015Y-78197519D01*
X158234147Y-78336900D01*
X158298297Y-78491772D01*
X158331000Y-78656184D01*
X158331000Y-78823816D01*
X158298297Y-78988228D01*
X158234147Y-79143100D01*
X158141015Y-79282481D01*
X158022481Y-79401015D01*
X157883100Y-79494147D01*
X157728228Y-79558297D01*
X157563816Y-79591000D01*
X157396184Y-79591000D01*
X157231772Y-79558297D01*
X157076900Y-79494147D01*
X156937519Y-79401015D01*
X156818985Y-79282481D01*
X156725853Y-79143100D01*
X156661703Y-78988228D01*
X156629000Y-78823816D01*
X156629000Y-78656184D01*
X156661703Y-78491772D01*
X156725853Y-78336900D01*
X156818985Y-78197519D01*
X156937519Y-78078985D01*
X157076900Y-77985853D01*
X157231772Y-77921703D01*
X157396184Y-77889000D01*
X157563816Y-77889000D01*
X157728228Y-77921703D01*
G37*
G36*
X183128228Y-77921703D02*
G01*
X183283100Y-77985853D01*
X183422481Y-78078985D01*
X183541015Y-78197519D01*
X183634147Y-78336900D01*
X183698297Y-78491772D01*
X183731000Y-78656184D01*
X183731000Y-78823816D01*
X183698297Y-78988228D01*
X183634147Y-79143100D01*
X183541015Y-79282481D01*
X183422481Y-79401015D01*
X183283100Y-79494147D01*
X183128228Y-79558297D01*
X182963816Y-79591000D01*
X182796184Y-79591000D01*
X182631772Y-79558297D01*
X182476900Y-79494147D01*
X182337519Y-79401015D01*
X182218985Y-79282481D01*
X182125853Y-79143100D01*
X182061703Y-78988228D01*
X182029000Y-78823816D01*
X182029000Y-78656184D01*
X182061703Y-78491772D01*
X182125853Y-78336900D01*
X182218985Y-78197519D01*
X182337519Y-78078985D01*
X182476900Y-77985853D01*
X182631772Y-77921703D01*
X182796184Y-77889000D01*
X182963816Y-77889000D01*
X183128228Y-77921703D01*
G37*
G36*
X155188228Y-77921703D02*
G01*
X155343100Y-77985853D01*
X155482481Y-78078985D01*
X155601015Y-78197519D01*
X155694147Y-78336900D01*
X155758297Y-78491772D01*
X155791000Y-78656184D01*
X155791000Y-78823816D01*
X155758297Y-78988228D01*
X155694147Y-79143100D01*
X155601015Y-79282481D01*
X155482481Y-79401015D01*
X155343100Y-79494147D01*
X155188228Y-79558297D01*
X155023816Y-79591000D01*
X154856184Y-79591000D01*
X154691772Y-79558297D01*
X154536900Y-79494147D01*
X154397519Y-79401015D01*
X154278985Y-79282481D01*
X154185853Y-79143100D01*
X154121703Y-78988228D01*
X154089000Y-78823816D01*
X154089000Y-78656184D01*
X154121703Y-78491772D01*
X154185853Y-78336900D01*
X154278985Y-78197519D01*
X154397519Y-78078985D01*
X154536900Y-77985853D01*
X154691772Y-77921703D01*
X154856184Y-77889000D01*
X155023816Y-77889000D01*
X155188228Y-77921703D01*
G37*
G36*
X162808228Y-77921703D02*
G01*
X162963100Y-77985853D01*
X163102481Y-78078985D01*
X163221015Y-78197519D01*
X163314147Y-78336900D01*
X163378297Y-78491772D01*
X163411000Y-78656184D01*
X163411000Y-78823816D01*
X163378297Y-78988228D01*
X163314147Y-79143100D01*
X163221015Y-79282481D01*
X163102481Y-79401015D01*
X162963100Y-79494147D01*
X162808228Y-79558297D01*
X162643816Y-79591000D01*
X162476184Y-79591000D01*
X162311772Y-79558297D01*
X162156900Y-79494147D01*
X162017519Y-79401015D01*
X161898985Y-79282481D01*
X161805853Y-79143100D01*
X161741703Y-78988228D01*
X161709000Y-78823816D01*
X161709000Y-78656184D01*
X161741703Y-78491772D01*
X161805853Y-78336900D01*
X161898985Y-78197519D01*
X162017519Y-78078985D01*
X162156900Y-77985853D01*
X162311772Y-77921703D01*
X162476184Y-77889000D01*
X162643816Y-77889000D01*
X162808228Y-77921703D01*
G37*
G36*
X165348228Y-77921703D02*
G01*
X165503100Y-77985853D01*
X165642481Y-78078985D01*
X165761015Y-78197519D01*
X165854147Y-78336900D01*
X165918297Y-78491772D01*
X165951000Y-78656184D01*
X165951000Y-78823816D01*
X165918297Y-78988228D01*
X165854147Y-79143100D01*
X165761015Y-79282481D01*
X165642481Y-79401015D01*
X165503100Y-79494147D01*
X165348228Y-79558297D01*
X165183816Y-79591000D01*
X165016184Y-79591000D01*
X164851772Y-79558297D01*
X164696900Y-79494147D01*
X164557519Y-79401015D01*
X164438985Y-79282481D01*
X164345853Y-79143100D01*
X164281703Y-78988228D01*
X164249000Y-78823816D01*
X164249000Y-78656184D01*
X164281703Y-78491772D01*
X164345853Y-78336900D01*
X164438985Y-78197519D01*
X164557519Y-78078985D01*
X164696900Y-77985853D01*
X164851772Y-77921703D01*
X165016184Y-77889000D01*
X165183816Y-77889000D01*
X165348228Y-77921703D01*
G37*
G36*
X167888228Y-77921703D02*
G01*
X168043100Y-77985853D01*
X168182481Y-78078985D01*
X168301015Y-78197519D01*
X168394147Y-78336900D01*
X168458297Y-78491772D01*
X168491000Y-78656184D01*
X168491000Y-78823816D01*
X168458297Y-78988228D01*
X168394147Y-79143100D01*
X168301015Y-79282481D01*
X168182481Y-79401015D01*
X168043100Y-79494147D01*
X167888228Y-79558297D01*
X167723816Y-79591000D01*
X167556184Y-79591000D01*
X167391772Y-79558297D01*
X167236900Y-79494147D01*
X167097519Y-79401015D01*
X166978985Y-79282481D01*
X166885853Y-79143100D01*
X166821703Y-78988228D01*
X166789000Y-78823816D01*
X166789000Y-78656184D01*
X166821703Y-78491772D01*
X166885853Y-78336900D01*
X166978985Y-78197519D01*
X167097519Y-78078985D01*
X167236900Y-77985853D01*
X167391772Y-77921703D01*
X167556184Y-77889000D01*
X167723816Y-77889000D01*
X167888228Y-77921703D01*
G37*
G36*
X170428228Y-77921703D02*
G01*
X170583100Y-77985853D01*
X170722481Y-78078985D01*
X170841015Y-78197519D01*
X170934147Y-78336900D01*
X170998297Y-78491772D01*
X171031000Y-78656184D01*
X171031000Y-78823816D01*
X170998297Y-78988228D01*
X170934147Y-79143100D01*
X170841015Y-79282481D01*
X170722481Y-79401015D01*
X170583100Y-79494147D01*
X170428228Y-79558297D01*
X170263816Y-79591000D01*
X170096184Y-79591000D01*
X169931772Y-79558297D01*
X169776900Y-79494147D01*
X169637519Y-79401015D01*
X169518985Y-79282481D01*
X169425853Y-79143100D01*
X169361703Y-78988228D01*
X169329000Y-78823816D01*
X169329000Y-78656184D01*
X169361703Y-78491772D01*
X169425853Y-78336900D01*
X169518985Y-78197519D01*
X169637519Y-78078985D01*
X169776900Y-77985853D01*
X169931772Y-77921703D01*
X170096184Y-77889000D01*
X170263816Y-77889000D01*
X170428228Y-77921703D01*
G37*
G36*
X175508228Y-77921703D02*
G01*
X175663100Y-77985853D01*
X175802481Y-78078985D01*
X175921015Y-78197519D01*
X176014147Y-78336900D01*
X176078297Y-78491772D01*
X176111000Y-78656184D01*
X176111000Y-78823816D01*
X176078297Y-78988228D01*
X176014147Y-79143100D01*
X175921015Y-79282481D01*
X175802481Y-79401015D01*
X175663100Y-79494147D01*
X175508228Y-79558297D01*
X175343816Y-79591000D01*
X175176184Y-79591000D01*
X175011772Y-79558297D01*
X174856900Y-79494147D01*
X174717519Y-79401015D01*
X174598985Y-79282481D01*
X174505853Y-79143100D01*
X174441703Y-78988228D01*
X174409000Y-78823816D01*
X174409000Y-78656184D01*
X174441703Y-78491772D01*
X174505853Y-78336900D01*
X174598985Y-78197519D01*
X174717519Y-78078985D01*
X174856900Y-77985853D01*
X175011772Y-77921703D01*
X175176184Y-77889000D01*
X175343816Y-77889000D01*
X175508228Y-77921703D01*
G37*
G36*
X178048228Y-77921703D02*
G01*
X178203100Y-77985853D01*
X178342481Y-78078985D01*
X178461015Y-78197519D01*
X178554147Y-78336900D01*
X178618297Y-78491772D01*
X178651000Y-78656184D01*
X178651000Y-78823816D01*
X178618297Y-78988228D01*
X178554147Y-79143100D01*
X178461015Y-79282481D01*
X178342481Y-79401015D01*
X178203100Y-79494147D01*
X178048228Y-79558297D01*
X177883816Y-79591000D01*
X177716184Y-79591000D01*
X177551772Y-79558297D01*
X177396900Y-79494147D01*
X177257519Y-79401015D01*
X177138985Y-79282481D01*
X177045853Y-79143100D01*
X176981703Y-78988228D01*
X176949000Y-78823816D01*
X176949000Y-78656184D01*
X176981703Y-78491772D01*
X177045853Y-78336900D01*
X177138985Y-78197519D01*
X177257519Y-78078985D01*
X177396900Y-77985853D01*
X177551772Y-77921703D01*
X177716184Y-77889000D01*
X177883816Y-77889000D01*
X178048228Y-77921703D01*
G37*
G36*
X180588228Y-77921703D02*
G01*
X180743100Y-77985853D01*
X180882481Y-78078985D01*
X181001015Y-78197519D01*
X181094147Y-78336900D01*
X181158297Y-78491772D01*
X181191000Y-78656184D01*
X181191000Y-78823816D01*
X181158297Y-78988228D01*
X181094147Y-79143100D01*
X181001015Y-79282481D01*
X180882481Y-79401015D01*
X180743100Y-79494147D01*
X180588228Y-79558297D01*
X180423816Y-79591000D01*
X180256184Y-79591000D01*
X180091772Y-79558297D01*
X179936900Y-79494147D01*
X179797519Y-79401015D01*
X179678985Y-79282481D01*
X179585853Y-79143100D01*
X179521703Y-78988228D01*
X179489000Y-78823816D01*
X179489000Y-78656184D01*
X179521703Y-78491772D01*
X179585853Y-78336900D01*
X179678985Y-78197519D01*
X179797519Y-78078985D01*
X179936900Y-77985853D01*
X180091772Y-77921703D01*
X180256184Y-77889000D01*
X180423816Y-77889000D01*
X180588228Y-77921703D01*
G37*
G36*
X188208228Y-77921703D02*
G01*
X188363100Y-77985853D01*
X188502481Y-78078985D01*
X188621015Y-78197519D01*
X188714147Y-78336900D01*
X188778297Y-78491772D01*
X188811000Y-78656184D01*
X188811000Y-78823816D01*
X188778297Y-78988228D01*
X188714147Y-79143100D01*
X188621015Y-79282481D01*
X188502481Y-79401015D01*
X188363100Y-79494147D01*
X188208228Y-79558297D01*
X188043816Y-79591000D01*
X187876184Y-79591000D01*
X187711772Y-79558297D01*
X187556900Y-79494147D01*
X187417519Y-79401015D01*
X187298985Y-79282481D01*
X187205853Y-79143100D01*
X187141703Y-78988228D01*
X187109000Y-78823816D01*
X187109000Y-78656184D01*
X187141703Y-78491772D01*
X187205853Y-78336900D01*
X187298985Y-78197519D01*
X187417519Y-78078985D01*
X187556900Y-77985853D01*
X187711772Y-77921703D01*
X187876184Y-77889000D01*
X188043816Y-77889000D01*
X188208228Y-77921703D01*
G37*
G36*
X153251000Y-79591000D02*
G01*
X151549000Y-79591000D01*
X151549000Y-77889000D01*
X153251000Y-77889000D01*
X153251000Y-79591000D01*
G37*
G36*
X185668228Y-77921703D02*
G01*
X185823100Y-77985853D01*
X185962481Y-78078985D01*
X186081015Y-78197519D01*
X186174147Y-78336900D01*
X186238297Y-78491772D01*
X186271000Y-78656184D01*
X186271000Y-78823816D01*
X186238297Y-78988228D01*
X186174147Y-79143100D01*
X186081015Y-79282481D01*
X185962481Y-79401015D01*
X185823100Y-79494147D01*
X185668228Y-79558297D01*
X185503816Y-79591000D01*
X185336184Y-79591000D01*
X185171772Y-79558297D01*
X185016900Y-79494147D01*
X184877519Y-79401015D01*
X184758985Y-79282481D01*
X184665853Y-79143100D01*
X184601703Y-78988228D01*
X184569000Y-78823816D01*
X184569000Y-78656184D01*
X184601703Y-78491772D01*
X184665853Y-78336900D01*
X184758985Y-78197519D01*
X184877519Y-78078985D01*
X185016900Y-77985853D01*
X185171772Y-77921703D01*
X185336184Y-77889000D01*
X185503816Y-77889000D01*
X185668228Y-77921703D01*
G37*
G36*
X160268228Y-77921703D02*
G01*
X160423100Y-77985853D01*
X160562481Y-78078985D01*
X160681015Y-78197519D01*
X160774147Y-78336900D01*
X160838297Y-78491772D01*
X160871000Y-78656184D01*
X160871000Y-78823816D01*
X160838297Y-78988228D01*
X160774147Y-79143100D01*
X160681015Y-79282481D01*
X160562481Y-79401015D01*
X160423100Y-79494147D01*
X160268228Y-79558297D01*
X160103816Y-79591000D01*
X159936184Y-79591000D01*
X159771772Y-79558297D01*
X159616900Y-79494147D01*
X159477519Y-79401015D01*
X159358985Y-79282481D01*
X159265853Y-79143100D01*
X159201703Y-78988228D01*
X159169000Y-78823816D01*
X159169000Y-78656184D01*
X159201703Y-78491772D01*
X159265853Y-78336900D01*
X159358985Y-78197519D01*
X159477519Y-78078985D01*
X159616900Y-77985853D01*
X159771772Y-77921703D01*
X159936184Y-77889000D01*
X160103816Y-77889000D01*
X160268228Y-77921703D01*
G37*
M02*
